<svg width="12" height="12" viewBox="0 0 12 12" fill="none" xmlns="http://www.w3.org/2000/svg">
<path d="M10.6667 6.66602H1.33333C0.6 6.66602 0 7.26602 0 7.99935V10.666C0 11.3993 0.6 11.9993 1.33333 11.9993H10.6667C11.4 11.9993 12 11.3993 12 10.666V7.99935C12 7.26602 11.4 6.66602 10.6667 6.66602Z" fill="#DDDFE4"/>
<path d="M10.6667 0H1.33333C0.6 0 0 0.6 0 1.33333V4C0 4.73333 0.6 5.33333 1.33333 5.33333H10.6667C11.4 5.33333 12 4.73333 12 4V1.33333C12 0.6 11.4 0 10.6667 0Z" fill="#DDDFE4"/>
</svg>
