<svg width="17" height="16" viewBox="0 0 17 16" fill="none" xmlns="http://www.w3.org/2000/svg">
<path fill-rule="evenodd" clip-rule="evenodd" d="M4.71908 5.5651L5.12108 10.3464C5.15041 10.7144 5.45108 10.9904 5.81841 10.9904H5.82108H13.0951H13.0964C13.4437 10.9904 13.7404 10.7318 13.7897 10.3884L14.4231 6.01577C14.4377 5.91177 14.4117 5.80777 14.3484 5.72377C14.2857 5.6391 14.1937 5.58444 14.0897 5.56977C13.9504 5.5751 8.16841 5.5671 4.71908 5.5651ZM5.81705 11.9903C4.93905 11.9903 4.19571 11.305 4.12438 10.4283L3.51371 3.16566L2.50905 2.99232C2.23638 2.94432 2.05438 2.68632 2.10105 2.41366C2.14905 2.14099 2.41238 1.96366 2.67905 2.00632L4.06571 2.24632C4.28905 2.28566 4.45905 2.47099 4.47838 2.69766L4.63505 4.56499C14.1524 4.56899 14.183 4.57366 14.229 4.57899C14.6004 4.63299 14.927 4.82699 15.1497 5.12566C15.3724 5.42366 15.4657 5.79099 15.4124 6.15899L14.7797 10.531C14.6604 11.363 13.9377 11.9903 13.0977 11.9903H13.0944H5.82238H5.81705Z" fill="#1CC0A0"/>
<path fill-rule="evenodd" clip-rule="evenodd" d="M12.0257 8.0293H10.1777C9.90107 8.0293 9.67773 7.8053 9.67773 7.5293C9.67773 7.2533 9.90107 7.0293 10.1777 7.0293H12.0257C12.3017 7.0293 12.5257 7.2533 12.5257 7.5293C12.5257 7.8053 12.3017 8.0293 12.0257 8.0293Z" fill="#1CC0A0"/>
<path fill-rule="evenodd" clip-rule="evenodd" d="M5.5313 13.8008C5.73197 13.8008 5.89397 13.9628 5.89397 14.1634C5.89397 14.3641 5.73197 14.5268 5.5313 14.5268C5.32997 14.5268 5.16797 14.3641 5.16797 14.1634C5.16797 13.9628 5.32997 13.8008 5.5313 13.8008Z" fill="#1CC0A0"/>
<mask id="mask0_5003_99125" style="mask-type:luminance" maskUnits="userSpaceOnUse" x="5" y="13" width="1" height="2">
<path fill-rule="evenodd" clip-rule="evenodd" d="M5.16602 14.1634C5.16602 14.3648 5.32802 14.5274 5.53002 14.5274C5.73068 14.5274 5.89268 14.3648 5.89268 14.1634C5.89268 13.9628 5.73068 13.8008 5.53002 13.8008C5.32802 13.8008 5.16602 13.9628 5.16602 14.1634Z" fill="white"/>
</mask>
<g mask="url(#mask0_5003_99125)">
<path fill-rule="evenodd" clip-rule="evenodd" d="M1.83398 17.8595H9.22665V10.4668H1.83398V17.8595Z" fill="#1CC0A0"/>
</g>
<path fill-rule="evenodd" clip-rule="evenodd" d="M5.53059 14.0266C5.45526 14.0266 5.39392 14.0879 5.39392 14.1633C5.39392 14.3146 5.66792 14.3146 5.66792 14.1633C5.66792 14.0879 5.60592 14.0266 5.53059 14.0266ZM5.53064 15.0268C5.05464 15.0268 4.66797 14.6394 4.66797 14.1634C4.66797 13.6874 5.05464 13.3008 5.53064 13.3008C6.00664 13.3008 6.39397 13.6874 6.39397 14.1634C6.39397 14.6394 6.00664 15.0268 5.53064 15.0268Z" fill="#1CC0A0"/>
<path fill-rule="evenodd" clip-rule="evenodd" d="M13.0508 13.8008C13.2515 13.8008 13.4142 13.9628 13.4142 14.1634C13.4142 14.3641 13.2515 14.5268 13.0508 14.5268C12.8495 14.5268 12.6875 14.3641 12.6875 14.1634C12.6875 13.9628 12.8495 13.8008 13.0508 13.8008Z" fill="#1CC0A0"/>
<mask id="mask1_5003_99125" style="mask-type:luminance" maskUnits="userSpaceOnUse" x="12" y="13" width="2" height="2">
<path fill-rule="evenodd" clip-rule="evenodd" d="M12.6875 14.1634C12.6875 14.3648 12.8495 14.5274 13.0508 14.5274C13.2508 14.5274 13.4142 14.3648 13.4142 14.1634C13.4142 13.9628 13.2508 13.8008 13.0508 13.8008C12.8495 13.8008 12.6875 13.9628 12.6875 14.1634Z" fill="white"/>
</mask>
<g mask="url(#mask1_5003_99125)">
<path fill-rule="evenodd" clip-rule="evenodd" d="M9.35352 17.8595H16.7468V10.4668H9.35352V17.8595Z" fill="#1CC0A0"/>
</g>
<path fill-rule="evenodd" clip-rule="evenodd" d="M13.0501 14.027C12.9754 14.027 12.9141 14.0883 12.9141 14.1637C12.9148 14.3163 13.1881 14.315 13.1874 14.1637C13.1874 14.0883 13.1254 14.027 13.0501 14.027ZM13.0502 15.0268C12.5742 15.0268 12.1875 14.6394 12.1875 14.1634C12.1875 13.6874 12.5742 13.3008 13.0502 13.3008C13.5268 13.3008 13.9142 13.6874 13.9142 14.1634C13.9142 14.6394 13.5268 15.0268 13.0502 15.0268Z" fill="#1CC0A0"/>
</svg>
