<svg width="23" height="16" viewBox="0 0 23 16" fill="none" xmlns="http://www.w3.org/2000/svg">
<path d="M0.144531 6.28516V12.5709C0.144531 13.4044 0.475653 14.2038 1.06505 14.7932C1.65445 15.3826 2.45385 15.7137 3.28739 15.7137H19.0017C19.8352 15.7137 20.6346 15.3826 21.224 14.7932C21.8134 14.2038 22.1445 13.4044 22.1445 12.5709V6.28516H0.144531Z" fill="currentColor"/>
<path d="M22.1445 3.92857V3.14286C22.1445 2.30932 21.8134 1.50992 21.224 0.920521C20.6346 0.331121 19.8352 0 19.0017 0H3.28739C2.45385 0 1.65445 0.331121 1.06505 0.920521C0.475653 1.50992 0.144531 2.30932 0.144531 3.14286V3.92857H22.1445Z" fill="currentColor"/>
</svg>
