<svg xmlns="http://www.w3.org/2000/svg" width="16" height="16" fill="none" viewBox="0 0 16 16">
  <path fill="#b49056" fill-rule="evenodd" d="M9.414 7.489h1.846c.28 0 .5-.232.5-.51a.5.5 0 0 0-.5-.51H9.414a.5.5 0 0 0-.5.51c0 .278.22.51.5.51Zm4.037-3.537c.407 0 .673.143.94.455.266.313.313.762.253 1.17l-.633 4.463c-.12.858-.84 1.49-1.686 1.49H5.058c-.886 0-1.619-.693-1.692-1.591l-.613-7.417-1.006-.177A.511.511 0 0 1 1.92 1.34l1.589.244a.51.51 0 0 1 .413.463l.127 1.524a.41.41 0 0 0 .406.382h8.996Zm-8.5 8.653c-.56 0-1.012.463-1.012 1.035 0 .564.453 1.027 1.012 1.027a1.02 1.02 0 0 0 1.006-1.027c0-.572-.453-1.035-1.006-1.035Zm7.494 0c-.56 0-1.012.463-1.012 1.035 0 .564.453 1.027 1.012 1.027a1.02 1.02 0 0 0 1.006-1.027c0-.572-.453-1.035-1.006-1.035Z" clip-rule="evenodd"/>
</svg>
