<svg width="23" height="17" viewBox="0 0 23 17" fill="none" xmlns="http://www.w3.org/2000/svg">
<path fill-rule="evenodd" clip-rule="evenodd" d="M16.6264 0.5C17.7788 0.5 18.7216 1.46 18.7216 2.63333V6.52667C18.7216 7.00667 18.5645 7.476 18.2607 7.86L14.615 12.5C14.2169 13.0013 13.6197 13.3 12.9807 13.3H9.29306C9.29306 15.0707 7.88925 16.5 6.1502 16.5C4.41116 16.5 3.00735 15.0707 3.00735 13.3H1.95973C1.38354 13.3 0.912109 12.82 0.912109 12.2333V10.1C0.912109 7.74267 2.78735 5.83333 5.10259 5.83333H8.24544C8.82163 5.83333 9.29306 6.31333 9.29306 6.9V11.1667H12.9807L16.6264 6.52667V2.63333H14.5312C13.955 2.63333 13.4835 2.15333 13.4835 1.56667C13.4835 0.98 13.955 0.5 14.5312 0.5H16.6264ZM5.10259 13.3C5.10259 13.8867 5.57401 14.3667 6.1502 14.3667C6.72639 14.3667 7.19782 13.8867 7.19782 13.3H5.10259ZM5.10259 1.56667C4.5264 1.56667 4.05497 2.04667 4.05497 2.63333C4.05497 3.22 4.5264 3.7 5.10259 3.7H8.24544C8.82163 3.7 9.29306 3.22 9.29306 2.63333C9.29306 2.04667 8.82163 1.56667 8.24544 1.56667H5.10259ZM19.7693 10.1C18.0302 10.1 16.6264 11.5293 16.6264 13.3C16.6264 15.0707 18.0302 16.5 19.7693 16.5C21.5083 16.5 22.9121 15.0707 22.9121 13.3C22.9121 11.5293 21.5083 10.1 19.7693 10.1ZM19.7693 14.3667C19.1931 14.3667 18.7216 13.8867 18.7216 13.3C18.7216 12.7133 19.1931 12.2333 19.7693 12.2333C20.3454 12.2333 20.8169 12.7133 20.8169 13.3C20.8169 13.8867 20.3454 14.3667 19.7693 14.3667ZM3.00732 11.1667V9.5C3.00732 8.4 3.81209 7.5 4.91209 7.5H7.41209V11.1667H3.00732Z" fill="#999CAD"/>
</svg>
