<svg width="17" height="16" viewBox="0 0 17 16" fill="none" xmlns="http://www.w3.org/2000/svg">
<path fill-rule="evenodd" clip-rule="evenodd" d="M11.5426 2.66602C12.3108 2.66602 12.9394 3.30602 12.9394 4.08824V6.68379C12.9394 7.00379 12.8347 7.31668 12.6321 7.57268L10.2016 10.666C9.93625 11.0002 9.53815 11.1993 9.11212 11.1993H6.65371C6.65371 12.3798 5.71783 13.3327 4.55847 13.3327C3.3991 13.3327 2.46323 12.3798 2.46323 11.1993H1.76482C1.38069 11.1993 1.06641 10.8793 1.06641 10.4882V9.06602C1.06641 7.49446 2.31656 6.22157 3.86006 6.22157H5.9553C6.33942 6.22157 6.65371 6.54157 6.65371 6.93268V9.77713H9.11212L11.5426 6.68379V4.08824H10.1458C9.76164 4.08824 9.44736 3.76824 9.44736 3.37713C9.44736 2.98602 9.76164 2.66602 10.1458 2.66602H11.5426ZM3.86006 11.1993C3.86006 11.5905 4.17434 11.9105 4.55847 11.9105C4.9426 11.9105 5.25688 11.5905 5.25688 11.1993H3.86006ZM3.86006 3.37713C3.47593 3.37713 3.16164 3.69713 3.16164 4.08824C3.16164 4.47935 3.47593 4.79935 3.86006 4.79935H5.9553C6.33942 4.79935 6.65371 4.47935 6.65371 4.08824C6.65371 3.69713 6.33942 3.37713 5.9553 3.37713H3.86006ZM13.6378 9.06602C12.4785 9.06602 11.5426 10.0189 11.5426 11.1993C11.5426 12.3798 12.4785 13.3327 13.6378 13.3327C14.7972 13.3327 15.7331 12.3798 15.7331 11.1993C15.7331 10.0189 14.7972 9.06602 13.6378 9.06602ZM13.6378 11.9105C13.2537 11.9105 12.9394 11.5905 12.9394 11.1993C12.9394 10.8082 13.2537 10.4882 13.6378 10.4882C14.022 10.4882 14.3362 10.8082 14.3362 11.1993C14.3362 11.5905 14.022 11.9105 13.6378 11.9105ZM2.46322 9.77713V8.66602C2.46322 7.93268 2.99972 7.33268 3.73306 7.33268H5.39972V9.77713H2.46322Z" fill="currentColor"/>
</svg>
