<svg xmlns="http://www.w3.org/2000/svg" width="25" height="25" fill="currentColor" viewBox="0 0 25 25">
  <path fill="currentColor" fill-rule="evenodd" d="M17.626 4.5c1.153 0 2.096.96 2.096 2.133v3.894c0 .48-.158.949-.461 1.333l-3.646 4.64c-.398.501-.995.8-1.634.8h-3.688c0 1.77-1.404 3.2-3.143 3.2-1.739 0-3.143-1.43-3.143-3.2H2.96a1.06 1.06 0 0 1-1.048-1.067V14.1c0-2.357 1.875-4.267 4.19-4.267h3.143c.577 0 1.048.48 1.048 1.067v4.267h3.688l3.645-4.64V6.633h-2.095a1.06 1.06 0 0 1-1.048-1.066A1.06 1.06 0 0 1 15.531 4.5h2.095ZM6.103 17.3a1.06 1.06 0 0 0 1.047 1.067A1.06 1.06 0 0 0 8.198 17.3H6.103Zm0-11.733a1.06 1.06 0 0 0-1.048 1.066A1.06 1.06 0 0 0 6.103 7.7h3.142a1.06 1.06 0 0 0 1.048-1.067 1.06 1.06 0 0 0-1.048-1.066H6.103ZM20.769 14.1c-1.739 0-3.143 1.43-3.143 3.2 0 1.77 1.404 3.2 3.143 3.2 1.74 0 3.143-1.43 3.143-3.2 0-1.77-1.404-3.2-3.143-3.2Zm0 4.267a1.06 1.06 0 0 1-1.047-1.067 1.06 1.06 0 0 1 1.047-1.067c.576 0 1.048.48 1.048 1.067a1.06 1.06 0 0 1-1.048 1.067Zm-16.762-3.2V13.5c0-1.1.805-2 1.905-2h2.5v3.667H4.007Z" clip-rule="evenodd"/>
</svg>
