<svg width="14" height="14" viewBox="0 0 14 14" fill="none" xmlns="http://www.w3.org/2000/svg">
<mask id="mask0_4854_18463" style="mask-type:luminance" maskUnits="userSpaceOnUse" x="0" y="0" width="14" height="14">
<path fill-rule="evenodd" clip-rule="evenodd" d="M0.333496 0.701172H13.3332V13.7016H0.333496V0.701172Z" fill="white"/>
</mask>
<g mask="url(#mask0_4854_18463)">
<path fill-rule="evenodd" clip-rule="evenodd" d="M4.84883 7.10051C4.86083 7.11117 4.87216 7.12117 4.8835 7.13317C5.60283 7.8705 5.9995 8.84717 5.9995 9.88384V12.5398L7.49016 11.7278C7.6075 11.6638 7.68016 11.5385 7.68016 11.4005V9.87584C7.68016 8.84317 8.07283 7.86984 8.7855 7.13651L12.0102 3.70651C12.2188 3.48451 12.3335 3.19317 12.3335 2.88584V2.26184C12.3335 1.95251 12.0895 1.70117 11.7908 1.70117H1.87683C1.5775 1.70117 1.3335 1.95251 1.3335 2.26184V2.88584C1.3335 3.19317 1.44816 3.48451 1.65683 3.70584L4.84883 7.10051ZM5.76416 13.7018C5.6295 13.7018 5.49616 13.6658 5.37483 13.5938C5.14016 13.4538 4.9995 13.2065 4.9995 12.9318V9.88384C4.9995 9.12717 4.7175 8.41451 4.2035 7.86851C4.18816 7.85584 4.17283 7.84184 4.1595 7.82717L0.928829 4.39184C0.544829 3.98384 0.333496 3.44851 0.333496 2.88584V2.26184C0.333496 1.40117 1.02616 0.701172 1.87683 0.701172H11.7908C12.6408 0.701172 13.3335 1.40117 13.3335 2.26184V2.88584C13.3335 3.44784 13.1222 3.98251 12.7395 4.39117L9.50816 7.82717C8.97283 8.37917 8.68016 9.10517 8.68016 9.87584V11.4005C8.68016 11.9045 8.4075 12.3658 7.96883 12.6058L6.12816 13.6085C6.0135 13.6705 5.88883 13.7018 5.76416 13.7018Z" fill="white"/>
</g>
</svg>
