<svg width="17" height="16" viewBox="0 0 17 16" fill="none" xmlns="http://www.w3.org/2000/svg">
<path fill-rule="evenodd" clip-rule="evenodd" d="M8.66667 5.66797C8.02333 5.66797 7.5 6.1913 7.5 6.8353C7.5 7.47864 8.02333 8.0013 8.66667 8.0013C9.31 8.0013 9.83333 7.47864 9.83333 6.8353C9.83333 6.1913 9.31 5.66797 8.66667 5.66797ZM8.66667 9.0013C7.472 9.0013 6.5 8.02997 6.5 6.8353C6.5 5.63997 7.472 4.66797 8.66667 4.66797C9.86133 4.66797 10.8333 5.63997 10.8333 6.8353C10.8333 8.02997 9.86133 9.0013 8.66667 9.0013Z" fill="currentColor"/>
<mask id="mask0_5003_98371" style="mask-type:luminance" maskUnits="userSpaceOnUse" x="3" y="1" width="12" height="14">
<path fill-rule="evenodd" clip-rule="evenodd" d="M3.16602 1.33398H14.1657V14.334H3.16602V1.33398Z" fill="white"/>
</mask>
<g mask="url(#mask0_5003_98371)">
<path fill-rule="evenodd" clip-rule="evenodd" d="M8.66602 2.33398C6.18468 2.33398 4.16602 4.37198 4.16602 6.87598C4.16602 10.062 7.91535 13.166 8.66602 13.3313C9.41668 13.1653 13.166 10.0613 13.166 6.87598C13.166 4.37198 11.1473 2.33398 8.66602 2.33398ZM8.66602 14.334C7.47002 14.334 3.16602 10.6327 3.16602 6.87598C3.16602 3.81998 5.63335 1.33398 8.66602 1.33398C11.6987 1.33398 14.166 3.81998 14.166 6.87598C14.166 10.6327 9.86202 14.334 8.66602 14.334Z" fill="currentColor"/>
</g>
</svg>
