<svg width="12" height="14" viewBox="0 0 12 14" fill="none" xmlns="http://www.w3.org/2000/svg">
<path fill-rule="evenodd" clip-rule="evenodd" d="M6.16716 4.66797C5.52382 4.66797 5.00049 5.1913 5.00049 5.8353C5.00049 6.47864 5.52382 7.0013 6.16716 7.0013C6.81049 7.0013 7.33382 6.47864 7.33382 5.8353C7.33382 5.1913 6.81049 4.66797 6.16716 4.66797ZM6.16716 8.0013C4.97249 8.0013 4.00049 7.02997 4.00049 5.8353C4.00049 4.63997 4.97249 3.66797 6.16716 3.66797C7.36182 3.66797 8.33382 4.63997 8.33382 5.8353C8.33382 7.02997 7.36182 8.0013 6.16716 8.0013Z" fill="white"/>
<mask id="mask0_4840_16097" style="mask-type:luminance" maskUnits="userSpaceOnUse" x="0" y="0" width="12" height="14">
<path fill-rule="evenodd" clip-rule="evenodd" d="M0.666748 0.333984H11.6664V13.334H0.666748V0.333984Z" fill="white"/>
</mask>
<g mask="url(#mask0_4840_16097)">
<path fill-rule="evenodd" clip-rule="evenodd" d="M6.1665 1.33398C3.68517 1.33398 1.6665 3.37198 1.6665 5.87598C1.6665 9.06198 5.41584 12.166 6.1665 12.3313C6.91717 12.1653 10.6665 9.06132 10.6665 5.87598C10.6665 3.37198 8.64784 1.33398 6.1665 1.33398ZM6.1665 13.334C4.9705 13.334 0.666504 9.63265 0.666504 5.87598C0.666504 2.81998 3.13384 0.333984 6.1665 0.333984C9.19917 0.333984 11.6665 2.81998 11.6665 5.87598C11.6665 9.63265 7.3625 13.334 6.1665 13.334Z" fill="white"/>
</g>
</svg>
