<svg width="25" height="24" viewBox="0 0 25 24" fill="none" xmlns="http://www.w3.org/2000/svg">
<path fill-rule="evenodd" clip-rule="evenodd" d="M12.7778 21.9993H12.768C12.3229 21.9979 11.9059 21.8235 11.5936 21.5084C11.2806 21.1936 11.1095 20.7755 11.1113 20.3316C11.1113 19.4138 11.8588 18.666 12.7778 18.666C13.6972 18.666 14.4447 19.4138 14.4447 20.3327C14.4447 21.2516 13.6972 21.9993 12.7778 21.9993Z" fill="currentColor"/>
<path fill-rule="evenodd" clip-rule="evenodd" d="M12.5456 12.1533H12.5756C15.3756 12.1533 17.6523 9.87556 17.6523 7.07667C17.6523 4.27778 15.3756 2 12.5756 2C9.77671 2 7.50004 4.27778 7.50004 7.07333C7.49449 8.42556 8.0156 9.69889 8.96893 10.6578C9.92004 11.6178 11.19 12.1489 12.5456 12.1533ZM12.5756 3.66667C10.6956 3.66667 9.16671 5.19667 9.16671 7.07667C9.16338 7.98778 9.51227 8.84 10.1512 9.48333C10.79 10.1267 11.6689 10.4833 12.5756 10.4867C14.4556 10.4867 15.9856 8.95778 15.9856 7.07667C15.9856 5.19667 14.4556 3.66667 12.5756 3.66667Z" fill="currentColor"/>
<path fill-rule="evenodd" clip-rule="evenodd" d="M13.6111 11.7222L13.6111 16.2122C13.6111 16.6722 13.2378 17.0456 12.7778 17.0456C12.3178 17.0456 11.9444 16.6722 11.9444 16.2122L11.9444 11.7222C11.9444 11.2622 12.3178 10.8889 12.7778 10.8889C13.2378 10.8889 13.6111 11.2622 13.6111 11.7222Z" fill="currentColor"/>
</svg>
