<svg width="17" height="16" viewBox="0 0 17 16" fill="none" xmlns="http://www.w3.org/2000/svg">
<mask id="mask0_4791_59451" style="mask-type:luminance" maskUnits="userSpaceOnUse" x="1" y="1" width="14" height="14">
<path fill-rule="evenodd" clip-rule="evenodd" d="M1.98926 1.33398H14.9738V14.3187H1.98926V1.33398Z" fill="white"/>
</mask>
<g mask="url(#mask0_4791_59451)">
<path fill-rule="evenodd" clip-rule="evenodd" d="M8.48192 2.33398C5.45326 2.33398 2.98926 4.79732 2.98926 7.82598C2.98926 10.8547 5.45326 13.3187 8.48192 13.3187C11.5099 13.3187 13.9739 10.8547 13.9739 7.82598C13.9739 4.79732 11.5099 2.33398 8.48192 2.33398ZM8.48193 14.3187C4.90192 14.3187 1.98926 11.406 1.98926 7.82598C1.98926 4.24598 4.90192 1.33398 8.48193 1.33398C12.0619 1.33398 14.9739 4.24598 14.9739 7.82598C14.9739 11.406 12.0619 14.3187 8.48193 14.3187Z" fill="#999CAD"/>
</g>
<mask id="mask1_4791_59451" style="mask-type:luminance" maskUnits="userSpaceOnUse" x="12" y="11" width="4" height="5">
<path fill-rule="evenodd" clip-rule="evenodd" d="M12.1492 11.8047H15.4985V15.1479H12.1492V11.8047Z" fill="white"/>
</mask>
<g mask="url(#mask1_4791_59451)">
<path fill-rule="evenodd" clip-rule="evenodd" d="M14.9987 15.1479C14.8713 15.1479 14.7433 15.0992 14.6453 15.0019L12.296 12.6592C12.1007 12.4639 12.1 12.1472 12.2953 11.9519C12.49 11.7552 12.8067 11.7565 13.0027 11.9505L15.352 14.2939C15.5473 14.4892 15.548 14.8052 15.3527 15.0005C15.2553 15.0992 15.1267 15.1479 14.9987 15.1479Z" fill="#999CAD"/>
</g>
</svg>
