<svg width="14" height="12" viewBox="0 0 14 12" fill="none" xmlns="http://www.w3.org/2000/svg">
<path d="M11.2288 7.40536C11.0561 7.55271 10.9768 7.7658 11.0161 7.97477L11.6088 10.8629C11.6588 11.1077 11.5415 11.3554 11.3088 11.4969C11.0808 11.6436 10.7775 11.6613 10.5288 11.5439L7.57613 10.1878C7.47346 10.1397 7.35946 10.1139 7.24279 10.1109H7.06213C6.99946 10.1192 6.93813 10.1368 6.88213 10.1638L3.92879 11.5262C3.78279 11.5908 3.61746 11.6137 3.45546 11.5908C3.06079 11.5251 2.79746 11.194 2.86213 10.8447L3.45546 7.95658C3.49479 7.74584 3.41546 7.53157 3.24279 7.38188L0.835461 5.32732C0.634128 5.15532 0.564128 4.89703 0.656128 4.66399C0.745461 4.43153 0.973461 4.26188 1.24879 4.22372L4.56213 3.80048C4.81413 3.77759 5.03546 3.64257 5.1488 3.44299L6.60879 0.807268C6.64346 0.748566 6.68813 0.69456 6.74213 0.648773L6.80213 0.607682C6.83346 0.577157 6.86946 0.551915 6.90946 0.531369L6.98213 0.507888L7.09546 0.466797H7.37613C7.62679 0.489691 7.84746 0.62177 7.96279 0.819008L9.44213 3.44299C9.54879 3.63494 9.75613 3.76819 9.99546 3.80048L13.3088 4.22372C13.5888 4.25894 13.8228 4.42918 13.9155 4.66399C14.0028 4.89938 13.9275 5.15767 13.7221 5.32732L11.2288 7.40536Z" fill="url(#paint0_linear_4878_9029)"/>
<defs>
<linearGradient id="paint0_linear_4878_9029" x1="1.84904" y1="0.945059" x2="9.01683" y2="14.5923" gradientUnits="userSpaceOnUse">
<stop stop-color="#FFB800"/>
</linearGradient>
</defs>
</svg>
