<svg width="21" height="21" viewBox="0 0 21 21" fill="none" xmlns="http://www.w3.org/2000/svg">
<path fill-rule="evenodd" clip-rule="evenodd" d="M14.4257 20.0003H6.0779C3.01154 20.0003 0.659139 18.8927 1.32733 14.4351L2.10536 8.39387C2.51726 6.16962 3.93603 5.31836 5.18088 5.31836H15.3594C16.6225 5.31836 17.9589 6.23369 18.4349 8.39387L19.2129 14.4351C19.7804 18.3893 17.4921 20.0003 14.4257 20.0003Z" stroke="#999CAD" stroke-width="1.5" stroke-linecap="round" stroke-linejoin="round"/>
<path d="M14.5631 5.09775C14.5631 2.71168 12.6288 0.777383 10.2427 0.777383V0.777383C9.09372 0.772514 7.99011 1.22554 7.17592 2.0363C6.36173 2.84705 5.90404 3.94874 5.90405 5.09775H5.90405" stroke="#999CAD" stroke-width="1.5" stroke-linecap="round" stroke-linejoin="round"/>
<path d="M13.2083 9.60024H13.1626" stroke="#999CAD" stroke-width="1.5" stroke-linecap="round" stroke-linejoin="round"/>
<path d="M7.37777 9.60024H7.332" stroke="#999CAD" stroke-width="1.5" stroke-linecap="round" stroke-linejoin="round"/>
</svg>
