<svg width="21" height="21" viewBox="0 0 21 21" fill="none" xmlns="http://www.w3.org/2000/svg">
<path fill-rule="evenodd" clip-rule="evenodd" d="M14.426 20.0003H6.07815C3.01179 20.0003 0.659383 18.8927 1.32758 14.4351L2.10561 8.39387C2.51751 6.16962 3.93627 5.31836 5.18112 5.31836H15.3596C16.6228 5.31836 17.9592 6.23369 18.4351 8.39387L19.2132 14.4351C19.7807 18.3893 17.4923 20.0003 14.426 20.0003Z" stroke="white" stroke-width="1.5" stroke-linecap="round" stroke-linejoin="round"/>
<path d="M14.5633 5.09775C14.5633 2.71168 12.629 0.777383 10.243 0.777383V0.777383C9.09397 0.772514 7.99036 1.22554 7.17617 2.0363C6.36198 2.84705 5.90429 3.94874 5.9043 5.09775H5.9043" stroke="white" stroke-width="1.5" stroke-linecap="round" stroke-linejoin="round"/>
<path d="M13.2086 9.60024H13.1628" stroke="white" stroke-width="1.5" stroke-linecap="round" stroke-linejoin="round"/>
<path d="M7.37801 9.60024H7.33224" stroke="white" stroke-width="1.5" stroke-linecap="round" stroke-linejoin="round"/>
</svg>
