<svg width="14" height="14" viewBox="0 0 14 14" fill="none" xmlns="http://www.w3.org/2000/svg">
<path fill-rule="evenodd" clip-rule="evenodd" d="M6.94987 1.33398C3.8252 1.33398 1.2832 3.87598 1.2832 7.00065C1.2832 10.1253 3.8252 12.6673 6.94987 12.6673C10.0745 12.6673 12.6165 10.1253 12.6165 7.00065C12.6165 3.87598 10.0745 1.33398 6.94987 1.33398ZM6.94987 13.6673C3.27387 13.6673 0.283203 10.6767 0.283203 7.00065C0.283203 3.32465 3.27387 0.333984 6.94987 0.333984C10.6259 0.333984 13.6165 3.32465 13.6165 7.00065C13.6165 10.6767 10.6259 13.6673 6.94987 13.6673Z" fill="currentColor"/>
<path fill-rule="evenodd" clip-rule="evenodd" d="M9.23721 9.4618C9.14988 9.4618 9.06188 9.43914 8.98121 9.3918L6.46788 7.89247C6.31721 7.8018 6.22388 7.63847 6.22388 7.46247V4.23047C6.22388 3.95447 6.44788 3.73047 6.72388 3.73047C7.00054 3.73047 7.22388 3.95447 7.22388 4.23047V7.17847L9.49388 8.5318C9.73054 8.6738 9.80854 8.98047 9.66721 9.2178C9.57321 9.37447 9.40721 9.4618 9.23721 9.4618Z" fill="currentColor"/>
</svg>
