<svg width="49" height="34" viewBox="0 0 49 34" fill="none" xmlns="http://www.w3.org/2000/svg">
<path d="M45.1033 33.3706C42.8586 33.3706 41.5272 32.2219 41.4253 30.5673H43.5717C43.5717 31.1188 43.8773 31.853 45.2052 31.8987C46.1256 31.8987 46.6349 31.3472 46.6349 30.9327C46.5331 30.2898 45.7145 30.2441 44.8996 30.1036C43.9792 29.9701 43.2661 29.7839 42.7532 29.5556C42.0401 29.1867 41.629 28.4034 41.629 27.5778C41.629 26.1059 42.8586 24.9572 45.0014 24.9572C47.0459 24.9572 48.3738 26.0146 48.4722 27.6235H46.4312C46.4312 27.2125 46.3293 26.5204 45.1033 26.5204C44.2848 26.5204 43.7754 26.6574 43.6736 27.2546C43.6736 28.0837 45.4089 28.038 46.7368 28.3577C47.9628 28.6809 48.7813 29.4607 48.7813 30.5673C48.7813 32.5907 47.1478 33.3706 45.1033 33.3706Z" fill="black"/>
<path d="M5.99109 19.7952L13.038 15.7027L16.8179 22.1875H7.31897" fill="black"/>
<path fill-rule="evenodd" clip-rule="evenodd" d="M19.7784 24.9414V33.1265H21.8405V24.9414H19.7784Z" fill="black"/>
<path d="M2.72037 29.1552C2.72037 30.441 3.8445 31.4983 5.06699 31.4983C6.39838 31.4983 7.41712 30.441 7.41712 29.1552C7.41712 27.9152 6.39838 26.8121 5.06699 26.8121C3.8445 26.8121 2.72037 27.9152 2.72037 29.1552ZM4.96512 33.3848C2.72037 33.3848 0.78125 31.4983 0.78125 29.1552C0.78125 26.8121 2.72037 24.9714 4.96512 24.9714C5.8855 24.9714 6.704 25.2032 7.41712 25.7056V25.0627H9.46163V33.1986H7.41712V32.6927C6.80588 33.1529 5.8855 33.3848 4.96512 33.3848Z" fill="black"/>
<path d="M32.2401 22.1855L22.4357 5.08487L29.4825 0.946701L41.7389 22.1855" fill="black"/>
<path d="M12.1172 29.1552C12.1172 30.441 13.1395 31.4983 14.4674 31.4983C15.6898 31.4983 16.8175 30.441 16.8175 29.1552C16.8175 27.9152 15.6898 26.8121 14.4674 26.8121C13.1395 26.8121 12.1172 27.9152 12.1172 29.1552ZM14.3655 33.3848C12.0153 33.3848 10.1781 31.4983 10.1781 29.1552C10.1781 26.8121 12.0153 24.9714 14.3655 24.9714C15.2823 24.9714 16.1009 25.2032 16.8175 25.7056V22.2594H18.8585V33.1986H16.8175V32.6927C16.1009 33.1529 15.2823 33.3848 14.3655 33.3848Z" fill="black"/>
<path d="M14.2649 12.4859L21.4136 8.44259L29.279 22.1851H21.8211V24.2085H19.7801V22.1851" fill="black"/>
<path d="M47.4567 24.2725C46.9438 24.2725 46.4344 23.8123 46.4344 23.2607C46.4344 22.7092 46.9438 22.249 47.4567 22.249C48.0679 22.249 48.479 22.7092 48.479 23.2607C48.479 23.8123 48.0679 24.2725 47.4567 24.2725ZM47.4567 22.3895C46.9438 22.3895 46.6382 22.8006 46.6382 23.2607C46.6382 23.7209 46.9438 24.1355 47.4567 24.1355C47.9661 24.1355 48.2717 23.7209 48.2717 23.2607C48.2717 22.8006 47.9661 22.3895 47.4567 22.3895Z" fill="black"/>
<path d="M47.6675 23.8159L47.4638 23.3557H47.26V23.8159H47.1055V22.7129H47.5657C47.6675 22.7129 47.8713 22.8534 47.8713 23.0361C47.8713 23.2187 47.7694 23.3101 47.6675 23.3557L47.8713 23.8159H47.6675ZM47.4638 22.8534H47.26V23.2187H47.4638C47.6675 23.2187 47.6675 23.1731 47.6675 23.0361C47.6675 22.9412 47.6675 22.8534 47.4638 22.8534Z" fill="black"/>
<path d="M33.9674 29.1557C33.9674 30.4414 34.9897 31.4988 36.3176 31.4988C37.5436 31.4988 38.6642 30.4414 38.6642 29.1557C38.6642 27.9157 37.5436 26.8126 36.3176 26.8126C34.9897 26.8126 33.9674 27.9157 33.9674 29.1557ZM36.2122 33.3853C33.8656 33.3853 32.0283 31.4988 32.0283 29.1557C32.0283 26.8126 33.8656 24.9719 36.2122 24.9719C37.1326 24.9719 37.9511 25.2037 38.6642 25.706V25.0632H40.6068V33.1991H38.6642V32.6932C37.9511 33.1534 37.1326 33.3853 36.2122 33.3853Z" fill="black"/>
<path d="M24.5774 29.1557C24.5774 30.4414 25.7016 31.4988 26.9276 31.4988C28.2554 31.4988 29.2777 30.4414 29.2777 29.1557C29.2777 27.9157 28.2554 26.8126 26.9276 26.8126C25.7016 26.8126 24.5774 27.9157 24.5774 29.1557ZM29.2777 22.2599H31.3187V33.1991H29.2777V32.6932C28.6629 33.1534 27.8444 33.3853 26.9276 33.3853C24.5774 33.3853 22.6383 31.4988 22.6383 29.1557C22.6383 26.8126 24.5774 24.9719 26.9276 24.9719C27.8444 24.9719 28.6629 25.2037 29.2777 25.706V22.2599Z" fill="black"/>
</svg>
