<svg width="23" height="24" viewBox="0 0 23 24" fill="none" xmlns="http://www.w3.org/2000/svg">
<path d="M11.5944 23.3986C11.2508 23.1696 10.9072 22.9692 10.5923 22.7115C10.0483 22.3107 9.53296 21.8812 8.98898 21.4804C8.07281 20.7646 7.01348 20.2493 5.89689 19.9057C4.72304 19.5622 3.60646 19.1613 2.48987 18.646C2.03178 18.4456 1.65959 18.102 1.34465 17.7012C1.02972 17.2717 0.829304 16.7564 0.800673 16.2124C0.714782 15.2676 0.915195 14.3228 1.37328 13.4925C1.71685 12.8626 2.26083 12.3759 2.8907 12.061C3.57783 11.7174 4.32222 11.4597 5.09524 11.3166C6.4695 11.0016 7.81513 10.5436 9.07487 9.94232C9.44707 9.74191 9.81927 9.5415 10.2201 9.36971C11.0217 8.96889 11.9665 8.96889 12.7968 9.31245C13.2549 9.48424 13.6557 9.74191 14.0279 10.0568C14.5433 10.5436 14.8582 11.1734 14.9155 11.8606C15.1445 13.3207 15.5167 14.7236 16.0321 16.0979C16.347 16.9282 16.6906 17.7584 16.9769 18.6173C17.2059 19.2472 17.2918 19.9057 17.2059 20.5642C17.0628 21.4518 16.6619 22.2534 16.0034 22.8833C15.4022 23.5132 14.6006 23.914 13.7416 23.9999C13.3981 23.9999 13.0831 23.9712 12.7396 23.914C12.6537 23.914 12.5392 23.8854 12.4533 23.8567L11.5944 23.3986Z" fill="#E4193E"/>
<path d="M15.1733 0.293917C15.3737 0.49433 15.5455 0.694743 15.6887 0.923786C16.0322 1.46776 16.1468 2.12627 16.0609 2.75614C15.9463 3.84409 15.4596 4.87479 14.658 5.61918C14.1713 6.13453 13.4841 6.44946 12.7684 6.47809C12.024 6.47809 11.3368 6.04864 11.0505 5.36151C10.707 4.53122 10.6783 3.61505 10.9933 2.78477C11.2796 1.89722 11.8236 1.09557 12.5966 0.551591C13.1692 0.064873 13.9422 -0.10691 14.658 0.064873C14.6866 0.064873 14.7152 0.064873 14.7152 0.064873L15.1733 0.293917Z" fill="#E4193E"/>
<path d="M8.84574 6.82137C8.47354 7.65165 7.78641 8.33878 6.9275 8.68235C5.8968 9.14043 4.69432 8.68235 4.23623 7.65165C4.17897 7.53713 4.15034 7.45124 4.12171 7.33672C3.83541 6.39191 3.9213 5.38985 4.32213 4.5023C4.60843 3.78654 5.12378 3.15667 5.75365 2.69858C6.24037 2.32639 6.84161 2.1546 7.44284 2.2405C8.15861 2.32639 8.78848 2.8131 9.04615 3.50024C9.50424 4.53093 9.36108 5.56163 8.96026 6.59232C8.93163 6.64959 8.903 6.73548 8.84574 6.82137Z" fill="#E4193E"/>
<path d="M16.4045 5.56244C16.9199 4.589 17.7501 3.84461 18.7808 3.47242C19.3535 3.24337 19.9833 3.24337 20.5559 3.44379C20.9568 3.58694 21.2717 3.87324 21.4148 4.27407C21.9875 5.67696 21.6439 7.28027 20.5559 8.31096C19.9833 8.9122 19.2389 9.31303 18.4086 9.45618C17.2921 9.68522 16.2041 8.94083 15.9751 7.82424C15.9464 7.65246 15.9178 7.45205 15.9464 7.28027C15.9464 6.67903 16.1182 6.07779 16.4045 5.56244Z" fill="#E4193E"/>
<path d="M17.3207 12.863C17.836 11.8896 18.3514 11.2311 19.153 10.8016C19.697 10.5153 20.3269 10.458 20.9281 10.6298C21.2144 10.7157 21.4721 10.8875 21.6439 11.1452C22.4169 12.0041 22.6459 13.1779 22.3024 14.2659C22.102 15.0103 21.7011 15.6974 21.1285 16.2414C20.2696 17.0431 19.1244 17.1003 18.151 16.4991C17.6642 16.2128 17.2921 15.7833 17.0916 15.2393C16.9485 14.8099 16.8912 14.3518 17.0057 13.9223C17.0916 13.5215 17.2634 13.092 17.3207 12.863Z" fill="#E4193E"/>
</svg>
