<svg width="22" height="25" viewBox="0 0 22 25" fill="none" xmlns="http://www.w3.org/2000/svg">
<path d="M11.0148 24.2767C10.6712 24.0476 10.3276 23.8472 10.0127 23.5896C9.46872 23.1887 8.95337 22.7593 8.40939 22.3584C7.49322 21.6427 6.43389 21.1273 5.3173 20.7838C4.14345 20.4402 3.02687 20.0394 1.91028 19.524C1.45219 19.3236 1.08 18.9801 0.765062 18.5792C0.450127 18.1498 0.249714 17.6344 0.221083 17.0904C0.135192 16.1456 0.335605 15.2008 0.793692 14.3706C1.13726 13.7407 1.68124 13.254 2.31111 12.939C2.99824 12.5955 3.74263 12.3378 4.51565 12.1946C5.88991 11.8797 7.23554 11.4216 8.49528 10.8204C8.86748 10.62 9.23968 10.4195 9.6405 10.2478C10.4422 9.84694 11.387 9.84694 12.2172 10.1905C12.6753 10.3623 13.0762 10.62 13.4484 10.9349C13.9637 11.4216 14.2786 12.0515 14.3359 12.7386C14.5649 14.1988 14.9371 15.6017 15.4525 16.9759C15.7674 17.8062 16.111 18.6365 16.3973 19.4954C16.6263 20.1253 16.7122 20.7838 16.6263 21.4423C16.4832 22.3298 16.0824 23.1315 15.4239 23.7613C14.8226 24.3912 14.021 24.792 13.162 24.8779C12.8185 24.8779 12.5035 24.8493 12.16 24.792C12.0741 24.792 11.9596 24.7634 11.8737 24.7348L11.0148 24.2767Z" fill="white"/>
<path d="M14.5936 1.17185C14.794 1.37226 14.9658 1.57267 15.1089 1.80172C15.4525 2.34569 15.567 3.00419 15.4811 3.63406C15.3666 4.72202 14.8799 5.75272 14.0782 6.49711C13.5915 7.01246 12.9044 7.32739 12.1886 7.35602C11.4442 7.35602 10.7571 6.92657 10.4708 6.23944C10.1272 5.40915 10.0986 4.49298 10.4135 3.6627C10.6998 2.77515 11.2438 1.9735 12.0168 1.42952C12.5894 0.942803 13.3624 0.77102 14.0782 0.942803C14.1068 0.942803 14.1355 0.942803 14.1355 0.942803L14.5936 1.17185Z" fill="white"/>
<path d="M8.26627 7.69966C7.89407 8.52995 7.20694 9.21708 6.34803 9.56064C5.31733 10.0187 4.11485 9.56064 3.65677 8.52995C3.59951 8.41542 3.57088 8.32953 3.54224 8.21501C3.25594 7.27021 3.34183 6.26814 3.74266 5.3806C4.02896 4.66484 4.54431 4.03497 5.17418 3.57688C5.6609 3.20468 6.26214 3.0329 6.86338 3.11879C7.57914 3.20468 8.20901 3.6914 8.46668 4.37853C8.92477 5.40923 8.78162 6.43992 8.38079 7.47062C8.35216 7.52788 8.32353 7.61377 8.26627 7.69966Z" fill="white"/>
<path d="M15.8247 6.43988C16.34 5.46644 17.1703 4.72205 18.201 4.34986C18.7736 4.12081 19.4035 4.12081 19.9761 4.32123C20.3769 4.46438 20.6919 4.75068 20.835 5.15151C21.4076 6.5544 21.0641 8.15771 19.9761 9.1884C19.4035 9.78964 18.6591 10.1905 17.8288 10.3336C16.7122 10.5627 15.6243 9.81827 15.3952 8.70169C15.3666 8.5299 15.338 8.32949 15.3666 8.15771C15.3666 7.55647 15.5384 6.95523 15.8247 6.43988Z" fill="white"/>
<path d="M16.7408 13.7406C17.2562 12.7671 17.7715 12.1086 18.5732 11.6792C19.1172 11.3929 19.747 11.3356 20.3483 11.5074C20.6346 11.5933 20.8923 11.7651 21.064 12.0227C21.8371 12.8817 22.0661 14.0555 21.7225 15.1435C21.5221 15.8879 21.1213 16.575 20.5487 17.119C19.6898 17.9206 18.5446 17.9779 17.5711 17.3766C17.0844 17.0903 16.7122 16.6609 16.5118 16.1169C16.3687 15.6874 16.3114 15.2294 16.4259 14.7999C16.5118 14.3991 16.6836 13.9696 16.7408 13.7406Z" fill="white"/>
</svg>
