<svg width="72" height="123" viewBox="0 0 72 123" fill="none" xmlns="http://www.w3.org/2000/svg">
<g clip-path="url(#clip0_3803_42698)">
<path fill-rule="evenodd" clip-rule="evenodd" d="M14.2499 0.0595703H57.7599C61.4899 0.0595703 64.9099 1.58957 67.3499 4.02957C69.8299 6.50957 71.3199 9.88957 71.3199 13.6196V109.38C71.3199 113.11 69.7899 116.53 67.3499 118.97C64.8699 121.45 61.4899 122.94 57.7599 122.94H14.2499C10.5199 122.94 7.09994 121.41 4.65994 118.97C2.17994 116.49 0.689941 113.12 0.689941 109.38V13.6196C0.689941 9.88957 2.21994 6.46957 4.65994 4.02957C7.13994 1.54957 10.5099 0.0595703 14.2499 0.0595703ZM38.3099 37.4396L34.7299 55.6496L31.0999 50.1796C23.2799 53.3196 18.8899 58.4996 18.2299 66.4696C11.7999 55.2396 15.7099 45.1596 23.8499 39.2596L20.1399 33.6796L38.3099 37.4396ZM33.6899 80.2196L37.2699 62.0096L40.8999 67.4796C48.7199 64.3396 53.1099 59.1596 53.7699 51.1896C60.1999 62.4296 56.2899 72.4996 48.1499 78.3996L51.8599 83.9796L33.6899 80.2196ZM35.9799 106.28C39.0499 106.28 41.5599 108.76 41.5599 111.86C41.5599 114.93 39.0799 117.44 35.9799 117.44C32.9099 117.44 30.3999 114.96 30.3999 111.86C30.3999 108.79 32.8799 106.28 35.9799 106.28ZM4.53994 103.26H67.4199V14.9296H4.53994V103.26Z" fill="#121A4B"/>
</g>
<defs>
<clipPath id="clip0_3803_42698">
<rect width="70.62" height="122.88" fill="white" transform="translate(0.689941 0.0595703)"/>
</clipPath>
</defs>
</svg>
