<svg width="24" height="25" viewBox="0 0 24 25" fill="none" xmlns="http://www.w3.org/2000/svg">
<path d="M4.66667 21.2949C3.65129 21.2949 2.78633 20.9191 2.0718 20.1674C1.35727 19.4158 1 18.5059 1 17.4378V7.15207C1 6.08394 1.35727 5.17405 2.0718 4.4224C2.78633 3.67075 3.65129 3.29492 4.66667 3.29492H19.3333C20.3487 3.29492 21.2137 3.67075 21.9282 4.4224C22.6427 5.17405 23 6.08394 23 7.15207V17.4378C23 18.5059 22.6427 19.4158 21.9282 20.1674C21.2137 20.9191 20.3487 21.2949 19.3333 21.2949H4.66667ZM4.66667 7.79492H19.3333C19.8128 7.79492 20.2602 7.88146 20.6754 8.05454C21.0907 8.22762 21.4581 8.48146 21.7778 8.81607V7.15207C21.7778 6.44492 21.5384 5.83956 21.0597 5.33599C20.581 4.83242 20.0056 4.58064 19.3333 4.58064H4.66667C3.99444 4.58064 3.41898 4.83242 2.94028 5.33599C2.46157 5.83956 2.22222 6.44492 2.22222 7.15207V8.81607C2.54187 8.48146 2.90932 8.22762 3.32457 8.05454C3.73982 7.88146 4.18719 7.79492 4.66667 7.79492ZM2.26454 11.3059L16.1203 14.8515C16.2723 14.8944 16.4282 14.8985 16.588 14.8639C16.7479 14.8293 16.8858 14.7559 17.0017 14.6438L21.5545 10.5938C21.3774 10.1405 21.0883 9.77501 20.6872 9.49727C20.286 9.21952 19.8347 9.08064 19.3333 9.08064H4.66667C4.04303 9.08064 3.50517 9.29121 3.05309 9.71237C2.60103 10.1335 2.33818 10.6647 2.26454 11.3059Z" fill="currentColor"/>
</svg>
