<svg width="25" height="25" viewBox="0 0 25 25" fill="none" xmlns="http://www.w3.org/2000/svg">
<path fill-rule="evenodd" clip-rule="evenodd" d="M14.7306 4.0966C15.1212 3.70608 15.7543 3.70608 16.1449 4.0966L21.1449 9.0966C21.5354 9.48713 21.5354 10.1203 21.1449 10.5108L16.1449 15.5108C15.7543 15.9013 15.1212 15.9013 14.7306 15.5108C14.3401 15.1203 14.3401 14.4871 14.7306 14.0966L19.0235 9.80371L14.7306 5.51082C14.3401 5.12029 14.3401 4.48713 14.7306 4.0966Z" fill="#999CAD"/>
<path fill-rule="evenodd" clip-rule="evenodd" d="M8.43774 10.8037C7.64209 10.8037 6.87903 11.1198 6.31642 11.6824C5.75381 12.245 5.43774 13.0081 5.43774 13.8037V20.8037C5.43774 21.356 4.99003 21.8037 4.43774 21.8037C3.88546 21.8037 3.43774 21.356 3.43774 20.8037V13.8037C3.43774 12.4776 3.96453 11.2059 4.90221 10.2682C5.83989 9.33049 7.11166 8.80371 8.43774 8.80371H20.4377C20.99 8.80371 21.4377 9.25143 21.4377 9.80371C21.4377 10.356 20.99 10.8037 20.4377 10.8037H8.43774Z" fill="#999CAD"/>
</svg>
