<svg width="25" height="25" viewBox="0 0 25 25" fill="none" xmlns="http://www.w3.org/2000/svg">
<path fill-rule="evenodd" clip-rule="evenodd" d="M14.34 4.0966C14.7305 3.70608 15.3637 3.70608 15.7542 4.0966L20.7542 9.0966C21.1448 9.48713 21.1448 10.1203 20.7542 10.5108L15.7542 15.5108C15.3637 15.9013 14.7305 15.9013 14.34 15.5108C13.9495 15.1203 13.9495 14.4871 14.34 14.0966L18.6329 9.80371L14.34 5.51082C13.9495 5.12029 13.9495 4.48713 14.34 4.0966Z" fill="#312B3E"/>
<path fill-rule="evenodd" clip-rule="evenodd" d="M8.04712 10.8037C7.25147 10.8037 6.48841 11.1198 5.9258 11.6824C5.36319 12.245 5.04712 13.0081 5.04712 13.8037V20.8037C5.04712 21.356 4.5994 21.8037 4.04712 21.8037C3.49483 21.8037 3.04712 21.356 3.04712 20.8037V13.8037C3.04712 12.4776 3.5739 11.2059 4.51158 10.2682C5.44927 9.33049 6.72104 8.80371 8.04712 8.80371H20.0471C20.5994 8.80371 21.0471 9.25143 21.0471 9.80371C21.0471 10.356 20.5994 10.8037 20.0471 10.8037H8.04712Z" fill="#312B3E"/>
</svg>
