<svg width="17" height="17" viewBox="0 0 17 17" fill="none" xmlns="http://www.w3.org/2000/svg">
<path fill-rule="evenodd" clip-rule="evenodd" d="M9.57571 2.92671C9.83606 2.66636 10.2582 2.66636 10.5185 2.92671L13.8519 6.26004C14.1122 6.52039 14.1122 6.9425 13.8519 7.20285L10.5185 10.5362C10.2582 10.7965 9.83606 10.7965 9.57571 10.5362C9.31536 10.2758 9.31536 9.85372 9.57571 9.59337L12.4376 6.73145L9.57571 3.86952C9.31536 3.60917 9.31536 3.18706 9.57571 2.92671Z" fill="url(#paint0_linear)"/>
<path fill-rule="evenodd" clip-rule="evenodd" d="M5.38045 7.39827C4.85002 7.39827 4.34131 7.60899 3.96624 7.98406C3.59117 8.35913 3.38045 8.86784 3.38045 9.39827V14.0649C3.38045 14.4331 3.08198 14.7316 2.71379 14.7316C2.3456 14.7316 2.04712 14.4331 2.04712 14.0649V9.39827C2.04712 8.51422 2.39831 7.66637 3.02343 7.04125C3.64855 6.41613 4.4964 6.06494 5.38045 6.06494H13.3805C13.7486 6.06494 14.0471 6.36342 14.0471 6.73161C14.0471 7.0998 13.7486 7.39827 13.3805 7.39827H5.38045Z" fill="url(#paint1_linear)"/>
<defs>
<linearGradient id="paint0_linear" x1="9.81188" y1="3.07447" x2="16.0391" y2="8.85958" gradientUnits="userSpaceOnUse">
<stop offset="1" stop-color="#000"/>
</linearGradient>
<linearGradient id="paint1_linear" x1="3.15652" y1="6.43655" x2="8.24527" y2="17.6578" gradientUnits="userSpaceOnUse">
<stop offset="1" stop-color="#000"/>
</linearGradient>
</defs>
</svg>
