<svg width="25" height="25" viewBox="0 0 25 25" fill="none" xmlns="http://www.w3.org/2000/svg">
<path d="M12.0398 0.87793C5.423 0.87793 0.0397949 6.26113 0.0397949 12.8779C0.0397949 19.4947 5.423 24.8779 12.0398 24.8779C18.6566 24.8779 24.0398 19.4947 24.0398 12.8779C24.0398 6.26113 18.6566 0.87793 12.0398 0.87793ZM12.0398 3.17366C16.4526 3.17366 20.1843 6.13526 21.3579 10.1745C18.0659 9.32673 15.0046 8.9126 12.0398 8.9126C9.075 8.9126 6.01393 9.32646 2.7214 10.1742C3.89526 6.13526 7.627 3.17366 12.0398 3.17366ZM12.0398 15.9041C10.7142 15.9041 9.6398 14.8297 9.6398 13.5041C9.6398 12.1785 10.7142 11.1041 12.0398 11.1041C13.3654 11.1041 14.4398 12.1785 14.4398 13.5041C14.4398 14.8297 13.3654 15.9041 12.0398 15.9041ZM2.5198 14.7582C6.46006 14.8011 9.53553 17.9923 9.53553 22.0603C9.53553 22.1211 9.5342 22.1846 9.53206 22.2518C5.98673 21.3025 3.23633 18.3918 2.5198 14.7582ZM14.5475 22.2518C14.5451 22.1849 14.5441 22.1209 14.5441 22.0603C14.5441 17.9923 17.619 14.8011 21.5595 14.7582C20.8435 18.3918 18.0926 21.3025 14.5475 22.2518Z" fill="white"/>
</svg>
