<svg width="25" height="24" viewBox="0 0 25 24" fill="none" xmlns="http://www.w3.org/2000/svg">
<path d="M12.6191 0C6.00234 0 0.619141 5.3832 0.619141 12C0.619141 18.6168 6.00234 24 12.6191 24C19.2359 24 24.6191 18.6168 24.6191 12C24.6191 5.3832 19.2359 0 12.6191 0ZM12.6191 2.29573C17.0319 2.29573 20.7637 5.25733 21.9373 9.29653C18.6453 8.4488 15.5839 8.03467 12.6191 8.03467C9.65434 8.03467 6.59327 8.44853 3.30074 9.29627C4.47461 5.25733 8.20634 2.29573 12.6191 2.29573ZM12.6191 15.0261C11.2935 15.0261 10.2191 13.9517 10.2191 12.6261C10.2191 11.3005 11.2935 10.2261 12.6191 10.2261C13.9447 10.2261 15.0191 11.3005 15.0191 12.6261C15.0191 13.9517 13.9447 15.0261 12.6191 15.0261ZM3.09914 13.8803C7.03941 13.9232 10.1149 17.1144 10.1149 21.1824C10.1149 21.2432 10.1135 21.3067 10.1114 21.3739C6.56607 20.4245 3.81567 17.5139 3.09914 13.8803ZM15.1269 21.3739C15.1245 21.3069 15.1234 21.2429 15.1234 21.1824C15.1234 17.1144 18.1983 13.9232 22.1389 13.8803C21.4229 17.5139 18.6719 20.4245 15.1269 21.3739Z" fill="#C56546"/>
</svg>
