<svg width="26" height="25" viewBox="0 0 26 25" fill="none" xmlns="http://www.w3.org/2000/svg">
<path d="M12.3727 15.7479L2.21919 15.7461C1.08104 15.7461 0.158203 16.3804 0.158203 17.1625C0.158203 17.9446 1.07986 18.5767 2.21919 18.5767H12.3727C13.5109 18.5767 14.4337 17.9446 14.4337 17.1625C14.4337 16.3803 13.5106 15.7479 12.3727 15.7479V15.7479Z" fill="url(#paint0_linear)"/>
<path d="M7.43053 10.1416C3.90468 10.1416 1.04297 12.3994 1.04297 15.1913H13.8249C13.8224 12.4023 10.962 10.1416 7.43053 10.1416Z" fill="url(#paint0_linear)"/>
<path d="M7.43047 22.197C10.9618 22.197 13.8222 21.9229 13.8222 19.1349L1.04102 19.1348C1.04324 21.9239 3.90262 22.197 7.43047 22.197V22.197Z" fill="url(#paint0_linear)"/>
<path d="M16.3671 22.1783H23.3464L24.3187 10.1592H15.3965L16.3671 22.1783Z" fill="url(#paint0_linear)"/>
<path d="M23.7561 7.73238L24.6142 2.44374L23.0874 2.19629L22.1866 7.73225H14.5469V9.61275H25.1693V7.73225L23.7561 7.73238Z" fill="url(#paint0_linear)"/>
    <linearGradient id="paint0_linear" x1="1.34433" y1="1.40902" x2="10.306" y2="19.9545" gradientUnits="userSpaceOnUse">
        <stop stop-color="#2DC8D8"/>
        <stop offset="1" stop-color="#ECF281"/>
    </linearGradient>
</svg>
