<svg width="26" height="25" viewBox="0 0 26 25" fill="none" xmlns="http://www.w3.org/2000/svg">
<path d="M12.4196 16.533L2.26606 16.5312C1.12792 16.5312 0.205078 17.1656 0.205078 17.9477C0.205078 18.7297 1.12674 19.3619 2.26606 19.3619H12.4196C13.5578 19.3619 14.4806 18.7297 14.4806 17.9477C14.4806 17.1655 13.5575 16.533 12.4196 16.533V16.533Z" fill="currentColor"/>
<path d="M7.4774 10.9268C3.95156 10.9268 1.08984 13.1845 1.08984 15.9764H13.8718C13.8693 13.1875 11.0089 10.9268 7.4774 10.9268Z" fill="currentColor"/>
<path d="M7.47735 22.9821C11.0087 22.9821 13.8691 22.708 13.8691 19.9201L1.08789 19.9199C1.09011 22.709 3.94949 22.9821 7.47735 22.9821V22.9821Z" fill="currentColor"/>
<path d="M16.414 22.9634H23.3933L24.3656 10.9443H15.4434L16.414 22.9634Z" fill="currentColor"/>
<path d="M23.803 8.51754L24.6611 3.2289L23.1342 2.98145L22.2335 8.51741H14.5938V10.3979H25.2162V8.51741L23.803 8.51754Z" fill="currentColor"/>
</svg>
