<svg width="141" height="131" viewBox="0 0 141 131" fill="none" xmlns="http://www.w3.org/2000/svg">
<ellipse cx="70.9422" cy="125.548" rx="69.9851" ry="4.63624" fill="#F3F3F3"/>
<path d="M65.7138 27.6442C60.4164 8.40297 36.5403 2.20574 22.8548 16.5833C22.6573 16.7904 22.463 17.0007 22.2655 17.214C2.64936 38.5608 11.9183 91.1666 52.8589 104.499C93.7995 117.832 136.383 93.4855 138.774 71.7214C141.166 49.9574 122.28 43.1169 92.9657 49.2043C76.4058 52.6402 69.0113 39.6213 65.7138 27.6442Z" fill="url(#paint0_linear_5192_25070)" fill-opacity="0.2"/>
<path d="M101.407 32.3046C96.1036 33.9456 95.2698 38.9662 99.934 41.7965C101.476 42.7316 103.583 43.3937 106.463 43.469C117.441 43.7577 122.475 38.21 117.318 32.6497C114.134 29.2138 106.661 30.6792 101.407 32.3046Z" fill="url(#paint1_linear_5192_25070)"/>
<path d="M21.5001 21.0413C22.8072 25.4342 27.1893 25.2993 27.0984 28.867C27.0044 32.4348 29.2456 35.1427 32.3238 34.4901C35.4019 33.8342 37.6306 33.1816 39.0349 36.7305C40.4392 40.2794 44.9153 42.0522 46.6895 39.2502C47.1315 38.5536 47.6079 37.7973 48.075 37.0568C48.2035 36.8528 48.3289 36.652 48.4543 36.4543C48.4825 36.4073 48.5138 36.3633 48.542 36.3163C50.4196 33.3353 49.799 29.3816 47.0312 27.2008C45.9121 26.3191 44.5705 25.8233 43.0534 26.2689C38.2951 27.6684 40.0097 22.88 37.1761 20.853C33.913 18.5184 31.1107 21.1605 28.8757 19.1711C25.7568 16.4067 20.193 16.6483 21.5001 21.0413Z" fill="#b49056"/>
<path d="M27.1641 23.0996L48.0591 37.2136C48.1876 37.0097 48.313 36.8089 48.4384 36.6112L27.5621 22.5097C27.3991 22.3999 27.1766 22.4438 27.0669 22.607C26.9603 22.7702 27.0011 22.9898 27.1641 23.0996Z" fill="#350d05"/>
<path d="M125.605 86.2964C123.799 90.567 119.411 89.9363 119.104 93.5322C118.8 97.1282 116.245 99.5977 113.223 98.5967C110.202 97.5926 108.036 96.6858 106.227 100.097C104.418 103.504 99.7195 104.788 98.2526 101.772C97.8858 101.022 97.4909 100.21 97.1053 99.4126C96.9987 99.196 96.8953 98.9764 96.7919 98.763C96.7668 98.7128 96.7448 98.6657 96.7198 98.6155C95.1681 95.4087 96.2339 91.5052 99.2588 89.6256C100.484 88.8631 101.886 88.5148 103.362 89.1361C107.985 91.0785 106.801 86.0705 109.876 84.3509C113.418 82.3709 115.938 85.3393 118.408 83.5916C121.846 81.1597 127.41 82.0258 125.605 86.2964Z" fill="#b49056"/>
<path d="M119.69 87.5696L97.1084 99.4118C97.0018 99.1953 96.8984 98.9756 96.7949 98.7623L119.354 86.9295C119.53 86.8385 119.749 86.9044 119.84 87.0801C119.931 87.2621 119.865 87.4786 119.69 87.5696Z" fill="#350d05"/>
<path d="M117.811 68.2307C118.331 72.5295 114.482 74.0608 115.902 77.1139C117.322 80.167 116.4 83.355 113.488 83.9481C110.576 84.5411 108.401 84.8141 108.517 88.4164C108.633 92.0186 105.423 95.2412 102.837 93.4808C102.191 93.0447 101.495 92.5677 100.812 92.1033C100.627 91.9747 100.439 91.8492 100.257 91.7237C100.213 91.6954 100.172 91.6672 100.128 91.6358C97.3826 89.7594 96.4359 86.1038 98.0126 83.173C98.6521 81.9869 99.6238 81.0519 101.11 80.8699C105.755 80.2925 102.473 76.7875 104.166 73.9666C106.115 70.7158 109.532 71.949 110.723 69.3854C112.385 65.8208 117.293 63.9349 117.811 68.2307Z" fill="#350d05"/>
<path d="M113.611 72.0165L100.818 92.105C100.634 91.9763 100.445 91.8508 100.264 91.7253L113.046 71.6525C113.147 71.4956 113.354 71.4485 113.51 71.549C113.664 71.6494 113.711 71.8596 113.611 72.0165Z" fill="#b49056"/>
<path d="M28.3984 4.35619C27.8561 8.84017 31.8715 10.4373 30.3889 13.6222C28.9062 16.8071 29.8685 20.1333 32.9059 20.7514C35.9433 21.3696 38.2127 21.6551 38.0905 25.4111C37.9682 29.1671 41.3191 32.5309 44.018 30.6952C44.6888 30.2402 45.416 29.7445 46.1275 29.2581C46.3219 29.1263 46.5162 28.9914 46.7074 28.8627C46.7513 28.8313 46.7952 28.8031 46.8391 28.7717C49.7041 26.8137 50.6915 23.0012 49.0458 19.945C48.3782 18.7087 47.3626 17.7328 45.8172 17.5414C40.9712 16.9389 44.3973 13.2833 42.6294 10.3401C40.595 6.94805 37.031 8.2377 35.7897 5.56112C34.0594 1.84278 28.9407 -0.127779 28.3984 4.35619Z" fill="#350d05"/>
<path d="M32.7793 8.30178L46.1263 29.2594C46.3206 29.1276 46.515 28.9927 46.7062 28.864L33.3717 7.92524C33.2683 7.76208 33.052 7.71501 32.889 7.81856C32.7229 7.9221 32.6759 8.13862 32.7793 8.30178Z" fill="#b49056"/>
<path d="M124.053 8.40516C129.071 6.31222 133.434 3.40658 131.014 1.66508C128.591 -0.0795577 121.172 5.0665 117.74 11.1257L116.078 12.908C118.658 8.53381 119.413 2.21734 117.182 1.01869C114.965 -0.173693 114.843 4.07808 115.379 7.97842C115.787 10.9468 115.376 12.9864 115.063 13.9968L107.22 22.4125C111.285 15.4747 112.464 5.50266 108.935 3.60427C105.418 1.71215 105.226 8.4585 106.076 14.6495C106.718 19.328 106.079 22.5505 105.584 24.1697L104.02 25.8484C104.267 26.1653 104.518 26.4823 104.769 26.796L114.097 16.7832C115.213 16.5008 116.827 16.2686 118.928 16.4098C122.852 16.6734 127.081 16.256 125.739 14.1254C124.573 12.2773 119.771 12.908 115.79 14.9664L119.015 11.5022C120.203 10.5954 121.887 9.30572 124.053 8.40516Z" fill="#FC5F2D"/>
<path d="M104.865 16.7511V120.51C104.865 123.764 102.232 126.4 98.9818 126.4H47.368C45.7349 126.4 44.2585 125.735 43.1927 124.661C42.1364 123.598 41.4844 122.129 41.4844 120.513V16.7511C41.4844 13.4971 44.1174 10.8613 47.368 10.8613H98.9818C99.941 10.8613 100.85 11.0904 101.649 11.5014C103.558 12.4773 104.865 14.4604 104.865 16.7511Z" fill="#133643"/>
<path d="M41.2994 52.5967H41.1677C40.1552 52.5967 39.334 51.7746 39.334 50.7611V40.7263C39.334 39.7127 40.1552 38.8906 41.1677 38.8906H41.2994C41.4028 38.8906 41.4843 38.9722 41.4843 39.0758V52.4147C41.4843 52.5151 41.4028 52.5967 41.2994 52.5967Z" fill="#000B17"/>
<path d="M105.003 52.5967H105.135C106.147 52.5967 106.969 51.7746 106.969 50.7611V40.7263C106.969 39.7127 106.147 38.8906 105.135 38.8906H105.003C104.9 38.8906 104.818 38.9722 104.818 39.0758V52.4147C104.818 52.5151 104.9 52.5967 105.003 52.5967Z" fill="#000B17"/>
<path d="M41.2994 68.1631H41.1677C40.1552 68.1631 39.334 67.341 39.334 66.3275V56.2927C39.334 55.2791 40.1552 54.457 41.1677 54.457H41.2994C41.4028 54.457 41.4843 54.5386 41.4843 54.6422V67.9811C41.4843 68.0815 41.4028 68.1631 41.2994 68.1631Z" fill="#000B17"/>
<path d="M101.931 17.0096V120.257C101.931 122.027 100.495 123.464 98.7275 123.464H47.6215C46.3614 123.464 45.2706 122.733 44.7471 121.672C44.7471 121.669 44.744 121.666 44.744 121.663C44.5339 121.239 44.418 120.762 44.418 120.257V17.0096C44.418 15.2399 45.8536 13.8027 47.6215 13.8027H98.7275C99.2824 13.8027 99.8058 13.9439 100.26 14.1918C100.263 14.1918 100.263 14.195 100.267 14.195C101.257 14.7409 101.931 15.7984 101.931 17.0096Z" fill="white"/>
<path d="M95.933 48.9404H50.3728C48.4443 48.9404 46.8809 46.9926 46.8809 44.59V44.0184C46.8809 41.6158 48.4443 39.668 50.3728 39.668H95.933C97.8615 39.668 99.4249 41.6158 99.4249 44.0184V44.59C99.4249 46.9926 97.8615 48.9404 95.933 48.9404Z" fill="#DDDFE4"/>
<path d="M97.9683 85.0016H48.4483C47.5487 85.0016 46.8184 84.2705 46.8184 83.37C46.8184 82.4694 47.5487 81.7383 48.4483 81.7383H97.9683C98.8679 81.7383 99.5983 82.4694 99.5983 83.37C99.5983 84.2705 98.8679 85.0016 97.9683 85.0016Z" fill="#DDDFE4"/>
<path d="M97.9683 92.0661H48.4483C47.5487 92.0661 46.8184 91.335 46.8184 90.4344C46.8184 89.5339 47.5487 88.8027 48.4483 88.8027H97.9683C98.8679 88.8027 99.5983 89.5339 99.5983 90.4344C99.5983 91.335 98.8679 92.0661 97.9683 92.0661Z" fill="#DDDFE4"/>
<path d="M97.9683 99.1325H48.4483C47.5487 99.1325 46.8184 98.4014 46.8184 97.5008C46.8184 96.6003 47.5487 95.8691 48.4483 95.8691H97.9683C98.8679 95.8691 99.5983 96.6003 99.5983 97.5008C99.5983 98.4045 98.8679 99.1325 97.9683 99.1325Z" fill="#DDDFE4"/>
<path d="M86.9534 101.412H84.7874C84.6307 101.412 84.4928 101.516 84.452 101.669L84.1355 102.83H64.2215C64.1212 102.83 64.0272 102.874 63.9614 102.95C63.8955 103.025 63.8673 103.125 63.8799 103.223L64.1996 105.513C64.1933 105.542 64.187 105.57 64.187 105.598C64.187 105.661 64.2027 105.72 64.2341 105.771L64.6384 108.67L64.7325 109.357L65.1117 112.087L65.2058 112.774L65.5412 115.19C65.5631 115.36 65.7104 115.488 65.8797 115.488H80.6153L80.1357 117.214C79.91 118.021 79.1703 118.586 78.3302 118.586H67.842C67.6633 118.586 67.5034 118.717 67.4846 118.896C67.4658 119.1 67.6257 119.273 67.8263 119.273H69.1334C68.7604 119.514 68.5128 119.932 68.5128 120.409C68.5128 121.155 69.1177 121.761 69.8638 121.761C70.6098 121.761 71.2148 121.155 71.2148 120.409C71.2148 119.932 70.9671 119.511 70.5941 119.273H76.509C76.136 119.514 75.8884 119.932 75.8884 120.409C75.8884 121.155 76.4934 121.761 77.2394 121.761C77.9854 121.761 78.5904 121.155 78.5904 120.409C78.5904 119.932 78.3428 119.511 77.9697 119.273H78.3365C79.4806 119.273 80.4962 118.501 80.8034 117.399L81.3927 115.281C81.399 115.269 81.4052 115.253 81.4084 115.237L82.0917 112.777L82.2829 112.09L83.0415 109.36L83.2327 108.673L84.0163 105.852L84.1135 105.507L84.7373 103.267C84.7404 103.257 84.7436 103.245 84.7436 103.235L85.0507 102.109H86.9534C87.1446 102.109 87.3014 101.952 87.3014 101.76C87.2982 101.569 87.1446 101.412 86.9534 101.412ZM81.2987 113.063C81.2924 113.079 81.2861 113.094 81.283 113.11L80.8128 114.801H66.1869L65.9048 112.777H81.3802L81.2987 113.063ZM81.5714 112.087H65.8108L65.4315 109.357H82.3331L81.5714 112.087ZM82.5212 108.67H65.3312L64.9519 105.94H83.2797L82.5212 108.67ZM83.4709 105.253H64.8578L64.6165 103.514H83.9568L83.4709 105.253Z" fill="#DDDFE4"/>
<path d="M87.4023 76.4704H85.904C79.6192 76.4704 74.4785 71.3244 74.4785 65.033V63.5331C74.4785 57.2449 79.6192 52.0957 85.904 52.0957H87.4023C93.6872 52.0957 98.8279 57.2418 98.8279 63.5331V65.033C98.8279 71.3244 93.6872 76.4704 87.4023 76.4704Z" fill="#DDDFE4"/>
<path d="M93.9583 71.885C93.2531 70.9939 90.9648 67.922 90.6545 65.2924C90.5385 64.2883 90.5542 63.2936 90.7893 62.4433C91.294 60.6202 91.8582 59.3494 91.8833 59.2929C91.8833 59.2929 90.7548 57.451 90.8144 53.8644L90.5699 53.7766C90.1937 53.6416 89.7831 53.8582 89.6796 54.2441C89.4069 55.267 88.6609 56.519 87.3319 56.519C85.8994 56.519 85.1721 55.2702 84.7929 54.197C84.6549 53.8017 84.1659 53.6636 83.8337 53.9146L83.3572 54.2755C83.5578 55.3329 83.9026 58.0189 82.6613 59.6569C82.6613 59.6569 84.5954 63.1524 83.8995 65.2987C83.2099 67.4419 79.9688 71.9823 79.9688 71.9823C79.9688 71.9823 82.5767 74.9037 87.0654 74.9037C92.0306 74.9037 94.1621 72.1424 94.1621 72.1424C94.1621 72.1424 94.0869 72.0451 93.9583 71.885Z" fill="#350d05"/>
<path d="M59.7422 76.4704H58.2439C51.9622 76.4704 46.8184 71.3244 46.8184 65.033V63.5331C46.8184 57.2449 51.9591 52.0957 58.2439 52.0957H59.7422C66.027 52.0957 71.1677 57.2418 71.1677 63.5331V65.033C71.1677 71.3244 66.027 76.4704 59.7422 76.4704Z" fill="#DDDFE4"/>
<path d="M63.1445 62.9559C63.2668 66.8437 63.2918 71.6195 63.2793 72.793C60.22 73.5838 57.1638 73.5869 54.1138 72.793C54.0981 71.5975 54.0825 66.7464 54.1765 62.8586C54.1765 62.821 54.1765 62.7833 54.1796 62.7488C53.5276 62.7331 52.9854 62.4319 52.6249 62.162C52.3208 61.9361 52.1484 61.729 52.1484 61.729C52.8036 60.0346 54.2455 58.1017 54.5558 57.7157C54.5558 57.7157 54.5558 57.7157 54.5558 57.7126C54.7595 57.427 55.4962 56.9564 56.2704 56.5077C56.4083 56.4261 56.5556 56.3633 56.7092 56.3225C56.8628 56.2817 57.0196 56.2598 57.1826 56.2598C57.2703 56.2598 57.3424 56.3319 57.3424 56.4198V56.4261C57.3424 57.2388 58.0164 57.8946 58.8345 57.8663C59.615 57.8381 60.2231 57.1729 60.2231 56.3916C60.2231 56.3194 60.2826 56.2598 60.3547 56.2598C60.6086 56.2598 60.8531 56.3257 61.0726 56.4543C61.8029 56.8873 62.5145 57.3455 62.7213 57.6373C63.0129 57.9981 64.483 60.0722 65.1757 61.7196C64.809 62.2248 63.7307 62.8147 63.1445 62.9559Z" fill="#FC5F2D"/>
<path d="M109.414 30.2136V37.7382H37.002V30.2136C45.7286 28.6259 48.5152 13.8027 48.5152 13.8027H97.9004C97.9004 13.8027 100.684 28.629 109.414 30.2136Z" fill="white"/>
<path d="M109.414 30.2129H37.002V37.7374H109.414V30.2129Z" fill="#DDDFE4"/>
<path d="M57.7109 13.8027C57.7109 13.8027 54.9242 28.629 46.1976 30.2136V37.7382H37.0039V30.2136C45.7337 28.629 48.5172 13.8027 48.5172 13.8027H57.7109Z" fill="#FC5F2D"/>
<path d="M109.417 30.2136V37.7382H100.22V30.2136C91.4905 28.629 88.707 13.8027 88.707 13.8027H97.9039C97.9039 13.8027 100.687 28.629 109.417 30.2136Z" fill="#FC5F2D"/>
<path d="M66.7492 30.267V37.7413H58.1354L57.916 30.2136C63.3984 26.0058 63.8278 13.8027 63.8278 13.8027H69.5077C69.7741 22.6232 66.7492 30.267 66.7492 30.267Z" fill="#FC5F2D"/>
<path d="M87.4673 30.2136L87.251 37.7382H78.6341V30.267C78.6341 30.267 75.6123 22.6263 75.8756 13.8027H81.5555C81.5555 13.8027 81.9881 26.0058 87.4673 30.2136Z" fill="#FC5F2D"/>
<path d="M46.1956 30.2129H37.002V37.7374H46.1956V30.2129Z" fill="#D53E2F"/>
<path d="M109.416 30.2129V37.7374H100.219V30.2129H109.412H109.416Z" fill="#D53E2F"/>
<path d="M66.7712 30.2129C66.7586 30.2474 66.7524 30.2662 66.7524 30.2662V37.7406H58.1354L57.916 30.2129H66.7712Z" fill="#D53E2F"/>
<path d="M87.4692 30.2129L87.2529 37.7374H78.636V30.2662C78.636 30.2662 78.6297 30.2474 78.6172 30.2129H87.4692Z" fill="#D53E2F"/>
<path d="M88.1649 18.9908H58.1859C56.6468 18.9908 55.3867 17.7294 55.3867 16.1887V15.8216C55.3867 14.2809 56.6468 13.0195 58.1859 13.0195H88.1649C89.704 13.0195 90.9641 14.2809 90.9641 15.8216V16.1856C90.9641 17.7294 89.704 18.9908 88.1649 18.9908Z" fill="#133643"/>
<path d="M81.67 16.3447H61.7248C61.3455 16.3447 61.0352 16.034 61.0352 15.6544V15.5634C61.0352 15.1837 61.3455 14.873 61.7248 14.873H81.67C82.0493 14.873 82.3596 15.1837 82.3596 15.5634V15.6544C82.3596 16.034 82.0493 16.3447 81.67 16.3447Z" fill="#000B17"/>
<path d="M87.5546 15.5614C87.5546 16.0478 87.1596 16.4432 86.6738 16.4432C86.1879 16.4432 85.793 16.0478 85.793 15.5614C85.793 15.0751 86.1879 14.6797 86.6738 14.6797C87.1596 14.6828 87.5546 15.0751 87.5546 15.5614Z" fill="#335464"/>
<path d="M31.9645 93.0899C31.8882 94.5169 31.8014 96.0544 31.712 97.6577C31.1781 107.03 30.4601 118.591 30.2418 123.093L28.5192 123.206C28.5192 123.206 27.5066 111.021 27.5119 106.833C27.5145 105.09 27.3515 102.405 27.1306 99.4164C26.9806 97.376 26.8018 95.1961 26.6309 93.082L31.9645 93.0899Z" fill="#FFAA95"/>
<path d="M31.9645 93.0893C31.8882 94.5163 31.7856 96.3408 31.6936 97.9415C30.6311 98.5523 28.8874 99.1262 27.1306 99.4105C26.9806 97.3702 26.8018 95.1903 26.6309 93.0762L31.9645 93.0893Z" fill="#FF8B6B"/>
<path d="M29.1961 122.16C29.1961 122.16 30.2166 121.936 30.4953 121.954C30.7741 121.973 32.5467 124.145 33.17 124.297C34.3009 124.571 34.222 126.354 33.5251 126.411C31.5079 126.577 28.1126 125.577 28.1126 125.577C28.1126 125.577 27.8969 123.276 28.0679 122.565C28.2362 121.852 28.6254 122.346 29.1961 122.16Z" fill="url(#paint2_linear_5192_25070)"/>
<path d="M30.7727 124.182C30.7359 124.187 30.699 124.18 30.6649 124.156C30.6044 124.111 30.5912 124.024 30.6359 123.961C30.6517 123.94 31.0146 123.453 31.4433 123.298C32.014 123.09 32.398 123.445 32.4164 123.458C32.4717 123.511 32.4743 123.6 32.4217 123.656C32.3691 123.711 32.2797 123.714 32.2244 123.661C32.2139 123.65 31.9457 123.411 31.538 123.558C31.1882 123.685 30.8621 124.122 30.8595 124.127C30.8384 124.158 30.8069 124.177 30.7727 124.182Z" fill="white"/>
<path d="M30.4068 123.745C30.37 123.75 30.3331 123.742 30.3016 123.718C30.2411 123.674 30.2279 123.587 30.2726 123.524C30.2884 123.502 30.6514 123.015 31.0801 122.86C31.6534 122.652 32.0347 123.007 32.0532 123.021C32.1084 123.073 32.111 123.163 32.0584 123.218C32.0058 123.273 31.9164 123.276 31.8612 123.223C31.8506 123.213 31.5824 122.973 31.1747 123.121C30.8223 123.25 30.4988 123.684 30.4962 123.689C30.4725 123.721 30.441 123.739 30.4068 123.745Z" fill="white"/>
<path d="M31.2915 124.568C31.2547 124.573 31.2179 124.565 31.1863 124.541C31.1259 124.497 31.1127 124.41 31.1574 124.346C31.1732 124.325 31.5361 123.838 31.9648 123.68C32.5355 123.472 32.9195 123.828 32.9379 123.841C32.9931 123.894 32.9958 123.983 32.9432 124.038C32.8906 124.094 32.8012 124.096 32.7459 124.044C32.7354 124.033 32.4671 123.794 32.0595 123.941C31.7071 124.07 31.3836 124.504 31.381 124.51C31.3573 124.541 31.3257 124.56 31.2915 124.568Z" fill="white"/>
<path d="M25.6498 93.0724C25.4789 95.1892 25.3 97.3717 25.1501 99.4121C25.1475 99.4279 25.1475 99.441 25.1475 99.4568C25.1396 99.5516 25.1343 99.6464 25.1265 99.7412C24.9187 102.595 24.7661 105.149 24.7688 106.826C24.774 111.017 23.7615 123.199 23.7615 123.199L21.7601 123.067C21.5602 118.894 21.0263 108.656 20.5897 99.7201C20.5845 99.6148 20.5792 99.5095 20.5739 99.4042C20.5687 99.3173 20.566 99.2304 20.5608 99.1435C20.4556 96.9952 20.3583 94.9311 20.2715 93.0566L25.6498 93.0724Z" fill="#FFAA95"/>
<path d="M25.6491 93.0724C25.4782 95.1892 25.2994 97.3717 25.1494 99.4121C25.1468 99.4279 25.1468 99.441 25.1468 99.4568C23.8529 99.5437 21.9198 99.4252 20.5627 99.1435C20.4575 96.9952 20.3602 94.9311 20.2734 93.0566L25.6491 93.0724Z" fill="#FF8B6B"/>
<path d="M22.0386 122.721C22.0386 122.721 21.5783 122.073 21.2022 122.094C20.8261 122.113 17.8779 124.356 16.8812 124.524C15.8844 124.693 16.0606 125.43 16.2342 125.806C16.4078 126.186 24.1557 125.841 24.1557 125.841C24.1557 125.841 24.4187 123.54 24.182 122.829C23.9479 122.115 22.8118 122.905 22.0386 122.721Z" fill="url(#paint3_linear_5192_25070)"/>
<path d="M20.4056 124.293C20.4398 124.304 20.4792 124.301 20.5134 124.283C20.5818 124.246 20.6055 124.162 20.5687 124.093C20.5555 124.069 20.2636 123.538 19.8612 123.322C19.3247 123.035 18.8934 123.332 18.8749 123.345C18.8118 123.39 18.7987 123.477 18.8408 123.54C18.8855 123.603 18.9723 123.617 19.0354 123.574C19.0459 123.567 19.3457 123.366 19.7297 123.569C20.0584 123.743 20.3214 124.222 20.3241 124.227C20.3425 124.259 20.3714 124.283 20.4056 124.293Z" fill="white"/>
<path d="M20.8275 123.908C20.8617 123.919 20.9011 123.916 20.9353 123.898C21.0037 123.861 21.0274 123.777 20.9905 123.708C20.9774 123.685 20.6855 123.153 20.2831 122.937C19.7465 122.65 19.3152 122.947 19.2968 122.961C19.2337 123.005 19.2205 123.092 19.2626 123.155C19.3073 123.219 19.3941 123.232 19.4572 123.19C19.4678 123.182 19.7676 122.982 20.1516 123.184C20.4829 123.361 20.7433 123.837 20.7459 123.843C20.7644 123.877 20.7933 123.898 20.8275 123.908Z" fill="white"/>
<path d="M19.8353 124.6C19.8695 124.61 19.9089 124.608 19.9431 124.589C20.0115 124.552 20.0352 124.468 19.9983 124.4C19.9852 124.376 19.6933 123.844 19.2909 123.628C18.7544 123.341 18.323 123.639 18.3046 123.652C18.2415 123.697 18.2284 123.784 18.2704 123.847C18.3151 123.91 18.4019 123.923 18.4651 123.881C18.4756 123.873 18.7754 123.673 19.1594 123.876C19.4908 124.052 19.7511 124.529 19.7538 124.534C19.7748 124.566 19.8037 124.589 19.8353 124.6Z" fill="white"/>
<path d="M19.7078 67.8066C21.1385 69.0782 22.8164 68.5096 24.9546 67.4196C27.0928 66.3323 25.7226 68.4701 27.8187 68.836C29.9148 69.1994 29.6702 64.005 29.8122 61.4091C29.9016 59.7821 30.546 57.7338 30.546 56.9097V56.8992C30.5565 56.7623 30.5644 56.6254 30.5644 56.4911C30.5802 54.514 29.3625 50.9071 25.0835 51.481C25.0835 51.481 21.533 51.8865 21.128 55.3617C21.128 55.3617 20.9597 56.965 20.8466 58.1261C20.5283 61.4117 19.3185 59.7004 19.7078 63.7048C19.8366 65.0265 18.0351 66.3191 19.7078 67.8066Z" fill="#b49056"/>
<path d="M32.7222 65.2363C32.7222 65.2363 33.4796 71.6681 34.3423 74.7484C34.3423 74.7484 35.5705 74.1745 37.1774 73.3978C38.9211 72.5553 41.4275 71.0178 41.4275 71.0178L42.0613 72.5448C42.0613 72.5448 35.5889 78.6606 33.4428 79.0082C31.2994 79.3557 29.9844 71.6681 29.9844 71.6681L32.7222 65.2363Z" fill="#D38400"/>
<path d="M41.2958 71.1956C41.2958 71.1956 41.117 70.3426 41.4983 69.7661C41.8797 69.1895 42.4609 68.1074 43.1421 67.8837C43.7128 67.6941 42.8712 68.6577 42.8449 69.2685C42.8449 69.2685 43.6917 69.1632 44.3045 68.9631C44.8437 68.7893 45.9062 68.5708 46.4006 68.4734C46.5347 68.4471 46.6215 68.6182 46.519 68.7077C46.3506 68.8525 45.9982 69.0368 45.2723 69.2132C45.2723 69.2132 47.045 68.8762 47.2291 69.15C47.4132 69.4212 45.1882 69.8003 45.1882 69.8003C45.1882 69.8003 46.9135 69.6976 46.9582 69.9688C46.9845 70.1346 45.1961 70.5111 45.1961 70.5111C45.1961 70.5111 46.8267 70.5559 46.4322 70.8139C46.3165 70.8902 43.1578 71.2457 42.0585 72.5462C42.0611 72.5436 41.3221 71.7775 41.2958 71.1956Z" fill="#FFAA95"/>
<path d="M40.1796 71.7001C40.0928 71.7738 40.0034 71.8502 39.9139 71.9239C39.6956 71.8423 39.4747 71.8186 39.2512 71.8528C39.0829 71.8791 38.9119 71.9371 38.7357 72.0266C38.0466 72.3846 37.5969 73.0823 37.3129 73.9485C36.8763 75.2859 36.8316 77.0235 36.9157 78.5242C37.0157 80.3144 37.2787 81.6597 37.2839 81.6966L36.971 81.7308C36.9447 81.5966 36.7185 80.4329 36.608 78.798C36.5107 77.3579 36.5239 75.6545 36.8947 74.2512C37.1893 73.1323 37.7126 72.203 38.5884 71.7501C39.046 71.5132 39.4984 71.4658 39.9376 71.6053C40.0244 71.629 40.1033 71.6606 40.1796 71.7001Z" fill="#004FC7"/>
<path d="M43.6044 78.8967L43.2993 78.9546C43.2914 78.9099 42.505 75.3689 41.2637 73.2864C41.3689 73.16 41.4346 73.1337 41.5188 73.0547C42.8259 75.1635 43.5675 78.7072 43.6044 78.8967Z" fill="#004FC7"/>
<path d="M40.2101 71.7433C40.1128 71.8012 39.9892 71.8749 39.9129 71.9223C39.9156 71.9223 39.9156 71.925 39.9182 71.925C39.9129 71.925 39.9103 71.9276 39.9077 71.9276C39.763 71.9565 39.6184 72.0092 39.4685 72.0882C39.0398 72.3093 38.7031 72.6648 38.4428 73.1123C37.7432 74.3049 37.5828 76.1505 37.6222 77.8381C37.6696 79.9548 38.0325 81.8267 38.0404 81.8662L37.7353 81.9267C37.7037 81.774 37.3829 80.1075 37.3092 78.1514C37.2514 76.5849 37.354 74.8368 37.8931 73.5257C38.1956 72.7964 38.6295 72.2014 39.2502 71.8539C39.2738 71.8381 39.3001 71.8249 39.3264 71.8117C39.5316 71.7038 39.7394 71.638 39.9419 71.6064C40.0628 71.588 40.2759 71.6275 40.3942 71.638C40.3548 71.6696 40.2838 71.6985 40.2101 71.7433Z" fill="#350d05"/>
<path d="M44.3363 78.9532L44.0312 79.0111C44.0233 78.9611 43.1949 74.8224 41.7168 72.8636C41.8246 72.7557 41.8378 72.7504 41.9482 72.6504C43.5026 74.6434 44.2968 78.7478 44.3363 78.9532Z" fill="#350d05"/>
<path d="M48.6446 90.6162L48.137 91.1691L38.9268 94.1809L36.6387 81.8492L37.1594 81.37L37.3225 81.5017L43.545 78.3477L47.6531 89.8185L48.6446 90.6162Z" fill="#004FC7"/>
<path d="M37.1445 81.2965L44.0509 77.7949L48.6429 90.6163L39.4326 93.6282L37.1445 81.2965Z" fill="#350d05"/>
<path d="M7.63923 83.8086C7.5577 83.8428 7.4788 83.8823 7.3999 83.9297C6.55041 84.4326 6.07964 85.3909 5.85084 86.5229C5.55891 87.9446 5.6457 89.6454 5.82191 91.0776C6.02441 92.7046 6.31634 93.8551 6.3479 93.9867L6.65824 93.9341C6.65035 93.8999 6.31108 92.5703 6.1112 90.788C5.94289 89.2926 5.88503 87.555 6.24796 86.1965C6.4531 85.4225 6.795 84.7695 7.32889 84.3536C7.37886 84.2746 7.43935 84.2061 7.50773 84.1509C7.54718 84.1193 7.59189 84.0903 7.63923 84.064V83.8086Z" fill="#D53E2F"/>
<path d="M12.806 90.7805L12.5035 90.8543C12.493 90.8095 11.6435 87.4291 10.2891 85.4203C10.3548 85.3255 10.4153 85.236 10.4758 85.1465C11.9039 87.179 12.7586 90.5936 12.806 90.7805Z" fill="#D53E2F"/>
<path d="M7.10996 85.0449C7.08103 85.2871 7.08366 85.5504 7.10996 85.8032C6.6839 87.0037 6.6576 88.5965 6.77332 90.0629C6.94164 92.1744 7.40977 94.0226 7.42029 94.0594L7.11785 94.1384C7.0784 93.9883 6.66286 92.3429 6.47876 90.392C6.33148 88.8334 6.33411 87.08 6.79962 85.74C6.88641 85.4951 6.98898 85.2608 7.10996 85.0449Z" fill="#FC5F2D"/>
<path d="M13.5416 90.7991L13.2391 90.8728C13.226 90.8254 12.2161 86.7894 10.6328 84.9176C10.6959 84.8254 10.7564 84.7385 10.8117 84.6543C12.4764 86.5551 13.4916 90.5964 13.5416 90.7991Z" fill="#FC5F2D"/>
<path d="M18.7348 102.41L18.2272 103.034L8.59088 106.83L5.36914 93.814L5.89514 93.2717L6.07661 93.4007L13.6089 90.3125L17.6249 101.62L18.7348 102.41Z" fill="#D53E2F"/>
<path d="M5.89453 93.2717L13.6083 90.3125L18.7342 102.41L9.09523 106.206L5.89453 93.2717Z" fill="#FC5F2D"/>
<path d="M19.3337 64.8105C19.3337 64.8105 18.0055 74.8992 16.7405 77.1528C16.7405 77.1528 12.7403 82.3314 10.6152 84.098C10.9124 84.9483 11.37 85.5381 12.0512 85.904C12.0512 85.904 17.9608 81.4679 19.4468 79.0221C21.08 76.3998 21.8427 71.9769 21.89 70.1655C21.89 70.1682 20.9064 67.2827 19.3337 64.8105Z" fill="#D38400"/>
<path d="M9.97119 86.0647C10.0185 86.091 9.81076 86.2016 9.84495 86.578C9.86862 86.8334 11.4256 86.7887 12.0489 85.9041L10.6129 84.098C10.6129 84.098 8.5431 83.4425 7.68835 83.7321C6.83361 84.0217 6.43122 86.0805 6.83624 86.5491C6.83624 86.5491 6.85465 86.6254 7.06504 86.5412C7.06504 86.5412 7.24914 86.8966 7.57 86.9229C7.88823 86.9466 8.03551 86.6044 8.03551 86.6044C8.03551 86.6044 8.096 86.9967 8.40371 87.0467C8.71142 87.0967 8.85607 86.6044 8.85607 86.6044C8.85607 86.6044 9.06384 87.0993 9.36366 87.0493C9.82128 86.9703 9.78446 85.962 9.97119 86.0647Z" fill="#FFAA95"/>
<path d="M8.99696 83.7236C8.50515 83.6499 8.01334 83.6235 7.68985 83.7341C7.60569 83.7631 7.52679 83.8078 7.45315 83.8657C6.81143 84.0816 6.27492 84.5818 5.82256 85.2453C5.03093 86.409 4.51019 88.0676 4.17355 89.534C3.77379 91.2821 3.65281 92.6485 3.65018 92.6828L3.33984 92.6301C3.35036 92.4958 3.45819 91.3137 3.80535 89.7104C4.11043 88.2993 4.59435 86.667 5.33864 85.4217C5.93039 84.4291 6.69308 83.6814 7.65829 83.4893C8.16588 83.3892 8.61298 83.4682 8.99696 83.7236Z" fill="#004FC7"/>
<path d="M10.4917 91.7467L10.1814 91.7151C10.1866 91.6704 10.4943 88.4637 9.87891 86.1206C9.98937 85.9099 10.1314 85.8757 10.2234 85.9099C10.8993 88.2978 10.5101 91.5545 10.4917 91.7467Z" fill="#004FC7"/>
<path d="M7.02231 84.4434C6.91448 84.6619 6.83032 84.9094 6.77246 85.1595C5.97294 86.1494 5.42064 87.6448 5.04455 89.0691C4.5054 91.1173 4.33445 93.0155 4.33182 93.055L4.02148 93.0287C4.03463 92.8734 4.18717 91.1832 4.65794 89.2823C5.03403 87.7632 5.61789 86.1099 6.49894 84.9989C6.66463 84.7935 6.83821 84.6066 7.02231 84.4434Z" fill="#350d05"/>
<path d="M11.1862 92.0037L10.8759 91.9748C10.8812 91.9247 11.2625 87.7808 10.3867 85.4903C10.4525 85.3455 10.5445 85.3008 10.6418 85.3008C11.586 87.6492 11.2073 91.7957 11.1862 92.0037Z" fill="#350d05"/>
<path d="M12.2429 104.687L11.5591 105.105L0.962891 105.5L2.21477 92.2732L3.15367 91.8046L3.28254 91.9863L11.4119 91.5703L11.4592 103.573L12.2429 104.687Z" fill="#004FC7"/>
<path d="M3.1543 91.8046L11.4125 91.5703L12.2436 104.687L1.89453 105.074L3.1543 91.8046Z" fill="#350d05"/>
<path d="M32.4526 88.4997L32.4815 88.6287C29.6622 90.5401 19.1133 89.2343 19.1133 89.2343C19.1317 89.0131 19.1554 88.7814 19.1869 88.5418C19.2185 88.2759 19.2606 87.9969 19.3079 87.7125C19.4341 86.9438 19.6051 86.1118 19.7971 85.2562C19.8576 84.9876 19.9207 84.7138 19.9864 84.44C20.1758 83.6239 20.3783 82.7972 20.5703 81.989C20.636 81.7125 20.7018 81.4387 20.7649 81.1675C20.8517 80.7911 20.9359 80.4199 21.0148 80.0592C21.12 79.58 21.212 79.1219 21.2883 78.6875C21.3409 78.3953 21.3856 78.1162 21.4198 77.8529C21.4592 77.5712 21.4882 77.308 21.5039 77.0605C21.3356 76.4392 21.1805 75.8336 21.0332 75.2439C20.9595 74.9438 20.8885 74.6515 20.8201 74.3593C20.6045 73.4299 20.4125 72.548 20.2468 71.7187C20.1889 71.4185 20.1285 71.1263 20.0759 70.8393C19.8918 69.8626 19.7419 68.9806 19.6235 68.2092C19.5762 67.9012 19.5341 67.6142 19.4946 67.3457C19.4525 67.0508 19.4157 66.777 19.3842 66.5269C19.2422 65.4343 19.1948 64.813 19.1948 64.813C19.2185 64.7919 19.2448 64.7735 19.2737 64.7551C19.5946 64.5287 20.0943 64.3128 20.6492 64.1232C21.2357 63.9231 21.8853 63.7467 22.456 63.6072C22.5428 63.5861 22.627 63.5651 22.7111 63.5466C23.4633 63.3703 24.0261 63.2676 24.0261 63.2676C26.5851 63.8047 27.3136 63.4598 27.3136 63.4598L28.6128 63.8441L28.7654 63.8968L29.7121 64.2285L29.7516 64.2417L31.4506 64.8393L32.5841 65.2369L32.1449 67.2667L31.9529 68.1539L31.3743 70.8262L31.1849 71.7108L30.609 74.3751L30.4196 75.2492L29.941 77.4554L30.0356 77.8766L30.2224 78.6954L30.5169 79.996L30.7852 81.1728L30.9693 81.989L31.5268 84.4427L31.7136 85.2536L32.2659 87.6783L32.4526 88.4997Z" fill="url(#paint4_linear_5192_25070)"/>
<path d="M28.9078 63.8988C28.6342 65.4995 27.9715 67.6452 26.3593 67.819C24.4131 68.0296 23.2927 65.0494 22.8535 63.5487C23.6057 63.3723 24.3842 63.2012 24.3842 63.2012C26.9432 63.7382 27.435 63.4118 27.435 63.4118L28.7552 63.8462L28.9078 63.8988Z" fill="#FFAA95"/>
<path d="M26.0481 65.9402C24.0073 65.9402 23.5207 63.4181 23.5155 63.3918C23.5049 63.3365 23.5418 63.2838 23.597 63.2733C23.6522 63.2628 23.7048 63.2996 23.7153 63.3549C23.7338 63.4549 24.1966 65.8376 26.1691 65.7349C27.8944 65.648 27.997 63.7287 27.9996 63.6471C28.0022 63.5918 28.0469 63.5471 28.1048 63.5497C28.16 63.5524 28.2021 63.5997 28.2021 63.655C28.2021 63.6761 28.0917 65.8376 26.1796 65.935C26.1349 65.9402 26.0902 65.9402 26.0481 65.9402Z" fill="white"/>
<path d="M22.3867 65.2437C22.3867 65.5201 22.1632 65.7413 21.8896 65.7413C21.6135 65.7413 21.3926 65.5175 21.3926 65.2437C21.3926 64.9673 21.6161 64.7461 21.8896 64.7461C22.1658 64.7435 22.3867 64.9673 22.3867 65.2437Z" fill="#D38400"/>
<path d="M21.3906 67.6773C21.3906 67.9537 21.1671 68.1749 20.8936 68.1749C20.6174 68.1749 20.3965 67.9511 20.3965 67.6773C20.3965 67.4035 20.62 67.1797 20.8936 67.1797C21.1671 67.1771 21.3906 67.4009 21.3906 67.6773Z" fill="#D38400"/>
<path d="M24.5684 68.8277C24.5684 69.1041 24.3448 69.3253 24.0713 69.3253C23.7978 69.3253 23.5742 69.1015 23.5742 68.8277C23.5742 68.5512 23.7978 68.3301 24.0713 68.3301C24.3448 68.3301 24.5684 68.5512 24.5684 68.8277Z" fill="#D38400"/>
<path d="M22.3524 70.1868C22.455 70.4421 22.3314 70.7317 22.0736 70.8344C21.8185 70.9371 21.5292 70.8134 21.4267 70.5553C21.3241 70.3 21.4477 70.0104 21.7054 69.9077C21.9606 69.8077 22.2499 69.9314 22.3524 70.1868Z" fill="#D38400"/>
<path d="M26.6699 71.107C26.6699 71.3834 26.4464 71.6045 26.1728 71.6045C25.8967 71.6045 25.6758 71.3808 25.6758 71.107C25.6758 70.8332 25.8993 70.6094 26.1728 70.6094C26.4464 70.6094 26.6699 70.8305 26.6699 71.107Z" fill="#D38400"/>
<path d="M29.8457 72.1343C29.8457 72.4107 29.6222 72.6319 29.3486 72.6319C29.0751 72.6319 28.8516 72.4081 28.8516 72.1343C28.8516 71.8579 29.0751 71.6367 29.3486 71.6367C29.6222 71.6367 29.8457 71.8605 29.8457 72.1343Z" fill="#D38400"/>
<path d="M29.9873 66.2393C30.2618 66.2393 30.4844 66.0165 30.4844 65.7417C30.4844 65.4669 30.2618 65.2441 29.9873 65.2441C29.7128 65.2441 29.4902 65.4669 29.4902 65.7417C29.4902 66.0165 29.7128 66.2393 29.9873 66.2393Z" fill="#D38400"/>
<path d="M26.8711 74.2925C26.8711 74.5689 26.6475 74.7901 26.374 74.7901C26.0979 74.7901 25.877 74.5663 25.877 74.2925C25.877 74.0161 26.1005 73.7949 26.374 73.7949C26.6475 73.7949 26.8711 74.0187 26.8711 74.2925Z" fill="#D38400"/>
<path d="M23.8047 75.8355C23.8047 76.1119 23.5811 76.3331 23.3076 76.3331C23.0315 76.3331 22.8105 76.1093 22.8105 75.8355C22.8105 75.559 23.0341 75.3379 23.3076 75.3379C23.5811 75.3379 23.8047 75.5617 23.8047 75.8355Z" fill="#D38400"/>
<path d="M23.4473 73.021C23.4473 73.2975 23.2237 73.5186 22.9502 73.5186C22.674 73.5186 22.4531 73.2948 22.4531 73.021C22.4531 72.7472 22.6767 72.5234 22.9502 72.5234C23.2237 72.5234 23.4473 72.7472 23.4473 73.021Z" fill="#D38400"/>
<path d="M28.3516 68.9566C28.3516 69.233 28.128 69.4542 27.8545 69.4542C27.5783 69.4542 27.3574 69.2304 27.3574 68.9566C27.3574 68.6801 27.581 68.459 27.8545 68.459C28.1306 68.459 28.3516 68.6828 28.3516 68.9566Z" fill="#D38400"/>
<path d="M31.1055 68.3277C31.1055 68.6041 30.8819 68.8253 30.6084 68.8253C30.3322 68.8253 30.1113 68.6015 30.1113 68.3277C30.1113 68.0512 30.3349 67.8301 30.6084 67.8301C30.8845 67.8301 31.1055 68.0539 31.1055 68.3277Z" fill="#D38400"/>
<path d="M29.3496 75.1187C29.3496 75.3951 29.1261 75.6163 28.8525 75.6163C28.579 75.6163 28.3555 75.3925 28.3555 75.1187C28.3555 74.8449 28.579 74.6211 28.8525 74.6211C29.1261 74.6211 29.3496 74.8422 29.3496 75.1187Z" fill="#D38400"/>
<path d="M29.4824 79.062C29.4824 79.3385 29.2589 79.5596 28.9853 79.5596C28.7092 79.5596 28.4883 79.3358 28.4883 79.062C28.4883 78.7856 28.7118 78.5645 28.9853 78.5645C29.2589 78.5645 29.4824 78.7856 29.4824 79.062Z" fill="#D38400"/>
<path d="M26.9481 77.4144C27.0507 77.6698 26.9271 77.9594 26.6693 78.0621C26.4142 78.1647 26.1249 78.041 26.0224 77.783C25.9198 77.5276 26.0434 77.238 26.3011 77.1353C26.5563 77.0327 26.8456 77.159 26.9481 77.4144Z" fill="#D38400"/>
<path d="M23.5575 78.8754C23.6601 79.1307 23.5365 79.4203 23.2787 79.523C23.0236 79.6257 22.7343 79.5019 22.6317 79.2439C22.5292 78.9886 22.6528 78.699 22.9105 78.5963C23.1656 78.4936 23.4549 78.62 23.5575 78.8754Z" fill="#D38400"/>
<path d="M35.4135 115.768C29.8382 121.877 21.4056 121.277 16.5195 117.263L16.6651 115.145L16.7072 114.545L16.7881 113.356L16.8075 113.084L16.8658 112.24L17.1635 108.028L17.1861 107.671L17.2444 106.833L17.2864 106.233L17.5582 102.383C17.5582 102.343 17.5615 102.309 17.5615 102.264C17.5744 101.986 17.5938 101.709 17.61 101.42C17.6229 101.25 17.6327 101.075 17.6488 100.899C17.6877 100.316 17.7362 99.7271 17.7944 99.1099C17.8624 98.4022 17.9401 97.6661 18.0274 96.913C18.0565 96.6413 18.0889 96.3751 18.1245 96.092C18.2119 95.3503 18.3025 94.5972 18.3995 93.8272C18.4772 93.2553 18.5549 92.6608 18.6325 92.0719C18.6519 91.9304 18.6714 91.7945 18.6908 91.6473C18.7296 91.3755 18.762 91.098 18.8008 90.8206C18.9852 89.4787 19.1729 88.1254 19.3509 86.8005C19.3703 86.6646 19.3897 86.54 19.4027 86.4041C19.4415 86.1267 19.4803 85.8493 19.5191 85.5661C19.5418 85.3906 19.5677 85.2094 19.5903 85.0339C19.6971 84.2242 20.3156 83.4865 20.4095 82.7165C22.5807 83.5715 26.5291 84.9207 31.1531 82.5312L31.8897 84.8018L31.922 85.0622L31.9932 85.6341L32.1486 86.8175L32.5692 90.0505L32.6792 90.8885L32.8346 92.0889L33.0611 93.8385L33.2487 95.2993L33.3588 96.1373L33.7406 99.059L33.9347 100.554L33.9671 100.797L34.0059 101.075L34.035 101.397L34.4654 105.916L34.4751 106.023L34.5463 106.765L34.6434 107.796L34.9767 111.283L35.0576 112.127L35.1385 112.982L35.1482 113.107L35.3067 114.76L35.4135 115.768Z" fill="#b49056"/>
<path d="M29.0941 57.1348C29.0941 57.1348 29.7043 56.3581 30.1593 57.0005C30.6143 57.6429 29.9699 59.5358 28.8574 59.0725L29.0941 57.1348Z" fill="#FF8B6B"/>
<path d="M29.3574 58.945C29.3574 59.0582 29.4495 59.1477 29.5599 59.1477C29.673 59.1477 29.7624 59.0555 29.7624 58.945C29.7624 58.8318 29.6704 58.7422 29.5599 58.7422C29.4468 58.7396 29.3574 58.8318 29.3574 58.945Z" fill="white"/>
<path d="M24.3809 61.0996V63.4217C24.3809 63.4217 25.4592 64.2536 26.3008 64.3273C27.1424 64.4011 27.4317 63.4085 27.4317 63.4085V61.247L24.3809 61.0996Z" fill="#FFAA95"/>
<path d="M24.3809 61.3262V62.2529C24.9463 62.8795 25.9483 63.1033 27.4317 62.8821V61.471L24.3809 61.3262Z" fill="#FF8B6B"/>
<path d="M29.605 57.9384C29.5787 58.1622 29.5471 58.3912 29.5051 58.6176C29.2394 60.1288 28.2848 61.7611 27.0776 62.0349C24.4739 62.6273 23.393 60.579 22.9774 59.0704C22.9327 58.9019 23.0169 58.7098 22.9801 58.5123C22.8933 58.041 22.7039 57.5066 22.6618 56.9801C22.6329 56.6141 22.6119 56.2534 22.5961 55.9296C22.554 55.0108 23.0853 54.1683 23.9163 53.8392C25.113 53.3627 26.9303 52.9862 28.6503 53.9972C29.2868 54.371 29.6839 55.0608 29.6997 55.8164C29.7128 56.393 29.6971 57.1459 29.605 57.9384Z" fill="#FFAA95"/>
<path d="M28.458 55.4756C29.4758 55.9389 29.1523 57.15 29.4969 57.7582C29.5179 57.7977 29.5416 57.8056 29.5679 57.7845C29.6652 56.9789 29.681 56.2075 29.6678 55.6204C29.652 54.849 29.2312 54.146 28.5632 53.7643C26.7485 52.7349 24.8339 53.1193 23.5715 53.6037C22.6957 53.9407 22.1355 54.799 22.1802 55.7362C22.196 56.0679 22.2197 56.4365 22.2512 56.8077C22.4196 56.9078 22.8325 56.9552 22.8509 57.2263C22.8956 57.9451 22.9324 58.4374 23.0823 58.3926C23.3348 58.3189 23.4926 57.4501 23.2033 56.8867C23.2033 56.8867 23.4347 56.5076 24.3842 56.1417C25.5992 55.673 26.7696 54.978 26.7696 54.978C26.7696 54.978 27.2324 54.6989 27.4087 54.3962C27.406 54.3962 27.6848 55.1228 28.458 55.4756Z" fill="#b49056"/>
<path d="M22.8241 57.1301C22.8241 57.1301 22.114 56.2665 21.6932 56.8905C21.2724 57.5118 21.8667 59.3521 22.8951 58.9045L22.8241 57.1301Z" fill="#FFAA95"/>
<path d="M126.058 52.8658H94.7119C94.2574 52.8658 93.8906 52.4987 93.8906 52.0437V46.8631C93.8906 46.4081 94.2574 46.041 94.7119 46.041H126.058C126.512 46.041 126.879 46.4081 126.879 46.8631V52.0437C126.882 52.4987 126.512 52.8658 126.058 52.8658Z" fill="#FC5F2D"/>
<path d="M123.409 51.251H123.17C122.167 51.251 121.355 50.4383 121.355 49.4342V49.1957C121.355 48.1916 122.167 47.3789 123.17 47.3789H123.409C124.412 47.3789 125.224 48.1916 125.224 49.1957V49.4342C125.224 50.4352 124.412 51.251 123.409 51.251Z" fill="#FC9749"/>
<path d="M118.121 48.1132H96.3604C96.1692 48.1132 96.0156 47.9594 96.0156 47.768V47.7241C96.0156 47.5327 96.1692 47.3789 96.3604 47.3789H118.121C118.312 47.3789 118.465 47.5327 118.465 47.7241V47.768C118.465 47.9594 118.309 48.1132 118.121 48.1132Z" fill="#FC9749"/>
<path d="M118.121 49.6835H96.3604C96.1692 49.6835 96.0156 49.5297 96.0156 49.3383V49.2944C96.0156 49.103 96.1692 48.9492 96.3604 48.9492H118.121C118.312 48.9492 118.465 49.103 118.465 49.2944V49.3383C118.465 49.5297 118.309 49.6835 118.121 49.6835Z" fill="#FC9749"/>
<path d="M118.121 51.2538H96.3604C96.1692 51.2538 96.0156 51.1 96.0156 50.9086V50.8647C96.0156 50.6733 96.1692 50.5195 96.3604 50.5195H118.121C118.312 50.5195 118.465 50.6733 118.465 50.8647V50.9086C118.465 51.1 118.309 51.2538 118.121 51.2538Z" fill="#FC9749"/>
<path d="M126.222 62.8853H94.8759C94.4214 62.8853 94.0547 62.5182 94.0547 62.0632V56.8827C94.0547 56.4277 94.4214 56.0605 94.8759 56.0605H126.222C126.676 56.0605 127.043 56.4277 127.043 56.8827V62.0632C127.043 62.5182 126.676 62.8853 126.222 62.8853Z" fill="#350d05"/>
<path d="M123.407 61.4073H123.168C122.165 61.4073 121.354 60.5946 121.354 59.5904V59.352C121.354 58.3479 122.165 57.5352 123.168 57.5352H123.407C124.41 57.5352 125.222 58.3479 125.222 59.352V59.5904C125.222 60.5914 124.41 61.4073 123.407 61.4073Z" fill="#0096E2"/>
<path d="M118.119 58.2694H96.3585C96.1673 58.2694 96.0137 58.1157 96.0137 57.9243V57.8803C96.0137 57.6889 96.1673 57.5352 96.3585 57.5352H118.119C118.31 57.5352 118.463 57.6889 118.463 57.8803V57.9243C118.463 58.1157 118.307 58.2694 118.119 58.2694Z" fill="#0096E2"/>
<path d="M118.119 59.8397H96.3585C96.1673 59.8397 96.0137 59.686 96.0137 59.4946V59.4506C96.0137 59.2592 96.1673 59.1055 96.3585 59.1055H118.119C118.31 59.1055 118.463 59.2592 118.463 59.4506V59.4946C118.463 59.686 118.307 59.8397 118.119 59.8397Z" fill="#0096E2"/>
<path d="M118.119 61.41H96.3585C96.1673 61.41 96.0137 61.2563 96.0137 61.0649V61.0209C96.0137 60.8295 96.1673 60.6758 96.3585 60.6758H118.119C118.31 60.6758 118.463 60.8295 118.463 61.0209V61.0649C118.463 61.2531 118.307 61.41 118.119 61.41Z" fill="#0096E2"/>
<path d="M131.59 125.603H106.432L109.895 97.5723H128.126L131.59 125.603Z" fill="#FC5F2D"/>
<path d="M115.868 98.9789C115.868 99.4527 115.483 99.8387 115.009 99.8387C114.536 99.8387 114.15 99.4527 114.15 98.9789C114.15 98.5051 114.536 98.1191 115.009 98.1191C115.483 98.1191 115.868 98.502 115.868 98.9789Z" fill="#ED3915"/>
<path d="M124.659 98.9789C124.659 99.4527 124.274 99.8387 123.8 99.8387C123.327 99.8387 122.941 99.4527 122.941 98.9789C122.941 98.5051 123.327 98.1191 123.8 98.1191C124.274 98.1191 124.659 98.502 124.659 98.9789Z" fill="#ED3915"/>
<path d="M115.032 98.8791C114.831 98.8728 114.675 98.7034 114.684 98.5026C114.728 97.6302 114.881 95.3239 115.355 93.0427C116.189 89.0294 117.587 86.9961 119.505 86.9961C121.426 86.9961 122.787 89.0326 123.549 93.049C123.981 95.3302 124.091 97.6334 124.119 98.5088C124.125 98.7097 123.965 98.876 123.765 98.8791C123.567 98.8822 123.408 98.7253 123.404 98.5308C123.323 95.211 122.511 87.7178 119.508 87.7178C116.499 87.7178 115.546 95.2141 115.405 98.5371C115.389 98.7316 115.226 98.8854 115.032 98.8791Z" fill="white"/>
<path d="M129.661 127.765H91.2715L94.8073 109.775H126.125L129.661 127.765Z" fill="#350d05"/>
<path d="M103.737 111.409C103.737 111.882 103.352 112.268 102.878 112.268C102.405 112.268 102.02 111.882 102.02 111.409C102.02 110.935 102.405 110.549 102.878 110.549C103.355 110.546 103.737 110.932 103.737 111.409Z" fill="#b49056"/>
<path d="M118.724 111.409C118.724 111.882 118.338 112.268 117.865 112.268C117.391 112.268 117.006 111.882 117.006 111.409C117.006 110.935 117.391 110.549 117.865 110.549C118.338 110.546 118.724 110.932 118.724 111.409Z" fill="#b49056"/>
<path d="M102.872 111.306C102.641 111.3 102.465 111.102 102.484 110.873C102.553 110.113 102.778 108.447 103.537 106.762C104.894 103.741 107.295 102.146 110.483 102.146C113.674 102.146 116.035 103.747 117.31 106.772C118.022 108.457 118.201 110.123 118.248 110.885C118.26 111.114 118.078 111.309 117.846 111.309C117.636 111.309 117.461 111.143 117.448 110.932C117.404 110.226 117.229 108.632 116.564 107.063C115.408 104.334 113.361 102.947 110.483 102.947C107.593 102.947 105.502 104.343 104.264 107.092C103.559 108.661 103.343 110.242 103.28 110.945C103.261 111.152 103.083 111.312 102.872 111.306Z" fill="white"/>
<path d="M62.4801 112.117H41.1211V128.359H62.4801V112.117Z" fill="#350d05"/>
<path d="M63.1879 111.305H40.4121V114.006H63.1879V111.305Z" fill="#350d05"/>
<path d="M62.4801 114.006H41.1211V115.493H62.4801V114.006Z" fill="#b49056"/>
<path d="M52.7346 111.305H50.8633V128.371H52.7346V111.305Z" fill="white"/>
<path d="M52.7366 115.396H50.8652V128.375H52.7366V115.396Z" fill="#F1F1F1"/>
<path d="M52.7366 114.006H50.8652V115.493H52.7366V114.006Z" fill="#D8D8D8"/>
<path d="M63.7934 41.2603H65.7554C66.5948 41.2603 67.23 41.3782 67.6612 41.6139C68.0924 41.8496 68.308 42.2636 68.308 42.8558C68.308 43.0944 68.2692 43.31 68.1916 43.5026C68.1169 43.6952 68.0076 43.8533 67.8639 43.9769C67.7202 44.1005 67.5448 44.181 67.3378 44.2184V44.2615C67.5477 44.3046 67.7374 44.3793 67.907 44.4857C68.0766 44.5892 68.2117 44.7415 68.3124 44.9428C68.4158 45.1411 68.4676 45.4056 68.4676 45.7362C68.4676 46.1185 68.3742 46.4462 68.1873 46.7193C68.0005 46.9924 67.7331 47.2022 67.3853 47.3489C67.0403 47.4926 66.6292 47.5645 66.1521 47.5645H63.7934V41.2603ZM65.1301 43.757H65.9063C66.2944 43.757 66.5631 43.6966 66.7126 43.5759C66.8621 43.4523 66.9368 43.2712 66.9368 43.0326C66.9368 42.7911 66.8477 42.6186 66.6695 42.5151C66.4941 42.4088 66.2153 42.3556 65.833 42.3556H65.1301V43.757ZM65.1301 44.8177V46.4606H66.0011C66.4036 46.4606 66.6839 46.383 66.842 46.2277C67.0001 46.0725 67.0791 45.8641 67.0791 45.6025C67.0791 45.4473 67.0446 45.3107 66.9756 45.1929C66.9067 45.075 66.7902 44.983 66.6264 44.9169C66.4654 44.8508 66.2426 44.8177 65.958 44.8177H65.1301ZM72.5812 47.5645H71.2488V43.9165C71.2488 43.8159 71.2503 43.6923 71.2531 43.5457C71.256 43.3962 71.2603 43.2439 71.2661 43.0886C71.2718 42.9305 71.2776 42.7882 71.2833 42.6617C71.2517 42.6991 71.187 42.7638 71.0893 42.8558C70.9944 42.9449 70.9053 43.0254 70.8219 43.0972L70.0975 43.6794L69.455 42.8773L71.486 41.2603H72.5812V47.5645ZM77.1735 44.0243H79.6744V47.2928C79.3438 47.402 79.0003 47.4897 78.6439 47.5558C78.2874 47.6191 77.8835 47.6507 77.4322 47.6507C76.8055 47.6507 76.2737 47.5271 75.8368 47.2799C75.3998 47.0326 75.0678 46.6676 74.8407 46.1846C74.6136 45.7017 74.5 45.1081 74.5 44.4038C74.5 43.7426 74.6265 43.1705 74.8795 42.6876C75.1353 42.2047 75.5076 41.831 75.9963 41.5665C76.4879 41.302 77.0872 41.1698 77.7944 41.1698C78.1279 41.1698 78.457 41.2057 78.7818 41.2776C79.1067 41.3495 79.4013 41.4429 79.6658 41.5579L79.2217 42.6272C79.0291 42.5295 78.8091 42.4476 78.5619 42.3815C78.3147 42.3153 78.056 42.2823 77.7858 42.2823C77.3977 42.2823 77.0599 42.3714 76.7725 42.5496C76.4879 42.7279 76.2665 42.9779 76.1084 43.2999C75.9532 43.619 75.8756 43.9956 75.8756 44.4296C75.8756 44.8407 75.9316 45.2058 76.0437 45.5249C76.1558 45.8411 76.3326 46.0898 76.5741 46.2709C76.8156 46.4491 77.1303 46.5382 77.5184 46.5382C77.7082 46.5382 77.8677 46.5296 77.9971 46.5123C78.1293 46.4922 78.2529 46.4721 78.3679 46.452V45.1368H77.1735V44.0243ZM84.0338 47.5645H82.7014V43.9165C82.7014 43.8159 82.7029 43.6923 82.7057 43.5457C82.7086 43.3962 82.7129 43.2439 82.7187 43.0886C82.7244 42.9305 82.7302 42.7882 82.7359 42.6617C82.7043 42.6991 82.6396 42.7638 82.5419 42.8558C82.447 42.9449 82.3579 43.0254 82.2745 43.0972L81.5501 43.6794L80.9076 42.8773L82.9386 41.2603H84.0338V47.5645Z" fill="#b49056"/>
<defs>
<linearGradient id="paint0_linear_5192_25070" x1="94.3039" y1="-41.5376" x2="124.658" y2="171.812" gradientUnits="userSpaceOnUse">
<stop stop-color="#2DC8D8"/>
<stop offset="1" stop-color="#ECF281"/>
</linearGradient>
<linearGradient id="paint1_linear_5192_25070" x1="108.116" y1="30.5566" x2="108.116" y2="43.4798" gradientUnits="userSpaceOnUse">
<stop stop-color="#A45079"/>
<stop offset="1" stop-color="#68113C"/>
</linearGradient>
<linearGradient id="paint2_linear_5192_25070" x1="28.5599" y1="122.145" x2="31.2348" y2="127.888" gradientUnits="userSpaceOnUse">
<stop stop-color="#FFB800"/>
</linearGradient>
<linearGradient id="paint3_linear_5192_25070" x1="16.856" y1="122.261" x2="18.521" y2="127.837" gradientUnits="userSpaceOnUse">
<stop stop-color="#FFB800"/>
</linearGradient>
<linearGradient id="paint4_linear_5192_25070" x1="20.3587" y1="64.3996" x2="40.5298" y2="80.7899" gradientUnits="userSpaceOnUse">
<stop stop-color="#FFB800"/>
</linearGradient>
</defs>
</svg>
