<svg width="25" height="25" viewBox="0 0 25 25" fill="none" xmlns="http://www.w3.org/2000/svg">
<path fill-rule="evenodd" clip-rule="evenodd" d="M17.7721 7.98145C17.8039 7.91057 17.8188 7.83333 17.8157 7.75577H17.8418C17.73 5.08735 15.5267 2.98145 12.8467 2.98145C10.1668 2.98145 7.96352 5.08735 7.85168 7.75577C7.8385 7.83042 7.8385 7.90679 7.85168 7.98145H7.77351C6.49201 7.98145 5.12214 8.82741 4.72444 11.1015L3.9467 17.2962C3.31037 21.8444 5.65241 22.9814 8.71033 22.9814H17.0003C20.0493 22.9814 22.3207 21.335 21.7551 17.2962L20.9862 11.1015C20.5178 8.89109 19.1921 7.98145 17.9282 7.98145H17.7721ZM16.335 7.98145C16.3072 7.90939 16.2924 7.83297 16.2915 7.75577C16.2915 5.83827 14.7317 4.28383 12.8075 4.28383C10.8834 4.28383 9.32364 5.83827 9.32364 7.75577C9.33682 7.83042 9.33682 7.90679 9.32364 7.98145H16.335ZM9.93848 13.1298C9.45037 13.1298 9.05469 12.7226 9.05469 12.2202C9.05469 11.7178 9.45037 11.3105 9.93848 11.3105C10.4266 11.3105 10.8223 11.7178 10.8223 12.2202C10.8223 12.7226 10.4266 13.1298 9.93848 13.1298ZM14.8438 12.2202C14.8438 12.7226 15.2394 13.1298 15.7275 13.1298C16.2156 13.1298 16.6113 12.7226 16.6113 12.2202C16.6113 11.7178 16.2156 11.3105 15.7275 11.3105C15.2394 11.3105 14.8438 11.7178 14.8438 12.2202Z" fill="#312B3E"/>
</svg>
