<svg width="25" height="20" viewBox="0 0 25 20" fill="none" xmlns="http://www.w3.org/2000/svg">
<path d="M22.4562 16.498C22.4554 16.8211 22.3327 17.1319 22.1128 17.3685C21.8929 17.6052 21.5919 17.7502 21.2698 17.7747C18.9715 17.9388 16.3382 18.5051 14.8252 19.4393C18.5054 19.0681 24.0398 18.4677 24.0398 18.4677V1.86993C24.0398 1.86993 23.4148 1.78777 22.4562 1.71313V16.498Z" fill="white"/>
<path d="M12.604 3.88899C12.5963 3.9134 12.5924 3.93886 12.5924 3.96448L12.5924 19.3287C12.5921 19.3905 12.611 19.4508 12.6465 19.5013C12.682 19.5519 12.7322 19.5902 12.7904 19.611C12.8486 19.6317 12.9117 19.6339 12.9712 19.6173C13.0307 19.6006 13.0835 19.5659 13.1224 19.518C14.9091 17.2855 20.0924 16.8012 21.1941 16.7225C21.2507 16.7184 21.3036 16.6929 21.3421 16.6512C21.3807 16.6095 21.4019 16.5547 21.4014 16.498V0.352766C21.4015 0.321746 21.3951 0.291055 21.3827 0.262618C21.3703 0.234181 21.3522 0.208611 21.3294 0.187515C21.3067 0.166418 21.2798 0.15025 21.2505 0.140024C21.2213 0.129798 21.1902 0.125736 21.1592 0.128092C19.8441 0.226545 13.5834 0.852163 12.604 3.88899Z" fill="white"/>
<path d="M2.8102 17.7747C2.488 17.7503 2.18685 17.6053 1.96684 17.3687C1.74682 17.132 1.62414 16.8211 1.62326 16.498V1.71313C0.664682 1.78778 0.0397949 1.86993 0.0397949 1.86993V18.4677C0.0397949 18.4677 5.57424 19.0681 9.25443 19.4393C7.74147 18.5051 5.10833 17.9388 2.8102 17.7747Z" fill="white"/>
<path d="M2.92037 0.128092C2.88944 0.125735 2.85835 0.129796 2.82907 0.140021C2.79978 0.150246 2.77292 0.166414 2.75018 0.187511C2.72744 0.208608 2.7093 0.234177 2.69691 0.262615C2.68452 0.291054 2.67814 0.321746 2.67817 0.352767V16.4979C2.67775 16.5547 2.69895 16.6095 2.73747 16.6512C2.77598 16.6929 2.82892 16.7184 2.88554 16.7225C3.98718 16.8012 9.17052 17.2854 10.9572 19.5179C10.9961 19.5659 11.0489 19.6006 11.1084 19.6173C11.1679 19.6339 11.2311 19.6317 11.2892 19.6109C11.3474 19.5902 11.3976 19.5519 11.4331 19.5013C11.4686 19.4508 11.4875 19.3904 11.4872 19.3287L11.4872 3.96446C11.4872 3.93885 11.4833 3.91338 11.4756 3.88897C10.4962 0.852164 4.23555 0.226546 2.92037 0.128092Z" fill="white"/>
</svg>
