<svg width="25" height="20" viewBox="0 0 25 20" fill="none" xmlns="http://www.w3.org/2000/svg">
<path d="M23.0353 16.6208C23.0345 16.9439 22.9118 17.2547 22.6919 17.4913C22.472 17.728 22.171 17.873 21.8489 17.8975C19.5506 18.0616 16.9173 18.6279 15.4043 19.5621C19.0845 19.1909 24.6189 18.5905 24.6189 18.5905V1.99274C24.6189 1.99274 23.9939 1.91057 23.0353 1.83594V16.6208Z" fill="#E2C41C"/>
<path d="M13.1835 4.01155C13.1757 4.03595 13.1718 4.06142 13.1719 4.08704L13.1719 19.4513C13.1716 19.513 13.1905 19.5733 13.226 19.6239C13.2614 19.6744 13.3117 19.7127 13.3699 19.7335C13.428 19.7543 13.4912 19.7565 13.5507 19.7398C13.6101 19.7232 13.663 19.6885 13.7019 19.6405C15.4885 17.408 20.6719 16.9237 21.7735 16.8451C21.8301 16.841 21.8831 16.8155 21.9216 16.7738C21.9601 16.7321 21.9813 16.6773 21.9809 16.6205V0.475325C21.9809 0.444305 21.9746 0.413614 21.9622 0.385176C21.9498 0.356739 21.9316 0.33117 21.9089 0.310073C21.8862 0.288977 21.8593 0.272808 21.83 0.262582C21.8007 0.252356 21.7696 0.248294 21.7387 0.25065C20.4235 0.349103 14.1629 0.974721 13.1835 4.01155Z" fill="#E2C41C"/>
<path d="M3.38955 17.8975C3.06735 17.8731 2.76619 17.7281 2.54618 17.4915C2.32617 17.2548 2.20348 16.9439 2.20261 16.6208V1.83594C1.24403 1.91058 0.619141 1.99274 0.619141 1.99274V18.5905C0.619141 18.5905 6.15359 19.1909 9.83378 19.5621C8.32082 18.6279 5.68768 18.0616 3.38955 17.8975Z" fill="#E2C41C"/>
<path d="M3.49953 0.250651C3.4686 0.248293 3.43752 0.252355 3.40823 0.26258C3.37894 0.272805 3.35209 0.288973 3.32934 0.31007C3.3066 0.331166 3.28846 0.356736 3.27607 0.385174C3.26368 0.413612 3.2573 0.444305 3.25733 0.475325V16.6205C3.25691 16.6773 3.27811 16.7321 3.31663 16.7738C3.35514 16.8155 3.40808 16.8409 3.4647 16.845C4.56634 16.9237 9.74969 17.408 11.5364 19.6405C11.5753 19.6885 11.6281 19.7232 11.6876 19.7398C11.747 19.7565 11.8102 19.7543 11.8684 19.7335C11.9265 19.7127 11.9768 19.6744 12.0123 19.6239C12.0477 19.5733 12.0666 19.513 12.0664 19.4512L12.0663 4.08702C12.0664 4.0614 12.0625 4.03594 12.0547 4.01153C11.0754 0.974722 4.81472 0.349104 3.49953 0.250651Z" fill="#E2C41C"/>
</svg>
