<svg width="31" height="25" viewBox="0 0 31 25" fill="none" xmlns="http://www.w3.org/2000/svg">
<path d="M2.55264 3.72149C1.68851 3.72149 0.987305 3.02029 0.987305 2.15616C0.987305 1.29153 1.68851 0.59082 2.55264 0.59082H28.6399C29.504 0.59082 30.2053 1.29153 30.2053 2.15616C30.2053 3.02029 29.504 3.72149 28.6399 3.72149H2.55264Z" fill="currentColor"/>
<path d="M2.55314 14.1566C1.68802 14.1566 0.987305 13.4558 0.987305 12.5907C0.987305 11.7266 1.68802 11.0254 2.55264 11.0254H28.6394C29.5036 11.0254 30.2043 11.7266 30.2043 12.5907C30.2043 13.4554 29.5036 14.1561 28.6394 14.1561H2.55314V14.1566Z" fill="currentColor"/>
<path d="M2.55314 24.5906C1.68802 24.5906 0.987305 23.8894 0.987305 23.0248C0.987305 22.1607 1.68802 21.46 2.55314 21.46H28.6394C29.504 21.46 30.2053 22.1607 30.2053 23.0248C30.2053 23.8894 29.504 24.5906 28.6394 24.5906H2.55314Z" fill="currentColor"/>
</svg>
