<svg width="17" height="17" viewBox="0 0 17 17" fill="none" xmlns="http://www.w3.org/2000/svg">
<path d="M8.21352 2.35889C4.7078 2.35889 1.87976 5.18692 1.87976 8.69264C1.87976 12.1984 4.72083 15.0264 8.21352 15.0264C11.7192 15.0264 14.5473 12.1853 14.5473 8.69264C14.5473 5.18692 11.7192 2.35889 8.21352 2.35889ZM7.79648 7.59792C7.91377 7.74128 8.14835 7.88463 8.47416 8.02799C9.24308 8.3538 9.80347 8.67961 10.1684 9.00542C10.5333 9.33123 10.7027 9.8004 10.7027 10.3999C10.7027 10.9733 10.5203 11.4425 10.1553 11.7813C9.84257 12.0811 9.4516 12.2766 8.95636 12.3678V13.2019C8.95636 13.3061 8.86514 13.3973 8.76088 13.3973H8.0441C7.93984 13.3973 7.84861 13.3061 7.84861 13.2019V12.3939C7.23609 12.3157 6.72782 12.1071 6.32382 11.7292C5.94588 11.3904 5.73736 10.8951 5.71129 10.2696C5.71129 10.1392 5.81555 10.035 5.94588 10.035L7.13183 10.0089C7.24912 10.0089 7.35338 10.1001 7.36641 10.2174C7.39247 10.5172 7.4837 10.7518 7.62706 10.8951C7.80951 11.0776 8.03106 11.1688 8.31778 11.1688C8.55236 11.1688 8.73481 11.1036 8.85211 10.9603C8.9694 10.8169 9.03456 10.6345 9.03456 10.4129C9.03456 10.1523 8.9694 9.94376 8.85211 9.8004C8.72178 9.65704 8.50023 9.51369 8.18745 9.37033C7.40551 9.05755 6.84511 8.74477 6.48021 8.43199C6.12833 8.11922 5.94588 7.65005 5.94588 7.02449C5.94588 6.4641 6.12833 6.00796 6.50627 5.64306C6.84511 5.31725 7.30125 5.10873 7.84861 5.03053V4.15736C7.84861 4.0531 7.93984 3.96187 8.0441 3.96187H8.76088C8.86514 3.96187 8.95636 4.0531 8.95636 4.15736V5.0566C9.47766 5.16086 9.8947 5.39544 10.2075 5.76035C10.5072 6.11222 10.6766 6.54229 10.7027 7.06359C10.7157 7.19391 10.5984 7.29817 10.4681 7.29817L9.28218 7.31121C9.16488 7.31121 9.06062 7.23301 9.04759 7.11572C9.02153 6.85507 8.95636 6.65959 8.85211 6.51623C8.70875 6.33377 8.52629 6.25558 8.29171 6.25558C8.05713 6.25558 7.88771 6.33377 7.77041 6.47713C7.65312 6.62049 7.60099 6.80294 7.60099 7.03753C7.61403 7.27211 7.67919 7.45456 7.79648 7.59792Z" fill="#999CAD"/>
</svg>
