<svg width="17" height="17" viewBox="0 0 17 17" fill="none" xmlns="http://www.w3.org/2000/svg">
<path d="M8.21327 2.35986C4.70755 2.35986 1.87952 5.1879 1.87952 8.69362C1.87952 12.1993 4.72058 15.0274 8.21327 15.0274C11.719 15.0274 14.547 12.1863 14.547 8.69362C14.547 5.1879 11.719 2.35986 8.21327 2.35986ZM7.79624 7.5989C7.91353 7.74225 8.14811 7.88561 8.47392 8.02897C9.24283 8.35478 9.80323 8.68059 10.1681 9.0064C10.533 9.33221 10.7025 9.80137 10.7025 10.4009C10.7025 10.9743 10.52 11.4435 10.1551 11.7823C9.84233 12.082 9.45135 12.2775 8.95612 12.3688V13.2028C8.95612 13.3071 8.86489 13.3983 8.76063 13.3983H8.04385C7.93959 13.3983 7.84836 13.3071 7.84836 13.2028V12.3948C7.23584 12.3166 6.72758 12.1081 6.32357 11.7302C5.94563 11.3913 5.73711 10.8961 5.71105 10.2705C5.71105 10.1402 5.81531 10.036 5.94563 10.036L7.13158 10.0099C7.24887 10.0099 7.35313 10.1011 7.36617 10.2184C7.39223 10.5182 7.48346 10.7527 7.62681 10.8961C7.80927 11.0786 8.03082 11.1698 8.31753 11.1698C8.55212 11.1698 8.73457 11.1046 8.85186 10.9613C8.96915 10.8179 9.03432 10.6354 9.03432 10.4139C9.03432 10.1533 8.96915 9.94473 8.85186 9.80137C8.72154 9.65802 8.49999 9.51466 8.18721 9.3713C7.40526 9.05853 6.84487 8.74575 6.47996 8.43297C6.12809 8.12019 5.94563 7.65103 5.94563 7.02547C5.94563 6.46508 6.12809 6.00894 6.50603 5.64403C6.84487 5.31822 7.301 5.1097 7.84836 5.03151V4.15834C7.84836 4.05408 7.93959 3.96285 8.04385 3.96285H8.76063C8.86489 3.96285 8.95612 4.05408 8.95612 4.15834V5.05757C9.47742 5.16183 9.89445 5.39642 10.2072 5.76132C10.507 6.1132 10.6764 6.54327 10.7025 7.06457C10.7155 7.19489 10.5982 7.29915 10.4679 7.29915L9.28193 7.31218C9.16464 7.31218 9.06038 7.23399 9.04735 7.1167C9.02128 6.85605 8.95612 6.66056 8.85186 6.51721C8.7085 6.33475 8.52605 6.25656 8.29147 6.25656C8.05688 6.25656 7.88746 6.33475 7.77017 6.47811C7.65288 6.62146 7.60075 6.80392 7.60075 7.0385C7.61378 7.27309 7.67894 7.45554 7.79624 7.5989Z" fill="url(#paint0_linear)"/>
<defs>
<linearGradient id="paint0_linear" x1="3.05063" y1="2.90302" x2="15.0737" y2="22.8077" gradientUnits="userSpaceOnUse">
<stop stop-color="#2DC8D8"/>
<stop offset="1" stop-color="#ECF281"/>
</linearGradient>
</defs>
</svg>
