<svg width="20" height="22" viewBox="0 0 20 22" fill="none" xmlns="http://www.w3.org/2000/svg">
<path fill-rule="evenodd" clip-rule="evenodd" d="M19.1665 9.32227H1.34253C0.928529 9.32227 0.592529 8.98627 0.592529 8.57227C0.592529 8.15827 0.928529 7.82227 1.34253 7.82227H19.1665C19.5805 7.82227 19.9165 8.15827 19.9165 8.57227C19.9165 8.98627 19.5805 9.32227 19.1665 9.32227Z" fill="url(#paint0_linear)"/>
<path fill-rule="evenodd" clip-rule="evenodd" d="M14.7011 13.2275C14.2871 13.2275 13.9471 12.8915 13.9471 12.4775C13.9471 12.0635 14.2781 11.7275 14.6921 11.7275H14.7011C15.1151 11.7275 15.4511 12.0635 15.4511 12.4775C15.4511 12.8915 15.1151 13.2275 14.7011 13.2275Z" fill="url(#paint1_linear)"/>
<path fill-rule="evenodd" clip-rule="evenodd" d="M10.2636 13.2275C9.84964 13.2275 9.50964 12.8915 9.50964 12.4775C9.50964 12.0635 9.84064 11.7275 10.2546 11.7275H10.2636C10.6776 11.7275 11.0136 12.0635 11.0136 12.4775C11.0136 12.8915 10.6776 13.2275 10.2636 13.2275Z" fill="url(#paint2_linear)"/>
<path fill-rule="evenodd" clip-rule="evenodd" d="M5.81689 13.2275C5.40289 13.2275 5.06189 12.8915 5.06189 12.4775C5.06189 12.0635 5.39389 11.7275 5.80789 11.7275H5.81689C6.23089 11.7275 6.56689 12.0635 6.56689 12.4775C6.56689 12.8915 6.23089 13.2275 5.81689 13.2275Z" fill="url(#paint3_linear)"/>
<path fill-rule="evenodd" clip-rule="evenodd" d="M14.7011 17.1143C14.2871 17.1143 13.9471 16.7783 13.9471 16.3643C13.9471 15.9503 14.2781 15.6143 14.6921 15.6143H14.7011C15.1151 15.6143 15.4511 15.9503 15.4511 16.3643C15.4511 16.7783 15.1151 17.1143 14.7011 17.1143Z" fill="url(#paint4_linear)"/>
<path fill-rule="evenodd" clip-rule="evenodd" d="M10.2636 17.1143C9.84964 17.1143 9.50964 16.7783 9.50964 16.3643C9.50964 15.9503 9.84064 15.6143 10.2546 15.6143H10.2636C10.6776 15.6143 11.0136 15.9503 11.0136 16.3643C11.0136 16.7783 10.6776 17.1143 10.2636 17.1143Z" fill="url(#paint5_linear)"/>
<path fill-rule="evenodd" clip-rule="evenodd" d="M5.81689 17.1143C5.40289 17.1143 5.06189 16.7783 5.06189 16.3643C5.06189 15.9503 5.39389 15.6143 5.80789 15.6143H5.81689C6.23089 15.6143 6.56689 15.9503 6.56689 16.3643C6.56689 16.7783 6.23089 17.1143 5.81689 17.1143Z" fill="url(#paint6_linear)"/>
<path fill-rule="evenodd" clip-rule="evenodd" d="M14.2935 5.20897C13.8795 5.20897 13.5435 4.87297 13.5435 4.45897V1.16797C13.5435 0.753969 13.8795 0.417969 14.2935 0.417969C14.7075 0.417969 15.0435 0.753969 15.0435 1.16797V4.45897C15.0435 4.87297 14.7075 5.20897 14.2935 5.20897Z" fill="url(#paint7_linear)"/>
<path fill-rule="evenodd" clip-rule="evenodd" d="M6.21533 5.20897C5.80133 5.20897 5.46533 4.87297 5.46533 4.45897V1.16797C5.46533 0.753969 5.80133 0.417969 6.21533 0.417969C6.62933 0.417969 6.96533 0.753969 6.96533 1.16797V4.45897C6.96533 4.87297 6.62933 5.20897 6.21533 5.20897Z" fill="url(#paint8_linear)"/>
<mask id="mask0" style="mask-type:alpha" maskUnits="userSpaceOnUse" x="0" y="1" width="20" height="21">
<path fill-rule="evenodd" clip-rule="evenodd" d="M0.5 1.99707H20V21.918H0.5V1.99707Z" fill="white"/>
</mask>
<g mask="url(#mask0)">
<path fill-rule="evenodd" clip-rule="evenodd" d="M6.021 3.49707C3.428 3.49707 2 4.88007 2 7.39107V16.4401C2 19.0061 3.428 20.4181 6.021 20.4181H14.479C17.072 20.4181 18.5 19.0321 18.5 16.5161V7.39107C18.504 6.15607 18.172 5.19607 17.513 4.53607C16.835 3.85607 15.79 3.49707 14.488 3.49707H6.021ZM14.479 21.9181H6.021C2.616 21.9181 0.5 19.8191 0.5 16.4401V7.39107C0.5 4.06307 2.616 1.99707 6.021 1.99707H14.488C16.197 1.99707 17.61 2.50907 18.575 3.47607C19.512 4.41707 20.005 5.77007 20 7.39307V16.5161C20 19.8481 17.884 21.9181 14.479 21.9181Z" fill="url(#paint9_linear)"/>
</g>
<defs>
<linearGradient id="paint0_linear" x1="2.37904" y1="7.88658" x2="2.52954" y2="11.0965" gradientUnits="userSpaceOnUse">
<stop stop-color="#2DC8D8"/>
<stop offset="1" stop-color="#ECF281"/>
</linearGradient>
<linearGradient id="paint1_linear" x1="14.0862" y1="11.7919" x2="15.5081" y2="14.1522" gradientUnits="userSpaceOnUse">
<stop stop-color="#2DC8D8"/>
<stop offset="1" stop-color="#ECF281"/>
</linearGradient>
<linearGradient id="paint2_linear" x1="9.64869" y1="11.7919" x2="11.0706" y2="14.1522" gradientUnits="userSpaceOnUse">
<stop stop-color="#2DC8D8"/>
<stop offset="1" stop-color="#ECF281"/>
</linearGradient>
<linearGradient id="paint3_linear" x1="5.20103" y1="11.7919" x2="6.62251" y2="14.153" gradientUnits="userSpaceOnUse">
<stop stop-color="#2DC8D8"/>
<stop offset="1" stop-color="#ECF281"/>
</linearGradient>
<linearGradient id="paint4_linear" x1="14.0862" y1="15.6786" x2="15.5081" y2="18.0389" gradientUnits="userSpaceOnUse">
<stop stop-color="#2DC8D8"/>
<stop offset="1" stop-color="#ECF281"/>
</linearGradient>
<linearGradient id="paint5_linear" x1="9.64869" y1="15.6786" x2="11.0706" y2="18.0389" gradientUnits="userSpaceOnUse">
<stop stop-color="#2DC8D8"/>
<stop offset="1" stop-color="#ECF281"/>
</linearGradient>
<linearGradient id="paint6_linear" x1="5.20103" y1="15.6786" x2="6.62251" y2="18.0397" gradientUnits="userSpaceOnUse">
<stop stop-color="#2DC8D8"/>
<stop offset="1" stop-color="#ECF281"/>
</linearGradient>
<linearGradient id="paint7_linear" x1="13.6821" y1="0.623396" x2="17.8801" y2="2.79929" gradientUnits="userSpaceOnUse">
<stop stop-color="#2DC8D8"/>
<stop offset="1" stop-color="#ECF281"/>
</linearGradient>
<linearGradient id="paint8_linear" x1="5.60401" y1="0.623396" x2="9.80193" y2="2.79929" gradientUnits="userSpaceOnUse">
<stop stop-color="#2DC8D8"/>
<stop offset="1" stop-color="#ECF281"/>
</linearGradient>
<linearGradient id="paint9_linear" x1="2.30278" y1="2.85124" x2="21.3958" y2="33.7925" gradientUnits="userSpaceOnUse">
<stop stop-color="#2DC8D8"/>
<stop offset="1" stop-color="#ECF281"/>
</linearGradient>
</defs>
</svg>
