<svg width="19" height="21" viewBox="0 0 19 21" fill="none" xmlns="http://www.w3.org/2000/svg">
<path fill-rule="evenodd" clip-rule="evenodd" d="M13.5657 0.784242L13.5667 1.53387C16.3213 1.74976 18.1409 3.62682 18.1439 6.50538L18.1548 14.9312C18.1587 18.0696 16.187 20.0006 13.0266 20.0056L5.30667 20.0156C2.16598 20.0196 0.169602 18.0426 0.165652 14.8952L0.154792 6.56835C0.150842 3.6708 1.90631 1.79873 4.66096 1.54586L4.65997 0.796236C4.65898 0.356457 4.9848 0.0256223 5.41922 0.0256223C5.85365 0.0246228 6.17947 0.354458 6.18045 0.794237L6.18144 1.49389L12.0462 1.48589L12.0452 0.786241C12.0442 0.346462 12.37 0.0166268 12.8044 0.0156273C13.229 0.0146278 13.5647 0.344463 13.5657 0.784242ZM1.67628 6.87746L16.6244 6.85747V6.50764C16.582 4.35872 15.5038 3.23129 13.5686 3.06337L13.5696 3.83298C13.5696 4.26277 13.2349 4.6036 12.8104 4.6036C12.376 4.6046 12.0491 4.26477 12.0491 3.83498L12.0482 3.02539L6.18343 3.03338L6.18442 3.84198C6.18442 4.27276 5.85959 4.61259 5.42516 4.61259C4.99074 4.61359 4.66393 4.27476 4.66393 3.84398L4.66295 3.07436C2.73766 3.26727 1.67233 4.3987 1.67529 6.56661L1.67628 6.87746ZM12.3945 11.4206V11.4316C12.4044 11.8914 12.7796 12.2402 13.2347 12.2302C13.679 12.2192 14.0335 11.8384 14.0236 11.3787C14.0029 10.9389 13.6465 10.5801 13.2031 10.5811C12.749 10.591 12.3935 10.9609 12.3945 11.4206ZM13.2103 15.9082C12.7561 15.8982 12.3898 15.5193 12.3889 15.0596C12.379 14.5998 12.7433 14.219 13.1975 14.208H13.2074C13.6714 14.208 14.0476 14.5868 14.0476 15.0566C14.0486 15.5263 13.6734 15.9072 13.2103 15.9082ZM8.32714 11.4358C8.34689 11.8955 8.72306 12.2544 9.17723 12.2344C9.62153 12.2134 9.97598 11.8336 9.95623 11.3738C9.94537 10.924 9.58006 10.5742 9.13577 10.5752C8.68159 10.5952 8.32616 10.976 8.32714 11.4358ZM9.18114 15.8633C8.72697 15.8833 8.35178 15.5244 8.33105 15.0647C8.33105 14.6049 8.6855 14.2251 9.13967 14.2041C9.58397 14.2031 9.95027 14.5529 9.96014 15.0017C9.98087 15.4625 9.62543 15.8423 9.18114 15.8633ZM4.25927 11.4709C4.27902 11.9307 4.65519 12.2905 5.10936 12.2695C5.55366 12.2495 5.90811 11.8687 5.88738 11.409C5.8775 10.9592 5.51219 10.6094 5.06691 10.6104C4.61274 10.6303 4.25829 11.0112 4.25927 11.4709ZM5.11327 15.8682C4.6591 15.8891 4.28391 15.5293 4.26318 15.0696C4.26219 14.6098 4.61763 14.229 5.0718 14.209C5.5161 14.208 5.8824 14.5578 5.89227 15.0076C5.913 15.4674 5.55855 15.8482 5.11327 15.8682Z" fill="#312B3E"/>
</svg>
