<svg width="20" height="22" viewBox="0 0 20 22" fill="none" xmlns="http://www.w3.org/2000/svg">
<path fill-rule="evenodd" clip-rule="evenodd" d="M19.1614 8.91992H1.3374C0.923402 8.91992 0.587402 8.58392 0.587402 8.16992C0.587402 7.75592 0.923402 7.41992 1.3374 7.41992H19.1614C19.5754 7.41992 19.9114 7.75592 19.9114 8.16992C19.9114 8.58392 19.5754 8.91992 19.1614 8.91992Z" fill="#999CAD"/>
<path fill-rule="evenodd" clip-rule="evenodd" d="M14.6963 12.8252C14.2823 12.8252 13.9423 12.4892 13.9423 12.0752C13.9423 11.6612 14.2733 11.3252 14.6873 11.3252H14.6963C15.1103 11.3252 15.4463 11.6612 15.4463 12.0752C15.4463 12.4892 15.1103 12.8252 14.6963 12.8252Z" fill="#999CAD"/>
<path fill-rule="evenodd" clip-rule="evenodd" d="M10.2588 12.8252C9.84476 12.8252 9.50476 12.4892 9.50476 12.0752C9.50476 11.6612 9.83576 11.3252 10.2498 11.3252H10.2588C10.6728 11.3252 11.0088 11.6612 11.0088 12.0752C11.0088 12.4892 10.6728 12.8252 10.2588 12.8252Z" fill="#999CAD"/>
<path fill-rule="evenodd" clip-rule="evenodd" d="M5.81213 12.8252C5.39813 12.8252 5.05713 12.4892 5.05713 12.0752C5.05713 11.6612 5.38913 11.3252 5.80313 11.3252H5.81213C6.22613 11.3252 6.56213 11.6612 6.56213 12.0752C6.56213 12.4892 6.22613 12.8252 5.81213 12.8252Z" fill="#999CAD"/>
<path fill-rule="evenodd" clip-rule="evenodd" d="M14.6963 16.7119C14.2823 16.7119 13.9423 16.3759 13.9423 15.9619C13.9423 15.5479 14.2733 15.2119 14.6873 15.2119H14.6963C15.1103 15.2119 15.4463 15.5479 15.4463 15.9619C15.4463 16.3759 15.1103 16.7119 14.6963 16.7119Z" fill="#999CAD"/>
<path fill-rule="evenodd" clip-rule="evenodd" d="M10.2588 16.7119C9.84476 16.7119 9.50476 16.3759 9.50476 15.9619C9.50476 15.5479 9.83576 15.2119 10.2498 15.2119H10.2588C10.6728 15.2119 11.0088 15.5479 11.0088 15.9619C11.0088 16.3759 10.6728 16.7119 10.2588 16.7119Z" fill="#999CAD"/>
<path fill-rule="evenodd" clip-rule="evenodd" d="M5.81213 16.7119C5.39813 16.7119 5.05713 16.3759 5.05713 15.9619C5.05713 15.5479 5.38913 15.2119 5.80313 15.2119H5.81213C6.22613 15.2119 6.56213 15.5479 6.56213 15.9619C6.56213 16.3759 6.22613 16.7119 5.81213 16.7119Z" fill="#999CAD"/>
<path fill-rule="evenodd" clip-rule="evenodd" d="M14.2886 4.80662C13.8746 4.80662 13.5386 4.47062 13.5386 4.05662V0.765625C13.5386 0.351625 13.8746 0.015625 14.2886 0.015625C14.7026 0.015625 15.0386 0.351625 15.0386 0.765625V4.05662C15.0386 4.47062 14.7026 4.80662 14.2886 4.80662Z" fill="#999CAD"/>
<path fill-rule="evenodd" clip-rule="evenodd" d="M6.21045 4.80662C5.79645 4.80662 5.46045 4.47062 5.46045 4.05662V0.765625C5.46045 0.351625 5.79645 0.015625 6.21045 0.015625C6.62445 0.015625 6.96045 0.351625 6.96045 0.765625V4.05662C6.96045 4.47062 6.62445 4.80662 6.21045 4.80662Z" fill="#999CAD"/>
<mask id="mask0_5060_43029" style="mask-type:luminance" maskUnits="userSpaceOnUse" x="0" y="1" width="20" height="21">
<path fill-rule="evenodd" clip-rule="evenodd" d="M0.495117 1.59473H19.9951V21.5156H0.495117V1.59473Z" fill="white"/>
</mask>
<g mask="url(#mask0_5060_43029)">
<path fill-rule="evenodd" clip-rule="evenodd" d="M6.01612 3.09473C3.42312 3.09473 1.99512 4.47773 1.99512 6.98873V16.0377C1.99512 18.6037 3.42312 20.0157 6.01612 20.0157H14.4741C17.0671 20.0157 18.4951 18.6297 18.4951 16.1137V6.98873C18.4991 5.75373 18.1671 4.79373 17.5081 4.13373C16.8301 3.45373 15.7851 3.09473 14.4831 3.09473H6.01612ZM14.4741 21.5157H6.01612C2.61112 21.5157 0.495117 19.4167 0.495117 16.0377V6.98873C0.495117 3.66073 2.61112 1.59473 6.01612 1.59473H14.4831C16.1921 1.59473 17.6051 2.10673 18.5701 3.07373C19.5071 4.01473 20.0001 5.36773 19.9951 6.99073V16.1137C19.9951 19.4457 17.8791 21.5157 14.4741 21.5157Z" fill="#999CAD"/>
</g>
</svg>
