<svg width="25" height="25" viewBox="0 0 25 25" fill="none" xmlns="http://www.w3.org/2000/svg">
<g id="Iconly/Light-Outline/Call">
<g id="Call">
<mask id="mask0" style="mask-type:alpha" maskUnits="userSpaceOnUse" x="2" y="2" width="21" height="22">
<path id="Clip 2" fill-rule="evenodd" clip-rule="evenodd" d="M2.04753 2.80371H22.5471V23.3032H2.04753V2.80371Z" fill="white"/>
</mask>
<g mask="url(#mask0)">
<path id="Fill 1" fill-rule="evenodd" clip-rule="evenodd" d="M4.40662 5.86438C4.40862 5.86438 4.35862 5.91638 4.29562 5.97838C4.05362 6.21338 3.55262 6.70238 3.54762 7.72538C3.53962 9.15638 4.48062 11.8134 9.01162 16.3434C13.5216 20.8514 16.1746 21.8034 17.6086 21.8034H17.6296C18.6526 21.7984 19.1406 21.2964 19.3766 21.0554C19.4486 20.9814 19.5066 20.9274 19.5476 20.8934C20.5436 19.8914 21.0536 19.1454 21.0486 18.6674C21.0416 18.1794 20.4346 17.6024 19.5956 16.8044C19.3286 16.5504 19.0386 16.2744 18.7326 15.9684C17.9396 15.1774 17.5466 15.3124 16.6826 15.6164C15.4876 16.0354 13.8476 16.6054 11.2996 14.0564C8.74762 11.5064 9.31861 9.86838 9.73662 8.67338C10.0386 7.80938 10.1766 7.41538 9.38262 6.62138C9.07162 6.31138 8.79262 6.01738 8.53562 5.74738C7.74262 4.91338 7.17062 4.31038 6.68562 4.30338H6.67762C6.19862 4.30338 5.45462 4.81538 4.40162 5.86838C4.40462 5.86538 4.40562 5.86438 4.40662 5.86438ZM17.6096 23.3034C15.1176 23.3034 11.8686 21.3194 7.95162 17.4044C4.01962 13.4734 2.03262 10.2144 2.04762 7.71738C2.05662 6.06738 2.92162 5.22238 3.24662 4.90538C3.26362 4.88438 3.32162 4.82738 3.34162 4.80738C4.77562 3.37238 5.74262 2.79238 6.70462 2.80338C7.82162 2.81838 8.61662 3.65438 9.62262 4.71338C9.87162 4.97538 10.1416 5.26038 10.4426 5.56038C11.9026 7.02038 11.4866 8.21138 11.1526 9.16738C10.7886 10.2104 10.4736 11.1104 12.3596 12.9964C14.2476 14.8824 15.1476 14.5674 16.1866 14.2004C17.1436 13.8664 18.3316 13.4484 19.7936 14.9084C20.0896 15.2044 20.3706 15.4714 20.6296 15.7184C21.6936 16.7294 22.5336 17.5284 22.5476 18.6484C22.5596 19.6034 21.9796 20.5764 20.5476 22.0094L19.9136 21.5794L20.4496 22.1034C20.1326 22.4284 19.2886 23.2944 17.6376 23.3034H17.6096Z" fill="currentColor"/>
</g>
</g>
</g>
</svg>
