<svg width="21" height="22" viewBox="0 0 21 22" fill="none" xmlns="http://www.w3.org/2000/svg">
<mask id="mask0" style="mask-type:alpha" maskUnits="userSpaceOnUse" x="0" y="0" width="21" height="22">
<path fill-rule="evenodd" clip-rule="evenodd" d="M0.438156 0.803711H20.9377V21.3032H0.438156V0.803711Z" fill="white"/>
</mask>
<g mask="url(#mask0)">
<path fill-rule="evenodd" clip-rule="evenodd" d="M2.79724 3.86438C2.79924 3.86438 2.74924 3.91638 2.68624 3.97838C2.44424 4.21338 1.94324 4.70238 1.93824 5.72538C1.93024 7.15638 2.87124 9.81338 7.40224 14.3434C11.9122 18.8514 14.5652 19.8034 15.9992 19.8034H16.0202C17.0432 19.7984 17.5312 19.2964 17.7672 19.0554C17.8392 18.9814 17.8972 18.9274 17.9382 18.8934C18.9342 17.8914 19.4442 17.1454 19.4392 16.6674C19.4322 16.1794 18.8252 15.6024 17.9862 14.8044C17.7192 14.5504 17.4292 14.2744 17.1232 13.9684C16.3302 13.1774 15.9372 13.3124 15.0732 13.6164C13.8782 14.0354 12.2382 14.6054 9.69024 12.0564C7.13824 9.50638 7.70924 7.86838 8.12724 6.67338C8.42924 5.80938 8.56724 5.41538 7.77324 4.62138C7.46224 4.31138 7.18324 4.01738 6.92624 3.74738C6.13324 2.91338 5.56124 2.31038 5.07624 2.30338H5.06824C4.58924 2.30338 3.84524 2.81538 2.79224 3.86838C2.79524 3.86538 2.79624 3.86438 2.79724 3.86438ZM16.0002 21.3034C13.5082 21.3034 10.2592 19.3194 6.34224 15.4044C2.41024 11.4734 0.42324 8.21438 0.43824 5.71738C0.44724 4.06738 1.31224 3.22238 1.63724 2.90538C1.65424 2.88438 1.71224 2.82738 1.73224 2.80738C3.16624 1.37238 4.13324 0.792376 5.09524 0.803376C6.21224 0.818376 7.00724 1.65438 8.01324 2.71338C8.26224 2.97538 8.53224 3.26038 8.83324 3.56038C10.2932 5.02038 9.87724 6.21138 9.54324 7.16738C9.17924 8.21038 8.86424 9.11038 10.7502 10.9964C12.6382 12.8824 13.5382 12.5674 14.5772 12.2004C15.5342 11.8664 16.7222 11.4484 18.1842 12.9084C18.4802 13.2044 18.7612 13.4714 19.0202 13.7184C20.0842 14.7294 20.9242 15.5284 20.9382 16.6484C20.9502 17.6034 20.3702 18.5764 18.9382 20.0094L18.3042 19.5794L18.8402 20.1034C18.5232 20.4284 17.6792 21.2944 16.0282 21.3034H16.0002Z" fill="#999CAD"/>
</g>
</svg>
