<svg width="19" height="20" viewBox="0 0 19 20" fill="none" xmlns="http://www.w3.org/2000/svg">
<path d="M18.5018 14.4441L15.8447 11.7926C14.8957 10.8456 13.2825 11.2244 12.9029 12.4554C12.6182 13.3077 11.6693 13.7812 10.8152 13.5918C8.91728 13.1183 6.35509 10.6562 5.88061 8.66758C5.59592 7.81527 6.1653 6.86831 7.01936 6.58425C8.25301 6.20547 8.63259 4.59563 7.68363 3.64866L5.02655 0.997157C4.26738 0.334281 3.12863 0.334281 2.46436 0.997157L0.661336 2.79639C-1.14169 4.69032 0.851128 9.70924 5.31124 14.16C9.77134 18.6107 14.8008 20.6941 16.6987 18.8001L18.5018 17.0009C19.1661 16.2433 19.1661 15.1069 18.5018 14.4441Z" fill="currentColor"/>
</svg>
