<svg width="37" height="34" viewBox="0 0 37 34" fill="none" xmlns="http://www.w3.org/2000/svg">
<path fill-rule="evenodd" clip-rule="evenodd" d="M28.326 6.20665C28.3993 6.33406 28.5276 6.42506 28.6926 6.42506C33.0926 6.42506 36.686 9.99247 36.686 14.3607V25.1721C36.686 29.5404 33.0926 33.1078 28.6926 33.1078H8.01262C3.59429 33.1078 0.0192871 29.5404 0.0192871 25.1721V14.3607C0.0192871 9.99247 3.59429 6.42506 8.01262 6.42506C8.15929 6.42506 8.30595 6.35226 8.36095 6.20665L8.47095 5.98824C8.53416 5.85602 8.59903 5.72021 8.66488 5.58235C9.13389 4.6005 9.65277 3.51426 9.97429 2.87586C10.8176 1.23776 12.2476 0.32771 14.026 0.309509H22.661C24.4393 0.32771 25.8876 1.23776 26.731 2.87586C27.0197 3.44918 27.4596 4.37269 27.8836 5.26279C27.9711 5.44648 28.0579 5.62875 28.1426 5.80623L28.326 6.20665ZM26.9876 13.1959C26.9876 14.1059 27.721 14.834 28.6376 14.834C29.5543 14.834 30.306 14.1059 30.306 13.1959C30.306 12.2858 29.5543 11.5396 28.6376 11.5396C27.721 11.5396 26.9876 12.2858 26.9876 13.1959ZM15.181 16.017C16.0426 15.1616 17.161 14.7065 18.3526 14.7065C19.5443 14.7065 20.6626 15.1616 21.506 15.9988C22.3493 16.8361 22.8076 17.9463 22.8076 19.1294C22.7893 21.5683 20.8093 23.5523 18.3526 23.5523C17.161 23.5523 16.0426 23.0972 15.1993 22.26C14.356 21.4227 13.8976 20.3125 13.8976 19.1294V19.1112C13.8793 17.9645 14.3376 16.8543 15.181 16.017ZM23.431 24.1893C22.1293 25.4816 20.3326 26.2824 18.3526 26.2824C16.4276 26.2824 14.631 25.5362 13.256 24.1893C11.8993 22.8242 11.1476 21.0405 11.1476 19.1294C11.1293 17.2365 11.881 15.4528 13.2376 14.0877C14.6126 12.7226 16.4276 11.9764 18.3526 11.9764C20.2776 11.9764 22.0926 12.7226 23.4493 14.0695C24.806 15.4346 25.5576 17.2365 25.5576 19.1294C25.5393 21.1133 24.7326 22.897 23.431 24.1893Z" fill="#999CAD"/>
</svg>
