<svg width="21" height="21" viewBox="0 0 21 21" fill="none" xmlns="http://www.w3.org/2000/svg">
<path fill-rule="evenodd" clip-rule="evenodd" d="M8.20494 10.249C6.77078 9.1017 6.84901 7.14602 8.20494 5.97262C8.64823 5.58149 9.22189 5.29466 9.87378 5.16428V4.46024C9.87378 3.46936 11.6208 3.46936 11.6208 4.46024V5.16428C13.0289 5.45111 14.3066 6.57236 14.3327 8.08475C14.3588 9.07562 12.6378 9.1017 12.6117 8.11082C12.5856 7.48501 12.1684 6.98957 11.6208 6.72882V9.64928C12.2467 9.77966 12.8203 10.0665 13.2897 10.4316C14.6978 11.605 14.6717 13.5606 13.2897 14.7601C12.8203 15.1512 12.2467 15.4381 11.6208 15.5684V16.2725C11.6208 17.2634 9.87378 17.2634 9.87378 16.2725V15.5684C8.30924 15.2295 7.18799 14.03 7.16192 12.6219C7.13584 11.6571 8.85683 11.631 8.88291 12.5958C8.88291 13.1956 9.27404 13.7171 9.87378 13.9778V10.9791C9.22189 10.8748 8.64823 10.6141 8.20494 10.249ZM11.6208 11.2138V13.9778C11.7773 13.8996 11.9338 13.8214 12.0641 13.691C12.7421 13.1173 12.8203 12.1004 12.0902 11.5007C11.9598 11.3964 11.7773 11.292 11.6208 11.2138ZM9.4305 7.01565C8.77861 7.58931 8.64823 8.58018 9.35227 9.15385C9.50872 9.25815 9.69125 9.36245 9.87378 9.44068V6.72882C9.71733 6.80704 9.56087 6.91134 9.4305 7.01565ZM20.7473 10.3533C20.7473 4.82529 16.2623 0.366364 10.7343 0.366364C5.20625 0.366364 0.747314 4.82529 0.747314 10.3533C0.747314 15.8814 5.20625 20.3664 10.7343 20.3664C16.2623 20.3664 20.7473 15.8814 20.7473 10.3533Z" fill="#999CAD"/>
</svg>
