<svg width="20" height="20" viewBox="0 0 20 20" fill="none" xmlns="http://www.w3.org/2000/svg">
<path fill-rule="evenodd" clip-rule="evenodd" d="M4.56421 1.51562C1.81421 1.51562 1.81421 1.72362 1.81421 4.26562V4.29063C1.81421 5.39762 1.81421 6.19763 2.08521 6.53562C2.35021 6.86363 3.13721 7.01562 4.56421 7.01562C5.99121 7.01562 6.77821 6.86263 7.04321 6.53463C7.31421 6.19763 7.31421 5.39762 7.31421 4.28963C7.31421 1.72362 7.31421 1.51562 4.56421 1.51562ZM4.56421 8.51562C2.87821 8.51562 1.61321 8.33862 0.918209 7.47563C0.314209 6.72662 0.314209 5.70463 0.314209 4.29063L1.06421 4.26562H0.314209C0.314209 1.39563 0.495209 0.015625 4.56421 0.015625C8.63321 0.015625 8.81421 1.39563 8.81421 4.26562C8.81421 5.70362 8.81421 6.72662 8.21021 7.47563C7.51521 8.33862 6.25021 8.51562 4.56421 8.51562Z" fill="#999CAD"/>
<path fill-rule="evenodd" clip-rule="evenodd" d="M15.5642 1.51562C12.8142 1.51562 12.8142 1.72362 12.8142 4.26562V4.29063C12.8142 5.39762 12.8142 6.19763 13.0852 6.53562C13.3502 6.86363 14.1372 7.01562 15.5642 7.01562C16.9912 7.01562 17.7782 6.86263 18.0432 6.53463C18.3142 6.19763 18.3142 5.39762 18.3142 4.28963C18.3142 1.72362 18.3142 1.51562 15.5642 1.51562ZM15.5642 8.51562C13.8782 8.51562 12.6132 8.33862 11.9182 7.47563C11.3142 6.72662 11.3142 5.70463 11.3142 4.29063L12.0642 4.26562H11.3142C11.3142 1.39563 11.4952 0.015625 15.5642 0.015625C19.6332 0.015625 19.8142 1.39563 19.8142 4.26562C19.8142 5.70362 19.8142 6.72662 19.2102 7.47563C18.5152 8.33862 17.2502 8.51562 15.5642 8.51562Z" fill="#999CAD"/>
<path fill-rule="evenodd" clip-rule="evenodd" d="M4.56421 12.5156C1.81421 12.5156 1.81421 12.7236 1.81421 15.2656V15.2906C1.81421 16.3976 1.81421 17.1976 2.08521 17.5356C2.35021 17.8636 3.13721 18.0156 4.56421 18.0156C5.99121 18.0156 6.77821 17.8626 7.04321 17.5346C7.31421 17.1976 7.31421 16.3976 7.31421 15.2896C7.31421 12.7236 7.31421 12.5156 4.56421 12.5156ZM4.56421 19.5156C2.87821 19.5156 1.61321 19.3386 0.918209 18.4756C0.314209 17.7266 0.314209 16.7046 0.314209 15.2906L1.06421 15.2656H0.314209C0.314209 12.3956 0.495209 11.0156 4.56421 11.0156C8.63321 11.0156 8.81421 12.3956 8.81421 15.2656C8.81421 16.7036 8.81421 17.7266 8.21021 18.4756C7.51521 19.3386 6.25021 19.5156 4.56421 19.5156Z" fill="#999CAD"/>
<path fill-rule="evenodd" clip-rule="evenodd" d="M15.5642 12.5156C12.8142 12.5156 12.8142 12.7236 12.8142 15.2656V15.2906C12.8142 16.3976 12.8142 17.1976 13.0852 17.5356C13.3502 17.8636 14.1372 18.0156 15.5642 18.0156C16.9912 18.0156 17.7782 17.8626 18.0432 17.5346C18.3142 17.1976 18.3142 16.3976 18.3142 15.2896C18.3142 12.7236 18.3142 12.5156 15.5642 12.5156ZM15.5642 19.5156C13.8782 19.5156 12.6132 19.3386 11.9182 18.4756C11.3142 17.7266 11.3142 16.7046 11.3142 15.2906L12.0642 15.2656H11.3142C11.3142 12.3956 11.4952 11.0156 15.5642 11.0156C19.6332 11.0156 19.8142 12.3956 19.8142 15.2656C19.8142 16.7036 19.8142 17.7266 19.2102 18.4756C18.5152 19.3386 17.2502 19.5156 15.5642 19.5156Z" fill="#999CAD"/>
</svg>
