<svg width="20" height="22" viewBox="0 0 20 22" fill="none" xmlns="http://www.w3.org/2000/svg">
<path d="M22.6157 2.59099C19.7925 -0.232153 15.4118 -0.232153 12.686 2.59099C9.96021 -0.134803 5.48211 -0.134803 2.75632 2.59099C0.127872 5.21944 -0.0668277 9.30813 2.36692 12.1313C3.63247 13.5915 4.89801 14.8571 6.26091 16.1226C6.84501 15.8306 7.62381 15.5385 8.30526 15.1491C8.30526 15.1491 11.2258 13.8836 13.0754 11.1578C10.739 12.8127 8.49996 13.4942 7.52646 13.6889C7.13706 12.2286 7.42911 10.671 8.49996 9.60018C9.96021 8.13993 14.1462 7.75053 15.6065 5.41414C15.8012 5.12209 16.1906 5.12209 16.3853 5.41414C17.0667 6.97173 18.2349 10.671 15.7038 14.4677C14.4383 16.4147 11.6152 17.2908 9.57081 16.22C8.88936 16.7067 8.20791 17.1935 7.72116 17.4855C9.27876 18.8484 10.9337 20.114 12.686 21.2822C16.6773 18.7511 20.0846 15.6359 23.1024 12.1313C25.3415 9.30813 25.1468 5.21944 22.6157 2.59099Z" fill="white"/>
</svg>
