<svg width="25" height="23" viewBox="0 0 25 23" fill="none" xmlns="http://www.w3.org/2000/svg">
<path d="M9.82385 18.7583C10.3836 18.7583 10.9034 18.9982 11.2632 19.358H11.3032C11.663 19.7578 11.9029 20.2776 11.9029 20.8373C11.9029 21.4371 11.663 21.9568 11.3032 22.3167L11.2232 22.3966C10.8634 22.7165 10.3436 22.9164 9.82385 22.9164C9.22413 22.9164 8.70437 22.7165 8.34454 22.3167C7.94472 21.9568 7.70483 21.4371 7.70483 20.8373C7.70483 20.2776 7.94472 19.7578 8.34454 19.358C8.70437 18.9982 9.22413 18.7583 9.82385 18.7583Z" fill="white"/>
<path d="M19.1396 18.7583C19.7393 18.7583 20.2591 18.9982 20.6189 19.358C21.0187 19.7578 21.2586 20.2776 21.2586 20.8373C21.2586 21.4371 21.0187 21.9568 20.6189 22.3167L20.5789 22.3966C20.1791 22.7165 19.6993 22.9164 19.1396 22.9164C18.5798 22.9164 18.0601 22.7165 17.6603 22.3167C17.3004 21.9568 17.0605 21.4371 17.0605 20.8373C17.0605 20.2776 17.3004 19.7578 17.6603 19.358C18.0601 18.9982 18.5798 18.7583 19.1396 18.7583Z" fill="white"/>
<path d="M1.74761 2.76567C1.22785 2.84564 0.748069 2.4858 0.668106 1.96605C0.588143 1.44629 0.947977 1.00649 1.46774 0.926527C1.5477 0.886546 1.62766 0.886546 1.74761 0.886546C3.50679 0.686638 4.94612 1.12643 6.02562 2.24592C6.74529 2.9256 7.26505 3.88516 7.62488 5.04462C16.5407 5.04462 19.0596 4.88469 20.4989 4.80473C21.1786 4.76475 21.6584 4.72477 22.2981 4.72477C22.538 4.72477 22.7379 4.76475 22.9778 4.84471C23.4975 4.96465 23.8973 5.24452 24.2172 5.64434C24.4971 6.04415 24.657 6.52393 24.657 7.04369C24.657 7.28358 24.617 7.52347 24.577 7.76336L23.4975 11.7215C23.2976 12.4412 22.8578 13.0809 22.2581 13.5207C21.6984 14.0005 20.9787 14.2803 20.219 14.2803H8.14464V14.5202C8.10466 15.1599 8.06468 15.8796 7.98471 16.5993H20.6988C21.2186 16.5993 21.6184 16.9991 21.6184 17.5188C21.6184 18.0386 21.2186 18.4384 20.6988 18.4384H6.9452C6.90521 18.4384 6.86523 18.4384 6.82525 18.4384C6.30549 18.3584 5.94566 17.8787 6.02562 17.3989C6.14557 16.3994 6.22553 15.3598 6.26551 14.4003L6.30549 13.5607C6.30549 13.4807 6.30549 13.4007 6.30549 13.3608V7.84332L6.02562 6.24406C5.74575 5.04462 5.30596 4.12504 4.70623 3.52532C4.06653 2.88562 3.14696 2.60575 1.98749 2.72569L1.74761 2.76567Z" fill="white"/>
</svg>
