<svg width="25" height="25" viewBox="0 0 25 25" fill="none" xmlns="http://www.w3.org/2000/svg">
<path fill-rule="evenodd" clip-rule="evenodd" d="M12.657 0.87793C19.3016 0.87793 24.657 6.2333 24.657 12.8779C24.657 19.5226 19.3016 24.8779 12.657 24.8779C6.01235 24.8779 0.656982 19.5226 0.656982 12.8779C0.656982 6.2333 6.01235 0.87793 12.657 0.87793ZM8.69004 5.73743C10.4752 5.73743 11.9628 7.12586 11.9628 8.91099C11.9628 10.6961 10.4752 12.1837 8.69004 12.1837C6.90492 12.1837 5.51649 10.6961 5.51649 8.91099C5.51649 7.12586 6.90492 5.73743 8.69004 5.73743ZM16.6239 7.02669C17.7148 7.02669 18.5082 7.82008 18.5082 8.91099C18.5082 10.0019 17.7148 10.8945 16.6239 10.8945C15.533 10.8945 14.6405 10.0019 14.6405 8.91099C14.6405 7.82008 15.533 7.02669 16.6239 7.02669ZM8.69004 14.8614C9.78095 14.8614 10.6735 15.754 10.6735 16.8449C10.6735 17.9358 9.78095 18.7292 8.69004 18.7292C7.59913 18.7292 6.80574 17.9358 6.80574 16.8449C6.80574 15.754 7.59913 14.8614 8.69004 14.8614ZM16.6239 13.5721C18.409 13.5721 19.7975 15.0597 19.7975 16.8449C19.7975 18.63 18.409 20.0184 16.6239 20.0184C14.8388 20.0184 13.3512 18.63 13.3512 16.8449C13.3512 15.0597 14.8388 13.5721 16.6239 13.5721Z" fill="white"/>
</svg>
