<svg width="25" height="25" viewBox="0 0 25 25" fill="none" xmlns="http://www.w3.org/2000/svg">
<path d="M3.89261 24.257L13.9274 13.4941C14.1238 13.295 14.3693 13.1514 14.6391 13.0779C14.9089 13.0043 15.1933 13.0033 15.4636 13.0751C16.5342 13.2927 17.643 13.2288 18.6815 12.8896C19.7201 12.5504 20.6529 11.9476 21.3887 11.14C24.0221 8.50659 24.9697 5.94303 24.4909 5.4742C24.0121 5.00538 19.8725 9.62378 18.9947 8.74599C18.1169 7.86819 22.8251 3.80839 22.2665 3.24979C21.7079 2.69119 17.6281 7.39937 16.7703 6.52157C15.9124 5.64378 20.6206 1.58397 20.0421 1.02537C19.4635 0.466778 17.0496 1.4942 14.3763 4.12758C13.5687 4.86339 12.9658 5.79616 12.6266 6.83471C12.2874 7.87327 12.2235 8.98206 12.4411 10.0527C12.5129 10.323 12.512 10.6074 12.4384 10.8772C12.3648 11.1469 12.2212 11.3925 12.0222 11.5888L1.25923 21.6236L1.16945 21.7134C0.859516 22.0789 0.702138 22.5497 0.729954 23.0281C0.75777 23.5065 0.968645 23.9559 1.31885 24.283C1.66906 24.6101 2.13173 24.7899 2.61092 24.785C3.09012 24.7802 3.54907 24.5911 3.89261 24.257Z" fill="white"/>
<path d="M17.0594 15.1996H16.7202C16.2105 15.2024 15.702 15.1489 15.204 15.04L13.9272 16.4066L21.2588 24.207C21.4333 24.4091 21.6476 24.573 21.8884 24.6882C22.1293 24.8035 22.3913 24.8677 22.6582 24.8767C22.925 24.8858 23.1908 24.8396 23.4389 24.7409C23.687 24.6423 23.9119 24.4933 24.0997 24.3035C24.2874 24.1137 24.4339 23.8871 24.5298 23.638C24.6257 23.3888 24.669 23.1225 24.657 22.8558C24.6451 22.5891 24.578 22.3277 24.4601 22.0882C24.3422 21.8487 24.176 21.6361 23.972 21.4639L17.0594 15.1996Z" fill="white"/>
<path d="M10.4561 10.3122C10.3714 9.90151 10.3213 9.48442 10.3065 9.06533L1.49863 1.03549C1.43344 0.966001 1.349 0.91754 1.25611 0.896311C1.16321 0.875083 1.0661 0.882053 0.977196 0.91633C0.888289 0.950608 0.811632 1.01063 0.757034 1.08872C0.702435 1.16682 0.672379 1.25942 0.670711 1.35469C0.371462 5.34467 4.42129 10.4119 7.1644 13.3246L10.4561 10.3122Z" fill="white"/>
</svg>
