<svg width="21" height="21" viewBox="0 0 21 21" fill="none" xmlns="http://www.w3.org/2000/svg">
<path fill-rule="evenodd" clip-rule="evenodd" d="M2.86104 0.302734H6.24104C7.65104 0.302734 8.78104 1.45273 8.78104 2.86373V6.27273C8.78104 7.69273 7.65104 8.83273 6.24104 8.83273H2.86104C1.46104 8.83273 0.321045 7.69273 0.321045 6.27273V2.86373C0.321045 1.45273 1.46104 0.302734 2.86104 0.302734ZM2.86104 11.7724H6.24104C7.65104 11.7724 8.78104 12.9134 8.78104 14.3334V17.7424C8.78104 19.1524 7.65104 20.3024 6.24104 20.3024H2.86104C1.46104 20.3024 0.321045 19.1524 0.321045 17.7424V14.3334C0.321045 12.9134 1.46104 11.7724 2.86104 11.7724ZM17.7811 0.302734H14.4011C12.9911 0.302734 11.8611 1.45273 11.8611 2.86373V6.27273C11.8611 7.69273 12.9911 8.83273 14.4011 8.83273H17.7811C19.1811 8.83273 20.3211 7.69273 20.3211 6.27273V2.86373C20.3211 1.45273 19.1811 0.302734 17.7811 0.302734ZM14.4011 11.7724H17.7811C19.1811 11.7724 20.3211 12.9134 20.3211 14.3334V17.7424C20.3211 19.1524 19.1811 20.3024 17.7811 20.3024H14.4011C12.9911 20.3024 11.8611 19.1524 11.8611 17.7424V14.3334C11.8611 12.9134 12.9911 11.7724 14.4011 11.7724Z" fill="url(#paint0_linear)"/>
<defs>
<linearGradient id="paint0_linear" x1="2.17006" y1="1.16027" x2="21.1522" y2="32.5865" gradientUnits="userSpaceOnUse">
<stop stop-color="#2DC8D8"/>
<stop offset="1" stop-color="#ECF281"/>
</linearGradient>
</defs>
</svg>
