<svg width="21" height="21" viewBox="0 0 21 21" fill="none" xmlns="http://www.w3.org/2000/svg">
<path fill-rule="evenodd" clip-rule="evenodd" d="M2.58272 0.015625H5.96272C7.37272 0.015625 8.50272 1.16563 8.50272 2.57663V5.98562C8.50272 7.40562 7.37272 8.54562 5.96272 8.54562H2.58272C1.18272 8.54562 0.0427246 7.40562 0.0427246 5.98562V2.57663C0.0427246 1.16563 1.18272 0.015625 2.58272 0.015625ZM2.58272 11.4853H5.96272C7.37272 11.4853 8.50272 12.6263 8.50272 14.0463V17.4553C8.50272 18.8653 7.37272 20.0153 5.96272 20.0153H2.58272C1.18272 20.0153 0.0427246 18.8653 0.0427246 17.4553V14.0463C0.0427246 12.6263 1.18272 11.4853 2.58272 11.4853ZM17.5028 0.015625H14.1228C12.7128 0.015625 11.5828 1.16563 11.5828 2.57663V5.98562C11.5828 7.40562 12.7128 8.54562 14.1228 8.54562H17.5028C18.9028 8.54562 20.0428 7.40562 20.0428 5.98562V2.57663C20.0428 1.16563 18.9028 0.015625 17.5028 0.015625ZM14.1228 11.4853H17.5028C18.9028 11.4853 20.0428 12.6263 20.0428 14.0463V17.4553C20.0428 18.8653 18.9028 20.0153 17.5028 20.0153H14.1228C12.7128 20.0153 11.5828 18.8653 11.5828 17.4553V14.0463C11.5828 12.6263 12.7128 11.4853 14.1228 11.4853Z" fill="#312B3E"/>
</svg>
