<svg width="21" height="21" viewBox="0 0 21 21" fill="none" xmlns="http://www.w3.org/2000/svg">
<path d="M13.1355 12.5806C12.5321 12.5806 12.0364 13.0763 12.0364 13.6797C12.0364 14.2832 12.5321 14.7788 13.1355 14.7788C13.7605 14.7788 14.2347 14.2832 14.2347 13.6797C14.2347 13.0763 13.739 12.5806 13.1355 12.5806Z" fill="url(#paint0_linear)"/>
<path d="M8.17848 9.15426C8.78193 9.15426 9.27762 8.68013 9.27762 8.07668C9.27762 7.47323 8.78193 6.97754 8.17848 6.97754C7.55348 6.97754 7.07935 7.45168 7.07935 8.05513C7.07935 8.65857 7.57504 9.15426 8.17848 9.15426Z" fill="url(#paint1_linear)"/>
<path d="M20.3337 9.82189L19.5794 8.70121C19.5147 8.5719 19.4932 8.44258 19.4932 8.29172L19.5794 6.93396C19.6225 6.1581 19.213 5.4469 18.5234 5.10207L17.3165 4.49862C17.1872 4.43396 17.1009 4.34776 17.0363 4.21845L16.4328 3.01155C16.088 2.3219 15.3553 1.91241 14.6009 1.95552L13.2432 2.04172C13.1139 2.04172 12.963 2.02017 12.8553 1.93396L11.7346 1.20121C11.088 0.770171 10.2691 0.770171 9.6225 1.20121L8.50181 1.95552C8.35095 2.02017 8.22164 2.04172 8.07078 2.04172L6.71302 1.95552C5.93715 1.91241 5.22595 2.3219 4.88112 3.01155L4.27767 4.21845C4.21302 4.34776 4.12681 4.43396 3.9975 4.49862L2.7906 5.10207C2.10095 5.4469 1.69147 6.17965 1.73457 6.93396L1.82078 8.29172C1.82078 8.42103 1.79922 8.5719 1.71302 8.67965L0.980258 9.80034C0.549224 10.4469 0.549224 11.2874 0.980258 11.9124L1.73457 13.0331C1.79922 13.184 1.82078 13.3133 1.82078 13.4641L1.73457 14.8219C1.69147 15.5978 2.10095 16.309 2.7906 16.6538L3.9975 17.2572C4.12681 17.3219 4.21302 17.4297 4.27767 17.5374L4.88112 18.7443C5.22595 19.434 5.95871 19.8434 6.71302 19.8003L8.07078 19.7141C8.20009 19.7141 8.35095 19.7357 8.45871 19.8219L9.5794 20.5547C9.90267 20.7702 10.2691 20.8779 10.6354 20.8779C11.0018 20.8779 11.3682 20.7702 11.6915 20.5547L12.8122 19.8003C12.9199 19.7357 13.0708 19.6926 13.2001 19.6926L14.5578 19.7788C15.3337 19.8219 16.0449 19.4124 16.3897 18.7228L16.9932 17.5159C17.0578 17.3866 17.1441 17.3003 17.2734 17.2357L18.4803 16.6322C19.1699 16.2874 19.5794 15.5547 19.5363 14.8003L19.4932 13.4641C19.4932 13.3348 19.5147 13.184 19.6009 13.0762L20.3337 11.934C20.7647 11.2874 20.7647 10.4469 20.3337 9.82189ZM8.17853 5.66241C9.49319 5.66241 10.5708 6.74 10.5708 8.05465C10.5708 9.36931 9.49319 10.4469 8.17853 10.4469C6.84233 10.4469 5.78629 9.39086 5.78629 8.05465C5.78629 6.74 6.86388 5.66241 8.17853 5.66241ZM6.99319 15.4253C6.86388 15.5547 6.69146 15.6193 6.5406 15.6193C6.38974 15.6193 6.21733 15.5547 6.08802 15.4253C5.8294 15.1883 5.8294 14.7788 6.08802 14.5202L14.3208 6.30896C14.5578 6.05034 14.9673 6.05034 15.2259 6.30896C15.463 6.56758 15.463 6.97707 15.2044 7.21414L6.99319 15.4253ZM13.1354 16.0934C11.8208 16.0934 10.7432 15.0159 10.7432 13.7012C10.7432 12.3865 11.8208 11.309 13.1354 11.309C14.4716 11.309 15.5277 12.365 15.5277 13.7012C15.5277 15.0159 14.4501 16.0934 13.1354 16.0934Z" fill="url(#paint2_linear)"/>
<defs>
<linearGradient id="paint0_linear" x1="12.2396" y1="12.6748" x2="14.3261" y2="16.129" gradientUnits="userSpaceOnUse">
<stop stop-color="#2DC8D8"/>
<stop offset="1" stop-color="#ECF281"/>
</linearGradient>
<linearGradient id="paint1_linear" x1="7.28258" y1="7.07087" x2="9.33904" y2="10.5091" gradientUnits="userSpaceOnUse">
<stop stop-color="#2DC8D8"/>
<stop offset="1" stop-color="#ECF281"/>
</linearGradient>
<linearGradient id="paint2_linear" x1="2.50599" y1="1.73548" x2="21.4886" y2="33.1618" gradientUnits="userSpaceOnUse">
<stop stop-color="#2DC8D8"/>
<stop offset="1" stop-color="#ECF281"/>
</linearGradient>
</defs>
</svg>
