<svg width="15" height="25" viewBox="0 0 15 25" fill="none" xmlns="http://www.w3.org/2000/svg">
<path d="M2.6971 0.87793C1.52372 0.87793 0.563721 1.83793 0.563721 3.0113V22.7446C0.563721 23.9179 1.52372 24.8779 2.6971 24.8779H12.617C13.7903 24.8779 14.7503 23.9179 14.7503 22.7446V3.0113C14.7503 1.83793 13.7903 0.87793 12.617 0.87793H2.6971ZM6.4681 2.93255H8.84672C9.0031 2.93255 9.12984 3.1118 9.12984 3.33268C9.12984 3.55355 9.0031 3.7328 8.84672 3.7328H6.4681C6.31172 3.7328 6.18497 3.55355 6.18497 3.33268C6.18497 3.1118 6.31172 2.93255 6.4681 2.93255ZM1.7356 5.7848H13.5788V19.9714H1.7356V5.7848ZM7.65722 21.1039C8.3866 21.1039 8.97797 21.6953 8.97797 22.4247C8.97797 23.1541 8.3866 23.7454 7.65722 23.7454C6.92785 23.7454 6.33647 23.1541 6.33647 22.4247C6.33647 21.6953 6.92785 21.1039 7.65722 21.1039Z" fill="white"/>
</svg>
