<svg width="21" height="21" viewBox="0 0 21 21" fill="none" xmlns="http://www.w3.org/2000/svg">
<path fill-rule="evenodd" clip-rule="evenodd" d="M6.39034 0.875977H15.0603C18.4503 0.875977 20.7203 3.25598 20.7203 6.79598V14.967C20.7203 18.496 18.4503 20.876 15.0603 20.876H6.39034C3.00034 20.876 0.720337 18.496 0.720337 14.967V6.79598C0.720337 3.25598 3.00034 0.875977 6.39034 0.875977ZM10.1503 13.8661L14.9003 9.11609C15.2403 8.77609 15.2403 8.22609 14.9003 7.87609C14.5603 7.53609 14.0003 7.53609 13.6603 7.87609L9.53028 12.0061L7.78028 10.2561C7.44028 9.91609 6.88028 9.91609 6.54028 10.2561C6.20028 10.5961 6.20028 11.1461 6.54028 11.4961L8.92028 13.8661C9.09028 14.0361 9.31028 14.1161 9.53028 14.1161C9.76028 14.1161 9.98028 14.0361 10.1503 13.8661Z" fill="url(#paint0_linear_5144_43249)"/>
<defs>
<linearGradient id="paint0_linear_5144_43249" x1="2.56934" y1="1.73353" x2="21.5519" y2="33.1599" gradientUnits="userSpaceOnUse">
<stop stop-color="#2DC8D8"/>
<stop offset="1" stop-color="#ECF281"/>
</linearGradient>
</defs>
</svg>
