<svg width="100%" height="100%" viewBox="0 0 24 24" fill="none" xmlns="http://www.w3.org/2000/svg">
<path d="M1.77229 4.04198C1.16056 3.43025 1.16056 2.43929 1.77229 1.82756C2.38332 1.21653 3.37463 1.21618 3.98601 1.82756L22.4322 20.2737C23.0432 20.8847 23.0428 21.876 22.4318 22.4871C21.8204 23.0985 20.8295 23.0985 20.2184 22.4874L1.77264 4.04163L1.77229 4.04198Z" fill="currentColor"/>
<path d="M20.2173 1.82795C20.829 1.21622 21.82 1.21622 22.4317 1.82795C23.0427 2.43899 23.0431 3.43029 22.4317 4.04167L3.98557 22.4878C3.37454 23.0988 2.38323 23.0985 1.7722 22.4875C1.16082 21.8761 1.16082 20.8851 1.77185 20.2741L20.2176 1.8283L20.2173 1.82795Z" fill="currentColor"/>
</svg>
