<svg width="24" height="24" viewBox="0 0 24 24" fill="none" xmlns="http://www.w3.org/2000/svg">
<path d="M1.99104 4.04149C1.37931 3.42976 1.37931 2.43881 1.99104 1.82707C2.60207 1.21604 3.59338 1.21569 4.20476 1.82707L22.6509 20.2732C23.2619 20.8842 23.2616 21.8756 22.6506 22.4866C22.0392 23.098 21.0482 23.098 20.4372 22.4869L1.99139 4.04114L1.99104 4.04149Z" fill="white"/>
<path d="M20.436 1.82747C21.0478 1.21573 22.0387 1.21573 22.6505 1.82747C23.2615 2.4385 23.2618 3.4298 22.6505 4.04119L4.20432 22.4873C3.59329 23.0984 2.60198 23.098 1.99095 22.487C1.37957 21.8756 1.37957 20.8846 1.9906 20.2736L20.4364 1.82782L20.436 1.82747Z" fill="white"/>
</svg>
