<svg width="24" height="25" viewBox="0 0 24 25" fill="none" xmlns="http://www.w3.org/2000/svg">
<path d="M18.4739 9.32115L12.466 5.91296V5.36908C13.5124 5.16889 14.3064 4.24789 14.3064 3.14408C14.3064 1.89461 13.2892 0.87793 12.04 0.87793C10.7905 0.87793 9.77359 1.89461 9.77359 3.14408C9.77359 3.38409 9.96816 3.57812 10.2076 3.57812C10.4471 3.57812 10.6417 3.38409 10.6417 3.14408C10.6417 2.37302 11.2692 1.74601 12.04 1.74601C12.8108 1.74601 13.4383 2.37329 13.4383 3.14408C13.4383 3.91541 12.8105 4.54269 12.04 4.54269C12.0085 4.54269 11.978 4.5467 11.9481 4.55284C11.7487 4.59213 11.5979 4.76746 11.5979 4.97833V5.92178L5.60503 9.32115L0.895264 13.8887L4.30719 17.3007L5.77127 15.8363V24.8779H18.3079V15.8363L19.7723 17.3007L23.1842 13.8887L18.4739 9.32115ZM12.0395 9.73167C10.9113 9.73167 9.94063 9.07286 9.48173 8.12032L12.0395 6.66933L14.5969 8.12005C14.1383 9.07259 13.1676 9.73167 12.0395 9.73167Z" fill="white"/>
</svg>
