<svg width="81" height="81" viewBox="0 0 81 81" fill="none" xmlns="http://www.w3.org/2000/svg">
<g filter="url(#filter0_d)">
<rect x="30.0327" y="28.0945" width="20" height="20" rx="5" fill="url(#paint0_linear)"/>
</g>
<path d="M42.9573 36.4777L40.2265 34.9285V34.6813C40.7021 34.5903 41.063 34.1717 41.063 33.67C41.063 33.102 40.6006 32.6399 40.0328 32.6399C39.4649 32.6399 39.0026 33.102 39.0026 33.67C39.0026 33.7791 39.0911 33.8673 39.1999 33.8673C39.3088 33.8673 39.3972 33.7791 39.3972 33.67C39.3972 33.3195 39.6825 33.0345 40.0328 33.0345C40.3832 33.0345 40.6684 33.3196 40.6684 33.67C40.6684 34.0206 40.3831 34.3057 40.0328 34.3057C40.0185 34.3057 40.0046 34.3075 39.991 34.3103C39.9004 34.3282 39.8319 34.4079 39.8319 34.5037V34.9325L37.1078 36.4777L34.967 38.5539L36.5179 40.1048L37.1834 39.4391V43.549H42.8819V39.4391L43.5475 40.1048L45.0984 38.5539L42.9573 36.4777ZM40.0326 36.6643C39.5198 36.6643 39.0786 36.3649 38.87 35.9319L40.0326 35.2723L41.1951 35.9318C40.9866 36.3647 40.5454 36.6643 40.0326 36.6643Z" fill="white"/>
<defs>
<filter id="filter0_d" x="0.0327148" y="0.0944824" width="80" height="80" filterUnits="userSpaceOnUse" color-interpolation-filters="sRGB">
<feFlood flood-opacity="0" result="BackgroundImageFix"/>
<feColorMatrix in="SourceAlpha" type="matrix" values="0 0 0 0 0 0 0 0 0 0 0 0 0 0 0 0 0 0 127 0" result="hardAlpha"/>
<feOffset dy="2"/>
<feGaussianBlur stdDeviation="15"/>
<feColorMatrix type="matrix" values="0 0 0 0 0.6 0 0 0 0 0.611765 0 0 0 0 0.678431 0 0 0 0.2 0"/>
<feBlend mode="normal" in2="BackgroundImageFix" result="effect1_dropShadow"/>
<feBlend mode="normal" in="SourceGraphic" in2="effect1_dropShadow" result="shape"/>
</filter>
<linearGradient id="paint0_linear" x1="30.0327" y1="28.0945" x2="50.0327" y2="48.0945" gradientUnits="userSpaceOnUse">
<stop stop-color="#FFC450"/>
<stop offset="0.9999" stop-color="#EA7700"/>
<stop offset="1" stop-color="#F0933E"/>
</linearGradient>
</defs>
</svg>
