<svg width="23" height="24" viewBox="0 0 23 24" fill="none" xmlns="http://www.w3.org/2000/svg">
<path d="M18.0533 8.44322L12.0454 5.03503V4.49115C13.0917 4.29096 13.8858 3.36996 13.8858 2.26615C13.8858 1.01668 12.8686 0 11.6194 0C10.3699 0 9.35293 1.01668 9.35293 2.26615C9.35293 2.50616 9.54751 2.70019 9.78698 2.70019C10.0264 2.70019 10.221 2.50616 10.221 2.26615C10.221 1.49509 10.8486 0.868082 11.6194 0.868082C12.3902 0.868082 13.0177 1.49536 13.0177 2.26615C13.0177 3.03748 12.3899 3.66476 11.6194 3.66476C11.5878 3.66476 11.5573 3.66877 11.5274 3.67491C11.328 3.7142 11.1773 3.88953 11.1773 4.1004V5.04385L5.18438 8.44322L0.474609 13.0108L3.88653 16.4227L5.35062 14.9584V24H17.8873V14.9584L19.3516 16.4227L22.7636 13.0108L18.0533 8.44322ZM11.6188 8.85374C10.4907 8.85374 9.51998 8.19493 9.06108 7.24239L11.6188 5.7914L14.1763 7.24212C13.7177 8.19466 12.747 8.85374 11.6188 8.85374Z" fill="#F6A532"/>
</svg>
