<svg width="272" height="70" viewBox="0 0 272 70" fill="currentColor" xmlns="http://www.w3.org/2000/svg">
<path d="M3.13822 0.0118103H0V69.1039H3.13822V0.0118103Z" fill="currentColor"/>
<path d="M8.8516 0.0115051H5.71338V69.1036H8.8516V0.0115051Z" fill="currentColor"/>
<path d="M132.691 0.0115051H129.553V69.1036H132.691V0.0115051Z" fill="currentColor"/>
<path d="M138.405 0.0115051H135.267V69.1036H138.405V0.0115051Z" fill="currentColor"/>
<path d="M266.287 0.0115051H263.148V69.1036H266.287V0.0115051Z" fill="currentColor"/>
<path d="M272 0.0115051H268.862V69.1036H272V0.0115051Z" fill="currentColor"/>
<path d="M18.3182 0H11.6492V69.1035H18.3182V0Z" fill="currentColor"/>
<path d="M47.3243 0H40.6553V69.1035H47.3243V0Z" fill="currentColor"/>
<path d="M172.882 0H166.213V69.1035H172.882V0Z" fill="currentColor"/>
<path d="M184.566 0H177.897V69.1035H184.566V0Z" fill="currentColor"/>
<path d="M115.092 0H108.423V69.1035H115.092V0Z" fill="currentColor"/>
<path d="M103.994 0H92.3218V69.1035H103.994V0Z" fill="currentColor"/>
<path d="M153.839 0H142.167V69.1035H153.839V0Z" fill="currentColor"/>
<path d="M27.8311 0H24.6785V69.1035H27.8311V0Z" fill="currentColor"/>
<path d="M33.2589 0H30.1062V69.1035H33.2589V0Z" fill="currentColor"/>
<path d="M56.8343 0H53.6816V69.1035H56.8343V0Z" fill="currentColor"/>
<path d="M62.262 0H59.1094V69.1035H62.262V0Z" fill="currentColor"/>
<path d="M192.338 0H189.185V69.1035H192.338V0Z" fill="currentColor"/>
<path d="M197.765 0H194.613V69.1035H197.765V0Z" fill="currentColor"/>
<path d="M74.0037 0H70.8511V69.1035H74.0037V0Z" fill="currentColor"/>
<path d="M81.2847 0H78.1321V69.1035H81.2847V0Z" fill="currentColor"/>
<path d="M88.3204 0H85.1677V69.1035H88.3204V0Z" fill="currentColor"/>
<path d="M217.865 0H214.712V69.1035H217.865V0Z" fill="currentColor"/>
<path d="M225.146 0H221.993V69.1035H225.146V0Z" fill="currentColor"/>
<path d="M232.179 0H229.026V69.1035H232.179V0Z" fill="currentColor"/>
<path d="M125.557 0H122.405V69.1035H125.557V0Z" fill="currentColor"/>
<path d="M208.231 0H205.078V69.1035H208.231V0Z" fill="currentColor"/>
<path d="M242.746 0H239.593V69.1035H242.746V0Z" fill="currentColor"/>
<path d="M161.574 0H158.421V69.1035H161.574V0Z" fill="currentColor"/>
<path d="M258.711 0H247.039V69.1035H258.711V0Z" fill="currentColor"/>
</svg>
