<svg width="228" height="37" viewBox="0 0 228 37" fill="currentColor" xmlns="http://www.w3.org/2000/svg">
<path d="M65.4926 0.00146484H62.5374V36.0015H65.4926V0.00146484Z" fill="#312B3E"/>
<path d="M59.7612 0.00146484H56.8955V36.0015H59.7612V0.00146484Z" fill="#312B3E"/>
<path d="M55.7316 0.00146484H52.239V36.0015H55.7316V0.00146484Z" fill="#312B3E"/>
<path d="M50.0001 0.00146484H48.2986V36.0015H50.0001V0.00146484Z" fill="#312B3E"/>
<path d="M44.2688 0.00146484H39.7017V36.0015H44.2688V0.00146484Z" fill="#312B3E"/>
<path d="M34.5077 0.00146484H32.8958V36.0015H34.5077V0.00146484Z" fill="#312B3E"/>
<path d="M37.1942 0.00146484H35.5823V36.0015H37.1942V0.00146484Z" fill="#312B3E"/>
<path d="M31.8209 0.00146484H28.3284V36.0015H31.8209V0.00146484Z" fill="#312B3E"/>
<path d="M18.9256 0.00146484H16.6868V36.0015H18.9256V0.00146484Z" fill="#312B3E"/>
<path d="M74.6269 0.00146484H72.209V36.0015H74.6269V0.00146484Z" fill="#312B3E"/>
<path d="M27.1642 0.00146484H23.7612V36.0015H27.1642V0.00146484Z" fill="#312B3E"/>
<path d="M21.5226 0.00146484H20.0002V36.0015H21.5226V0.00146484Z" fill="#312B3E"/>
<path d="M15.791 0.00146484H14.4478V36.0015H15.791V0.00146484Z" fill="#312B3E"/>
<path d="M13.2837 0.00146484H11.9404V36.0015H13.2837V0.00146484Z" fill="#312B3E"/>
<path d="M4.14944 0.00146484H2.80615V36.0015H4.14944V0.00146484Z" fill="#312B3E"/>
<path d="M1.73147 0.00146484H0.388184V36.0015H1.73147V0.00146484Z" fill="#312B3E"/>
<path d="M71.4927 0.00146484H70.1494V36.0015H71.4927V0.00146484Z" fill="#312B3E"/>
<path d="M68.9851 0.00146484H67.6418V36.0015H68.9851V0.00146484Z" fill="#312B3E"/>
<path d="M61.821 0.00146484H60.8359V36.0015H61.821V0.00146484Z" fill="#312B3E"/>
<path d="M67.1047 0.00146484H66.1196V36.0015H67.1047V0.00146484Z" fill="#312B3E"/>
<path d="M46.9553 0.00146484H45.6121V36.0015H46.9553V0.00146484Z" fill="#312B3E"/>
<path d="M10.2389 0.00146484H5.49268V36.0015H10.2389V0.00146484Z" fill="#312B3E"/>
<path d="M85.9835 0.00146484H88.9387V36.0015H85.9835V0.00146484Z" fill="#312B3E"/>
<path d="M91.7147 0.00146484H94.5803V36.0015H91.7147V0.00146484Z" fill="#312B3E"/>
<path d="M95.7445 0.00146484H99.2371V36.0015H95.7445V0.00146484Z" fill="#312B3E"/>
<path d="M101.476 0.00146484H103.177V36.0015H101.476V0.00146484Z" fill="#312B3E"/>
<path d="M107.207 0.00146484H111.774V36.0015H107.207V0.00146484Z" fill="#312B3E"/>
<path d="M116.968 0.00146484H118.58V36.0015H116.968V0.00146484Z" fill="#312B3E"/>
<path d="M114.282 0.00146484H115.894V36.0015H114.282V0.00146484Z" fill="#312B3E"/>
<path d="M119.655 0.00146484H123.148V36.0015H119.655V0.00146484Z" fill="#312B3E"/>
<path d="M132.551 0.00146484H134.789V36.0015H132.551V0.00146484Z" fill="#312B3E"/>
<path d="M76.8492 0.00146484H79.2671V36.0015H76.8492V0.00146484Z" fill="#312B3E"/>
<path d="M124.312 0.00146484H127.715V36.0015H124.312V0.00146484Z" fill="#312B3E"/>
<path d="M129.954 0.00146484H131.476V36.0015H129.954V0.00146484Z" fill="#312B3E"/>
<path d="M135.685 0.00146484H137.028V36.0015H135.685V0.00146484Z" fill="#312B3E"/>
<path d="M138.192 0.00146484H139.536V36.0015H138.192V0.00146484Z" fill="#312B3E"/>
<path d="M147.327 0.00146484H148.67V36.0015H147.327V0.00146484Z" fill="#312B3E"/>
<path d="M149.745 0.00146484H151.088V36.0015H149.745V0.00146484Z" fill="#312B3E"/>
<path d="M79.9834 0.00146484H81.3267V36.0015H79.9834V0.00146484Z" fill="#312B3E"/>
<path d="M82.4909 0.00146484H83.8342V36.0015H82.4909V0.00146484Z" fill="#312B3E"/>
<path d="M89.6551 0.00146484H90.6401V36.0015H89.6551V0.00146484Z" fill="#312B3E"/>
<path d="M84.3714 0.00146484H85.3564V36.0015H84.3714V0.00146484Z" fill="#312B3E"/>
<path d="M104.521 0.00146484H105.864V36.0015H104.521V0.00146484Z" fill="#312B3E"/>
<path d="M141.237 0.00146484H145.983V36.0015H141.237V0.00146484Z" fill="#312B3E"/>
<path d="M218.414 0.00146484H215.459V36.0015H218.414V0.00146484Z" fill="#312B3E"/>
<path d="M212.683 0.00146484H209.817V36.0015H212.683V0.00146484Z" fill="#312B3E"/>
<path d="M208.653 0.00146484H205.161V36.0015H208.653V0.00146484Z" fill="#312B3E"/>
<path d="M202.922 0.00146484H201.22V36.0015H202.922V0.00146484Z" fill="#312B3E"/>
<path d="M197.19 0.00146484H192.623V36.0015H197.19V0.00146484Z" fill="#312B3E"/>
<path d="M187.429 0.00146484H185.817V36.0015H187.429V0.00146484Z" fill="#312B3E"/>
<path d="M190.116 0.00146484H188.504V36.0015H190.116V0.00146484Z" fill="#312B3E"/>
<path d="M184.743 0.00146484H181.25V36.0015H184.743V0.00146484Z" fill="#312B3E"/>
<path d="M171.847 0.00146484H169.608V36.0015H171.847V0.00146484Z" fill="#312B3E"/>
<path d="M227.549 0.00146484H225.131V36.0015H227.549V0.00146484Z" fill="#312B3E"/>
<path d="M180.086 0.00146484H176.683V36.0015H180.086V0.00146484Z" fill="#312B3E"/>
<path d="M174.444 0.00146484H172.922V36.0015H174.444V0.00146484Z" fill="#312B3E"/>
<path d="M168.713 0.00146484H167.37V36.0015H168.713V0.00146484Z" fill="#312B3E"/>
<path d="M166.205 0.00146484H164.862V36.0015H166.205V0.00146484Z" fill="#312B3E"/>
<path d="M157.071 0.00146484H155.728V36.0015H157.071V0.00146484Z" fill="#312B3E"/>
<path d="M154.653 0.00146484H153.31V36.0015H154.653V0.00146484Z" fill="#312B3E"/>
<path d="M224.414 0.00146484H223.071V36.0015H224.414V0.00146484Z" fill="#312B3E"/>
<path d="M221.907 0.00146484H220.563V36.0015H221.907V0.00146484Z" fill="#312B3E"/>
<path d="M214.743 0.00146484H213.758V36.0015H214.743V0.00146484Z" fill="#312B3E"/>
<path d="M220.026 0.00146484H219.041V36.0015H220.026V0.00146484Z" fill="#312B3E"/>
<path d="M199.877 0.00146484H198.534V36.0015H199.877V0.00146484Z" fill="#312B3E"/>
<path d="M163.161 0.00146484H158.414V36.0015H163.161V0.00146484Z" fill="#312B3E"/>
</svg>
