<svg width="29" height="24" viewBox="0 0 29 24" fill="none" xmlns="http://www.w3.org/2000/svg">
<path fill-rule="evenodd" clip-rule="evenodd" d="M24.9608 11.4683V22.5858C24.9608 23.3648 24.3252 24.0004 23.5462 24.0004H17.3844V14.9377H11.8552V24.0004H5.69214C4.91249 24.0004 4.27686 23.3648 4.27686 22.5858V11.4683L14.6192 4.06348L24.9608 11.4683Z" fill="#378BFE"/>
<path d="M2.58586 11.2349C2.05904 11.6126 1.32483 11.4909 0.947168 10.9641C0.570141 10.4373 0.691763 9.7031 1.21858 9.32544L4.25655 7.14969V4.26791C4.25655 3.61883 4.78272 3.09266 5.4318 3.09266C6.08087 3.09266 6.60704 3.61883 6.60704 4.26791V5.46684L13.9357 0.219192C14.3588 -0.083581 14.9157 -0.0650177 15.3145 0.227514L28.0201 9.32544C28.5469 9.7031 28.6685 10.4373 28.2909 10.9641C27.9138 11.4909 27.179 11.6126 26.6522 11.2349L14.6193 2.61834L2.58586 11.2349Z" fill="#378BFE"/>
</svg>
