<svg width="28" height="25" viewBox="0 0 28 25" fill="none" xmlns="http://www.w3.org/2000/svg">
<path fill-rule="evenodd" clip-rule="evenodd" d="M24.3816 12.3459V23.4633C24.3816 24.2424 23.746 24.878 22.967 24.878H16.8053V15.8153H11.276V24.878H5.11295C4.33329 24.878 3.69766 24.2424 3.69766 23.4633V12.3459L14.04 4.94104L24.3816 12.3459Z" fill="white"/>
<path d="M2.00651 12.1128C1.4797 12.4905 0.745488 12.3689 0.367822 11.8421C-0.00920458 11.3152 0.112417 10.581 0.63923 10.2034L3.6772 8.02762V5.14584C3.6772 4.49676 4.20338 3.97059 4.85245 3.97059C5.50153 3.97059 6.0277 4.49676 6.0277 5.14584V6.34477L13.3563 1.09712C13.7795 0.794349 14.3364 0.812912 14.7352 1.10544L27.4408 10.2034C27.9676 10.581 28.0892 11.3152 27.7115 11.8421C27.3345 12.3689 26.5996 12.4905 26.0728 12.1128L14.04 3.49626L2.00651 12.1128Z" fill="white"/>
</svg>
