<svg width="105" height="105" viewBox="0 0 105 105" fill="none" xmlns="http://www.w3.org/2000/svg">
<g filter="url(#filter0_d)">
<rect x="30.0398" y="28.8779" width="44.0001" height="44.0001" rx="10" fill="url(#paint0_linear)"/>
</g>
<path d="M63.1439 48.2155H61.3016C61.0998 47.4331 60.7717 46.7265 60.3931 46.0451L61.7054 44.7328C62.0335 44.4047 62.0335 43.9 61.7054 43.5972L59.207 41.0987C58.8789 40.7707 58.3742 40.7707 58.0714 41.0987L56.7591 42.4111C56.0777 42.0325 55.3458 41.7297 54.5887 41.5278V39.6855C54.5887 39.2312 54.2354 38.8779 53.7811 38.8779H50.2733C49.819 38.8779 49.4657 39.2312 49.4657 39.6855V41.5278C48.6834 41.7297 47.9515 42.0577 47.2953 42.4363L45.983 41.1492C45.655 40.8211 45.1502 40.8211 44.8474 41.1492L42.349 43.6476C42.0209 43.9505 42.0209 44.4805 42.349 44.7833L43.6613 46.0956C43.2827 46.777 42.9799 47.5088 42.7528 48.2659H40.9357C40.5067 48.2659 40.1281 48.6445 40.1281 49.0735V52.6066C40.1029 53.0104 40.4815 53.389 40.9357 53.389H42.778C42.9799 54.1461 43.308 54.8779 43.6865 55.5593L42.3742 56.8716C42.0461 57.1745 42.0461 57.7044 42.3742 58.0073L44.8726 60.5057C45.2007 60.8338 45.7054 60.8338 46.0083 60.5057L47.3206 59.1934C47.7748 59.4458 48.2291 59.6476 48.7338 59.8243V55.5341C47.2449 54.4994 46.2859 52.7581 46.2859 50.7896C46.2859 47.6098 48.8852 45.0104 52.0651 45.0104C55.2449 45.0104 57.8442 47.6098 57.8442 50.7896C57.8442 52.7328 56.8852 54.4741 55.3963 55.5341V59.8495C55.901 59.6729 56.3805 59.4458 56.8348 59.1934L58.0966 60.4552C58.4247 60.7833 58.9294 60.7833 59.2322 60.4552L61.7307 57.9568C62.0587 57.6287 62.0587 57.124 61.7307 56.8211L60.4436 55.5088C60.8222 54.8275 61.125 54.0956 61.3269 53.3385H63.1439C63.5982 53.3385 63.9515 52.9852 63.9515 52.5309V48.9978C63.9767 48.5688 63.5982 48.2155 63.1439 48.2155Z" fill="white"/>
<path d="M55.3963 50.7643C55.3963 49.6035 54.8159 48.5688 53.9326 47.9631C53.7055 47.8117 53.3774 47.9883 53.3774 48.2659V49.9568C53.3774 50.6886 52.7717 51.2943 52.0398 51.2943C51.308 51.2943 50.7023 50.6886 50.7023 49.9568V48.2912C50.7023 48.0135 50.3742 47.8369 50.1471 47.9883C49.2638 48.6192 48.6834 49.6287 48.6834 50.7896C48.6834 52.1271 49.4657 53.2628 50.5761 53.818V61.4142C50.5761 62.2218 51.2323 62.8779 52.0398 62.8779C52.8474 62.8779 53.5036 62.2218 53.5036 61.4142V53.7927C54.614 53.2375 55.3963 52.1019 55.3963 50.7643Z" fill="white"/>
<defs>
<filter id="filter0_d" x="0.0397949" y="0.87793" width="104" height="104" filterUnits="userSpaceOnUse" color-interpolation-filters="sRGB">
<feFlood flood-opacity="0" result="BackgroundImageFix"/>
<feColorMatrix in="SourceAlpha" type="matrix" values="0 0 0 0 0 0 0 0 0 0 0 0 0 0 0 0 0 0 127 0" result="hardAlpha"/>
<feOffset dy="2"/>
<feGaussianBlur stdDeviation="15"/>
<feColorMatrix type="matrix" values="0 0 0 0 0.6 0 0 0 0 0.611765 0 0 0 0 0.678431 0 0 0 0.2 0"/>
<feBlend mode="normal" in2="BackgroundImageFix" result="effect1_dropShadow"/>
<feBlend mode="normal" in="SourceGraphic" in2="effect1_dropShadow" result="shape"/>
</filter>
<linearGradient id="paint0_linear" x1="30.0398" y1="28.8779" x2="74.0399" y2="72.878" gradientUnits="userSpaceOnUse">
<stop stop-color="#EE4465"/>
<stop offset="1" stop-color="#F16736"/>
</linearGradient>
</defs>
</svg>
