<svg width="21" height="21" viewBox="0 0 21 21" fill="none" xmlns="http://www.w3.org/2000/svg">
<path fill-rule="evenodd" clip-rule="evenodd" d="M0.878662 10.4721C0.878662 5.20415 5.08866 0.457031 10.8987 0.457031C16.5787 0.457031 20.8787 5.11402 20.8787 10.442C20.8787 16.6213 15.8387 20.457 10.8787 20.457C9.23866 20.457 7.41866 20.0164 5.95866 19.1551C5.44866 18.8446 5.01866 18.6143 4.46866 18.7945L2.44866 19.3954C1.93866 19.5557 1.47866 19.1551 1.62866 18.6143L2.29866 16.3709C2.40866 16.0604 2.38866 15.7299 2.22866 15.4696C1.36866 13.8872 0.878662 12.1546 0.878662 10.4721ZM9.57866 10.4721C9.57866 11.1831 10.1487 11.754 10.8587 11.764C11.5687 11.764 12.1387 11.1831 12.1387 10.4821C12.1387 9.771 11.5687 9.20015 10.8587 9.20015C10.1587 9.19013 9.57866 9.771 9.57866 10.4721ZM14.1887 10.4821C14.1887 11.1831 14.7587 11.764 15.4687 11.764C16.1787 11.764 16.7487 11.1831 16.7487 10.4821C16.7487 9.771 16.1787 9.20015 15.4687 9.20015C14.7587 9.20015 14.1887 9.771 14.1887 10.4821ZM6.24866 11.764C5.54866 11.764 4.96866 11.1831 4.96866 10.4821C4.96866 9.771 5.53866 9.20015 6.24866 9.20015C6.95866 9.20015 7.52866 9.771 7.52866 10.4821C7.52866 11.1831 6.95866 11.754 6.24866 11.764Z" fill="currentColor"/>
</svg>
