<svg width="24" height="25" viewBox="0 0 24 25" fill="none" xmlns="http://www.w3.org/2000/svg">
<path d="M4.18714 19.4065H6.69879V21.9181C6.69935 22.732 7.02303 23.5126 7.59844 24.0881C8.17402 24.6635 8.95464 24.9872 9.76846 24.9878H19.8151C20.6291 24.9872 21.4095 24.6636 21.9851 24.0881C22.5607 23.5126 22.8844 22.7319 22.8849 21.9181V9.79857C22.884 8.9847 22.5603 8.20451 21.9849 7.62889C21.4094 7.05331 20.6291 6.72962 19.8151 6.7289H17.4375V4.05746C17.4369 3.24359 17.1132 2.46302 16.5376 1.88744C15.9621 1.31206 15.1816 0.988367 14.3676 0.987793H4.18705C3.37299 0.988354 2.5926 1.31203 2.01703 1.88744C1.44145 2.46302 1.11776 3.24364 1.11719 4.05746V16.3368C1.11775 17.1509 1.44142 17.9312 2.01703 18.5068C2.59264 19.0824 3.37303 19.4061 4.18705 19.4067L4.18714 19.4065ZM21.2104 9.79857V21.9181C21.2098 22.288 21.0626 22.6425 20.8011 22.9041C20.5395 23.1655 20.185 23.3128 19.815 23.3133H9.76838C9.39855 23.3128 9.04402 23.1655 8.78243 22.9041C8.52099 22.6424 8.37372 22.2879 8.37316 21.9181V9.79857C8.37372 9.42874 8.52098 9.07421 8.78243 8.81262C9.04406 8.55098 9.39857 8.40391 9.76838 8.40335H19.815C20.185 8.40391 20.5395 8.55098 20.8011 8.81262C21.0626 9.07425 21.2098 9.42876 21.2104 9.79857ZM2.79162 4.05765C2.79218 3.68782 2.93944 3.33329 3.20089 3.0717C3.46252 2.81026 3.81703 2.66299 4.18703 2.66243H14.3676H14.3674C14.7374 2.66262 15.0923 2.80969 15.3537 3.07132C15.6154 3.33296 15.7626 3.68785 15.7628 4.05766V6.7291H9.76835C8.95448 6.72985 8.17429 7.05352 7.59866 7.62909C7.02328 8.20466 6.6994 8.9849 6.69868 9.79877V17.7322H4.18703C3.81701 17.7317 3.46248 17.5844 3.20088 17.3228C2.93944 17.0613 2.79218 16.7066 2.79162 16.3368L2.79162 4.05765Z" fill="white"/>
</svg>
