<svg width="30" height="25" viewBox="0 0 30 25" fill="none" xmlns="http://www.w3.org/2000/svg">
<path d="M1.77139 3.72149C0.907262 3.72149 0.206055 3.02029 0.206055 2.15616C0.206055 1.29153 0.907262 0.59082 1.77139 0.59082H27.8587C28.7228 0.59082 29.424 1.29153 29.424 2.15616C29.424 3.02029 28.7228 3.72149 27.8587 3.72149H1.77139Z" fill="#312B3E"/>
<path d="M1.77189 14.1566C0.906767 14.1566 0.206055 13.4558 0.206055 12.5907C0.206055 11.7266 0.906767 11.0254 1.77139 11.0254H27.8582C28.7223 11.0254 29.423 11.7266 29.423 12.5907C29.423 13.4554 28.7223 14.1561 27.8582 14.1561H1.77189V14.1566Z" fill="#312B3E"/>
<path d="M1.77189 24.5906C0.906767 24.5906 0.206055 23.8894 0.206055 23.0248C0.206055 22.1607 0.906767 21.46 1.77189 21.46H27.8582C28.7228 21.46 29.424 22.1607 29.424 23.0248C29.424 23.8894 28.7228 24.5906 27.8582 24.5906H1.77189Z" fill="#312B3E"/>
</svg>
