<svg width="21" height="21" viewBox="0 0 21 21" fill="none" xmlns="http://www.w3.org/2000/svg">
<path fill-rule="evenodd" clip-rule="evenodd" d="M11.205 0.666694C11.3647 0.523354 11.576 0.448218 11.7922 0.457856C16.363 0.594686 20.183 3.91283 20.8754 8.34766C20.8798 8.37414 20.8798 8.40114 20.8754 8.42762C20.8903 8.63746 20.8194 8.84448 20.6783 9.00288C20.5372 9.16128 20.3377 9.25802 20.1237 9.27169L12.4442 9.77813C12.1903 9.80065 11.9384 9.71708 11.7505 9.54795C11.5626 9.37883 11.4561 9.13981 11.4571 8.88964L10.9409 1.34635V1.22196C10.9503 1.00981 11.0454 0.810034 11.205 0.666694ZM10.6783 11.7506L17.3345 11.3241L17.3798 11.3419C17.6656 11.3465 17.9378 11.4625 18.1365 11.6641C18.3352 11.8657 18.4441 12.1365 18.4393 12.417C18.177 16.239 15.3748 19.4325 11.5614 20.2553C7.74804 21.078 3.83884 19.3325 1.96644 15.9709C1.41588 15.0027 1.06796 13.9364 0.943116 12.8345C0.894693 12.508 0.873493 12.1782 0.879724 11.8483C0.892345 7.7841 3.78594 4.2761 7.83473 3.41653C8.32486 3.32479 8.81628 3.56951 9.03012 4.01182C9.08336 4.09208 9.12596 4.17867 9.15691 4.26948C9.23281 5.44108 9.31153 6.60158 9.38993 7.75718C9.45184 8.6698 9.51354 9.57936 9.57348 10.4889C9.57039 10.7032 9.60406 10.9164 9.6731 11.1198C9.83561 11.5198 10.24 11.7736 10.6783 11.7506Z" fill="currentColor"/>
</svg>
