<svg width="25" height="25" viewBox="0 0 25 25" fill="none" xmlns="http://www.w3.org/2000/svg">
<g id="Iconly/Light-Outline/Graph">
<g id="Graph">
<path id="Fill 1" fill-rule="evenodd" clip-rule="evenodd" d="M9.92609 7.03006C9.89409 7.03006 9.86209 7.03406 9.83009 7.04206C6.86009 7.77306 4.44409 10.9911 4.44409 14.2151C4.44409 18.2711 7.74409 21.5711 11.8011 21.5711C15.4581 21.5711 18.5141 18.9661 19.0681 15.3761C19.0721 15.3461 19.0861 15.2591 19.0041 15.1621C18.9261 15.0711 18.8021 15.0171 18.6721 15.0171C17.2611 15.0171 16.1841 15.0491 15.3431 15.0731C13.3071 15.1341 12.4651 15.1571 11.6331 14.5401C10.3791 13.6111 10.2731 12.0151 10.2731 7.32106C10.2731 7.23706 10.2371 7.16706 10.1651 7.11106C10.0981 7.05806 10.0131 7.03006 9.92609 7.03006ZM11.8011 23.0711C6.91709 23.0711 2.94409 19.0981 2.94409 14.2151C2.94409 10.3431 5.87209 6.47106 9.47109 5.58506C10.0331 5.44806 10.6371 5.57606 11.0911 5.93006C11.5241 6.27006 11.7731 6.77706 11.7731 7.32106C11.7731 11.7061 11.9211 12.8861 12.5261 13.3351C12.9231 13.6281 13.4671 13.6251 15.3001 13.5741C16.1521 13.5491 17.2431 13.5171 18.6721 13.5171C19.2421 13.5171 19.7791 13.7611 20.1431 14.1861C20.4811 14.5811 20.6291 15.0971 20.5511 15.6051C19.8831 19.9301 16.2031 23.0711 11.8011 23.0711Z" fill="currentColor"/>
<g id="Group 5">
<mask id="mask0" style="mask-type:alpha" maskUnits="userSpaceOnUse" x="13" y="1" width="11" height="12">
<path id="Clip 4" fill-rule="evenodd" clip-rule="evenodd" d="M13.4177 1.72705H23.8367V12.0164H13.4177V1.72705Z" fill="white"/>
</mask>
<g mask="url(#mask0)">
<path id="Fill 3" fill-rule="evenodd" clip-rule="evenodd" d="M14.9545 3.2283C14.8445 5.7473 15.0075 9.0013 15.0835 10.2903C15.0875 10.3673 15.1435 10.4233 15.2195 10.4273C16.2475 10.4863 19.7895 10.6503 22.3365 10.2753C22.3425 8.8713 21.3815 6.9673 19.9345 5.5213C18.4505 4.0393 16.6945 3.2283 14.9765 3.2283H14.9545ZM18.2585 12.0163C16.9485 12.0163 15.7955 11.9633 15.1325 11.9253C14.2985 11.8763 13.6345 11.2113 13.5865 10.3773C13.5085 9.0553 13.3395 5.6963 13.4595 3.0983C13.4925 2.3433 14.1025 1.7423 14.8485 1.7293C16.9855 1.6673 19.1905 2.6593 20.9945 4.4603C22.7525 6.2173 23.8685 8.5263 23.8365 10.3433C23.8245 11.0523 23.3095 11.6443 22.6135 11.7493C21.2555 11.9543 19.6655 12.0163 18.2585 12.0163Z" fill="currentColor"/>
</g>
</g>
</g>
</g>
</svg>
