<svg width="17" height="17" viewBox="0 0 17 17" fill="none" xmlns="http://www.w3.org/2000/svg">
<path fill-rule="evenodd" clip-rule="evenodd" d="M8.71763 2.23291C8.82409 2.13735 8.96492 2.08726 9.10907 2.09369C12.1563 2.18491 14.703 4.39701 15.1645 7.35356C15.1674 7.37121 15.1674 7.38921 15.1645 7.40687C15.1744 7.54676 15.1272 7.68477 15.0331 7.79037C14.9391 7.89597 14.806 7.96046 14.6634 7.96958L9.54375 8.30721C9.37445 8.32222 9.20654 8.26651 9.08127 8.15375C8.95601 8.041 8.88499 7.88166 8.88568 7.71488L8.54156 2.68602V2.60309C8.54782 2.46166 8.61117 2.32848 8.71763 2.23291ZM8.36648 9.62217L12.8039 9.33786L12.8341 9.3497C13.0247 9.35282 13.2061 9.43009 13.3386 9.5645C13.4711 9.69892 13.5437 9.87947 13.5405 10.0664C13.3656 12.6145 11.4975 14.7435 8.95522 15.292C6.41296 15.8404 3.80682 14.6768 2.55856 12.4357C2.19152 11.7903 1.95958 11.0794 1.87634 10.3448C1.84406 10.1271 1.82993 9.90725 1.83408 9.68733C1.8425 6.97785 3.77156 4.63918 6.47075 4.06614C6.79751 4.00498 7.12512 4.16813 7.26768 4.463C7.30317 4.51651 7.33157 4.57423 7.3522 4.63478C7.4028 5.41583 7.45529 6.18948 7.50755 6.95987C7.54882 7.5683 7.58996 8.17468 7.62992 8.78107C7.62786 8.92392 7.65031 9.06608 7.69633 9.20162C7.80467 9.4683 8.07428 9.6375 8.36648 9.62217Z" fill="url(#paint0_linear)"/>
<defs>
<linearGradient id="paint0_linear" x1="3.06604" y1="2.66484" x2="15.7211" y2="23.6157" gradientUnits="userSpaceOnUse">
<stop stop-color="#2DC8D8"/>
<stop offset="1" stop-color="#ECF281"/>
</linearGradient>
</defs>
</svg>
