<svg width="15" height="14" viewBox="0 0 15 14" fill="none" xmlns="http://www.w3.org/2000/svg">
<path fill-rule="evenodd" clip-rule="evenodd" d="M7.71952 0.232915C7.82598 0.137354 7.96681 0.0872642 8.11096 0.0936896C11.1582 0.184909 13.7048 2.39701 14.1664 5.35356C14.1693 5.37121 14.1693 5.38921 14.1664 5.40687C14.1763 5.54676 14.1291 5.68477 14.035 5.79037C13.941 5.89597 13.8079 5.96046 13.6653 5.96958L8.54565 6.30721C8.37634 6.32222 8.20843 6.26651 8.08316 6.15375C7.9579 6.041 7.88689 5.88166 7.88758 5.71488L7.54345 0.686017V0.603091C7.54971 0.461657 7.61306 0.328475 7.71952 0.232915ZM7.36837 7.62217L11.8058 7.33786L11.836 7.3497C12.0265 7.35282 12.208 7.43009 12.3405 7.5645C12.473 7.69892 12.5456 7.87947 12.5424 8.06642C12.3675 10.6145 10.4994 12.7435 7.95711 13.292C5.41485 13.8404 2.80872 12.6768 1.56045 10.4357C1.19341 9.79028 0.961468 9.0794 0.878235 8.34481C0.845954 8.12714 0.83182 7.90725 0.835974 7.68733C0.844388 4.97785 2.77345 2.63918 5.47264 2.06614C5.7994 2.00498 6.12701 2.16813 6.26957 2.463C6.30506 2.51651 6.33346 2.57423 6.35409 2.63478C6.40469 3.41583 6.45718 4.18948 6.50944 4.95987C6.55071 5.5683 6.59185 6.17468 6.63181 6.78107C6.62975 6.92392 6.6522 7.06608 6.69822 7.20162C6.80656 7.4683 7.07618 7.6375 7.36837 7.62217Z" fill="currentColor"/>
</svg>
