<svg width="19" height="20" viewBox="0 0 19 20" fill="none" xmlns="http://www.w3.org/2000/svg">
<path fill-rule="evenodd" clip-rule="evenodd" d="M9.74733 19.9992C8.39233 19.9992 7.07133 19.9842 5.76433 19.9572C4.09233 19.9242 2.93533 18.8402 2.74633 17.1282C2.43133 14.2882 1.89233 7.59417 1.88733 7.52717C1.85333 7.11417 2.16133 6.75217 2.57433 6.71917C2.98133 6.70817 3.34933 6.99417 3.38233 7.40617C3.38733 7.47417 3.92533 14.1452 4.23733 16.9632C4.34433 17.9362 4.86933 18.4382 5.79533 18.4572C8.29533 18.5102 10.8463 18.5132 13.5963 18.4632C14.5803 18.4442 15.1123 17.9522 15.2223 16.9562C15.5323 14.1622 16.0723 7.47417 16.0783 7.40617C16.1113 6.99417 16.4763 6.70617 16.8853 6.71917C17.2983 6.75317 17.6063 7.11417 17.5733 7.52717C17.5673 7.59517 17.0253 14.3062 16.7133 17.1212C16.5193 18.8682 15.3653 19.9312 13.6233 19.9632C12.2903 19.9862 11.0043 19.9992 9.74733 19.9992Z" fill="currentColor"/>
<path fill-rule="evenodd" clip-rule="evenodd" d="M18.208 4.98828H1.25C0.836 4.98828 0.5 4.65228 0.5 4.23828C0.5 3.82428 0.836 3.48828 1.25 3.48828H18.208C18.622 3.48828 18.958 3.82428 18.958 4.23828C18.958 4.65228 18.622 4.98828 18.208 4.98828Z" fill="currentColor"/>
<path fill-rule="evenodd" clip-rule="evenodd" d="M14.9406 4.989C13.8026 4.989 12.8146 4.178 12.5906 3.062L12.3476 1.846C12.2966 1.661 12.0856 1.5 11.8456 1.5H7.61258C7.37258 1.5 7.16158 1.661 7.10058 1.892L6.86758 3.062C6.64458 4.178 5.65558 4.989 4.51758 4.989C4.10358 4.989 3.76758 4.653 3.76758 4.239C3.76758 3.825 4.10358 3.489 4.51758 3.489C4.94358 3.489 5.31358 3.185 5.39758 2.767L5.64058 1.551C5.88758 0.619 6.69458 0 7.61258 0H11.8456C12.7636 0 13.5706 0.619 13.8076 1.506L14.0616 2.767C14.1446 3.185 14.5146 3.489 14.9406 3.489C15.3546 3.489 15.6906 3.825 15.6906 4.239C15.6906 4.653 15.3546 4.989 14.9406 4.989Z" fill="currentColor"/>
</svg>
