<svg width="71" height="24" viewBox="0 0 71 24" fill="none" xmlns="http://www.w3.org/2000/svg">
<path fill-rule="evenodd" clip-rule="evenodd" d="M20.9566 5.24321C21.3456 5.24321 21.6694 5.56621 21.6694 5.9772V6.3572C21.6694 6.7582 21.3456 7.09119 20.9566 7.09119H4.38329C3.99329 7.09119 3.66943 6.7582 3.66943 6.3572V5.9772C3.66943 5.56621 3.99329 5.24321 4.38329 5.24321H7.299C7.89128 5.24321 8.40674 4.82222 8.53998 4.22822L8.69267 3.54623C8.92997 2.61724 9.71093 2.00024 10.6047 2.00024H14.7342C15.6182 2.00024 16.4079 2.61724 16.6365 3.49723L16.7999 4.22722C16.9321 4.82222 17.4476 5.24321 18.0408 5.24321H20.9566ZM19.4753 19.1343C19.7797 16.2973 20.3126 9.55737 20.3126 9.48937C20.3321 9.28337 20.265 9.08837 20.1317 8.93138C19.9888 8.78438 19.8079 8.69738 19.6085 8.69738H5.73796C5.53761 8.69738 5.34699 8.78438 5.21472 8.93138C5.08051 9.08837 5.01438 9.28337 5.0241 9.48937C5.02589 9.50186 5.04501 9.73927 5.07698 10.1362C5.21901 11.8994 5.6146 16.8104 5.87022 19.1343C6.05112 20.8463 7.17442 21.9222 8.8015 21.9612C10.0571 21.9902 11.3506 22.0002 12.6732 22.0002C13.9191 22.0002 15.1844 21.9902 16.4788 21.9612C18.1623 21.9322 19.2846 20.8753 19.4753 19.1343Z" fill="white"/>
<path d="M35.9174 12.7162C35.9174 12.2122 35.8474 11.7782 35.7074 11.4142C35.5674 11.0409 35.3714 10.7376 35.1194 10.5042C34.8768 10.2616 34.5828 10.0842 34.2374 9.97224C33.9014 9.85091 33.5328 9.79024 33.1314 9.79024C32.9168 9.79024 32.7208 9.79958 32.5434 9.81824C32.3754 9.82758 32.2121 9.84158 32.0534 9.86024V15.6142C32.2121 15.6516 32.3894 15.6796 32.5854 15.6982C32.7908 15.7076 32.9914 15.7122 33.1874 15.7122C34.0554 15.7122 34.7274 15.4602 35.2034 14.9562C35.6794 14.4522 35.9174 13.7056 35.9174 12.7162ZM37.7794 12.7022C37.7794 13.4582 37.6674 14.1209 37.4434 14.6902C37.2288 15.2502 36.9208 15.7169 36.5194 16.0902C36.1181 16.4542 35.6328 16.7296 35.0634 16.9162C34.5034 17.1029 33.8781 17.1962 33.1874 17.1962C33.0288 17.1962 32.8561 17.1916 32.6694 17.1822C32.4828 17.1822 32.2868 17.1682 32.0814 17.1402C31.8854 17.1216 31.6848 17.0936 31.4794 17.0562C31.2834 17.0189 31.0968 16.9676 30.9194 16.9022C30.4714 16.7342 30.2474 16.4542 30.2474 16.0622V9.20224C30.2474 9.03424 30.2941 8.90358 30.3874 8.81024C30.4808 8.71691 30.6114 8.64224 30.7794 8.58624C31.1248 8.46491 31.4981 8.39024 31.8994 8.36224C32.3101 8.32491 32.6974 8.30624 33.0614 8.30624C33.7614 8.30624 34.4008 8.39958 34.9794 8.58624C35.5674 8.76358 36.0668 9.03424 36.4774 9.39824C36.8881 9.76224 37.2054 10.2196 37.4294 10.7702C37.6628 11.3209 37.7794 11.9649 37.7794 12.7022ZM40.7356 14.4802C40.8663 14.9562 41.109 15.3016 41.4636 15.5162C41.8183 15.7309 42.257 15.8382 42.7796 15.8382C43.1716 15.8382 43.531 15.7822 43.8576 15.6702C44.1936 15.5489 44.4643 15.4229 44.6696 15.2922C44.8003 15.3669 44.9076 15.4696 44.9916 15.6002C45.0756 15.7309 45.1176 15.8709 45.1176 16.0202C45.1176 16.2069 45.0523 16.3749 44.9216 16.5242C44.8003 16.6642 44.6276 16.7856 44.4036 16.8882C44.189 16.9909 43.9323 17.0702 43.6336 17.1262C43.335 17.1822 43.013 17.2102 42.6676 17.2102C42.117 17.2102 41.613 17.1356 41.1556 16.9862C40.7076 16.8369 40.3203 16.6129 39.9936 16.3142C39.6763 16.0062 39.4243 15.6282 39.2376 15.1802C39.0603 14.7322 38.9716 14.2096 38.9716 13.6122C38.9716 13.0336 39.0603 12.5296 39.2376 12.1002C39.415 11.6709 39.653 11.3116 39.9516 11.0222C40.2596 10.7329 40.6143 10.5182 41.0156 10.3782C41.417 10.2382 41.8416 10.1682 42.2896 10.1682C42.747 10.1682 43.167 10.2429 43.5496 10.3922C43.9323 10.5322 44.259 10.7329 44.5296 10.9942C44.8003 11.2462 45.0103 11.5542 45.1596 11.9182C45.3183 12.2729 45.3976 12.6602 45.3976 13.0802C45.3976 13.3416 45.3276 13.5376 45.1876 13.6682C45.057 13.7989 44.8703 13.8829 44.6276 13.9202L40.7356 14.4802ZM42.2896 11.4982C41.8323 11.4982 41.4496 11.6522 41.1416 11.9602C40.8336 12.2589 40.661 12.6882 40.6236 13.2482L43.7316 12.7862C43.6943 12.4409 43.559 12.1422 43.3256 11.8902C43.0923 11.6289 42.747 11.4982 42.2896 11.4982ZM48.6341 16.9862C48.5595 17.0049 48.4475 17.0282 48.2981 17.0562C48.1581 17.0842 48.0041 17.0982 47.8361 17.0982C47.5001 17.0982 47.2528 17.0376 47.0941 16.9162C46.9448 16.7949 46.8701 16.5802 46.8701 16.2722V7.90024C46.9448 7.87224 47.0521 7.84891 47.1921 7.83024C47.3415 7.80224 47.5001 7.78824 47.6681 7.78824C48.0041 7.78824 48.2468 7.84891 48.3961 7.97024C48.5548 8.09158 48.6341 8.30624 48.6341 8.61424V16.9862ZM51.9329 14.4802C52.0636 14.9562 52.3062 15.3016 52.6609 15.5162C53.0156 15.7309 53.4542 15.8382 53.9769 15.8382C54.3689 15.8382 54.7282 15.7822 55.0549 15.6702C55.3909 15.5489 55.6616 15.4229 55.8669 15.2922C55.9976 15.3669 56.1049 15.4696 56.1889 15.6002C56.2729 15.7309 56.3149 15.8709 56.3149 16.0202C56.3149 16.2069 56.2496 16.3749 56.1189 16.5242C55.9976 16.6642 55.8249 16.7856 55.6009 16.8882C55.3862 16.9909 55.1296 17.0702 54.8309 17.1262C54.5322 17.1822 54.2102 17.2102 53.8649 17.2102C53.3142 17.2102 52.8102 17.1356 52.3529 16.9862C51.9049 16.8369 51.5176 16.6129 51.1909 16.3142C50.8736 16.0062 50.6216 15.6282 50.4349 15.1802C50.2576 14.7322 50.1689 14.2096 50.1689 13.6122C50.1689 13.0336 50.2576 12.5296 50.4349 12.1002C50.6122 11.6709 50.8502 11.3116 51.1489 11.0222C51.4569 10.7329 51.8116 10.5182 52.2129 10.3782C52.6142 10.2382 53.0389 10.1682 53.4869 10.1682C53.9442 10.1682 54.3642 10.2429 54.7469 10.3922C55.1296 10.5322 55.4562 10.7329 55.7269 10.9942C55.9976 11.2462 56.2076 11.5542 56.3569 11.9182C56.5156 12.2729 56.5949 12.6602 56.5949 13.0802C56.5949 13.3416 56.5249 13.5376 56.3849 13.6682C56.2542 13.7989 56.0676 13.8829 55.8249 13.9202L51.9329 14.4802ZM53.4869 11.4982C53.0296 11.4982 52.6469 11.6522 52.3389 11.9602C52.0309 12.2589 51.8582 12.6882 51.8209 13.2482L54.9289 12.7862C54.8916 12.4409 54.7562 12.1422 54.5229 11.8902C54.2896 11.6289 53.9442 11.4982 53.4869 11.4982ZM59.7474 14.9422C59.7474 15.2409 59.8361 15.4556 60.0134 15.5862C60.2001 15.7169 60.4567 15.7822 60.7834 15.7822C60.9421 15.7822 61.1007 15.7636 61.2594 15.7262C61.4274 15.6889 61.5767 15.6422 61.7074 15.5862C61.7821 15.6609 61.8427 15.7542 61.8894 15.8662C61.9454 15.9689 61.9734 16.0902 61.9734 16.2302C61.9734 16.5102 61.8474 16.7436 61.5954 16.9302C61.3434 17.1076 60.9374 17.1962 60.3774 17.1962C59.6401 17.1962 59.0567 17.0329 58.6274 16.7062C58.2074 16.3702 57.9974 15.8196 57.9974 15.0542V8.62824C58.0721 8.60958 58.1794 8.58624 58.3194 8.55824C58.4687 8.53024 58.6274 8.51624 58.7954 8.51624C59.1221 8.51624 59.3601 8.57691 59.5094 8.69824C59.6681 8.81958 59.7474 9.03424 59.7474 9.34224V10.5042H61.8054C61.8521 10.5789 61.8941 10.6769 61.9314 10.7982C61.9687 10.9196 61.9874 11.0502 61.9874 11.1902C61.9874 11.4329 61.9314 11.6102 61.8194 11.7222C61.7074 11.8342 61.5581 11.8902 61.3714 11.8902H59.7474V14.9422ZM64.6751 14.4802C64.8057 14.9562 65.0484 15.3016 65.4031 15.5162C65.7577 15.7309 66.1964 15.8382 66.7191 15.8382C67.1111 15.8382 67.4704 15.7822 67.7971 15.6702C68.1331 15.5489 68.4037 15.4229 68.6091 15.2922C68.7397 15.3669 68.8471 15.4696 68.9311 15.6002C69.0151 15.7309 69.0571 15.8709 69.0571 16.0202C69.0571 16.2069 68.9917 16.3749 68.8611 16.5242C68.7397 16.6642 68.5671 16.7856 68.3431 16.8882C68.1284 16.9909 67.8717 17.0702 67.5731 17.1262C67.2744 17.1822 66.9524 17.2102 66.6071 17.2102C66.0564 17.2102 65.5524 17.1356 65.0951 16.9862C64.6471 16.8369 64.2597 16.6129 63.9331 16.3142C63.6157 16.0062 63.3637 15.6282 63.1771 15.1802C62.9997 14.7322 62.9111 14.2096 62.9111 13.6122C62.9111 13.0336 62.9997 12.5296 63.1771 12.1002C63.3544 11.6709 63.5924 11.3116 63.8911 11.0222C64.1991 10.7329 64.5537 10.5182 64.9551 10.3782C65.3564 10.2382 65.7811 10.1682 66.2291 10.1682C66.6864 10.1682 67.1064 10.2429 67.4891 10.3922C67.8717 10.5322 68.1984 10.7329 68.4691 10.9942C68.7397 11.2462 68.9497 11.5542 69.0991 11.9182C69.2577 12.2729 69.3371 12.6602 69.3371 13.0802C69.3371 13.3416 69.2671 13.5376 69.1271 13.6682C68.9964 13.7989 68.8097 13.8829 68.5671 13.9202L64.6751 14.4802ZM66.2291 11.4982C65.7717 11.4982 65.3891 11.6522 65.0811 11.9602C64.7731 12.2589 64.6004 12.6882 64.5631 13.2482L67.6711 12.7862C67.6337 12.4409 67.4984 12.1422 67.2651 11.8902C67.0317 11.6289 66.6864 11.4982 66.2291 11.4982Z" fill="white"/>
</svg>
