<svg width="25" height="24" viewBox="0 0 25 24" fill="none" xmlns="http://www.w3.org/2000/svg">
<path fill-rule="evenodd" clip-rule="evenodd" d="M15.4081 6.55589L14.1699 13.5551V13.555C14.1445 13.7826 13.9426 13.9594 13.6898 13.8582H1.28326C0.853742 13.8582 0.5 13.5044 0.5 13.0749C0.5 12.6454 0.853728 12.2917 1.28326 12.2917L3.40572 12.2918C3.83524 12.2664 4.18898 11.9127 4.18898 11.4832C4.18898 11.0537 3.83525 10.6999 3.40572 10.6999L2.09192 10.6997C1.66241 10.6997 1.30866 10.346 1.30866 9.91648C1.30866 9.48696 1.66239 9.13322 2.09192 9.13322L4.21457 9.13304C4.64408 9.13304 4.99783 8.77931 4.99783 8.34978C4.99783 7.92026 4.6441 7.56652 4.21457 7.56652H2.90059C2.47107 7.56652 2.11733 7.21279 2.11733 6.78326C2.11733 6.35374 2.47106 6 2.90059 6H14.9534C15.2312 6 15.4587 6.27794 15.4081 6.55589ZM21.4724 12.3423L23.8476 12.6709L23.8475 12.6707C24.3023 12.7213 24.5802 13.1255 24.4794 13.6056L23.9487 16.6125C23.9235 16.8399 23.7213 16.9915 23.494 16.9915H22.3064C22.0284 18.0781 20.9672 18.9372 19.8554 18.9372C18.7688 18.9372 18.0109 18.0779 18.1118 16.9915H7.1203C6.84235 18.0781 5.75574 18.9372 4.66931 18.9372C3.5827 18.9372 2.82478 18.0779 2.92578 16.9915H1.94033C1.66256 16.9915 1.43501 16.7136 1.4856 16.4356L1.73835 14.9952C1.76355 14.7679 1.96571 14.6163 2.19308 14.6163H14.2711C14.4985 14.6163 14.6753 14.4647 14.7259 14.2373L15.6355 9.20903C15.6607 8.98166 15.8629 8.83008 16.0903 8.83008H18.8444C19.6277 8.83008 20.2594 9.23441 20.5121 9.89133L21.4724 12.3423ZM4.84608 17.9266C5.47778 17.9266 6.05906 17.4213 6.16006 16.8148C6.28626 16.2083 5.85675 15.703 5.25041 15.703C4.61871 15.703 4.03743 16.2083 3.93643 16.8148C3.81005 17.4213 4.2396 17.9266 4.84608 17.9266ZM16.9747 10.1441L16.5957 12.2666L19.9058 12.2666L19.2235 10.5484C19.1225 10.2957 18.8698 10.1441 18.5918 10.1441H16.9747ZM20.0321 17.9266C20.6638 17.9266 21.2451 17.4213 21.3461 16.8148C21.4471 16.2083 21.0681 15.703 20.4364 15.703C19.8047 15.703 19.2235 16.2083 19.1225 16.8148C18.9961 17.4213 19.4004 17.9266 20.0321 17.9266Z" fill="#08003B"/>
</svg>
