<svg width="22" height="16" viewBox="0 0 22 16" fill="none" xmlns="http://www.w3.org/2000/svg">
<path d="M17.8095 2.13333C17.8095 0.96 16.8667 0 15.7143 0H13.619C13.0429 0 12.5714 0.48 12.5714 1.06667C12.5714 1.65333 13.0429 2.13333 13.619 2.13333H15.7143V6.02667L12.0686 10.6667H8.38095V6.4C8.38095 5.81333 7.90952 5.33333 7.33333 5.33333H4.19048C1.87524 5.33333 0 7.24267 0 9.6V11.7333C0 12.32 0.471429 12.8 1.04762 12.8H2.09524C2.09524 14.5707 3.49905 16 5.2381 16C6.97714 16 8.38095 14.5707 8.38095 12.8H12.0686C12.7076 12.8 13.3048 12.5013 13.7029 12L17.3486 7.36C17.6524 6.976 17.8095 6.50667 17.8095 6.02667V2.13333ZM5.2381 13.8667C4.6619 13.8667 4.19048 13.3867 4.19048 12.8H6.28571C6.28571 13.3867 5.81429 13.8667 5.2381 13.8667Z" fill="white"/>
<path d="M4.19048 1.06667H7.33333C7.90952 1.06667 8.38095 1.54667 8.38095 2.13333C8.38095 2.72 7.90952 3.2 7.33333 3.2H4.19048C3.61429 3.2 3.14286 2.72 3.14286 2.13333C3.14286 1.54667 3.61429 1.06667 4.19048 1.06667Z" fill="white"/>
<path d="M18.8571 9.6C17.1181 9.6 15.7143 11.0293 15.7143 12.8C15.7143 14.5707 17.1181 16 18.8571 16C20.5962 16 22 14.5707 22 12.8C22 11.0293 20.5962 9.6 18.8571 9.6ZM18.8571 13.8667C18.281 13.8667 17.8095 13.3867 17.8095 12.8C17.8095 12.2133 18.281 11.7333 18.8571 11.7333C19.4333 11.7333 19.9048 12.2133 19.9048 12.8C19.9048 13.3867 19.4333 13.8667 18.8571 13.8667Z" fill="white"/>
<path d="M17.8095 2.13333C17.8095 0.96 16.8667 0 15.7143 0H13.619C13.0429 0 12.5714 0.48 12.5714 1.06667C12.5714 1.65333 13.0429 2.13333 13.619 2.13333H15.7143V6.02667L12.0686 10.6667H8.38095V6.4C8.38095 5.81333 7.90952 5.33333 7.33333 5.33333H4.19048C1.87524 5.33333 0 7.24267 0 9.6V11.7333C0 12.32 0.471429 12.8 1.04762 12.8H2.09524C2.09524 14.5707 3.49905 16 5.2381 16C6.97714 16 8.38095 14.5707 8.38095 12.8H12.0686C12.7076 12.8 13.3048 12.5013 13.7029 12L17.3486 7.36C17.6524 6.976 17.8095 6.50667 17.8095 6.02667V2.13333ZM5.2381 13.8667C4.6619 13.8667 4.19048 13.3867 4.19048 12.8H6.28571C6.28571 13.3867 5.81429 13.8667 5.2381 13.8667Z" fill="white"/>
<path d="M4.19048 1.06667H7.33333C7.90952 1.06667 8.38095 1.54667 8.38095 2.13333C8.38095 2.72 7.90952 3.2 7.33333 3.2H4.19048C3.61429 3.2 3.14286 2.72 3.14286 2.13333C3.14286 1.54667 3.61429 1.06667 4.19048 1.06667Z" fill="white"/>
<path d="M18.8571 9.6C17.1181 9.6 15.7143 11.0293 15.7143 12.8C15.7143 14.5707 17.1181 16 18.8571 16C20.5962 16 22 14.5707 22 12.8C22 11.0293 20.5962 9.6 18.8571 9.6ZM18.8571 13.8667C18.281 13.8667 17.8095 13.3867 17.8095 12.8C17.8095 12.2133 18.281 11.7333 18.8571 11.7333C19.4333 11.7333 19.9048 12.2133 19.9048 12.8C19.9048 13.3867 19.4333 13.8667 18.8571 13.8667Z" fill="white"/>
</svg>
