<svg width="24" height="25" viewBox="0 0 24 25" fill="none" xmlns="http://www.w3.org/2000/svg">
<path d="M12 21.2949C9.7 21.2949 7.69583 20.5324 5.9875 19.0074C4.27917 17.4824 3.3 15.5783 3.05 13.2949H5.1C5.33333 15.0283 6.10417 16.4616 7.4125 17.5949C8.72083 18.7283 10.25 19.2949 12 19.2949C13.95 19.2949 15.6042 18.6158 16.9625 17.2574C18.3208 15.8991 19 14.2449 19 12.2949C19 10.3449 18.3208 8.69076 16.9625 7.33242C15.6042 5.97409 13.95 5.29492 12 5.29492C10.85 5.29492 9.775 5.56159 8.775 6.09492C7.775 6.62826 6.93333 7.36159 6.25 8.29492H9V10.2949H3V4.29492H5V6.64492C5.85 5.57826 6.8875 4.75326 8.1125 4.16992C9.3375 3.58659 10.6333 3.29492 12 3.29492C13.25 3.29492 14.4208 3.53242 15.5125 4.00742C16.6042 4.48242 17.5542 5.12409 18.3625 5.93242C19.1708 6.74076 19.8125 7.69076 20.2875 8.78242C20.7625 9.87409 21 11.0449 21 12.2949C21 13.5449 20.7625 14.7158 20.2875 15.8074C19.8125 16.8991 19.1708 17.8491 18.3625 18.6574C17.5542 19.4658 16.6042 20.1074 15.5125 20.5824C14.4208 21.0574 13.25 21.2949 12 21.2949ZM14.8 16.4949L11 12.6949V7.29492H13V11.8949L16.2 15.0949L14.8 16.4949Z" fill="currentColor"/>
</svg>
