<svg width="10" height="11" viewBox="0 0 10 11" fill="none" xmlns="http://www.w3.org/2000/svg">
<path d="M5.50003 1.00015C5.31254 0.812604 5.05823 0.70721 4.79303 0.707153H1.20703C0.941815 0.707153 0.687461 0.81251 0.499924 1.00005C0.312388 1.18758 0.207031 1.44194 0.207031 1.70715V5.29315C0.207088 5.55835 0.312482 5.81266 0.500031 6.00015L4.50003 10.0002C4.68756 10.1876 4.94187 10.2929 5.20703 10.2929C5.4722 10.2929 5.7265 10.1876 5.91403 10.0002L9.50003 6.41415C9.6875 6.22663 9.79282 5.97232 9.79282 5.70715C9.79282 5.44199 9.6875 5.18768 9.50003 5.00015L5.50003 1.00015ZM2.70703 4.20715C2.44175 4.20709 2.18736 4.10164 1.99982 3.91401C1.81228 3.72638 1.70696 3.47194 1.70703 3.20665C1.7071 2.94137 1.81254 2.68698 2.00017 2.49944C2.1878 2.31191 2.44225 2.20659 2.70753 2.20665C2.97281 2.20672 3.22721 2.31217 3.41474 2.4998C3.60228 2.68743 3.7076 2.94187 3.70753 3.20715C3.70747 3.47244 3.60202 3.72683 3.41439 3.91436C3.22676 4.1019 2.97231 4.20722 2.70703 4.20715Z" fill="currentColor"/>
</svg>
