<svg width="21" height="21" viewBox="0 0 21 21" fill="none" xmlns="http://www.w3.org/2000/svg">
<path fill-rule="evenodd" clip-rule="evenodd" d="M0.376343 10.5908C0.376343 5.07082 4.84634 0.59082 10.3763 0.59082C15.8963 0.59082 20.3763 5.07082 20.3763 10.5908C20.3763 16.1208 15.8963 20.5908 10.3763 20.5908C4.84634 20.5908 0.376343 16.1208 0.376343 10.5908ZM12.6063 12.4208L14.2263 7.30082C14.3363 6.95082 14.0163 6.62082 13.6663 6.73082L8.54634 8.33082C8.33634 8.40082 8.16634 8.56082 8.10634 8.77082L6.50634 13.9008C6.39634 14.2408 6.72634 14.5708 7.06634 14.4608L12.1663 12.8608C12.3763 12.8008 12.5463 12.6308 12.6063 12.4208Z" fill="#312B3E"/>
</svg>
