<svg width="20" height="20" viewBox="0 0 20 20" fill="none" xmlns="http://www.w3.org/2000/svg">
<path fill-rule="evenodd" clip-rule="evenodd" d="M18.8384 19.2285H11.5854C11.1714 19.2285 10.8354 18.8925 10.8354 18.4785C10.8354 18.0645 11.1714 17.7285 11.5854 17.7285H18.8384C19.2524 17.7285 19.5884 18.0645 19.5884 18.4785C19.5884 18.8925 19.2524 19.2285 18.8384 19.2285Z" fill="#999CAD"/>
<mask id="mask0" style="mask-type:alpha" maskUnits="userSpaceOnUse" x="0" y="0" width="18" height="20">
<path fill-rule="evenodd" clip-rule="evenodd" d="M0.0878906 0.289062H17.2685V19.2286H0.0878906V0.289062Z" fill="white"/>
</mask>
<g mask="url(#mask0)">
<path fill-rule="evenodd" clip-rule="evenodd" d="M11.1982 2.30571L1.78316 14.0807C1.61216 14.2947 1.54916 14.5707 1.61216 14.8357L2.29316 17.7207L5.33217 17.6827C5.62116 17.6797 5.88816 17.5507 6.06517 17.3307C9.28216 13.3057 15.4152 5.63171 15.5892 5.40671C15.7532 5.14071 15.8172 4.76471 15.7312 4.40271C15.6432 4.03171 15.4122 3.71671 15.0792 3.51571C15.0082 3.46671 13.3232 2.15871 13.2712 2.11771C12.6372 1.60971 11.7122 1.69771 11.1982 2.30571ZM1.70116 19.2287C1.35416 19.2287 1.05216 18.9907 0.971165 18.6517L0.152165 15.1807C-0.0168351 14.4617 0.151165 13.7197 0.612165 13.1437L10.0322 1.36171C10.0362 1.35771 10.0392 1.35271 10.0432 1.34871C11.0762 0.113705 12.9442 -0.0682949 14.2042 0.942705C14.2542 0.981705 15.9272 2.28171 15.9272 2.28171C16.5352 2.64371 17.0102 3.29071 17.1902 4.05671C17.3692 4.81471 17.2392 5.59671 16.8222 6.25771C16.7912 6.3067 16.7642 6.34871 7.23617 18.2687C6.77716 18.8407 6.08916 19.1737 5.35016 19.1827L1.71116 19.2287H1.70116Z" fill="#999CAD"/>
</g>
<path fill-rule="evenodd" clip-rule="evenodd" d="M14.3111 8.97393C14.1511 8.97393 13.9911 8.92293 13.8541 8.81893L8.40207 4.63093C8.07407 4.37893 8.01207 3.90893 8.26407 3.57893C8.51707 3.25093 8.98707 3.18993 9.31607 3.44193L14.7691 7.62893C15.0971 7.88093 15.1591 8.35193 14.9061 8.68093C14.7591 8.87293 14.5361 8.97393 14.3111 8.97393Z" fill="#999CAD"/>
</svg>
