<svg width="25" height="49" viewBox="0 0 25 49" fill="none" xmlns="http://www.w3.org/2000/svg">
<path d="M23.5962 0.01487L17.8397 0.00488281C11.3725 0.00488281 7.19307 4.64144 7.19307 11.8177V17.2643H1.40516C0.905011 17.2643 0.5 17.7027 0.5 18.2435V26.1349C0.5 26.6757 0.905473 27.1137 1.40516 27.1137H7.19307V47.0261C7.19307 47.5669 7.59808 48.0049 8.09822 48.0049H15.6498C16.1499 48.0049 16.555 47.5664 16.555 47.0261V27.1137H23.3224C23.8225 27.1137 24.2275 26.6757 24.2275 26.1349L24.2303 18.2435C24.2303 17.9838 24.1347 17.7352 23.9652 17.5514C23.7957 17.3676 23.5648 17.2643 23.3247 17.2643H16.555V12.6472C16.555 10.428 17.044 9.30147 19.7175 9.30147L23.5953 9.29997C24.095 9.29997 24.5 8.86154 24.5 8.32123V0.993616C24.5 0.453808 24.0955 0.0158687 23.5962 0.01487Z" fill="white"/>
</svg>
