<svg width="21" height="21" viewBox="0 0 21 21" fill="none" xmlns="http://www.w3.org/2000/svg">
<path d="M6.9189 14.1023L7.2138 13.771C6.99835 13.0824 6.99776 12.3243 7.22792 11.6243C5.533 12.5555 3.38722 12.1844 2.10631 10.6694C1.15493 11.4239 0.543945 12.5898 0.543945 13.8957V19.7781C0.543945 20.1028 0.807477 20.3663 1.13219 20.3663H5.9785C5.91301 20.1824 5.87732 19.9843 5.87732 19.7781V16.8369C5.87732 15.8282 6.24713 14.8569 6.9189 14.1023Z" fill="currentColor"/>
<path d="M5.24979 10.9544C6.87417 10.9544 8.19099 9.63757 8.19099 8.01319C8.19099 6.38881 6.87417 5.07199 5.24979 5.07199C3.62541 5.07199 2.30859 6.38881 2.30859 8.01319C2.30859 9.63757 3.62541 10.9544 5.24979 10.9544Z" fill="currentColor"/>
<path d="M19.0601 10.6694C17.7769 12.1871 15.6296 12.5541 13.9385 11.6239C14.1683 12.3253 14.1683 13.0814 13.9526 13.771L14.2475 14.1023C14.9193 14.8569 15.2891 15.8282 15.2891 16.8369V19.7781C15.2891 19.9843 15.2534 20.1824 15.1879 20.3663H20.0342C20.3589 20.3663 20.6224 20.1028 20.6224 19.7781V13.8957C20.6224 12.5898 20.0115 11.4239 19.0601 10.6694Z" fill="currentColor"/>
<path d="M15.9165 10.9544C17.5409 10.9544 18.8577 9.63757 18.8577 8.01319C18.8577 6.38881 17.5409 5.07199 15.9165 5.07199C14.2922 5.07199 12.9753 6.38881 12.9753 8.01319C12.9753 9.63757 14.2922 10.9544 15.9165 10.9544Z" fill="currentColor"/>
<path d="M10.5831 16.2486C9.45216 16.2486 8.44392 15.7141 7.79764 14.8843C7.33489 15.4043 7.05371 16.0882 7.05371 16.8368V19.778C7.05371 20.1027 7.31724 20.3663 7.64195 20.3663H13.5243C13.8491 20.3663 14.1126 20.1027 14.1126 19.778V16.8368C14.1126 16.0882 13.8314 15.4043 13.3687 14.8843C12.7224 15.7141 11.7141 16.2486 10.5831 16.2486Z" fill="currentColor"/>
<path d="M10.5832 15.072C11.8827 15.072 12.9361 14.0186 12.9361 12.719C12.9361 11.4195 11.8827 10.3661 10.5832 10.3661C9.28368 10.3661 8.23022 11.4195 8.23022 12.719C8.23022 14.0186 9.28368 15.072 10.5832 15.072Z" fill="currentColor"/>
<path d="M8.9093 5.11095C9.58092 5.73166 10.2467 6.14389 10.2747 6.16115C10.4638 6.27754 10.7023 6.27754 10.8914 6.16115C10.9195 6.14389 11.5852 5.73166 12.2568 5.11095C13.228 4.21345 13.7204 3.34093 13.7204 2.51767C13.7204 0.648009 11.8611 -0.229606 10.5831 0.80903C9.30217 -0.23192 7.4458 0.65295 7.4458 2.51767C7.4458 3.34093 7.9382 4.21345 8.9093 5.11095Z" fill="currentColor"/>
</svg>
