<svg width="19" height="19" viewBox="0 0 19 19" fill="none" xmlns="http://www.w3.org/2000/svg">
<path d="M2.745 1.62C2.13723 1.62 1.62 2.12632 1.62 2.78145V11.3774C1.62 11.8819 1.82737 12.0565 1.91583 12.0964C1.98461 12.1275 2.20863 12.1778 2.53797 11.8364C2.81661 11.5477 3.1301 11.2189 3.48254 10.8447C4.13218 10.1549 5.00109 9.80995 5.87 9.80995V11.3099C5.39903 11.3099 4.92806 11.4977 4.57452 11.8731C4.21836 12.2512 3.90067 12.5844 3.61739 12.878C2.96927 13.5497 2.08944 13.8205 1.29875 13.4636C0.527728 13.1156 0.119995 12.2938 0.119995 11.3774V2.78145C0.119995 1.32525 1.2817 0.119995 2.745 0.119995H8.995C10.4583 0.119995 11.62 1.32525 11.62 2.78145V3.87H10.12V2.78145C10.12 2.12632 9.60276 1.62 8.995 1.62H2.745Z" fill="currentColor"/>
<path fill-rule="evenodd" clip-rule="evenodd" d="M9.745 5.12C8.2817 5.12 7.12 6.32525 7.12 7.78145V16.3774C7.12 17.2938 7.52773 18.1156 8.29875 18.4636C9.08944 18.8205 9.96927 18.5497 10.6174 17.878C10.9007 17.5844 11.2184 17.2512 11.5745 16.8731C12.2816 16.1222 13.4584 16.1222 14.1655 16.8731C14.5216 17.2512 14.8393 17.5844 15.1226 17.878C15.7707 18.5497 16.6505 18.8205 17.4412 18.4636C18.2123 18.1156 18.62 17.2938 18.62 16.3774V7.78146C18.62 6.32525 17.4583 5.12 15.995 5.12H9.745ZM8.62 7.78145C8.62 7.12632 9.13723 6.62 9.745 6.62H15.995C16.6028 6.62 17.12 7.12632 17.12 7.78146V16.3774C17.12 16.8819 16.9126 17.0565 16.8242 17.0964C16.7554 17.1275 16.5314 17.1778 16.202 16.8364C15.9234 16.5477 15.6099 16.2189 15.2575 15.8447C13.9582 14.465 11.7818 14.465 10.4825 15.8447C10.1301 16.2189 9.81661 16.5477 9.53797 16.8364C9.20863 17.1778 8.98461 17.1275 8.91583 17.0964C8.82737 17.0565 8.62 16.8819 8.62 16.3774V7.78145Z" fill="currentColor"/>
</svg>
