<svg width="14" height="14" viewBox="0 0 14 14" fill="none" xmlns="http://www.w3.org/2000/svg">
<path fill-rule="evenodd" clip-rule="evenodd" d="M1.68548 0.333496H12.1812C12.9651 0.333496 13.6 0.987531 13.6 1.795V2.816C13.6 3.20771 13.447 3.58387 13.1751 3.85821L8.83846 8.24484C8.76365 8.32121 8.66206 8.36363 8.55704 8.36292L4.92598 8.35161C4.81547 8.35161 4.71045 8.30424 4.63495 8.22151L0.649705 3.83842C0.403287 3.56761 0.266693 3.20984 0.266693 2.83863V1.79571C0.266693 0.988238 0.901614 0.333496 1.68548 0.333496ZM5.12009 9.54959L8.35647 9.55949C8.55828 9.5602 8.72164 9.72919 8.72164 9.93636V11.757C8.72164 11.9649 8.60358 12.153 8.41962 12.24L5.48183 13.6195C5.41319 13.6513 5.34043 13.6668 5.26767 13.6668C5.17089 13.6668 5.07411 13.6385 4.98968 13.5827C4.8421 13.4851 4.75287 13.3168 4.75287 13.1365V9.92646C4.75287 9.71787 4.91761 9.54888 5.12009 9.54959Z" fill="url(#paint0_linear)"/>
<defs>
<linearGradient id="paint0_linear" x1="1.49936" y1="0.905198" x2="14.1544" y2="21.8561" gradientUnits="userSpaceOnUse">
<stop stop-color="#2DC8D8"/>
<stop offset="1" stop-color="#ECF281"/>
</linearGradient>
</defs>
</svg>
