<svg width="17" height="16" viewBox="0 0 17 16" fill="none" xmlns="http://www.w3.org/2000/svg">
<path fill-rule="evenodd" clip-rule="evenodd" d="M3.68548 1.3335H14.1812C14.9651 1.3335 15.6 1.98753 15.6 2.795V3.816C15.6 4.20771 15.447 4.58387 15.1751 4.85821L10.8385 9.24484C10.7636 9.32121 10.6621 9.36363 10.557 9.36292L6.92598 9.35161C6.81547 9.35161 6.71045 9.30424 6.63495 9.22151L2.6497 4.83842C2.40329 4.56761 2.26669 4.20984 2.26669 3.83863V2.79571C2.26669 1.98824 2.90161 1.3335 3.68548 1.3335ZM7.12009 10.5496L10.3565 10.5595C10.5583 10.5602 10.7216 10.7292 10.7216 10.9364V12.757C10.7216 12.9649 10.6036 13.153 10.4196 13.24L7.48183 14.6195C7.41319 14.6513 7.34043 14.6668 7.26767 14.6668C7.17089 14.6668 7.07411 14.6385 6.98968 14.5827C6.8421 14.4851 6.75287 14.3168 6.75287 14.1365V10.9265C6.75287 10.7179 6.91761 10.5489 7.12009 10.5496Z" fill="#999CAD"/>
<defs>

</defs>
</svg>
