<?xml version="1.0" encoding="UTF-8"?>
<svg id="Layer_1" data-name="Layer 1" xmlns="http://www.w3.org/2000/svg" viewBox="0 0 20 20">
  <defs>
    <style>
      .cls-1 {
        fill-rule: evenodd;
        stroke-width: 0px;
      }
    </style>
  </defs>
  <path fill="currentColor" class="cls-1" d="m18.33,3.91H2.05c-.18,0-.33-.15-.33-.33V.79c0-.18.15-.33.33-.33h16.28c.18,0,.33.15.33.33v2.79c0,.18-.15.33-.33.33h0Zm-15.95-.66h15.61V1.12H2.38v2.13Z"/>
  <path fill="currentColor" class="cls-1" d="m11.87,19.7l-3.73-2.56c-.09-.06-.14-.16-.14-.27v-6.41L1.81,3.81c-.12-.13-.12-.34.02-.47.13-.12.34-.12.47.02l6.29,6.74c.06.06.09.14.09.23v6.37l3.06,2.11v-8.49c0-.08.03-.16.09-.23l6.29-6.74c.12-.13.33-.14.47-.02.13.12.14.33.02.47l-6.2,6.65v8.99c0,.27-.3.42-.52.27Z"/>
  <path fill="currentColor" class="cls-1" d="m12.06,10.66h-3.73c-.18,0-.33-.15-.33-.33s.15-.33.33-.33h3.73c.18,0,.33.15.33.33s-.15.33-.33.33Z"/>
  <path fill="currentColor" class="cls-1" d="m11.67,6.19h-2.95c-.18,0-.33-.15-.33-.33s.15-.33.33-.33h2.95c.18,0,.33.15.33.33,0,.18-.15.33-.33.33Z"/>
  <path fill="currentColor" class="cls-1" d="m11.67,7.97h-2.95c-.18,0-.33-.15-.33-.33s.15-.33.33-.33h2.95c.18,0,.33.15.33.33,0,.18-.15.33-.33.33Z"/>
</svg>