<svg width="17" height="15" viewBox="0 0 17 15" fill="none" xmlns="http://www.w3.org/2000/svg">
<path d="M12.5859 8.98447C12.4132 9.13181 12.3339 9.3449 12.3732 9.55387L12.9659 12.442C13.0159 12.6868 12.8985 12.9345 12.6659 13.076C12.4379 13.2227 12.1345 13.2404 11.8859 13.123L8.93318 11.7669C8.83052 11.7188 8.71652 11.693 8.59985 11.69H8.41918C8.35652 11.6983 8.29518 11.7159 8.23918 11.7429L5.28585 13.1053C5.13985 13.1699 4.97452 13.1928 4.81252 13.1699C4.41785 13.1042 4.15452 12.7731 4.21918 12.4238L4.81252 9.53568C4.85185 9.32494 4.77252 9.11068 4.59985 8.96099L2.19252 6.90642C1.99118 6.73442 1.92118 6.47613 2.01318 6.24309C2.10252 6.01063 2.33052 5.84098 2.60585 5.80282L5.91918 5.37958C6.17118 5.35669 6.39252 5.22167 6.50585 5.02209L7.96585 2.38637C8.00052 2.32767 8.04518 2.27366 8.09918 2.22787L8.15918 2.18678C8.19052 2.15626 8.22652 2.13102 8.26652 2.11047L8.33918 2.08699L8.45252 2.0459H8.73318C8.98385 2.06879 9.20452 2.20087 9.31985 2.39811L10.7992 5.02209C10.9059 5.21404 11.1132 5.34729 11.3525 5.37958L14.6659 5.80282C14.9459 5.83804 15.1799 6.00828 15.2725 6.24309C15.3599 6.47848 15.2845 6.73677 15.0792 6.90642L12.5859 8.98447Z" fill="url(#paint0_linear)"/>
<defs>
<linearGradient id="paint0_linear" x1="3.2061" y1="2.52416" x2="10.3739" y2="16.1714" gradientUnits="userSpaceOnUse">
<stop stop-color="#FFB800"/>
</linearGradient>
</defs>
</svg>
