<svg width="26" height="26" viewBox="0 0 26 26" fill="none" xmlns="http://www.w3.org/2000/svg">
<path d="M9.69922 13C9.69922 11.1763 11.1763 9.69922 13 9.69922C14.8237 9.69922 16.3008 11.1763 16.3008 13C16.3008 14.8237 14.8237 16.3008 13 16.3008C11.1763 16.3008 9.69922 14.8237 9.69922 13ZM13 2.4375C13.7303 2.4375 14.3203 3.02875 14.3203 3.75781V5.18746C17.6376 5.74406 20.2576 8.3624 20.8105 11.6797H22.2422C22.9725 11.6797 23.5625 12.2697 23.5625 13C23.5625 13.7303 22.9725 14.3203 22.2422 14.3203H20.8105C20.2576 17.6376 17.6376 20.2576 14.3203 20.8105V22.2422C14.3203 22.9725 13.7303 23.5625 13 23.5625C12.2697 23.5625 11.6797 22.9725 11.6797 22.2422V20.8105C8.3624 20.2576 5.74406 17.6376 5.18746 14.3203H3.75781C3.02875 14.3203 2.4375 13.7303 2.4375 13C2.4375 12.2697 3.02875 11.6797 3.75781 11.6797H5.18746C5.74406 8.3624 8.3624 5.74406 11.6797 5.18746V3.75781C11.6797 3.02875 12.2697 2.4375 13 2.4375ZM7.71875 13C7.71875 15.9171 10.0829 18.2812 13 18.2812C15.9171 18.2812 18.2812 15.9171 18.2812 13C18.2812 10.0829 15.9171 7.71875 13 7.71875C10.0829 7.71875 7.71875 10.0829 7.71875 13Z" fill="#686868"/>
</svg>
