<svg id="Layer_1" data-name="Layer 1" fill="currentColor" xmlns="http://www.w3.org/2000/svg" viewBox="0 0 20 20">
  <path d="M10.02,11.27c.12-1.19,1.17-2.16,2.34-2.26.78-.06,2.22-.07,2.99,0,1.41.13,2.47,1.45,2.25,2.85-.95,6-8.03,9.03-13.17,5.85C-2.39,13.5-.35,2.95,7.49,1.65c4.52-.75,8.83,2,9.95,6.43-.1-.07-.15-.21-.24-.3-.77-.78-1.82-.52-2.8-.6-1.87-3.2-6.05-4.14-9.08-1.93-3.58,2.6-3.31,8.04.46,10.34s8.43.1,9.3-4.06h-2.56v1.14s-.09.37-.12.44c-.33,1-1.34,1.75-2.4,1.7v-3.54Z"/>
  <path d="M19.73,16.45c.04.22-.02.36-.07.55-.25,1-1.09,1.84-2.19,1.93-.87.07-1.9.07-2.76,0-.05,0-.1.02-.15.04l-.02-.08c.73-.42,1.42-1,1.98-1.62.25-.27.44-.59.72-.82h2.5Z"/>
</svg>