<svg width="18" height="20" viewBox="0 0 18 20" fill="none" xmlns="http://www.w3.org/2000/svg">
<path fill-rule="evenodd" clip-rule="evenodd" d="M15.3299 6.79633C15.3299 8.05226 15.6618 8.79253 16.3923 9.64559C16.9459 10.2741 17.1228 11.0808 17.1228 11.956C17.1228 12.8302 16.8356 13.6601 16.2601 14.3339C15.5068 15.1417 14.4443 15.6573 13.36 15.747C11.7887 15.8809 10.2165 15.9937 8.6233 15.9937C7.02915 15.9937 5.45785 15.9263 3.88656 15.747C2.80126 15.6573 1.73882 15.1417 0.986468 14.3339C0.411023 13.6601 0.122803 12.8302 0.122803 11.956C0.122803 11.0808 0.300704 10.2741 0.853291 9.64559C1.60664 8.79253 1.91672 8.05226 1.91672 6.79633V6.3703C1.91672 4.68834 2.33613 3.58852 3.1998 2.51186C4.48387 0.941697 6.54215 0 8.57858 0H8.66802C10.7482 0 12.8731 0.987019 14.1353 2.62466C14.9542 3.67916 15.3299 4.73265 15.3299 6.3703V6.79633ZM5.69648 18.0608C5.69648 17.5573 6.15862 17.3266 6.58598 17.2279C7.0859 17.1222 10.1321 17.1222 10.632 17.2279C11.0594 17.3266 11.5215 17.5573 11.5215 18.0608C11.4967 18.5402 11.2154 18.9653 10.8268 19.2352C10.3229 19.628 9.73155 19.8767 9.11337 19.9664C8.77148 20.0107 8.43556 20.0117 8.1056 19.9664C7.48642 19.8767 6.89507 19.628 6.39218 19.2342C6.00259 18.9653 5.72132 18.5402 5.69648 18.0608Z" fill="currentColor"/>
<defs>

</defs>
</svg>
