<svg width="17" height="15" viewBox="0 0 17 15" fill="black" xmlns="http://www.w3.org/2000/svg">
<path d="M12.2657 8.60038L12.2657 8.60035L12.2613 8.60412C11.963 8.85865 11.8068 9.24785 11.8818 9.64636L11.8817 9.64637L11.8834 9.65438L12.476 12.5421C12.4785 12.5543 12.4776 12.5675 12.4699 12.5838C12.4618 12.601 12.4434 12.626 12.4061 12.6488L12.406 12.6486L12.3952 12.6556C12.3161 12.7065 12.196 12.7165 12.0993 12.6708L12.0993 12.6708L12.0945 12.6686L9.14344 11.3133C8.97507 11.2347 8.79329 11.1947 8.61242 11.1902L8.61243 11.19H8.59985H8.41918H8.38654L8.35417 11.1943C8.24423 11.2087 8.13262 11.2398 8.02648 11.2904L5.08083 12.6493C5.02376 12.6739 4.95632 12.6841 4.88866 12.6757C4.81099 12.6613 4.76078 12.6245 4.73493 12.592C4.71089 12.5617 4.7074 12.5371 4.71038 12.5175L5.30229 9.63629L5.30237 9.63631L5.30403 9.62741C5.3785 9.22843 5.2233 8.83974 4.92737 8.58319L4.92738 8.58318L4.92444 8.58067L2.51729 6.52625C2.48938 6.50242 2.4791 6.48037 2.4755 6.46707C2.4721 6.45451 2.47224 6.44191 2.47826 6.42668L2.47828 6.42669L2.47991 6.42245C2.49529 6.38241 2.55384 6.3155 2.67239 6.29839L5.97457 5.87657C6.36676 5.83788 6.73907 5.62396 6.94064 5.26898L6.94067 5.26899L6.94323 5.26436L8.39865 2.63692C8.40256 2.63077 8.40685 2.62513 8.41143 2.62005L8.44171 2.59931L8.47724 2.57498L8.48821 2.56429L8.49292 2.56277L8.50132 2.56005L8.50961 2.55705L8.54036 2.5459H8.70555C8.80301 2.55969 8.86322 2.6096 8.88699 2.64843L10.3621 5.26495C10.3624 5.26545 10.3627 5.26595 10.363 5.26645C10.5556 5.61186 10.9102 5.82443 11.2857 5.87509L11.2857 5.8751L11.2892 5.87555L14.6025 6.29879L14.6034 6.29891C14.7228 6.31392 14.7858 6.37899 14.8053 6.42175C14.8095 6.43526 14.8091 6.44724 14.8056 6.45947C14.8014 6.47385 14.79 6.49679 14.7607 6.52096L14.7591 6.52233L12.2657 8.60038Z" stroke="url(#paint0_linear)"/>
<defs>
<linearGradient id="paint0_linear" x1="3.2061" y1="2.52416" x2="10.3739" y2="16.1714" gradientUnits="userSpaceOnUse">
<stop stop-color="#FFB800"/>
</linearGradient>
</defs>
</svg>
