<svg width="25" height="22" viewBox="0 0 25 22" fill="none" xmlns="http://www.w3.org/2000/svg">
<path d="M22.5778 2.71306C19.7547 -0.110083 15.374 -0.110083 12.6482 2.71306C9.92236 -0.0127331 5.44427 -0.0127331 2.71848 2.71306C0.0900302 5.34151 -0.104669 9.4302 2.32908 12.2533C3.59462 13.7136 4.86017 14.9791 6.22307 16.2447C6.80717 15.9526 7.58597 15.6606 8.26742 15.2712C8.26742 15.2712 11.1879 14.0056 13.0376 11.2798C10.7012 12.9348 8.46212 13.6162 7.48862 13.8109C7.09922 12.3507 7.39127 10.7931 8.46212 9.72225C9.92236 8.262 14.1084 7.8726 15.5687 5.53621C15.7634 5.24416 16.1528 5.24416 16.3475 5.53621C17.0289 7.0938 18.1971 10.7931 15.666 14.5897C14.4005 16.5367 11.5773 17.4129 9.53296 16.342C8.85152 16.8288 8.17007 17.3155 7.68332 17.6076C9.24091 18.9705 10.8959 20.236 12.6482 21.4042C16.6395 18.8731 20.0467 15.7579 23.0646 12.2533C25.3036 9.4302 25.1089 5.34151 22.5778 2.71306Z" fill="#D842E4"/>
</svg>
