<svg width="24" height="25" viewBox="0 0 24 25" fill="none" xmlns="http://www.w3.org/2000/svg">
<path fill-rule="evenodd" clip-rule="evenodd" d="M15.85 2.70573C16.481 2.70573 17.111 2.79473 17.71 2.99573C21.401 4.19573 22.731 8.24573 21.62 11.7857C20.99 13.5947 19.96 15.2457 18.611 16.5947C16.68 18.4647 14.561 20.1247 12.28 21.5547L12.03 21.7057L11.77 21.5447C9.48102 20.1247 7.35002 18.4647 5.40102 16.5847C4.06102 15.2357 3.03002 13.5947 2.39002 11.7857C1.26002 8.24573 2.59002 4.19573 6.32102 2.97473C6.61102 2.87473 6.91002 2.80473 7.21002 2.76573H7.33002C7.61102 2.72473 7.89002 2.70573 8.17002 2.70573H8.28002C8.91002 2.72473 9.52002 2.83473 10.111 3.03573H10.17C10.21 3.05473 10.24 3.07573 10.26 3.09473C10.481 3.16573 10.69 3.24573 10.89 3.35573L11.27 3.52573C11.3618 3.5747 11.4649 3.64953 11.554 3.7142C11.6104 3.75517 11.6612 3.79207 11.7 3.81573C11.7163 3.82535 11.7329 3.83503 11.7496 3.84479C11.8354 3.89485 11.9247 3.94699 12 4.00473C13.111 3.15573 14.46 2.69573 15.85 2.70573ZM18.5098 9.90621C18.9198 9.89521 19.2698 9.56621 19.2998 9.14521V9.02621C19.3298 7.62521 18.4808 6.35621 17.1898 5.86621C16.7798 5.72521 16.3298 5.94621 16.1798 6.36621C16.0398 6.78621 16.2598 7.24621 16.6798 7.39521C17.3208 7.63521 17.7498 8.26621 17.7498 8.96521V8.99621C17.7308 9.22521 17.7998 9.44621 17.9398 9.61621C18.0798 9.78621 18.2898 9.88521 18.5098 9.90621Z" fill="currentColor"/>
</svg>
