<svg width="20" height="21" viewBox="0 0 20 21" fill="none" xmlns="http://www.w3.org/2000/svg">
<path d="M7.38893 18.9682V15.9104C7.38893 15.1299 8.02632 14.4971 8.81259 14.4971H11.6868C12.0643 14.4971 12.4265 14.646 12.6934 14.9111C12.9604 15.1761 13.1104 15.5356 13.1104 15.9104V18.9682C13.108 19.2927 13.2362 19.6047 13.4665 19.835C13.6968 20.0653 14.0102 20.1948 14.3371 20.1948H16.298C17.2138 20.1972 18.0929 19.8377 18.7413 19.1956C19.3897 18.5536 19.7542 17.6818 19.7542 16.7726V8.06168C19.7541 7.32728 19.4262 6.63067 18.8588 6.15949L12.1882 0.870693C11.0278 -0.0566141 9.36526 -0.0266737 8.23954 0.941803L1.72116 6.15949C1.12689 6.61678 0.771703 7.31546 0.75415 8.06168V16.7638C0.75415 18.6587 2.30153 20.1948 4.21032 20.1948H6.12644C6.80538 20.1948 7.35715 19.651 7.36207 18.9771L7.38893 18.9682Z" fill="#312B3E"/>
</svg>
