<svg width="24" height="25" viewBox="0 0 24 25" fill="none" xmlns="http://www.w3.org/2000/svg">
<path d="M2.5 11.2236C2.5 9.99938 3.06058 8.84259 4.02142 8.08403L9.52142 3.74193C10.9747 2.59463 13.0253 2.59464 14.4786 3.74193L19.9786 8.08403C20.9394 8.84259 21.5 9.99938 21.5 11.2236V17.7852C21.5 19.9943 19.7091 21.7852 17.5 21.7852H16C15.4477 21.7852 15 21.3374 15 20.7852V17.7852C15 16.6806 14.1046 15.7852 13 15.7852H11C9.89543 15.7852 9 16.6806 9 17.7852V20.7852C9 21.3374 8.55228 21.7852 8 21.7852H6.5C4.29086 21.7852 2.5 19.9943 2.5 17.7852L2.5 11.2236Z" stroke="currentColor" stroke-width="1.5"/>
</svg>
