<svg width="19" height="24" viewBox="0 0 19 24" fill="none" xmlns="http://www.w3.org/2000/svg">
<path d="M16.4643 0H2.77376C1.44351 0 0.334961 1.08083 0.334961 2.4388V21.5612C0.334961 22.8915 1.41579 24 2.77376 24H16.4643C17.7945 24 18.9031 22.9192 18.9031 21.5612V2.4388C18.9031 1.08083 17.7945 0 16.4643 0ZM5.60055 2.35566C6.07168 2.35566 6.45967 2.74365 6.45967 3.21478C6.45967 3.68591 6.07168 4.0739 5.60055 4.0739C5.12942 4.0739 4.74143 3.68591 4.74143 3.21478C4.74143 2.74365 5.12942 2.35566 5.60055 2.35566ZM3.21718 4.10162C2.74605 4.10162 2.35806 3.71363 2.35806 3.24249C2.35806 2.77136 2.74605 2.38337 3.21718 2.38337C3.68831 2.38337 4.0763 2.77136 4.0763 3.24249C4.0763 3.71363 3.68831 4.10162 3.21718 4.10162ZM9.61903 20.3695C6.43196 20.3695 3.85459 17.7921 3.85459 14.6051C3.85459 11.418 6.43196 8.84064 9.61903 8.84064C12.8061 8.84064 15.3835 11.418 15.3835 14.6051C15.3835 17.7921 12.8061 20.3695 9.61903 20.3695Z" fill="#FE68BF"/>
<path d="M14.1084 14.827C13.9976 17.0718 12.2239 18.9009 9.97908 19.0949C8.31627 19.2335 6.81973 18.4298 5.93289 17.1826C5.84975 17.0441 5.82204 16.8778 5.90518 16.7392C6.40403 15.9078 7.29086 15.2704 8.84283 15.1318C10.4502 14.9933 11.4479 14.3559 12.4456 13.1087C12.6673 12.8316 12.8336 12.5545 12.9722 12.2773C13.083 12.0833 13.3324 12.0833 13.4433 12.2773C13.9144 13.0256 14.1361 13.9124 14.1084 14.827Z" fill="#FE68BF"/>
</svg>
