<svg width="20" height="25" viewBox="0 0 20 25" fill="none" xmlns="http://www.w3.org/2000/svg">
<path d="M16.8852 0.87793H3.19466C1.8644 0.87793 0.755859 1.95876 0.755859 3.31673V22.4391C0.755859 23.7694 1.83669 24.8779 3.19466 24.8779H16.8852C18.2154 24.8779 19.324 23.7971 19.324 22.4391V3.31673C19.324 1.95876 18.2154 0.87793 16.8852 0.87793ZM6.02145 3.23359C6.49258 3.23359 6.88057 3.62158 6.88057 4.09271C6.88057 4.56384 6.49258 4.95183 6.02145 4.95183C5.55032 4.95183 5.16233 4.56384 5.16233 4.09271C5.16233 3.62158 5.55032 3.23359 6.02145 3.23359ZM3.63808 4.97955C3.16694 4.97955 2.77895 4.59156 2.77895 4.12042C2.77895 3.64929 3.16694 3.2613 3.63808 3.2613C4.10921 3.2613 4.4972 3.64929 4.4972 4.12042C4.4972 4.59156 4.10921 4.97955 3.63808 4.97955ZM10.0399 21.2474C6.85286 21.2474 4.27549 18.6701 4.27549 15.483C4.27549 12.2959 6.85286 9.71857 10.0399 9.71857C13.227 9.71857 15.8044 12.2959 15.8044 15.483C15.8044 18.6701 13.227 21.2474 10.0399 21.2474Z" fill="white"/>
<path d="M14.5296 15.7047C14.4187 17.9495 12.645 19.7786 10.4002 19.9726C8.73741 20.1111 7.24087 19.3074 6.35404 18.0603C6.2709 17.9218 6.24318 17.7555 6.32632 17.6169C6.82517 16.7855 7.712 16.1481 9.26397 16.0095C10.8714 15.871 11.869 15.2335 12.8667 13.9864C13.0884 13.7093 13.2547 13.4322 13.3933 13.155C13.5042 12.961 13.7536 12.961 13.8644 13.155C14.3356 13.9033 14.5573 14.7901 14.5296 15.7047Z" fill="white"/>
</svg>
