<svg width="16" height="16" viewBox="0 0 16 16" fill="none" xmlns="http://www.w3.org/2000/svg">
<path fill-rule="evenodd" clip-rule="evenodd" d="M5.11398 1.33203H10.894C13.154 1.33203 14.6673 2.9187 14.6673 5.2787V10.726C14.6673 13.0794 13.154 14.6654 10.894 14.6654H5.11398C2.85398 14.6654 1.33398 13.0794 1.33398 10.726V5.2787C1.33398 2.9187 2.85398 1.33203 5.11398 1.33203ZM7.99391 6.03906C7.68057 6.03906 7.42057 5.7784 7.42057 5.45906C7.42057 5.1324 7.68057 4.8724 8.00724 4.8724C8.32724 4.8724 8.58724 5.1324 8.58724 5.45906C8.58724 5.7784 8.32724 6.03906 7.99391 6.03906ZM8.58073 10.5197C8.58073 10.8397 8.32073 11.0997 7.99406 11.0997C7.67406 11.0997 7.41406 10.8397 7.41406 10.5197V7.57299C7.41406 7.25233 7.67406 6.98633 7.99406 6.98633C8.32073 6.98633 8.58073 7.25233 8.58073 7.57299V10.5197Z" fill="currentColor"/>
</svg>
