<svg width="49" height="49" viewBox="0 0 49 49" fill="none" xmlns="http://www.w3.org/2000/svg">
<path d="M24.5 4.33088C30.908 4.33088 31.668 4.35488 34.2 4.47088C40.704 4.76688 43.742 7.85288 44.038 14.3089C44.154 16.8389 44.176 17.5989 44.176 24.0069C44.176 30.4169 44.152 31.1749 44.038 33.7049C43.74 40.1549 40.71 43.2469 34.2 43.5429C31.668 43.6589 30.912 43.6829 24.5 43.6829C18.092 43.6829 17.332 43.6589 14.802 43.5429C8.282 43.2449 5.26 40.1449 4.964 33.7029C4.848 31.1729 4.824 30.4149 4.824 24.0049C4.824 17.5969 4.85 16.8389 4.964 14.3069C5.262 7.85288 8.292 4.76488 14.802 4.46888C17.334 4.35488 18.092 4.33088 24.5 4.33088ZM24.5 0.00488281C17.982 0.00488281 17.166 0.0328828 14.606 0.148883C5.89 0.548883 1.046 5.38488 0.646 14.1089C0.528 16.6709 0.5 17.4869 0.5 24.0049C0.5 30.5229 0.528 31.3409 0.644 33.9009C1.044 42.6169 5.88 47.4609 14.604 47.8609C17.166 47.9769 17.982 48.0049 24.5 48.0049C31.018 48.0049 31.836 47.9769 34.396 47.8609C43.104 47.4609 47.96 42.6249 48.354 33.9009C48.472 31.3409 48.5 30.5229 48.5 24.0049C48.5 17.4869 48.472 16.6709 48.356 14.1109C47.964 5.40288 43.122 0.550883 34.398 0.150883C31.836 0.0328828 31.018 0.00488281 24.5 0.00488281V0.00488281ZM24.5 11.6809C17.694 11.6809 12.176 17.1989 12.176 24.0049C12.176 30.8109 17.694 36.3309 24.5 36.3309C31.306 36.3309 36.824 30.8129 36.824 24.0049C36.824 17.1989 31.306 11.6809 24.5 11.6809ZM24.5 32.0049C20.082 32.0049 16.5 28.4249 16.5 24.0049C16.5 19.5869 20.082 16.0049 24.5 16.0049C28.918 16.0049 32.5 19.5869 32.5 24.0049C32.5 28.4249 28.918 32.0049 24.5 32.0049ZM37.312 8.31488C35.72 8.31488 34.43 9.60488 34.43 11.1949C34.43 12.7849 35.72 14.0749 37.312 14.0749C38.902 14.0749 40.19 12.7849 40.19 11.1949C40.19 9.60488 38.902 8.31488 37.312 8.31488Z" fill="white"/>
</svg>
