<svg width="49" height="49" viewBox="0 0 49 49" fill="none" xmlns="http://www.w3.org/2000/svg">
<g clip-path="url(#clip0)">
<path d="M24.9647 0.955078C24.4015 0.955078 23.3026 1.01396 23.2578 1.01668C23.4707 1.07348 6.82162 9.61508 6.82162 9.52548C6.8165 9.55444 6.80866 9.57844 6.79346 9.59732C3.49298 13.6348 1.53394 18.7637 1.53394 24.3855C1.53394 29.0188 2.88386 33.3343 5.20498 36.9704C5.22066 36.962 11.1151 42.6712 11.0429 43.2301C14.9362 46.1101 19.7499 47.8148 24.9639 47.8148C26.785 47.8148 28.5541 47.5997 30.2567 47.2076C30.2256 47.0229 30.1975 46.8381 30.1722 46.656L29.8645 44.496C29.7719 43.9052 29.2879 39.8892 29.2879 39.8892L29.2863 39.8773L29.8013 39.6796C29.8013 39.6796 30.4784 39.7076 30.4616 39.7096C30.4616 39.7096 31.1482 43.7487 31.2675 44.4493L31.3967 45.1909C31.4466 45.4896 31.4887 45.7858 31.5503 46.0927C31.5935 46.3479 31.6319 46.5925 31.6696 46.8362C32.225 46.6693 32.7722 46.484 33.309 46.2789C33.2274 45.8199 33.1386 45.3468 33.1311 45.2768L32.8544 43.6336C32.489 41.9384 32.256 40.681 32.0853 39.8445C32.061 39.7244 32.0155 39.5108 32.0155 39.5108L32.5443 39.2992L33.2419 39.3536C33.2419 39.3536 34.1319 43.248 34.3541 44.4255L34.6079 45.7364C35.0851 45.5205 35.5578 45.2924 36.0167 45.0455L35.8699 44.3728C35.8543 44.3077 35.8373 44.2295 35.8173 44.1424C35.5184 42.8269 34.725 39.1624 34.725 39.1624L35.3613 38.9125L35.9829 39H35.9859C35.9859 39 36.7845 42.3783 37.3027 44.301C38.1927 43.7487 39.0453 43.1421 39.8491 42.4791C39.8491 42.4791 47.2688 31.3725 47.3219 31.4092C48.0175 29.192 48.3941 26.8325 48.3941 24.3853C48.3939 11.4455 37.904 0.955078 24.9647 0.955078Z" fill="#A3080C"/>
<path d="M30.8345 12.6194C30.8345 12.6194 27.9081 7.10103 26.7143 6.27271C25.522 5.44439 23.5567 4.92727 22.1943 5.09943C20.4694 5.31719 16.5241 7.40503 16.2619 7.47399C16.2638 7.49415 14.7919 9.30967 14.4076 11.1794C14.3222 11.595 12.8076 18.2194 12.8076 18.2194L15.6876 26.5394L25.951 31.4361L29.7143 27.3394C29.7143 27.3394 30.1945 23.2862 31.2078 20.2462C32.2211 17.2062 31.9011 15.5529 31.9011 15.5529L30.8345 12.6194Z" fill="#FFF1E2"/>
<path d="M19.1095 33.8262C19.0783 33.838 19.0498 33.8507 19.0231 33.8627C19.0498 33.8507 19.0783 33.838 19.1095 33.8262Z" fill="white"/>
<path d="M18.2647 17.9803C18.1018 18.0731 17.9813 18.0949 17.9061 18.1349C17.8308 18.176 17.7119 18.2643 17.7413 18.4222C17.7724 18.5809 17.8159 18.6325 17.8311 18.7549C17.8455 18.876 17.7873 19.0955 17.6465 19.3448C17.5079 19.5947 17.2861 19.7752 17.1602 19.8483C17.0364 19.9224 16.9604 19.9424 16.89 19.9795C16.874 19.9869 16.8596 20.0251 16.8452 20.1019C16.8446 20.1025 16.8445 20.1025 16.8438 20.1033C16.8527 20.0963 16.8626 20.0897 16.8764 20.0845C16.9034 20.0729 16.9591 20.0715 17.0092 20.0622C17.0577 20.0533 17.0933 20.0419 17.1111 20.0395C17.13 20.0373 17.2423 20.0214 17.2612 20.0173C17.2801 20.0136 17.6204 19.9424 17.8313 19.8453C18.041 19.7477 18.4093 19.5701 18.6204 19.315C18.7754 19.1283 18.9621 18.7883 18.9804 18.4509C18.9847 18.3811 18.9839 18.3377 18.9839 18.3377C18.9839 18.3377 18.9847 18.3377 18.9847 18.3369C18.9871 18.3369 18.9892 18.3363 18.9914 18.3363C18.9565 18.3349 18.9261 18.3233 18.9013 18.303C18.8449 18.2589 18.7993 18.2262 18.6261 18.0413C18.5148 17.9219 18.5225 17.8344 18.5826 17.7344C18.5812 17.7366 18.5786 17.7389 18.577 17.7411C18.5257 17.7891 18.4255 17.8877 18.2647 17.9803Z" fill="white"/>
<path d="M26.8692 16.8773C26.8692 16.8773 26.7742 16.8854 26.7415 16.8998C26.7156 16.9105 26.6667 16.9288 26.6332 16.9736C26.5999 17.0192 26.5923 17.0989 26.6622 17.1845C26.7334 17.2697 26.8313 17.4291 26.8231 17.5656C26.818 17.6256 26.8268 17.8217 26.7631 17.963C26.6919 18.1232 26.6097 18.2811 26.5532 18.3523C26.5206 18.3942 26.3699 18.5609 26.3478 18.679C26.3419 18.7038 26.3478 18.7313 26.3595 18.7573C26.3595 18.7573 26.3612 18.7558 26.3612 18.7579C26.3604 18.7587 26.3612 18.7601 26.3604 18.7616C26.3635 18.7523 26.3671 18.7433 26.3745 18.7349C26.4121 18.6926 26.4887 18.6499 26.6222 18.6088C26.7991 18.5528 26.9247 18.4861 27.0227 18.4115C27.0108 18.4253 27.0078 18.4413 27.0003 18.4571C27.0105 18.4326 27.0219 18.4085 27.0438 18.3893C27.0964 18.344 27.7908 17.8779 27.8086 17.1254C27.8153 16.8429 27.4487 16.8056 27.2961 16.8005C27.1827 16.7957 26.9689 16.8997 26.8785 16.8777C26.8771 16.8771 26.8743 16.8747 26.8711 16.8741C26.8726 16.8741 26.8726 16.8747 26.8726 16.8747C26.8727 16.8765 26.8699 16.8765 26.8692 16.8773Z" fill="white"/>
<path d="M19.4744 22.0728C19.4744 22.0728 22.2344 22.9263 23.5544 21.3928C24.8744 19.8596 27.1544 22.2063 27.301 22.8996C27.4479 23.5928 23.8744 25.5128 22.7944 25.5528C21.7144 25.5928 17.4344 25.0196 17.4344 24.5796C17.4344 24.1396 19.4744 22.0728 19.4744 22.0728Z" fill="white"/>
<path d="M30.8014 11.1059C30.3625 6.45116 28.2208 4.1182 26.6814 2.98588C25.0637 1.91996 21.2152 0.981081 19.4014 1.06588C17.2614 1.16588 12.3193 3.50012 12.1281 3.6726C11.9459 3.83884 8.63151 9.38092 9.04143 10.371C9.45135 11.3611 10.0321 16.0371 10.2214 16.4126C10.279 16.5251 11.2245 19.5715 11.8481 19.4593C12.4768 19.3462 13.0629 16.5678 13.0349 16.3526C12.9549 15.7393 11.8417 12.9756 11.9281 12.5859C12.0157 12.1972 14.9886 7.54268 15.2014 7.37916C15.3515 7.26492 20.4512 6.63068 20.4808 6.67996C20.4801 6.67852 20.4801 6.67692 20.4781 6.67548L20.4774 6.67468C20.8339 6.36396 21.6606 5.54492 22.3993 5.57436C23.1374 5.60476 25.2477 5.86844 26.44 6.69772C27.6337 7.52604 28.0024 8.33692 28.1037 8.5638C28.1029 8.5638 28.1014 8.56492 28.1006 8.56492C28.1406 8.57084 29.8013 12.3459 30.288 12.3593C30.6126 12.3681 30.8549 11.6654 30.8014 11.1059Z" fill="white"/>
<path d="M28.7353 14.2008C28.5582 14.2215 28.0738 14.2656 28.0204 14.2724C27.9254 14.2847 27.9278 14.3384 27.9337 14.3788C27.9386 14.4204 27.9537 14.5797 27.9594 14.6484C27.9654 14.7165 28.0366 14.7565 28.1095 14.7506C28.183 14.7455 28.6462 14.7036 28.7153 14.6928C28.7828 14.6818 28.8495 14.6247 28.8487 14.5701C28.8473 14.5152 28.8481 14.3703 28.8473 14.3117C28.8457 14.2527 28.802 14.1933 28.7353 14.2008Z" fill="white"/>
<path d="M9.46508 36.4596C9.55708 36.4796 9.65516 36.502 9.74988 36.5241C9.5382 36.4749 9.30796 36.4247 9.17596 36.3921C9.11068 36.3756 9.00796 36.3661 8.88908 36.3685C8.69068 36.3729 8.44572 36.4117 8.24796 36.5111C7.99788 36.6354 6.40908 37.441 5.74316 37.7773C6.5054 38.8695 7.35596 39.8938 8.28844 40.8399C8.34668 40.5997 9.38812 39.5069 9.53468 38.8665C9.73532 37.9889 9.23596 36.8303 9.46508 36.4596Z" fill="white"/>
<path d="M35.9838 39.0005L34.7283 39.1624C34.7283 39.1624 35.6315 43.3325 35.8732 44.3727L36.019 45.0453C36.4558 44.8101 36.8828 44.5618 37.3025 44.3008C36.7835 42.3781 35.9849 39.0005 35.9849 39.0005H35.9838Z" fill="white"/>
<path d="M43.2591 22.3163C42.625 22.7953 42.2738 23.4424 42.2758 24.0899C42.2788 25.0497 43.0551 25.974 44.8538 25.9681C45.3002 25.9651 45.694 25.92 46.0519 25.8592C46.1564 25.8422 46.2588 25.8233 46.3559 25.8033L46.565 24.9099C46.2166 25.0264 45.7761 25.1227 45.4231 25.1243C44.4652 25.1273 43.823 24.5593 43.8215 23.8145C43.8199 23.4176 43.9831 23.0689 44.2782 22.8139C44.5942 22.5406 45.0599 22.3753 45.6425 22.3753C46.1038 22.3753 46.3735 22.5029 46.5575 22.6849C46.5945 22.7206 46.6286 22.758 46.6583 22.7972H46.8084L47.102 21.7429C46.7994 21.643 46.351 21.559 45.8778 21.5537C44.7762 21.539 43.8812 21.8462 43.2591 22.3163Z" fill="white"/>
<path d="M41.759 22.4622C41.8883 22.4622 41.9957 22.5093 42.0677 22.5709C42.1293 22.6232 42.1662 22.6854 42.1662 22.7392H42.3139L42.6002 21.5942H38.713L38.6562 21.8182L38.6427 21.8726C38.6427 21.8726 39.0683 21.9205 38.9379 22.3458L37.9675 25.8712L39.6179 25.8744H39.9074L39.9808 25.5717C39.9808 25.5717 39.6179 25.4842 39.7128 25.149C39.7173 25.128 39.8539 24.6267 39.9355 24.3258C39.972 24.1958 39.9979 24.1024 39.9979 24.1024L40.8862 24.1018C41.0315 24.1018 41.1429 24.1285 41.229 24.1618C41.4069 24.2299 41.4752 24.3333 41.4752 24.3333L41.733 23.2856H40.2354L40.3971 22.6872L40.4579 22.464L41.759 22.4622Z" fill="white"/>
<path d="M37.0358 25.242C36.9208 25.1188 35.922 23.5631 35.922 23.5631L37.6883 22.1495L37.7469 22.1025C37.8259 22.0364 37.9003 21.9897 37.9654 21.9558C38.1531 21.8593 38.2741 21.8731 38.2741 21.8731L38.3449 21.5913L36.0747 21.5947L36.0182 21.8179L36.0048 21.8731C36.159 21.8838 36.3744 22.0217 36.1984 22.186C36.1753 22.2057 34.3737 23.5824 34.3737 23.5824L34.3878 23.5337L34.7624 22.1767C34.8416 21.9057 35.1328 21.8731 35.1328 21.8731L35.204 21.5939L33.0366 21.5945L32.9809 21.8177L32.9667 21.8729C33.0704 21.8996 33.3664 21.9571 33.2638 22.346C32.5404 24.9601 32.6232 24.7014 32.5742 24.8438C32.4123 25.4635 32.1694 25.5488 32.0233 25.5646C31.9915 25.5676 31.964 25.5676 31.944 25.5688L31.9142 25.6859L31.8683 25.8712H33.8465H34.1352L34.2108 25.5643C34.2108 25.5643 33.8512 25.4931 33.9196 25.2336C33.9545 25.1032 34.0454 24.7723 34.1256 24.4803C34.2033 24.1969 34.2723 23.9486 34.2723 23.9486C34.6654 24.5788 34.7558 24.6568 35.2304 25.3078C35.667 25.91 36.1337 25.8819 37.2604 25.8742C37.3523 25.8736 37.4473 25.8728 37.5497 25.8728L37.6246 25.5716C37.339 25.5734 37.1499 25.3649 37.0358 25.242Z" fill="white"/>
<path d="M47.725 21.6687C47.6687 21.6135 47.6019 21.5859 47.5218 21.5859C47.4432 21.5859 47.3765 21.6135 47.32 21.6687C47.265 21.7239 47.2368 21.7917 47.2368 21.8707C47.2368 21.9504 47.265 22.0179 47.32 22.0743C47.3751 22.1296 47.4432 22.1584 47.5218 22.1584C47.6019 22.1584 47.6687 22.1295 47.725 22.0743C47.7808 22.0179 47.8088 21.9504 47.8088 21.8707C47.8096 21.7917 47.7807 21.7239 47.725 21.6687ZM47.697 22.0461C47.6495 22.0946 47.5903 22.1192 47.5219 22.1192C47.4538 22.1192 47.3959 22.0947 47.3485 22.0461C47.301 21.9983 47.2765 21.9397 47.2765 21.8707C47.2765 21.8032 47.301 21.7447 47.3485 21.6968C47.3967 21.6483 47.4538 21.6239 47.5219 21.6239C47.5903 21.6239 47.648 21.6483 47.697 21.6968C47.7445 21.7447 47.7682 21.8032 47.7682 21.8707C47.7682 21.9395 47.7445 21.9983 47.697 22.0461Z" fill="white"/>
<path d="M47.652 21.803C47.652 21.7636 47.635 21.7371 47.6037 21.7233C47.5829 21.7166 47.5562 21.7129 47.5178 21.7129H47.4078V22.027H47.4621V21.9028H47.5056C47.5358 21.9028 47.5558 21.9065 47.5688 21.9132C47.5874 21.9254 47.5978 21.9492 47.597 21.9855V22.0097L47.5994 22.0204C47.5994 22.0219 47.5994 22.0227 47.5994 22.0241C47.5994 22.0241 47.5994 22.0255 47.601 22.0271H47.652L47.6512 22.0227C47.6482 22.0204 47.6482 22.0153 47.6469 22.0067V21.9839V21.9603C47.6469 21.9443 47.641 21.9268 47.6293 21.9108C47.6189 21.8948 47.5994 21.8841 47.5758 21.8804C47.595 21.8774 47.6099 21.8731 47.621 21.8652C47.6408 21.8516 47.652 21.8313 47.652 21.803ZM47.5646 21.858C47.5536 21.8625 47.5363 21.8639 47.5136 21.8639H47.4626V21.7508H47.5093C47.5403 21.7502 47.5634 21.7545 47.5774 21.7623C47.5909 21.7697 47.5982 21.7857 47.5982 21.8087C47.5979 21.8321 47.5867 21.8487 47.5646 21.858Z" fill="white"/>
<path d="M44.5413 30.4861C41.5545 29.5794 35.4213 29.7929 35.4213 29.7929L40.4345 41.6061C40.4345 41.6061 40.8989 41.3733 40.9568 41.5004C43.6766 38.9577 45.7885 35.7781 47.0549 32.197C46.955 32.1202 47.528 31.3929 44.5413 30.4861Z" fill="white"/>
<path d="M34.356 44.4257C34.1321 43.2485 33.2414 39.3539 33.2414 39.3539C33.2414 39.3539 34.424 39.0432 34.7012 38.3662C34.9785 37.6896 34.351 36.647 34.3212 36.2361C34.1931 35.0096 33.7112 29.9861 32.9212 28.9461C32.4612 28.3405 30.3459 27.1456 30.1812 27.1528C29.4212 27.1861 27.9012 30.4961 26.6312 30.7961C25.7846 30.9961 25.1867 30.1726 25.3236 30.2349C25.3212 30.2331 25.3184 30.2317 25.3169 30.2302C25.3169 30.2302 25.3184 30.1355 25.1768 29.6905C25.0352 29.244 24.7385 28.7755 24.6836 28.6696C24.6304 28.5633 24.4694 28.3321 24.4638 28.3056C24.4593 28.2795 24.4008 28.1305 24.3593 27.8592C24.2804 27.3357 24.3166 26.9849 24.3196 26.9531C24.3212 26.9211 24.3358 26.8262 24.3401 26.807C24.3435 26.7869 24.3356 26.7528 24.3115 26.7469C24.2862 26.7425 24.2187 26.7261 24.1481 26.7987C24.0009 26.9472 23.9942 26.9753 23.9915 27.0005C23.9864 27.024 24.0016 27.0688 23.9971 27.1206C23.9811 27.2853 23.9523 27.4112 23.8785 27.5313C23.8051 27.6529 23.7572 27.6947 23.6532 27.6848C23.5475 27.6752 23.4595 27.5913 23.4467 27.3742C23.4329 27.1573 23.3902 27.0829 23.3467 27.0317C23.3033 26.9782 23.2044 26.9537 23.1707 26.9558C23.1374 26.9558 23.1096 26.9856 22.8808 27.0417C22.6539 27.0995 22.2932 27.1189 22.2401 27.1211C22.1859 27.1243 21.988 27.1443 21.9865 27.1448C22.028 27.2997 21.1548 27.0616 21.008 27.1793C20.708 27.4193 20.5678 28.9777 20.4212 29.7859C20.4211 29.7865 20.4211 29.7873 20.4209 29.7883L15.5012 30.2862L13.7812 34.2862C13.7812 34.2862 14.3012 42.2062 14.3012 42.3262C14.3012 42.4462 25.1812 39.9662 25.1812 39.9662L29.286 39.8774C29.286 39.8774 29.287 39.8805 29.2878 39.8883C29.3168 40.1249 29.7718 43.9049 29.8644 44.4968L30.1721 46.6552C30.1974 46.8385 30.2256 47.024 30.2566 47.2069C30.7328 47.0969 31.2043 46.9749 31.6692 46.8355C31.6315 46.5921 31.5926 46.3467 31.5499 46.0931C31.4889 45.7854 31.4467 45.4896 31.3971 45.1907L31.2668 44.4491C31.1481 43.7491 30.4601 39.711 30.4601 39.711L31.1812 39.2557L32.0158 39.5107C32.038 39.6131 32.0603 39.7241 32.0856 39.8445C32.2568 40.6822 32.4904 41.9384 32.8547 43.632L33.1313 45.2766C33.1388 45.3464 33.228 45.8195 33.31 46.2792C33.7489 46.1107 34.1812 45.9291 34.6076 45.7363L34.356 44.4257Z" fill="white"/>
<path d="M26.201 14.4194C25.2943 14.5527 23.9743 15.2927 24.0343 15.8327C24.0713 16.1674 25.9623 16.2186 26.8143 16.2794C27.6663 16.3402 27.807 15.5212 27.7612 15.076C27.7154 14.6309 27.1553 14.2792 26.201 14.4194Z" fill="#F5D4B7"/>
<path d="M32.3886 28.9563C31.9385 28.9094 32.1476 29.639 32.1424 29.7129V29.7143C32.37 30.5731 32.559 31.4297 32.7052 32.2051C32.707 32.2815 32.7128 32.3486 32.7222 32.403C32.7867 32.7409 32.9201 33.8331 33.1768 36.3001C33.2361 37.1217 33.288 37.9788 33.3222 38.6996C33.3456 38.698 34.8611 38.7859 34.8611 38.7859C34.8611 38.7859 34.8011 36.6659 34.331 34.0059C33.8609 31.346 33.1561 29.0363 32.3886 28.9563Z" fill="#F5D4B7"/>
<path d="M28.3021 22.2765C28.3703 21.9013 28.2922 21.7159 28.1693 21.4965C28.0485 21.2778 27.8149 21.0732 27.513 20.8748C27.221 20.6805 26.561 20.0981 26.497 20.0431C26.4346 19.9893 26.1264 19.698 26.0551 19.64C25.9808 19.5829 25.837 19.4632 25.5212 19.3031C24.7559 18.9172 24.1405 19.206 24.1167 19.2192C24.0933 19.2324 23.9797 19.3242 23.8709 19.4276C23.7637 19.5292 23.8442 19.7256 23.8853 19.7973C23.8853 19.7973 27.9468 22.7744 27.9549 22.8439L27.958 22.8461C27.958 22.8461 28.2456 22.5831 28.3021 22.2765Z" fill="#F5D4B7"/>
<path d="M26.6218 18.6094C26.4884 18.6505 26.4117 18.6931 26.3741 18.7355C26.3668 18.7439 26.3639 18.7532 26.3609 18.7622C26.3577 18.7692 26.3577 18.7766 26.3577 18.7836C26.3577 18.7896 26.3577 18.7947 26.3577 18.8C26.3591 18.807 26.362 18.8129 26.3636 18.8193C26.3671 18.8267 26.3709 18.8345 26.3754 18.8419C26.3785 18.8467 26.3813 18.852 26.3855 18.8571C26.3914 18.8664 26.3997 18.8752 26.4079 18.8844C26.4114 18.8889 26.4154 18.8926 26.4197 18.8968C26.43 18.907 26.4413 18.9179 26.454 18.9286C26.457 18.9316 26.4599 18.9345 26.4636 18.9368C26.4778 18.9491 26.4927 18.9604 26.5073 18.9728C26.5103 18.9742 26.5116 18.9758 26.5148 18.978C26.5325 18.991 26.5505 19.0028 26.5682 19.015C26.5689 19.0158 26.5697 19.0158 26.5705 19.0164C26.5905 19.0294 26.6097 19.0417 26.6282 19.0539C26.6482 19.0657 26.6764 19.072 26.7106 19.0728C26.7431 19.0742 26.7833 19.0697 26.8265 19.062C26.9689 19.0339 27.1511 18.962 27.3053 18.8881C27.3053 18.8889 27.3037 18.8881 27.3023 18.8889C27.2933 18.892 27.0109 18.4259 27.022 18.4121C26.9244 18.4867 26.7997 18.5534 26.6218 18.6094Z" fill="#F5D4B7"/>
<path d="M21.1684 21.3947C21.1796 21.3992 21.1895 21.4058 21.201 21.4102C21.1996 21.4088 21.1986 21.408 21.1978 21.4066C21.1401 21.3466 21.1356 21.3331 21.1154 21.2515C21.0935 21.1666 21.038 21.0624 21.0146 21.0035C20.9895 20.9442 20.8778 20.7429 20.8348 20.6125C20.7919 20.4819 20.7726 20.4022 20.7639 20.2714C20.7306 20.1726 20.7054 19.9762 20.7206 19.7986C20.7335 19.6414 20.7684 19.4605 20.8681 18.9518C20.9356 18.6178 20.8298 18.233 20.8262 17.8766C20.823 17.6019 20.7958 16.9267 20.8033 16.2472V16.245C20.7562 16.261 14.7078 14.9634 14.7503 14.957C14.7511 14.957 14.7527 14.9562 14.754 14.9562C14.8018 14.4554 14.7729 13.7816 14.7458 13.2707C14.9023 11.7362 15.1383 9.95983 15.6806 8.77567C16.0996 7.86511 16.0436 8.16511 16.2506 7.73599C16.2622 7.71295 16.2774 7.68591 16.2798 7.65407C16.282 7.63263 16.2644 7.51215 16.2609 7.47391C16.2609 7.47327 16.2609 7.47327 16.2609 7.47247C16.2486 7.47615 14.7745 7.06335 12.9404 11.2728C12.1727 13.0363 13.1943 17.4462 13.1943 17.4462L14.791 17.9763L15.831 17.4114L18.291 16.9064L19.2959 17.3965C19.2959 17.3965 18.9865 18.3374 18.9839 18.3374C18.9839 18.3381 18.9831 18.3381 18.9831 18.3381C18.9831 18.3381 18.9839 18.3822 18.9788 18.4512C18.9615 18.7893 18.7746 19.1293 18.6188 19.3162C18.4087 19.5706 18.0406 19.7482 17.831 19.8462C17.6198 19.9427 17.2798 20.0146 17.2598 20.0179C17.2417 20.0222 17.1286 20.0376 17.1102 20.0405C17.0919 20.0419 17.057 20.0534 17.0086 20.063C16.9582 20.0717 16.903 20.0731 16.8754 20.0846C16.8617 20.0898 16.8513 20.0965 16.8428 20.1043C16.8276 20.1166 16.8194 20.131 16.8154 20.147C16.8146 20.1485 16.814 20.1515 16.814 20.1538C16.8108 20.169 16.8108 20.1842 16.8132 20.1979C16.8233 20.248 16.8775 20.3178 16.8839 20.3299C16.9066 20.3733 17.037 20.4971 17.2506 20.4493C17.5316 20.3862 17.7132 20.3299 17.9007 20.2694C18.0898 20.2078 18.3406 20.0994 18.3788 20.0659C18.4177 20.0336 18.5217 19.9542 18.5383 19.9451C18.5383 19.9443 18.539 19.9443 18.539 19.9443C18.5606 19.9246 18.581 19.9061 18.6014 19.8886C18.61 19.8813 18.6186 19.872 18.6274 19.8653C18.6295 19.8635 18.631 19.8621 18.6332 19.8603C18.6663 20.2566 18.191 21.4466 18.191 21.4466C18.191 21.4466 17.0834 21.8406 17.1537 21.7885C17.1537 21.7885 17.1524 21.7885 17.1524 21.7891C17.0623 21.8333 16.9298 21.8811 16.7958 21.7762C16.7958 21.7762 16.6654 21.6238 16.5057 21.4218C16.41 21.301 16.3044 21.163 16.2089 21.0285C16.1414 20.9336 16.0932 20.8562 16.0577 20.7923C15.9887 20.6749 15.9612 20.5995 15.949 20.5525C15.9476 20.5488 15.946 20.5446 15.946 20.5418C15.9162 20.4635 15.8914 20.3368 15.8914 20.3368C15.6916 20.312 15.4814 20.2664 15.2873 20.1955C15.2887 20.1962 15.2887 20.1981 15.2903 20.1995C15.3065 20.2139 13.9186 20.5166 13.9186 20.5166L15.3546 26.3667C15.3546 26.3667 18.0346 30.58 19.7146 29.7667C19.965 29.6454 20.401 28.7915 20.2214 28.5C20.0367 28.2013 17.1946 23.4867 17.1946 23.4867C17.1946 23.4867 21.1302 21.3778 21.1684 21.3947Z" fill="#F5D4B7"/>
<path d="M26.6158 37.2958C27.1408 37.6443 27.3234 37.7259 27.8973 37.9659C28.0798 38.052 28.5616 37.9541 28.7677 37.6456C28.764 37.6472 28.7603 37.6515 28.7574 37.6539C28.7558 37.6546 28.7558 37.6546 28.7544 37.6546C28.741 37.6627 25.8966 35.4309 25.5259 35.2989C25.3939 35.2522 24.6675 35.5187 24.761 35.653C24.8446 35.7738 25.1958 36.1397 25.2042 36.1538C25.7 36.5394 26.3237 37.0539 26.6158 37.2958Z" fill="#F5D4B7"/>
<path d="M20.5679 33.1794L15.8113 30.4561C15.8113 30.4561 15.95 31.8053 15.9492 31.8265C15.95 31.8273 15.95 31.8273 15.9506 31.8282C16.2977 32.1386 16.8412 32.5105 16.9271 32.5689C16.9588 32.5898 17.1799 32.7357 17.2271 32.7885C17.2855 32.8521 17.8724 33.2695 17.9172 33.3007C17.9601 33.3298 18.5938 33.6796 18.9778 33.8841C18.9916 33.8765 18.7106 34.1066 18.715 34.0993C18.5799 34.1082 18.482 34.1703 18.333 34.2178C17.6663 34.5924 18.062 35.3716 18.1249 35.9145C18.2524 36.3719 18.4135 37.1661 19.0066 37.2402C19.4582 37.2945 20.4918 37.0119 21.0382 36.8999C21.1156 36.7629 21.9078 36.7138 21.898 36.7249C22.0378 36.6831 22.2254 36.6172 22.2822 36.6277C22.3162 36.6337 22.1583 36.8013 22.0668 36.9725C21.9748 37.1453 21.4062 38.8241 20.8767 39.7183C20.6991 40.0845 20.7833 39.9333 20.6751 40.1996V40.2004L21.7479 40.446L23.4812 36.0458L20.5679 33.1794Z" fill="#F5D4B7"/>
<path d="M15.172 36.5998C15.3567 36.9424 15.8887 37.6609 15.9147 37.7017C15.9407 37.7417 16.0552 37.8651 16.1903 38.0161C16.3256 38.1665 16.4416 38.2981 16.4743 38.3365C16.5069 38.3736 16.7605 38.6368 16.8259 38.6971C16.8912 38.7571 16.9669 38.8795 17.0218 38.9305C17.2095 39.099 17.9005 39.6997 17.9672 39.7493C18.0339 39.8001 18.3635 40.0211 18.4229 40.0293C19.0165 40.1045 19.3079 39.7793 19.368 39.683C19.4288 39.5889 19.4403 39.5483 19.4029 39.4072C19.4021 39.4173 17.1114 37.6961 15.5914 34.3861C15.5325 34.2579 15.0053 33.6195 14.5213 34.0061C14.1239 34.3235 14.4112 35.0841 14.4112 35.0841V35.0885C14.5621 35.4001 15.0141 36.3077 15.172 36.5998Z" fill="#F5D4B7"/>
<path d="M10.6744 36.9264C10.8277 36.3529 9.55648 36.4808 9.4648 36.46C9.06848 37.1014 8.64784 39.28 8.4336 40.3003C8.39648 40.4152 8.34656 40.5998 8.28784 40.8385C8.57968 41.1352 8.87792 41.4251 9.18448 41.7054C9.40576 40.8444 10.6338 37.0788 10.6744 36.9264Z" fill="#F5D4B7"/>
<path d="M47.5994 22.0205C47.5994 22.0217 47.6 22.023 47.6 22.0236C47.6 22.0236 47.6 22.0248 47.6007 22.0261C47.6 22.0249 47.6 22.0236 47.6 22.0236C47.5999 22.023 47.5994 22.0218 47.5994 22.0205Z" fill="#A3080C"/>
<path d="M44.7105 30.2318C44.0016 30.0748 42.3228 29.7379 40.06 29.53C37.7982 29.3241 35.9468 29.1475 35.6924 29.1199C35.4595 29.0967 35.3752 28.8833 35.1636 28.7771C34.3969 28.3926 32.948 28.0358 32.04 27.7161C31.8153 27.6383 31.6676 27.4395 31.3576 27.0614C31.1691 26.8308 31.0416 26.7268 30.8803 26.5807C30.7836 26.4924 30.5732 26.3145 30.5169 26.2715C30.462 26.227 30.4235 26.0995 30.471 25.8518C30.5185 25.6031 30.667 24.6335 30.6548 23.5046C30.6516 23.2015 30.7851 23.0075 30.927 22.9366C31.0033 22.898 31.5001 22.6771 31.4667 22.1887C31.4316 21.6945 31.279 21.0051 31.6766 20.0347C32.0614 19.0945 32.5419 17.4164 32.6 16.3094C32.6616 15.1334 32.3662 14.3748 31.9022 13.9641C31.7212 13.8054 31.5076 13.5655 31.682 13.0535C31.8681 12.5027 32.206 10.9982 31.874 10.003C31.7996 9.78202 31.7153 9.78058 31.6646 9.75386C31.6137 9.72794 31.3726 9.5433 31.282 9.13722C31.1603 8.60186 30.7689 6.69914 29.2932 4.7649C28.5115 3.73802 27.6766 3.1273 27.3432 2.88122C27.1147 2.73258 26.7136 2.45306 26.2337 2.19786C25.5472 1.83482 25.0022 1.55786 23.906 1.20314C23.8024 1.1705 23.5676 1.09866 23.2576 1.01594C23.2568 1.01594 23.254 1.01594 23.254 1.01594C23.254 1.01594 22.3201 0.766023 21.3102 0.648103C21.1377 0.632103 20.9017 0.610343 20.6339 0.592103C19.5942 0.531303 19.2147 0.595143 18.674 0.649543C18.6163 0.655143 18.5574 0.663943 18.4993 0.671783C18.3915 0.686183 18.28 0.702823 18.1633 0.721063C16.5569 0.996103 14.9227 1.74954 14.1278 2.12858C13.679 2.3417 13.282 2.56346 12.9169 2.77146C12.9068 2.77786 12.8939 2.78522 12.8872 2.78922C12.7931 2.84666 12.6457 2.92874 12.502 3.00762C12.2774 3.13434 12.0627 3.25306 11.8547 3.35466C11.2113 3.66762 10.6454 3.82778 10.2316 3.9713C10.1564 3.99946 10.0936 4.0233 10.0448 4.03994C9.74652 4.1561 9.55644 4.2761 9.52156 4.47402C9.45788 4.82922 9.87596 5.15882 9.72668 5.72538C9.35916 7.11866 7.78652 8.45594 7.53436 8.61018C6.80396 9.05594 6.84956 9.36618 6.8214 9.5249C6.8214 9.67242 6.85164 9.83626 6.93564 10.0132C7.179 10.5289 7.62924 10.9708 7.84956 11.4369C8.07052 11.9033 8.19644 12.7207 8.03116 13.6763C7.8734 14.6003 7.82396 14.8052 7.74188 14.9747C7.66028 15.1447 7.49564 15.4751 7.72268 15.8681C7.95068 16.2622 8.43116 16.6641 8.7326 16.8955C8.89292 17.0193 8.97596 17.1316 8.85708 17.3548C8.66124 17.7201 8.71132 18.5814 8.89676 19.0633C9.17676 19.7985 9.50556 20.4993 9.81068 20.9497C10.1161 21.3998 10.6611 22.1659 10.9816 22.443C11.3008 22.7219 11.3446 23.2052 11.3384 23.5052C11.3316 23.8036 11.2897 24.6497 12.1592 25.1791C12.5876 25.4425 12.626 25.3763 12.7832 25.5054C12.9403 25.6323 13.0142 25.6982 13.1228 26.0407C13.2315 26.382 13.7257 27.5787 14.4062 28.4211C14.6048 28.6657 14.715 28.8391 14.7387 28.8793C14.7627 28.9193 14.7996 28.9638 14.7136 29.1654C14.628 29.3671 14.2844 30.5156 14.0104 31.7028C13.9603 31.9206 13.8867 32.2068 13.6136 32.3412C13.34 32.4731 12.7289 32.8107 12.5065 32.9335C12.2827 33.0566 12.1723 33.1235 11.9148 33.4436C11.8003 33.586 11.7169 33.6695 11.6446 33.7564C11.603 33.8067 11.5846 33.8388 11.367 33.9523C11.1785 34.0502 8.3814 35.0343 5.41532 36.8487C5.34188 36.8931 5.27324 36.9324 5.20508 36.9703C5.3798 37.2431 5.55804 37.5134 5.74348 37.7772C6.4094 37.4406 7.99804 36.6353 8.2478 36.5108C8.44492 36.4115 8.6902 36.3729 8.88844 36.3681C9.0078 36.3659 9.1102 36.3756 9.17532 36.3918C9.30844 36.4244 9.53756 36.475 9.75036 36.5236C9.77004 36.5279 9.78972 36.5327 9.81004 36.5371C9.82316 36.5401 9.83612 36.543 9.84972 36.5468C9.93756 36.5684 10.0188 36.5878 10.0844 36.6054C10.0881 36.6068 10.0912 36.6068 10.0948 36.6084C10.1267 36.6175 10.1556 36.6254 10.1779 36.6321C10.3668 36.6943 10.4673 37.0487 10.3651 37.3713C10.347 37.4321 10.2881 37.6367 10.2019 37.9393C10.159 38.0913 10.1099 38.2663 10.0561 38.4606C10.002 38.655 9.943 38.8687 9.88076 39.0956C9.66204 39.8903 9.40524 40.8441 9.18428 41.7051C9.77628 42.2447 10.3974 42.7527 11.0428 43.23C11.1152 42.6711 11.1912 42.0891 11.25 41.6657C11.4043 40.5611 12.2867 36.4691 12.5358 35.5387C12.7171 34.8617 12.8113 34.5532 13.0496 34.4465C13.1211 34.4155 13.2024 34.3679 13.2494 34.3449C13.2964 34.3231 13.3995 34.2982 13.3676 34.4775C13.3312 34.6903 13.1475 35.5587 12.8772 38.3763C12.6896 40.331 12.6851 42.0622 12.7526 43.1035C12.7817 43.5468 12.7892 44.1735 13.4676 43.9019C14.2603 43.5852 16.9624 42.6163 18.4059 42.1715C20.7302 41.4545 25.0867 40.4969 29.2856 39.8772L30.4596 39.7103C30.4596 39.7103 31.147 43.7491 31.2654 44.4491L31.3958 45.19L31.2667 44.4491C31.1473 43.7491 30.4608 39.7103 30.4608 39.7103C30.6252 39.6878 30.7908 39.6667 30.9539 39.6459C31.3299 39.5983 31.6828 39.554 32.015 39.5108L33.2414 39.3537C33.8153 39.2803 34.3076 39.2172 34.7249 39.1627C34.7249 39.1627 35.5176 42.827 35.8156 44.1433C35.8364 44.2299 35.8542 44.3079 35.8691 44.3732L36.0158 45.0459C36.0166 45.0459 36.0174 45.0459 36.018 45.0459L35.8721 44.3732C35.6302 43.3321 34.7273 39.1628 34.7273 39.1628L35.9828 39.0011C36.3542 38.9537 36.8273 38.8943 36.9683 38.8876C37.2633 38.8753 37.3921 38.7084 37.1668 38.6407C37.0043 38.5932 36.6286 38.5556 36.4385 38.551C36.366 38.5502 36.234 38.5486 36.1552 38.5473C35.8646 38.5422 35.7816 38.4849 35.7177 38.0566C35.5368 36.8003 34.8369 33.6863 34.3344 32.0446C33.848 30.4607 33.7278 30.0047 33.6107 29.6559C33.5083 29.3556 33.7067 29.3372 33.802 29.3415C34.1564 29.3585 34.6473 29.5425 34.7881 29.8457C35.0996 30.5212 37.2307 36.103 38.0864 38.1839C38.6262 39.4948 39.255 41.0729 39.8489 42.4787C40.2294 42.1659 40.5964 41.8364 40.956 41.4999C39.8505 39.0694 37.3894 33.5631 36.0918 30.7766C36.0451 30.6763 35.982 30.5139 35.9502 30.4185C35.9392 30.3867 35.9345 30.3583 35.9345 30.3332C35.9361 30.1555 36.1712 30.1307 36.2875 30.142C36.7456 30.1879 40.907 30.4623 42.0432 30.5708C42.7929 30.6417 43.5409 30.7561 44.0406 30.8452C44.1564 30.8667 44.2584 30.886 44.3444 30.903C44.4512 30.9243 44.5313 30.9412 44.5832 30.9555C44.9539 31.0521 45.6078 31.3108 46.2132 31.6355C46.4636 31.7689 46.7486 31.9633 47.054 32.1977C47.146 31.9364 47.2377 31.6747 47.3211 31.4102C47.1032 31.259 46.8582 31.1046 46.6179 30.9755C45.9265 30.607 45.343 30.3726 44.7105 30.2318ZM10.8256 16.4316C10.7124 16.4803 10.6102 16.4932 10.532 16.339C10.3422 15.9638 10.198 15.2956 10.143 14.8615C10.0864 14.4278 9.99964 13.1331 10.027 12.4257C10.0572 11.7179 9.919 11.3223 9.66604 10.9838C9.41244 10.6457 9.2494 10.411 9.18716 10.2971C9.10892 10.155 9.16124 10.0579 9.31084 9.94938C9.38348 9.8985 9.5318 9.92906 9.64652 9.90522C9.8734 9.85962 10.631 9.5849 11.1955 9.14218C11.7587 8.69946 12.6563 7.84314 13.2654 7.51354C13.8726 7.18394 14.1422 7.0337 14.8529 6.94842C14.979 6.9337 15.1681 7.00106 14.9547 7.16346C14.7414 7.32586 14.0574 7.56826 13.2598 8.77178C12.77 9.5081 12.6902 9.93338 12.5352 10.2638C12.3793 10.594 12.2304 10.6875 11.9838 10.9548C11.8638 11.0823 11.6193 11.3503 11.5312 11.739C11.4456 12.1279 11.0915 13.4982 11.2995 15.5707C11.324 15.8119 11.4233 16.1331 11.1971 16.2499C11.0574 16.3223 10.9376 16.3838 10.8256 16.4316ZM11.8022 19.2241C11.6817 19.1385 11.1892 18.4718 10.9494 17.7308C10.923 17.6526 10.8942 17.4535 11.024 17.3967C11.1304 17.3511 11.2716 17.2692 11.3451 17.2343C11.4195 17.1969 11.6049 17.1483 11.6305 17.4156C11.6564 17.6836 11.6798 17.9995 11.9852 18.79C12.0406 18.9313 12.052 18.9755 12.0664 19.0321C12.1059 19.1963 11.9137 19.3035 11.8022 19.2241ZM12.8054 16.7063C12.7728 16.7119 12.4348 16.7527 12.2526 16.7868C12.1395 16.8076 12.023 16.8499 12.01 16.7409C11.9948 16.6171 11.9585 16.4535 11.9478 16.4094C11.938 16.3635 11.9601 16.3199 12.0148 16.307C12.1491 16.2759 12.6678 16.1887 12.7179 16.1862C12.768 16.1855 12.8187 16.2025 12.8404 16.3063C12.8601 16.4105 12.8851 16.5214 12.891 16.5665C12.8971 16.6129 12.91 16.6903 12.8054 16.7063ZM12.9897 15.0139C12.9585 14.8559 12.9148 14.5855 12.9289 14.4172C12.9337 14.3502 12.954 14.1825 13.0345 14.0921C13.1483 13.9631 13.2995 13.8459 13.3976 13.7665C13.576 13.6204 13.5388 13.2423 13.5518 13.0254C13.5912 12.3951 13.5352 10.4049 14.8267 8.50074C14.8764 8.42842 14.9272 8.3617 14.9771 8.29866C14.9923 8.27978 15.0075 8.26234 15.0227 8.24378C15.0598 8.2001 15.0968 8.15802 15.135 8.11914C15.151 8.1017 15.1668 8.08506 15.1836 8.06906C15.2292 8.0241 15.2756 7.98122 15.3219 7.94234C15.3286 7.93706 15.3345 7.93114 15.3408 7.9257C15.3931 7.88346 15.4456 7.84522 15.4977 7.8089C15.5166 7.79658 15.5355 7.78442 15.5544 7.77338C15.5904 7.7497 15.6267 7.72842 15.663 7.70778C15.6836 7.69658 15.7041 7.68506 15.7252 7.67434C15.7649 7.65402 15.8057 7.63498 15.846 7.6169C15.8614 7.6105 15.8764 7.60314 15.8916 7.5961C15.944 7.57418 15.9977 7.55466 16.051 7.53642C16.0739 7.52858 16.096 7.52202 16.1185 7.51498C16.1544 7.50378 16.19 7.49306 16.2257 7.48314C16.2379 7.4801 16.2491 7.47578 16.2614 7.47274C16.2614 7.47338 16.2614 7.47338 16.2614 7.47418C16.5243 7.4041 16.7939 7.36474 17.0662 7.3185C17.835 7.18794 18.7312 7.31002 19.1921 7.45674C19.5585 7.57274 19.7441 7.6617 19.8667 7.54602C19.9897 7.43082 20.3107 7.06698 20.4468 6.93802C20.4656 6.91978 20.4803 6.89978 20.4904 6.8801C20.4945 6.87338 20.4968 6.8665 20.4998 6.85978C20.5048 6.84682 20.5091 6.83306 20.5112 6.81946C20.512 6.8121 20.5136 6.80426 20.5136 6.7961C20.5136 6.78314 20.512 6.77018 20.5099 6.75642C20.5084 6.7497 20.5084 6.74202 20.5051 6.7353C20.5001 6.71642 20.4918 6.69818 20.4804 6.68074C20.4505 6.63098 20.403 6.58666 20.3441 6.5513C20.1947 6.46346 18.6942 5.36234 16.6715 5.31306C14.695 5.26362 13.0908 5.96298 12.6654 6.10938C12.5793 6.13834 12.5352 6.15354 12.4846 6.15418C12.4345 6.15562 12.262 6.09674 12.3259 5.9721C12.396 5.83898 12.5713 5.63402 12.7536 5.46794C12.9448 5.29562 13.88 4.4153 14.8036 4.00762C14.9745 3.93274 15.0161 3.90154 15.1256 3.85898C15.2654 3.80602 15.3481 3.49082 15.0392 3.49002C14.7225 3.48778 14.5964 3.5233 14.4292 3.54938C14.2617 3.57722 14.1697 3.50234 14.2755 3.35882C14.38 3.21578 14.5865 3.05706 14.9593 2.85466C15.7688 2.41354 17.2494 1.94858 17.9494 1.79546C18.8622 1.59562 18.9737 1.58266 19.5795 1.54554C20.146 1.5129 20.5992 1.5529 20.8136 1.56154C22.6284 1.6305 24.7185 2.23114 26.3366 3.29658C27.8752 4.42858 30.0894 6.3145 30.5283 10.97C30.5809 11.5287 30.544 11.8454 30.5224 11.9852C30.5032 12.1251 30.3444 12.3822 30.2051 12.0902C29.746 11.1281 29.0364 9.86906 28.2356 8.67562C28.1881 8.60474 28.1398 8.57066 28.1006 8.56554C28.0841 8.56218 28.0702 8.5649 28.0561 8.57082C28.0526 8.57306 28.0502 8.57674 28.0465 8.5793C28.0388 8.58522 28.0307 8.59258 28.0248 8.60266C28.0217 8.6097 28.018 8.61706 28.0158 8.62458C28.0121 8.63466 28.0099 8.64602 28.0084 8.65722C28.0068 8.6673 28.0052 8.67658 28.0052 8.68698C28.0052 8.71066 28.0068 8.73674 28.0136 8.76522C28.0336 8.8497 28.2886 10.1121 28.298 10.2879C28.3091 10.4633 28.2232 10.8937 28.8771 11.6879C29.1441 12.0139 29.3812 12.2923 29.503 12.7731C29.623 13.2521 29.6638 13.4571 29.6646 13.5079C29.6664 13.558 29.724 13.7007 29.4926 13.7022C29.2627 13.7028 28.3848 13.6391 28.0091 13.6476C27.6331 13.6566 25.038 13.9111 24.0726 14.1163C23.107 14.3217 22.5875 14.5649 22.0916 15.0859C21.9723 15.2111 21.8054 15.3279 21.7675 15.3387C21.7316 15.3487 21.6057 15.346 21.3596 15.3294C21.1145 15.3134 20.6894 15.3735 20.4662 15.4743C20.2416 15.5748 20.0814 15.6683 19.8108 15.558C19.4241 15.4015 18.7608 14.6871 17.0384 14.7713C16.0016 14.822 15.4704 14.8503 14.7508 14.9567C14.7089 14.9635 14.6656 14.9697 14.6225 14.9764C14.5952 14.9809 14.5668 14.9852 14.5388 14.99C14.5236 14.9923 14.5078 14.9945 14.4918 14.9974C14.1988 15.0452 13.868 15.1068 13.4595 15.1865C13.4028 15.1972 13.3472 15.2087 13.2886 15.2198C13.1294 15.2516 13.0193 15.1803 12.9897 15.0139ZM28.8497 14.5697C28.8497 14.6246 28.783 14.6814 28.7147 14.6929C28.6472 14.7036 28.1838 14.746 28.1097 14.7515C28.0371 14.7566 27.9659 14.7166 27.9598 14.6481C27.9539 14.5806 27.9388 14.4204 27.9347 14.3785C27.9272 14.3391 27.9256 14.2843 28.02 14.2721C28.0748 14.2654 28.558 14.222 28.7363 14.2009C28.803 14.1931 28.8467 14.2532 28.8483 14.3116C28.8483 14.3702 28.8483 14.5153 28.8497 14.5697ZM26.6824 15.0899C26.539 14.9891 26.287 14.8303 26.1344 14.7747C26.0291 14.7369 26.0659 14.6052 26.216 14.5841C26.738 14.5081 27.0729 14.5081 27.3326 14.6702C27.5225 14.7878 27.6486 15.0161 27.5905 15.2174C27.5222 15.4484 27.4318 15.3983 27.3184 15.3964C27.2049 15.3943 26.824 15.1911 26.6824 15.0899ZM26.9841 16.1084C26.8923 16.1703 26.592 16.1151 26.4828 16.0724C26.259 15.9846 26.1001 15.9238 25.7888 15.7262C25.5854 15.5972 25.232 15.5334 24.9227 15.6268C24.7188 15.6884 24.555 15.7399 24.3755 15.8092C24.1956 15.8782 24.1588 15.7143 24.2059 15.6443C24.2523 15.5743 24.5369 15.2411 24.9145 15.0993C24.9939 15.0689 25.1555 15.0523 25.2348 15.0507C25.4782 15.0436 25.7798 15.1623 26.0083 15.3291C26.2387 15.4971 26.6044 15.771 26.8448 15.8737C26.9574 15.9222 27.202 15.9579 26.9841 16.1084ZM19.4779 24.2129C18.5672 24.5318 18.3118 24.2115 18.2307 24.1164C18.1499 24.0215 18.2496 23.9289 18.346 23.8839C18.5627 23.7831 18.8526 23.5636 18.999 23.4207C19.1462 23.278 19.4321 22.7812 19.6385 22.6067C19.7364 22.5233 20.2654 22.3435 20.6633 22.5332C21.1364 22.7587 21.8731 22.782 22.3254 22.7231C22.7774 22.6623 22.9497 22.3319 23.0478 22.1369C23.1456 21.9401 23.3854 21.8681 23.5115 21.8163C23.8585 21.6743 24.3179 21.1982 24.3649 21.1497C24.412 21.0996 24.5552 21.0292 24.7828 21.1627C25.1972 21.4062 25.408 21.7284 25.7928 22.1655C26.1776 22.603 26.6329 22.6713 26.7664 22.6798C26.9 22.6883 26.983 22.843 26.9891 22.8855C26.9964 22.9281 26.8852 23.0761 26.8022 23.1383C26.7188 23.2006 26.6729 23.3108 25.9361 23.3283C22.2388 23.4195 20.5752 23.8289 19.4779 24.2129ZM24.4926 24.6579C24.2732 24.7713 23.6208 25.0172 23.296 25.0798C22.97 25.1423 21.936 25.3519 21.7614 25.366C21.5441 25.3828 21.2396 25.3177 20.9753 25.1369C20.9222 25.1003 20.85 24.9582 21.0428 24.9297C21.4006 24.8766 21.9782 24.6081 24.0793 24.5011C24.3051 24.4894 24.4112 24.4847 24.4652 24.4835C24.5193 24.4823 24.7136 24.5444 24.4926 24.6579ZM19.6248 29.3227C18.891 29.4436 16.9376 28.8705 15.6675 25.7361C15.3401 24.9299 15.6992 24.1276 16.0142 23.9654C16.2011 23.8705 16.3022 23.8319 16.3659 23.8159C16.435 23.7985 16.7675 23.7551 16.8052 24.1292C16.8352 24.4318 17.4225 26.9159 18.2123 27.7374C18.407 27.9411 18.5609 27.9286 18.6112 27.7182C18.6544 27.5254 18.7395 27.2718 18.7643 27.1751C18.7817 27.1054 18.9723 26.8948 19.0803 27.1633C19.3126 27.7331 19.5929 28.479 19.7771 28.7777C19.9572 29.0692 19.8993 29.2772 19.6248 29.3227ZM19.7696 21.1271C19.8385 21.2228 19.8812 21.3967 19.876 21.4735C19.8689 21.5622 19.5659 21.723 19.2508 21.3694C18.9356 21.015 18.9972 20.5252 19.1276 20.3172C19.3356 19.9854 19.7443 20.1507 19.7048 20.2691C19.5683 20.679 19.6995 21.0308 19.7696 21.1271ZM17.428 16.5372C17.1923 16.5295 16.9387 16.5006 16.5084 16.6599C16.0268 16.8379 15.7172 17.07 15.4932 17.2075C15.263 17.351 15.0193 17.4126 14.9377 17.4185C14.8566 17.4255 14.5609 17.3867 14.7646 17.1726C14.8187 17.114 14.9484 17.0699 15.1454 16.9263C15.2862 16.8227 15.3905 16.7487 15.5507 16.6139C15.8361 16.3707 16.4179 16.0191 16.6715 15.9879C16.8576 15.9657 17.1865 16.0009 17.3822 16.1611C17.5859 16.3283 17.6641 16.5447 17.428 16.5372ZM13.3756 16.9548C13.4004 16.8006 13.5691 16.3939 13.9244 16.2759C13.9723 16.2615 14.1494 16.2039 14.2974 16.1659C14.472 16.1219 14.6596 16.0831 14.7553 16.0659C15.0124 16.0211 15.0667 16.2167 14.9048 16.3443C14.7987 16.4287 14.6292 16.5388 14.4795 16.6601C14.2518 16.8463 14.0331 17.0534 13.864 17.194C13.658 17.3655 13.3244 17.2715 13.3756 16.9548ZM14.5828 21.3838C14.582 21.3831 14.5814 21.3823 14.5814 21.3823C14.58 21.3801 14.579 21.3787 14.5777 21.3767C14.514 21.2873 14.4545 21.1932 14.399 21.0975C14.3873 21.0764 14.3756 21.0548 14.3635 21.0337C14.3081 20.931 14.2563 20.8271 14.2155 20.7179C14.1358 20.5062 14.2692 20.475 14.3582 20.5211C14.447 20.5686 14.7068 20.7201 14.9844 20.7787C15.154 20.8135 15.2547 20.7323 15.2945 20.61C15.3004 20.5918 15.3081 20.5692 15.3164 20.5447C15.3212 20.534 15.3249 20.5225 15.3286 20.5107C15.3308 20.5036 15.3329 20.4963 15.3356 20.4884C15.3392 20.4751 15.3424 20.4622 15.3452 20.4484C15.3476 20.4414 15.3484 20.434 15.3497 20.427C15.3531 20.4129 15.3545 20.3991 15.3561 20.3847C15.3568 20.3777 15.3568 20.371 15.3576 20.3631C15.3576 20.3491 15.3561 20.3353 15.3545 20.3209C15.3537 20.3147 15.3529 20.3079 15.3513 20.302C15.348 20.2868 15.342 20.2724 15.3353 20.258C15.3324 20.2535 15.3312 20.2487 15.3289 20.2451C15.3192 20.2284 15.306 20.2131 15.2904 20.1987C15.2697 20.1806 15.244 20.1638 15.2107 20.1508C14.9689 20.0537 14.2835 19.8372 13.7688 18.8799C13.6942 18.7446 13.7648 18.6294 13.8148 18.5889C13.8651 18.5489 14.0443 18.4347 14.13 18.3817C14.2168 18.3286 14.3342 18.3347 14.4566 18.4191C14.5742 18.5033 14.8297 18.6894 15.0347 18.6713C15.2251 18.6527 15.2441 18.5747 15.278 18.5252C15.4123 18.3294 15.776 17.618 16.7291 17.6065C17.1224 17.6014 17.4907 17.6377 17.6225 17.6295C17.7529 17.6211 18.218 17.5791 18.492 17.3927C18.7617 17.2073 18.8768 17.3407 18.7209 17.5436C18.6977 17.574 18.6768 17.6007 18.6571 17.6275C18.6494 17.6371 18.6435 17.6455 18.6364 17.6545C18.6153 17.6827 18.5971 17.7094 18.5811 17.735C18.5217 17.8355 18.5144 17.9225 18.6251 18.0419C18.799 18.2268 18.8443 18.2599 18.9008 18.3036C18.9259 18.3236 18.956 18.3355 18.991 18.3363C19.0054 18.3363 19.0214 18.3332 19.0374 18.3289C19.0441 18.3267 19.0507 18.3267 19.0585 18.3238C19.0825 18.3131 19.108 18.2985 19.136 18.2748C19.2353 18.187 19.302 18.1347 19.3888 18.0227C19.4532 17.9399 19.5078 18.0233 19.4918 18.1527C19.4792 18.2535 19.5244 18.9006 18.8193 19.6961C18.7963 19.7228 18.7427 19.767 18.676 19.8236C18.66 19.8366 18.6449 19.8495 18.6275 19.8647C18.6188 19.8721 18.61 19.8807 18.6014 19.8881C18.5793 19.9073 18.5574 19.9278 18.5347 19.9489C18.5166 19.9655 18.4982 19.9855 18.4798 20.0038C18.4609 20.0227 18.4427 20.0401 18.4236 20.0604C18.4121 20.0727 18.4006 20.0871 18.3888 20.1009C18.3651 20.1276 18.3409 20.1547 18.3172 20.1843C18.3099 20.1943 18.3028 20.2046 18.2961 20.214C18.2694 20.2489 18.2435 20.2841 18.2201 20.3211C18.1902 20.3689 18.1624 20.419 18.138 20.4711C17.9419 20.8897 17.9673 21.0278 17.946 21.1804C17.9268 21.3316 17.8094 21.3918 17.6772 21.4529C17.5976 21.4895 17.3864 21.6116 17.1523 21.7887L17.1536 21.7876C17.0835 21.8403 17.0121 21.8988 16.9414 21.9593C16.9278 21.9716 16.9147 21.983 16.902 21.9953C16.8313 22.0575 16.7616 22.1236 16.6971 22.1924C16.6544 22.2374 16.6104 22.2769 16.5662 22.3126C16.551 22.3244 16.5369 22.3337 16.5219 22.3444C16.4908 22.367 16.4587 22.3881 16.427 22.4067C16.4104 22.4164 16.3924 22.4255 16.376 22.4331C16.344 22.4491 16.3121 22.462 16.2793 22.4734C16.262 22.4793 16.2452 22.4865 16.228 22.4908C16.2193 22.4931 16.2113 22.4967 16.2035 22.4993C16.1832 22.5038 16.1627 22.5044 16.1424 22.5075C16.1171 22.5119 16.092 22.5167 16.0662 22.5182C16.038 22.5196 16.0092 22.5182 15.9803 22.5167C15.9555 22.514 15.9302 22.514 15.906 22.5111C15.8763 22.5067 15.8468 22.4974 15.8177 22.4892C15.7931 22.4828 15.7684 22.4777 15.7433 22.4689C15.7155 22.4582 15.688 22.4428 15.66 22.4292C15.6332 22.4163 15.6076 22.4059 15.5817 22.3899C15.5793 22.3879 15.5766 22.3873 15.5744 22.3859C15.5273 22.3561 15.4793 22.3214 15.4313 22.282C15.3076 22.1756 15.1721 22.0518 15.038 21.9167C15.0345 21.9127 15.031 21.9091 15.0275 21.906C15.0238 21.9023 15.0201 21.8979 15.0168 21.8937C14.9478 21.8239 14.8788 21.7495 14.8118 21.6719C14.806 21.6647 14.6496 21.4764 14.5828 21.3838ZM23.0574 36.2497C23.014 36.475 22.8302 37.2342 22.1553 38.7966C22.1097 38.9019 22.0654 39.0035 22.0222 39.1015C22.0118 39.1246 22.0011 39.1465 21.991 39.1697C21.9744 39.2073 21.9569 39.2454 21.9404 39.2807C21.9388 39.2838 21.938 39.2867 21.9368 39.2897C21.9123 39.3441 21.8875 39.395 21.8622 39.4457C21.8622 39.4457 21.8608 39.4471 21.8608 39.4489C21.8576 39.4548 21.854 39.4614 21.85 39.4679C21.8411 39.4857 21.8318 39.503 21.823 39.5198C21.8108 39.5423 21.7993 39.5665 21.7864 39.5883C21.7864 39.5905 21.7856 39.5913 21.7849 39.5924C21.7819 39.5969 21.779 39.6014 21.776 39.6073C21.7644 39.6273 21.7478 39.6564 21.747 39.6577C21.7454 39.6607 21.7433 39.6635 21.7417 39.6667C21.7417 39.6667 21.7417 39.6667 21.7417 39.6683C21.7331 39.6807 21.7256 39.6934 21.718 39.7052C21.7158 39.7094 21.7137 39.7142 21.7113 39.7177C21.7099 39.7193 21.7088 39.7212 21.7065 39.7235C21.6963 39.7404 21.6854 39.7563 21.6748 39.7739C21.6724 39.7763 21.6704 39.7782 21.6689 39.7806C21.6568 39.7983 21.6444 39.8156 21.6324 39.8324C21.6318 39.8324 21.6299 39.8356 21.6278 39.8367C21.6176 39.851 21.6065 39.8651 21.596 39.8783C21.5928 39.8815 21.5908 39.8843 21.5886 39.8859C21.5764 39.9022 21.5635 39.915 21.5521 39.9291C21.5504 39.9291 21.5488 39.9313 21.5475 39.9332C21.5408 39.9399 21.5329 39.9467 21.5262 39.954H21.5256C21.522 39.9585 21.5177 39.9622 21.5132 39.9659C21.511 39.9681 21.5075 39.9702 21.5051 39.9734C21.4921 39.9851 21.4798 39.9966 21.4668 40.0052C21.4654 40.0067 21.4646 40.0075 21.4625 40.0084C21.451 40.018 21.4388 40.0259 21.4267 40.0334C21.4233 40.0356 21.4206 40.0377 21.4174 40.0393C21.4152 40.0407 21.4129 40.0415 21.4115 40.0425C21.4089 40.0447 21.4067 40.046 21.4044 40.046C21.3955 40.0519 21.3862 40.0571 21.3769 40.0625C21.3769 40.0625 21.3755 40.0625 21.3739 40.0631C21.362 40.0697 21.3491 40.0742 21.3353 40.0788C21.3321 40.0804 21.3289 40.082 21.3252 40.0831C21.3108 40.0875 21.2971 40.0915 21.2819 40.095C21.1417 40.1252 20.9918 40.1468 20.9041 40.1619C20.8912 40.1631 20.8014 40.1782 20.794 40.1809C20.7574 40.1862 20.7179 40.1921 20.6755 40.1995C20.6755 40.1995 20.6755 40.1995 20.6755 40.1987C19.6625 40.3692 16.9072 40.8436 15.6291 41.1019C14.7812 41.2711 14.8646 40.8441 14.6518 40.0734C14.5624 39.7494 14.2475 36.8828 14.4112 35.0836C14.466 34.4862 14.4923 34.3111 14.5995 34.2452C14.7065 34.1791 14.8705 34.0724 14.9198 34.0583C14.9678 34.0457 15.1139 34.0071 15.182 34.1302C15.2488 34.2518 16.4862 36.7623 17.295 37.6716C18.0126 38.482 18.5171 39.0699 19.122 39.4646C19.162 39.4913 19.1964 39.5078 19.2276 39.518C19.2307 39.5195 19.2344 39.5214 19.2379 39.5223C19.2523 39.5267 19.2652 39.5289 19.2776 39.5305C19.2897 39.5321 19.3009 39.5313 19.3116 39.5305C19.3148 39.5299 19.3176 39.5299 19.3208 39.5289C19.3408 39.5246 19.3568 39.5148 19.3689 39.5023C19.3704 39.5007 19.372 39.4987 19.3742 39.4964C19.3856 39.4823 19.3939 39.4646 19.398 39.4454C19.3988 39.4423 19.3988 39.4387 19.3988 39.4355C19.4155 39.342 19.371 39.2004 19.2822 39.1043C19.1488 38.9604 18.596 38.3916 17.8678 37.3558C16.9259 36.0188 16.2876 34.0457 16.116 33.4137C16.0036 32.9999 15.9406 32.3475 15.951 31.8268C15.9504 31.8268 15.9496 31.8268 15.9496 31.8268C15.9504 31.8038 15.951 31.7838 15.9523 31.7617C15.9529 31.7452 15.9537 31.7292 15.9547 31.7119C15.9561 31.6769 15.9577 31.6422 15.9596 31.6087C15.9633 31.5596 15.967 31.5121 15.9728 31.4678C15.9752 31.4484 15.9779 31.4313 15.9801 31.4127C15.9849 31.3819 15.9896 31.3519 15.994 31.3244C15.9971 31.3079 16.0003 31.2926 16.0041 31.2777C16.0123 31.2377 16.0216 31.2007 16.0331 31.1686C16.1796 30.7499 16.302 30.7948 16.4316 30.9351C16.5616 31.0767 17.7308 32.1379 19.6587 33.0017C20.0681 33.1849 20.3123 33.2692 20.3681 33.3295C20.4233 33.3879 20.5115 33.5119 20.3363 33.5532C20.1632 33.5942 19.6489 33.6124 19.1105 33.8252C19.0793 33.8379 19.0505 33.8505 19.0241 33.8622C18.8358 33.9467 18.7475 34.0315 18.7075 34.1225C18.6996 34.1401 18.6937 34.159 18.6894 34.1775C18.686 34.19 18.683 34.2049 18.6816 34.2183C18.6792 34.239 18.6784 34.2598 18.6792 34.2806C18.6792 34.2942 18.6784 34.3083 18.6798 34.3223C18.6814 34.3489 18.6843 34.3758 18.6872 34.4039C18.6936 34.4515 18.7001 34.5004 18.7049 34.5542C18.7334 34.8463 18.784 35.0548 18.8211 35.4455C18.8574 35.8377 18.8348 36.1921 19.026 36.3575C19.2166 36.5207 19.4768 36.6177 20.1716 36.4828C20.8308 36.3543 21.0504 36.2982 21.1284 36.2959C21.2051 36.2935 21.3902 36.2625 21.2771 36.4783C21.2664 36.4991 21.2523 36.5243 21.2356 36.5548C21.0836 36.8254 20.7155 37.4351 20.59 37.8414C20.451 38.2892 20.4228 38.4131 20.4107 38.4895C20.3995 38.5665 20.4526 38.7148 20.5894 38.5489C20.7259 38.3827 20.9961 37.7636 21.675 36.9755C21.766 36.8702 21.8496 36.7775 21.928 36.6921C21.9286 36.6921 21.9294 36.6905 21.931 36.6889C21.9924 36.623 22.0496 36.563 22.1041 36.5079C22.1193 36.4923 22.1337 36.4782 22.1483 36.4644C22.1947 36.4193 22.238 36.3777 22.2785 36.3383C22.2892 36.3292 22.3009 36.3183 22.3104 36.3092C22.4116 36.2175 22.4987 36.1468 22.5747 36.0915C22.5824 36.0871 22.5891 36.0823 22.5961 36.0774C22.6254 36.0558 22.6544 36.0364 22.6811 36.0203C22.6884 36.0159 22.6963 36.0107 22.7036 36.0054C22.7304 35.9889 22.7556 35.9753 22.779 35.9623C22.7827 35.9591 22.7884 35.9564 22.7926 35.9542C22.7958 35.9532 22.7979 35.951 22.8 35.9499C22.8275 35.9372 22.8504 35.9238 22.8737 35.9132C23.0633 35.8198 23.1148 35.9494 23.0574 36.2497ZM24.1812 39.6993C24.0724 39.7244 23.6025 39.7958 23.5299 39.7969C23.4584 39.7987 23.3976 39.7318 23.428 39.6804C23.4582 39.63 23.7817 39.2091 23.9595 38.4763C23.9894 38.3569 24.0641 38.2739 24.1126 38.4454C24.15 38.5707 24.2952 39.1935 24.3286 39.4279C24.3336 39.4689 24.3587 39.6577 24.1812 39.6993ZM24.3784 33.7241C24.0696 33.8399 23.7262 33.4929 23.4483 33.3075C22.8236 32.8804 22.2489 32.4689 21.7774 31.8927C21.0552 31.011 21.1227 30.3963 21.3324 29.2572C21.4782 28.4481 21.2139 27.6873 21.1563 27.5801C21.0992 27.4726 21.1636 27.3635 21.3345 27.4435C21.5052 27.5238 21.6686 27.7729 21.844 27.9865C22.0179 28.2001 22.0564 28.0483 22.0708 27.9031C22.1041 27.5681 22.0286 27.2998 21.9868 27.1441H21.9859C21.9836 27.1366 21.9817 27.1271 21.9801 27.119C21.9556 27.0262 21.8692 26.8193 21.6875 26.7817C21.444 26.7305 21.2046 26.7089 21.0747 26.6155C21.0142 26.5719 20.9454 26.483 21.0136 26.4177C21.1376 26.2975 21.3177 26.1382 21.4889 26.0796C21.7217 25.9996 21.9456 25.8779 22.2404 25.8795C24.2305 25.8921 24.7672 25.4316 25.528 25.1159C25.6771 25.0534 25.7665 25.0255 25.8942 25.0655C26.0225 25.1041 26.3704 25.2348 26.4582 25.3894C26.5465 25.5446 26.562 26.1911 26.732 26.6575C26.8995 27.1254 27.1849 26.6406 27.2475 26.4404C27.3075 26.2393 27.331 25.7612 27.3342 25.6403C27.3372 25.5193 27.3726 25.0092 27.5328 24.8372C27.8508 24.4975 27.9257 24.0956 27.9643 23.9385C27.9984 23.7975 28.0251 23.4035 27.9553 22.8436C27.9478 22.7747 27.9376 22.7023 27.9254 22.6283C27.8179 21.9531 27.682 21.8959 27.499 21.7732C27.3153 21.6508 27.123 21.7039 26.6555 21.3836C26.2372 21.0959 25.8576 20.5932 25.5409 20.2865C25.2256 19.9803 24.7268 19.6723 24.2008 19.618C24.1675 19.615 24.1384 19.6143 24.1116 19.6143C24.1094 19.6143 24.1081 19.6143 24.1057 19.6143C24.0824 19.6158 24.0603 19.6174 24.0414 19.6214C24.0377 19.622 24.0355 19.6236 24.0313 19.6244C24.0147 19.6275 23.9995 19.6318 23.9865 19.6371C23.983 19.6396 23.9798 19.6419 23.9755 19.6435C23.9654 19.6494 23.9555 19.655 23.9473 19.6615C23.9436 19.6652 23.9406 19.6689 23.9366 19.6731C23.9307 19.679 23.9248 19.6854 23.9206 19.6927C23.9169 19.6979 23.9147 19.7043 23.9115 19.7102C23.9092 19.7166 23.9059 19.7217 23.9044 19.7276C23.9014 19.7369 23.9 19.7459 23.8985 19.7558C23.8985 19.7595 23.8979 19.7625 23.8979 19.7665C23.8971 19.7795 23.8971 19.7929 23.8985 19.8065H23.8979C23.9086 19.9366 24.0024 20.0953 24.0262 20.1606C24.0595 20.2492 24.1436 20.5203 23.9944 20.6782C23.844 20.8361 22.9646 21.6228 22.1411 21.6031C21.7689 21.5947 21.4584 21.5182 21.1977 21.407C21.1992 21.4084 21.2001 21.4095 21.2009 21.411C21.1899 21.4062 21.1806 21.4003 21.1691 21.395C21.1068 21.3676 21.0478 21.3379 20.9915 21.3067C20.9825 21.3015 20.9718 21.2971 20.9617 21.2915C20.8985 21.2551 20.8406 21.2169 20.7854 21.1777C20.7688 21.1654 20.7528 21.1532 20.7368 21.1414C20.6948 21.1095 20.6548 21.0769 20.6174 21.0435C20.6064 21.0334 20.5936 21.0235 20.5825 21.0137C20.5377 20.971 20.4961 20.9292 20.4572 20.8876C20.4476 20.8761 20.4392 20.8654 20.4294 20.855C20.3996 20.8206 20.3724 20.7863 20.3462 20.7531C20.338 20.7423 20.3302 20.7327 20.3228 20.7219C20.2932 20.6799 20.2659 20.6399 20.2425 20.6014C20.2393 20.5966 20.2377 20.5929 20.2347 20.5884C20.2144 20.5532 20.1969 20.5198 20.1816 20.4894C20.1779 20.4812 20.1739 20.4739 20.17 20.4652C20.1548 20.4326 20.1419 20.4007 20.1331 20.374C20.0129 20.0126 20.3113 19.1583 20.3008 18.5467C20.2971 18.2787 20.2417 17.7644 20.2006 17.4076C20.1596 17.0507 20.3478 16.5702 20.4353 16.4537C20.455 16.4281 20.4846 16.4036 20.5187 16.3796C20.5273 16.3732 20.5369 16.3681 20.546 16.3622C20.5779 16.3414 20.6144 16.3217 20.6556 16.3036C20.6616 16.3006 20.6672 16.2977 20.6739 16.2943C20.7142 16.2777 20.7572 16.2603 20.8041 16.2451V16.2473C20.8809 16.2209 20.9636 16.1964 21.0542 16.1761C21.3475 16.1108 21.6904 16.2559 21.7785 16.498C22.0851 17.3425 22.4248 17.5209 22.5385 17.5761C22.654 17.6324 22.8355 17.4652 22.9067 17.4036C22.9782 17.3439 23.1505 17.1174 23.074 17.018C22.9561 16.8671 22.8915 16.7745 22.8574 16.6803C22.7996 16.5209 23.008 16.5175 23.0572 16.5398C23.6849 16.8057 23.9856 16.8615 24.5932 16.8412C25.1998 16.8223 26.1433 16.4227 26.2601 16.4204C26.3553 16.4182 26.5435 16.4767 26.614 16.5747C26.6257 16.5913 26.6416 16.615 26.6564 16.6383C26.7172 16.7287 26.7988 16.85 26.8715 16.8753C26.8747 16.8759 26.8766 16.8775 26.8796 16.8783C26.9696 16.9006 27.1836 16.8843 27.2971 16.8891C27.4505 16.8943 27.7168 16.8412 27.7092 17.123C27.6923 17.8753 27.0976 18.3446 27.0435 18.3902C27.0227 18.4091 27.0108 18.4332 27.0001 18.4577C26.9971 18.4644 26.9913 18.4715 26.99 18.4788C26.9868 18.4926 26.9841 18.5063 26.9841 18.5193C26.9841 18.5329 26.9857 18.5452 26.9886 18.5556C27.0027 18.6004 27.067 18.7628 27.0945 18.807C27.1043 18.823 27.1161 18.8382 27.1313 18.8526C27.135 18.8563 27.1412 18.8593 27.1456 18.8633C27.1574 18.8723 27.1691 18.8807 27.1825 18.8867C27.1892 18.8903 27.1982 18.8911 27.206 18.8937C27.2185 18.8967 27.2328 18.8996 27.247 18.8988C27.256 18.8988 27.267 18.8958 27.276 18.8937C27.2982 18.8889 27.319 18.8844 27.3427 18.87C27.8467 18.5686 28.0516 18.2123 28.271 17.7644C28.4897 17.3187 28.6048 15.8465 28.6174 15.6051C28.6299 15.3619 28.7064 15.2124 28.8257 15.1147C28.9443 15.0164 29.5331 14.6393 29.6161 14.6201C29.7006 14.6004 29.7971 14.5923 29.892 14.8118C29.9886 15.0327 30.199 16.39 30.239 16.5987C30.2843 16.8204 30.3992 16.794 30.4571 16.7515C30.583 16.6595 30.6742 16.5463 30.7864 16.3537C30.9022 16.1609 30.8174 15.895 30.7048 15.7711C30.5937 15.6467 30.4177 15.4478 30.4926 15.2503C30.6632 14.8017 31.0216 14.8243 31.1177 14.8403C31.212 14.8563 31.5752 15.0198 31.6408 15.9974C31.7356 17.4455 31.1451 18.943 31.0043 19.3227C30.6929 20.1668 30.6276 20.7415 30.5795 21.0151C30.5328 21.2876 30.3259 21.2383 30.2761 21.1942C30.2257 21.1502 30.1611 20.9391 30.1292 20.9079C30.0966 20.8767 30.015 20.8927 29.9616 21.1252C29.9083 21.3572 29.7304 21.6795 29.6262 21.8548C29.5564 21.9686 29.5694 22.1318 29.5862 22.2585C29.6174 22.5047 29.7456 23.4468 29.7064 24.5179C29.6353 26.4235 28.9982 27.6238 28.523 28.2521C27.4049 29.7307 26.3563 30.3486 26.2304 30.4363C26.0686 30.5491 25.798 30.5315 25.7075 30.5015C25.6155 30.4756 25.5347 30.3806 25.3627 30.2579C25.3486 30.2468 25.3345 30.2409 25.3227 30.2347C25.186 30.1715 25.1656 30.3638 25.1668 30.414C25.1684 30.4675 25.2512 30.6654 25.2979 30.8574C25.3872 31.2193 25.186 31.6567 24.9792 32.002C24.684 32.4902 24.3545 33.0268 24.4233 33.6164C24.4225 33.6689 24.4225 33.7071 24.3784 33.7241ZM33.8532 34.2878C34.0217 35.2564 34.2113 36.4367 34.4256 37.8836C34.4366 37.9599 34.4448 38.0252 34.4507 38.086C34.4523 38.0935 34.4539 38.1019 34.4539 38.1091C34.4598 38.1662 34.4628 38.2183 34.4628 38.2611C34.4628 38.2655 34.4622 38.2694 34.4622 38.2729C34.4622 38.2921 34.4622 38.3129 34.4606 38.3294C34.4582 38.3459 34.4555 38.3596 34.4523 38.3739C34.4523 38.3796 34.4507 38.3855 34.4507 38.3908C34.4433 38.4204 34.4332 38.4457 34.4198 38.4671C34.4182 38.4703 34.4155 38.4731 34.4123 38.4774C34.4006 38.4939 34.3856 38.5086 34.3699 38.5206C34.3648 38.5243 34.3601 38.5281 34.3542 38.5324C34.3342 38.5451 34.3118 38.5561 34.2843 38.5651C34.2777 38.5681 34.268 38.5692 34.2592 38.5724C34.2384 38.5791 34.2156 38.5851 34.1908 38.5918C34.1753 38.595 34.16 38.5977 34.1441 38.602C34.1116 38.6086 34.0768 38.6155 34.0398 38.6227C33.9715 38.6367 33.8713 38.651 33.8019 38.6567C33.6817 38.6686 33.5416 38.6804 33.3889 38.6939C31.9132 38.8289 29.0252 39.1217 26.7116 39.4131C26.6681 39.4172 26.6235 39.422 26.576 39.4295C26.3958 39.4548 26.2913 39.426 26.2771 39.2492C26.266 39.0868 25.9953 37.4807 25.1776 36.1126C25.1025 35.9865 25.0233 35.862 24.9395 35.7414C24.8462 35.607 24.9848 35.5047 25.1168 35.5513C25.4873 35.6815 26.5136 36.1511 27.9774 37.1988C28.3512 37.4659 28.4483 37.5489 28.5321 37.6201C28.5432 37.6299 28.5604 37.6393 28.5758 37.6468C28.5817 37.6499 28.5884 37.6511 28.5958 37.6542C28.6059 37.6579 28.6188 37.6617 28.6315 37.6646C28.6382 37.666 28.6448 37.6676 28.6515 37.6681C28.6656 37.6697 28.6796 37.6703 28.6923 37.6697C28.6982 37.6697 28.7033 37.6697 28.7081 37.6697C28.7249 37.6673 28.7414 37.6622 28.7548 37.6539C28.7889 37.6324 28.8046 37.5908 28.7779 37.519C28.6868 37.2623 28.1972 36.7582 26.9449 35.5961C26.7662 35.4308 26.7632 35.3611 26.9484 35.3417C27.1331 35.3241 27.6352 35.3468 27.902 35.3358C28.1697 35.3241 28.7673 35.3075 28.6502 34.5254C28.5604 33.9196 28.49 33.2931 28.479 33.1055C28.4689 32.9187 28.436 32.5692 27.9985 32.5198C27.564 32.4699 26.8352 32.5708 26.1814 32.7999C26.0011 32.8625 25.9374 32.7793 26.0708 32.6575C26.2036 32.5367 27.3515 31.7899 28.3296 30.6667C29.4048 29.43 29.8777 28.5201 30.1462 27.6926C30.1947 27.5457 30.2566 27.5956 30.3168 27.6292C30.3761 27.6643 30.7795 27.9905 30.9225 28.7926C31.0627 29.5963 31.3408 30.7116 30.8507 33.6406C30.5814 35.2451 30.2523 36.1927 30.1758 36.419C30.0988 36.6428 30.2307 36.7691 30.379 36.5683C30.7246 36.0964 31.1816 34.7886 31.5672 33.2849C31.9468 31.8012 32.0844 30.5292 32.1427 29.7139V29.7131C32.1486 29.6382 32.1537 29.5678 32.1574 29.5003L32.1598 29.4729C32.163 29.407 32.1664 29.3436 32.1708 29.2868C32.1708 29.2519 32.1752 29.2244 32.1811 29.1993C32.1827 29.1918 32.1854 29.1859 32.1878 29.1793C32.1913 29.1681 32.1945 29.1556 32.1987 29.1467C32.1987 29.1451 32.2004 29.1451 32.2004 29.1436C32.2078 29.1295 32.2168 29.1177 32.2246 29.1086C32.2272 29.1055 32.2291 29.1027 32.2313 29.1011C32.2387 29.0945 32.2454 29.0915 32.2521 29.0879C32.2572 29.0855 32.2624 29.082 32.2672 29.0803C32.2713 29.0796 32.2745 29.0796 32.2788 29.0788C32.2872 29.0772 32.2953 29.0756 32.3025 29.0756C32.3056 29.0756 32.3084 29.0756 32.3121 29.0772C32.3158 29.0772 32.3206 29.0772 32.3233 29.0772C32.326 29.0772 32.3276 29.0796 32.3291 29.0796C32.3588 29.0847 32.386 29.0966 32.407 29.1055C32.4835 29.1355 32.8216 29.2331 32.9977 30.0443C33.0051 30.0769 33.0126 30.1124 33.0214 30.1478C33.0228 30.1596 33.0256 30.1729 33.0288 30.1847C33.0371 30.2174 33.0444 30.25 33.0523 30.2857L33.054 30.2916C33.2001 30.9294 33.4648 32.0329 33.8532 34.2878Z" fill="black"/>
<path d="M27.6143 35.6698H27.7787V36.0895H27.8781V35.6698H28.0421V35.5854H27.6143V35.6698Z" fill="black"/>
<path d="M28.3988 35.9458L28.2719 35.5854H28.1289V36.0895H28.2209V35.6838L28.3611 36.0895H28.4419L28.5798 35.6838V36.0895H28.6716V35.5854H28.5286L28.3988 35.9458Z" fill="black"/>
</g>
<defs>
<clipPath id="clip0">
<rect width="48" height="48" fill="white" transform="translate(0.78125 0.166016)"/>
</clipPath>
</defs>
</svg>
