<svg width="15" height="15" viewBox="0 0 15 15" fill="none" xmlns="http://www.w3.org/2000/svg">
<path d="M2.14154 8.39511L0.986224 7.56423L2.14154 6.73336C2.43946 6.51955 2.6612 6.21609 2.77438 5.86729C2.88756 5.5185 2.88625 5.14265 2.77063 4.79465L2.32354 3.44152H3.74789C4.11269 3.4439 4.46878 3.33018 4.76467 3.1168C5.06056 2.90342 5.2809 2.60144 5.39381 2.25455L5.82705 0.897461L6.97445 1.7402C7.26953 1.95699 7.62612 2.07389 7.99227 2.07389C8.35842 2.07389 8.71501 1.95699 9.01009 1.7402L10.1575 0.897461L10.5907 2.25455C10.7019 2.60329 10.9215 2.90743 11.2176 3.12269C11.5136 3.33796 11.8706 3.45312 12.2367 3.45141H13.659L13.2119 4.79465C13.0972 5.14212 13.0964 5.51711 13.2096 5.86508C13.3227 6.21305 13.5439 6.51584 13.841 6.7294L14.9963 7.56423L13.841 8.39511C13.5431 8.60891 13.3214 8.91238 13.2082 9.26117C13.095 9.60997 13.0963 9.98582 13.2119 10.3338L13.659 11.6869H12.2347C11.8699 11.6846 11.5138 11.7983 11.2179 12.0117C10.922 12.225 10.7017 12.527 10.5888 12.8739L10.1555 14.231L9.00811 13.3883C8.71303 13.1715 8.35644 13.0546 7.99029 13.0546C7.62414 13.0546 7.26755 13.1715 6.97247 13.3883L5.82508 14.231L5.39183 12.8739C5.28064 12.5252 5.06104 12.221 4.765 12.0058C4.46896 11.7905 4.11194 11.6753 3.74591 11.6771H2.32354L2.77063 10.3338C2.88625 9.98582 2.88756 9.60997 2.77438 9.26117C2.6612 8.91238 2.43946 8.60891 2.14154 8.39511ZM7.99128 12.4605C8.95966 12.4605 9.9063 12.1733 10.7115 11.6353C11.5167 11.0973 12.1442 10.3326 12.5148 9.43793C12.8854 8.54327 12.9823 7.5588 12.7934 6.60903C12.6045 5.65925 12.1382 4.78683 11.4534 4.10208C10.7687 3.41733 9.89626 2.95101 8.94649 2.76209C7.99671 2.57317 7.01225 2.67013 6.11758 3.04072C5.22291 3.4113 4.45823 4.03886 3.92022 4.84404C3.38222 5.64922 3.09506 6.59585 3.09506 7.56423C3.09506 8.86279 3.61091 10.1082 4.52913 11.0264C5.44735 11.9446 6.69272 12.4605 7.99128 12.4605Z" fill="currentColor"/>
<path d="M7.9912 11.6748C5.72085 11.6748 3.88036 9.83433 3.88036 7.56397C3.88036 5.29361 5.72085 3.45312 7.9912 3.45312C10.2616 3.45312 12.1021 5.29361 12.1021 7.56397C12.1021 9.83433 10.2616 11.6748 7.9912 11.6748Z" fill="currentColor"/>
</svg>
