<svg width="15" height="15" viewBox="0 0 15 15" fill="none" xmlns="http://www.w3.org/2000/svg">
<path d="M13.8409 8.39511L14.9962 7.56423L13.8409 6.73336C13.543 6.51955 13.3212 6.21609 13.208 5.86729C13.0949 5.5185 13.0962 5.14265 13.2118 4.79465L13.6589 3.44152H12.2345C11.8697 3.4439 11.5136 3.33018 11.2178 3.1168C10.9219 2.90342 10.7015 2.60144 10.5886 2.25455L10.1554 0.897461L9.00797 1.7402C8.71289 1.95699 8.3563 2.07389 7.99015 2.07389C7.624 2.07389 7.26741 1.95699 6.97233 1.7402L5.82493 0.897461L5.39169 2.25455C5.2805 2.60329 5.0609 2.90743 4.76486 3.12269C4.46882 3.33796 4.1118 3.45312 3.74577 3.45141H2.32339L2.77048 4.79465C2.88517 5.14212 2.88601 5.51711 2.77286 5.86508C2.65972 6.21305 2.4385 6.51584 2.14139 6.7294L0.986084 7.56423L2.14139 8.39511C2.43931 8.60891 2.66106 8.91238 2.77424 9.26117C2.88742 9.60997 2.8861 9.98582 2.77048 10.3338L2.32339 11.6869H3.74775C4.11254 11.6846 4.46864 11.7983 4.76453 12.0117C5.06042 12.225 5.28075 12.527 5.39367 12.8739L5.82691 14.231L6.97431 13.3883C7.26939 13.1715 7.62598 13.0546 7.99213 13.0546C8.35828 13.0546 8.71487 13.1715 9.00995 13.3883L10.1573 14.231L10.5906 12.8739C10.7018 12.5252 10.9214 12.221 11.2174 12.0058C11.5135 11.7905 11.8705 11.6753 12.2365 11.6771H13.6589L13.2118 10.3338C13.0962 9.98582 13.0949 9.60997 13.208 9.26117C13.3212 8.91238 13.543 8.60891 13.8409 8.39511ZM7.99114 12.4605C7.02276 12.4605 6.07613 12.1733 5.27095 11.6353C4.46577 11.0973 3.83821 10.3326 3.46762 9.43793C3.09704 8.54327 3.00008 7.5588 3.189 6.60903C3.37792 5.65925 3.84424 4.78683 4.52899 4.10208C5.21374 3.41733 6.08616 2.95101 7.03594 2.76209C7.98571 2.57317 8.97018 2.67013 9.86484 3.04072C10.7595 3.4113 11.5242 4.03886 12.0622 4.84404C12.6002 5.64922 12.8874 6.59585 12.8874 7.56423C12.8874 8.86279 12.3715 10.1082 11.4533 11.0264C10.5351 11.9446 9.2897 12.4605 7.99114 12.4605Z" fill="#999CAD"/>
<path d="M7.99122 11.6748C10.2616 11.6748 12.1021 9.83433 12.1021 7.56397C12.1021 5.29361 10.2616 3.45312 7.99122 3.45312C5.72086 3.45312 3.88037 5.29361 3.88037 7.56397C3.88037 9.83433 5.72086 11.6748 7.99122 11.6748Z" fill="#999CAD"/>
<defs>

</defs>
</svg>
