<svg width="49" height="49" viewBox="0 0 49 49" fill="none" xmlns="http://www.w3.org/2000/svg">
<path d="M38.5 0.00488281H10.5C4.978 0.00488281 0.5 4.48288 0.5 10.0049V38.0049C0.5 43.5269 4.978 48.0049 10.5 48.0049H38.5C44.024 48.0049 48.5 43.5269 48.5 38.0049V10.0049C48.5 4.48288 44.024 0.00488281 38.5 0.00488281ZM16.5 38.0049H10.5V16.0049H16.5V38.0049ZM13.5 13.4689C11.568 13.4689 10 11.8889 10 9.94088C10 7.99288 11.568 6.41288 13.5 6.41288C15.432 6.41288 17 7.99288 17 9.94088C17 11.8889 15.434 13.4689 13.5 13.4689ZM40.5 38.0049H34.5V26.7969C34.5 20.0609 26.5 20.5709 26.5 26.7969V38.0049H20.5V16.0049H26.5V19.5349C29.292 14.3629 40.5 13.9809 40.5 24.4869V38.0049Z" fill="white"/>
</svg>
