<svg width="12" height="14" viewBox="0 0 12 14" fill="none" xmlns="http://www.w3.org/2000/svg">
<path fill-rule="evenodd" clip-rule="evenodd" d="M0.333984 5.87916C0.333984 2.81258 2.89657 0.333984 5.99628 0.333984C9.10473 0.333984 11.6673 2.81258 11.6673 5.87916C11.6673 7.42444 11.1053 8.85907 10.1803 10.075C9.15985 11.4163 7.90209 12.585 6.48635 13.5023C6.16233 13.7143 5.8699 13.7303 5.51428 13.5023C4.09047 12.585 2.83271 11.4163 1.82098 10.075C0.895307 8.85907 0.333984 7.42444 0.333984 5.87916ZM4.13021 6.05151C4.13021 7.07881 4.96849 7.88679 5.99635 7.88679C7.02488 7.88679 7.87124 7.07881 7.87124 6.05151C7.87124 5.0322 7.02488 4.1849 5.99635 4.1849C4.96849 4.1849 4.13021 5.0322 4.13021 6.05151Z" fill="currentColor"/>
</svg>
