<svg width="101" height="101" viewBox="0 0 101 101" fill="none" xmlns="http://www.w3.org/2000/svg">
<path d="M100.57 50.5279C100.57 57.1466 99.2827 63.4637 96.9476 69.2434C93.9914 76.5666 89.3482 83.0301 83.5016 88.15C74.7016 95.8554 63.1757 100.527 50.5597 100.527C41.3479 100.527 32.7153 98.0377 25.3067 93.691C18.2268 89.5443 12.2608 83.705 7.95799 76.7279C3.91205 70.1631 1.33786 62.5891 0.705027 54.4717C0.600243 53.1698 0.549438 51.8562 0.549438 50.5279C0.549438 22.9159 22.9386 0.52832 50.5597 0.52832C51.0582 0.52832 51.5542 0.534352 52.0499 0.549273H52.0527C55.388 0.647685 58.637 1.07181 61.7754 1.79117C66.4545 2.86292 70.8859 4.59149 74.9617 6.87243C90.2408 15.4283 100.57 31.7733 100.57 50.5279Z" fill="url(#paint0_linear)"/>
<path opacity="0.06" d="M100.57 50.5286C100.57 78.1434 78.1805 100.528 50.5594 100.528C47.8661 100.528 45.2202 100.316 42.6434 99.9043C66.5018 96.1129 84.7374 75.451 84.7374 50.5289C84.7374 25.6099 66.5018 4.94484 42.6434 1.15342C45.2205 0.74136 47.8661 0.529297 50.5594 0.529297C78.1805 0.529297 100.57 22.9169 100.57 50.5286Z" fill="#332A40"/>
<path opacity="0.3" d="M55.8091 17.4854C55.8091 39.5505 37.9167 57.439 15.847 57.439C10.4871 57.439 5.3749 56.385 0.704709 54.4714C0.600243 53.1698 0.549438 51.8562 0.549438 50.5279C0.549438 22.9159 22.9386 0.52832 50.5597 0.52832C51.0582 0.52832 51.5542 0.534352 52.0499 0.549273H52.0527C54.4624 5.69307 55.8091 11.4312 55.8091 17.4854Z" fill="white"/>
<path opacity="0.3" d="M74.9704 7.21259C74.9704 11.4697 71.5186 14.9237 67.2574 14.9237C62.9993 14.9237 59.5475 11.4697 59.5475 7.21259C59.5475 5.09894 60.3985 3.18244 61.7749 1.79102C66.454 2.86276 70.8854 4.59133 74.9612 6.87227C74.9676 6.98561 74.9704 7.09894 74.9704 7.21259Z" fill="white"/>
<path opacity="0.3" d="M96.9476 69.2443C93.9914 76.5674 89.3482 83.0309 83.5015 88.1509C81.4681 86.0312 80.217 83.1535 80.217 79.983C80.217 73.4598 85.5051 68.1729 92.0297 68.1729C93.7853 68.1722 95.4517 68.5544 96.9476 69.2443Z" fill="white"/>
<path opacity="0.3" d="M30.171 83.9138C30.171 87.9052 28.2629 91.4518 25.3068 93.6909C18.2268 89.5442 12.2608 83.7049 7.95801 76.7277C10.1855 73.6497 13.8107 71.6465 17.9014 71.6465C24.6768 71.6468 30.171 77.1369 30.171 83.9138Z" fill="white"/>
<path opacity="0.3" d="M42.0483 71.6458C34.1418 71.6458 30.5045 63.776 30.4471 58.1881L30.1705 32.6856C30.1184 29.4018 31.7753 25.558 34.3917 22.8996C36.7487 20.505 39.6084 19.2393 42.6614 19.2393C43.6245 19.2393 44.6015 19.3701 45.5646 19.6278C54.9916 22.1535 64.0345 28.3199 73.239 34.9567C76.3889 37.2691 78.2597 41.1211 78.254 45.2681C78.248 49.4649 76.3419 53.3579 73.1561 55.682C64.4412 61.9306 55.1625 68.2588 45.8405 71.0588C44.5437 71.448 43.2676 71.6458 42.0483 71.6458Z" fill="#332A40"/>
<path opacity="0.3" d="M42.0486 70.1536C35.1611 70.1536 31.9916 63.1476 31.9405 58.173L31.6639 32.6699C31.6175 29.7619 33.1058 26.3346 35.4561 23.9473C37.5261 21.8442 40.018 20.7324 42.6618 20.7324C43.4947 20.7324 44.3415 20.8461 45.1785 21.0702C54.3611 23.5302 63.2785 29.6153 72.3662 36.1676C75.1283 38.1952 76.7668 41.5933 76.7614 45.266C76.756 48.9886 75.0791 52.4314 72.2766 54.4762C63.6678 60.6488 54.5132 66.8952 45.4116 69.6291C44.2539 69.9771 43.1225 70.1536 42.0486 70.1536Z" fill="#332A40"/>
<path opacity="0.3" d="M68.2696 89.3309C57.2422 93.6687 48.5169 87.5604 44.3036 83.5392C43.7394 82.9957 43.7245 82.2255 44.0648 81.6674C44.1306 81.769 44.208 81.8674 44.3036 81.9569C48.5169 85.9782 57.2422 92.0893 68.2696 87.7515C78.4937 83.7303 80.563 74.2633 80.7602 68.1465C80.7691 68.2093 80.7752 68.2747 80.7752 68.3436C80.8377 74.3144 79.2999 84.9931 68.2696 89.3309Z" fill="#332A40"/>
<path d="M71.3183 37.6214C62.6755 31.3896 53.6609 25.1979 44.7152 22.8014C38.1421 21.0404 33.3826 28.0744 33.4557 32.6512C33.5477 41.1528 33.6398 49.654 33.7319 58.1556C33.7789 62.7321 37.019 70.2813 44.8959 67.9149C53.5863 65.3045 62.551 59.2461 71.2205 53.0305C76.1603 49.4264 76.246 41.2385 71.3183 37.6214Z" fill="white"/>
<path d="M62.3079 80.9647C58.1676 82.7561 56.9855 78.5787 56.9855 78.5787C59.3758 78.0907 61.8922 77.359 64.4239 76.2803H64.4315C64.4315 76.28 66.4443 79.1771 62.3079 80.9647Z" fill="white"/>
<path d="M73.3412 75.1441C70.2187 78.3955 67.5117 74.9993 67.5117 74.9993L67.4393 74.8276C69.6354 73.6384 71.8085 72.1593 73.875 70.3184C74.565 70.9857 75.7125 72.6742 73.3412 75.1441Z" fill="white"/>
<path d="M73.8753 70.3172C74.5656 70.9842 75.7131 72.6731 73.3415 75.1429C70.219 78.3944 67.512 74.9982 67.512 74.9982L67.4403 74.8277C67.44 74.8277 67.44 74.8277 67.4396 74.828C66.4363 75.3712 65.4303 75.8518 64.4241 76.2788H64.4317C64.4317 76.2788 66.4448 79.1756 62.3081 80.9632C58.172 82.7531 56.9882 78.5858 56.986 78.5775C52.3904 79.5118 48.2699 79.5417 45.442 79.3686C44.1789 79.294 43.4384 80.6851 44.0655 81.6674C44.1312 81.769 44.2087 81.8674 44.3043 81.9569C48.5176 85.9781 57.2429 92.0893 68.2703 87.7515C78.4944 83.7302 80.5637 74.2633 80.7609 68.1464C80.7758 67.6629 80.7818 67.2001 80.7758 66.7642C80.7609 65.3461 78.9662 64.7522 78.0854 65.8598C76.7508 67.5436 75.3385 69.0214 73.8753 70.3172Z" fill="#332A40"/>
<path d="M63.1996 45.4427C63.1996 47.631 62.6144 49.6821 61.5901 51.4465C61.2287 50.6583 60.4314 50.1091 59.5087 50.1091C58.2456 50.1091 57.2216 51.1332 57.2216 52.3957C57.2216 53.4614 57.9503 54.3573 58.9356 54.611C56.8453 56.3754 54.146 57.4382 51.1987 57.4382C44.5729 57.4382 39.1978 52.0675 39.1978 45.4427C39.1978 43.7919 39.5321 42.2186 40.1354 40.7856C40.9654 41.8843 42.2882 42.5916 43.7752 42.5916C46.3015 42.5916 48.3498 40.5437 48.3498 38.018C48.3498 36.5342 47.6421 35.2148 46.5463 34.3818C47.9767 33.7786 49.5501 33.4443 51.1984 33.4443C57.8249 33.4447 63.1996 38.8154 63.1996 45.4427Z" fill="#332A40"/>
<path opacity="0.2" d="M51.1982 49.0328C53.1814 49.0328 54.7891 47.4255 54.7891 45.4427C54.7891 43.4599 53.1814 41.8525 51.1982 41.8525C49.215 41.8525 47.6073 43.4599 47.6073 45.4427C47.6073 47.4255 49.215 49.0328 51.1982 49.0328Z" fill="white"/>
<defs>
<linearGradient id="paint0_linear" x1="9.79632" y1="4.81605" x2="104.699" y2="161.964" gradientUnits="userSpaceOnUse">
<stop stop-color="#2DC8D8"/>
<stop offset="1" stop-color="#ECF281"/>
</linearGradient>
</defs>
</svg>
