<svg width="142" height="77" viewBox="0 0 142 77" fill="none" xmlns="http://www.w3.org/2000/svg">
<g clip-path="url(#clip0_268_1356)">
<path d="M142 24.8114H115.998L107.968 0L99.916 24.8114H73.936L94.9558 40.1623L96.0234 39.8053L85.6359 28.6268L100.583 25.7262L107.968 12.3611L115.33 25.7262L130.278 28.6268L119.89 39.8053L121.759 54.9777L107.968 48.5071V49.6227L128.988 64.9736L120.958 40.1623L142 24.8114Z" fill="currentColor"/>
<path d="M6.4505 65.9107C6.4505 73.3631 2.17982 74.7241 0 74.7241L1.71272 76.5091C7.05107 75.7951 10.8991 71.7566 10.8991 65.9107V47.7485L6.4505 50.1359V65.9107Z" fill="currentColor"/>
<path d="M5.9834 40.9878L8.76379 43.8438L11.5664 40.9878L8.76379 38.1765L5.9834 40.9878Z" fill="currentColor"/>
<path d="M35.6113 74.1886L38.414 77L41.2611 74.1886L38.414 71.3996L35.6113 74.1886Z" fill="currentColor"/>
<path d="M41.5947 74.1886L44.3974 77L47.2445 74.1886L44.3974 71.3996L41.5947 74.1886Z" fill="currentColor"/>
<path d="M55.1407 44.6024L52.2936 41.7911L49.5132 44.6024L52.2936 47.3915L55.1407 44.6024Z" fill="currentColor"/>
<path d="M61.1241 44.6024L58.2992 41.7911L55.4966 44.6024L58.2992 47.3915L61.1241 44.6024Z" fill="currentColor"/>
<path d="M82.1438 46.2759C76.0492 46.2759 71.1779 50.4483 71.1779 56.8742V60.8682C71.2447 64.0142 71.1779 65.5091 67.797 65.5091H61.213V47.7708L56.6977 50.1582V64.5051C56.6977 64.8621 56.7644 65.2191 56.8756 65.5091H46.6215V47.7708L42.1062 50.1582V64.5051C42.1062 64.8621 42.1729 65.2191 42.2841 65.5091H22.0652V39.5598L17.5498 41.9473V67.4949H40.7271L42.3954 65.7769C42.8625 66.7809 43.9301 67.4949 45.0645 67.4949H55.3853L56.9868 65.7769C57.4539 66.7809 58.5216 67.4949 59.656 67.4949H67.7747C71.4004 67.4949 72.9351 66.1339 73.5135 63.7465C75.5376 66.1339 78.6071 67.4949 82.0993 67.4949H87.193L88.8612 65.7769C89.3283 66.7809 90.3515 67.4949 91.5304 67.4949H93.0207V56.8966C93.0207 50.4706 88.2161 46.2982 82.1215 46.2982L82.1438 46.2759ZM82.1438 65.5091C80.0084 65.5091 75.6933 64.2596 75.6933 56.8742C75.6933 49.4889 80.0307 48.2394 82.1438 48.2394C84.2569 48.2394 88.5943 49.4889 88.5943 56.8742V64.5051C88.5943 64.8621 88.661 65.2191 88.7722 65.5091H82.1438Z" fill="currentColor"/>
<path d="M102.674 39.5375H102.585H102.474H102.363H102.274H102.163H102.074H101.962H101.851H101.762H101.651H101.562H101.451H101.34H101.251H101.139H101.028H100.939H100.828H100.739H100.628H100.517H100.428H100.339H100.25H100.161H100.05H99.9606H99.8716H99.7827H99.6937H99.5825H99.4935H99.4045H99.3156H99.2266H99.1376H99.0264H98.9374H98.8485H98.7595H98.6705H98.5593H98.4703H98.3813V41.925V67.4726H98.4703H98.5593H98.6705H98.7595H98.8485H98.9374H99.0264H99.1376H99.2266H99.3156H99.4045H99.4935H99.5825H99.6937H99.7827H99.8716H99.9606H100.05H100.161H100.25H100.339H100.428H100.517H100.628H100.739H100.828H100.939H101.028H101.139H101.251H101.34H101.451H101.562H101.651H101.762H101.851H101.962H102.074H102.163H102.274H102.363H102.474H102.585H102.674H102.785H102.897V39.5375H102.785H102.674Z" fill="currentColor"/>
</g>
<defs>
<clipPath id="clip0_268_1356">
<rect width="142" height="77" fill="currentColor"/>
</clipPath>
</defs>
</svg>
