<?xml version="1.0" encoding="UTF-8"?>
<svg id="Layer_1" data-name="Layer 1" xmlns="http://www.w3.org/2000/svg" viewBox="0 0 1190.55 841.89">
  <defs>
    <style>
      .cls-1 {
        fill: #00369c;
      }

      .cls-2 {
        fill: #00a0d1;
      }

      .cls-3 {
        fill: #8dba38;
      }
    </style>
  </defs>
  <path class="cls-3" d="m92.05,773.09c23.64,0,47.61-10.53,47.61-41.45s-23.64-41.79-47.61-41.79h-36.12v83.24h36.12Zm-1.98-109.4c22.66,0,44-6.47,44-33.99s-21.34-33.64-44-33.64h-34.15v67.63h34.15Zm-61.73-92.08l1.64-1.71h59.76c37.43,0,71.91,11.22,71.91,58.11,0,21.74-10.5,40.42-30.54,47.91,22.99,7.81,36.45,28.54,36.45,55.72,0,47.22-34.81,67.61-71.91,67.61H29.99l-1.64-1.7v-225.94Z"/>
  <path class="cls-3" d="m249.66,703.44c18.05,0,34.14-6.12,34.14-27.18,0-11.89-8.86-24.48-30.86-24.48s-35.14,13.27-35.14,39.42v6.12s14.12,6.12,31.86,6.12m-58.12-15.98c0-38.04,25.28-60.13,62.39-60.13,42.03,0,57.46,26.5,57.46,50.28,0,33.64-22.99,49.94-54.18,49.94s-40.06-16.64-41.04-19.02l1.64,12.58v17.67c0,26.16,14.45,40.08,36.78,40.08,19.69,0,29.55-6.78,35.79-18l2.29-.68,19.71,7.14.98,2.04c-7.88,21.75-29.55,33.98-57.46,33.98-40.39,0-64.35-20.05-64.35-58.79v-57.08Z"/>
  <path class="cls-3" d="m389.85,703.44c18.06,0,34.15-6.12,34.15-27.18,0-11.89-8.87-24.48-30.87-24.48s-35.13,13.27-35.13,39.42v6.12s14.12,6.12,31.84,6.12m-58.12-15.98c0-38.04,25.29-60.13,62.39-60.13,42.03,0,57.46,26.5,57.46,50.28,0,33.64-22.99,49.94-54.19,49.94s-40.06-16.64-41.04-19.02l1.64,12.58v17.67c0,26.16,14.44,40.08,36.78,40.08,19.69,0,29.54-6.78,35.79-18l2.3-.68,19.7,7.14.99,2.04c-7.88,21.75-29.55,33.98-57.46,33.98-40.39,0-64.36-20.05-64.36-58.79v-57.08Z"/>
  <path class="cls-3" d="m478.51,666.74l-8.21-31.94,1.64-2.04,20.03-3.06,1.97,1.36,9.19,23.79c1.32-4.42,10.84-27.52,45.98-27.52,18.71,0,33.16,8.49,40.71,25.14,3.61-6.79,16.42-25.14,47.94-25.14,28.89,0,50.24,20.05,50.24,58.78v111.45l-1.64,1.69h-23.31l-1.32-1.69v-106.01c0-29.23-16.09-39.42-34.8-39.42-7.23,0-26.6,5.09-34.15,7.47,1.97,6.79,3.61,14.62,3.61,23.78v114.17l-1.64,1.69h-22.99l-1.63-1.69v-106.01c0-29.23-13.14-39.76-31.86-39.76-7.22,0-27.25,6.14-33.49,7.82v137.95l-1.65,1.69h-22.99l-1.63-1.69v-130.81Z"/>
  <path class="cls-3" d="m762.87,778.85c16.41,0,38.74-9.84,38.74-9.84v-57.42c-3.94,13.25-17.73,16.99-28.9,16.99h-7.88c-11.49,0-28.57,4.41-28.57,25.14,0,14.95,10.18,25.13,26.6,25.13m-38.42-62.51c12.15-10.2,29.87-12.91,51.22-12.91h11.5c7.23,0,11.82-1.71,14.45-3.4v-15.98c0-26.15-15.43-32.28-33.82-32.28-12.81,0-24.3,3.41-32.51,10.2l-2.63-.33-11.16-16.99.65-2.72c11.82-9.5,28.24-14.61,45.97-14.61,33.49,0,59.76,13.93,59.76,51.65v86.98l8.21,29.89-1.64,2.04-20.03,3.05-1.97-1.35-9.52-24.48s-7.89,28.21-44.33,28.21c-23.31,0-49.9-12.57-49.9-49.95,0-16.99,6.56-29.22,15.76-37.03"/>
  <polygon class="cls-3" points="549.07 569.02 549.07 541.67 550.66 540.02 577.09 540.02 578.68 541.67 578.68 569.02 577.09 570.67 550.66 570.67 549.07 569.02"/>
  <polygon class="cls-3" points="596.27 569.02 596.27 541.67 597.85 540.02 624.29 540.02 625.89 541.67 625.89 569.02 624.29 570.67 597.85 570.67 596.27 569.02"/>
  <polygon class="cls-3" points="806.61 569.02 806.61 541.67 808.2 540.02 834.64 540.02 836.23 541.67 836.23 569.02 834.64 570.67 808.2 570.67 806.61 569.02"/>
  <path class="cls-3" d="m389.08,515.43c0,25.37-13.37,38.89-35.67,38.89s-35.68-13.52-35.68-38.89v-19.41c0-25.37,12.74-38.56,35.68-38.56s35.67,13.19,35.67,38.56v19.41ZM125.14,362.07l-.04.05v79.68c-7.23.98-23.71.37-31.24.37-20.23,0-37.04-11.01-37.04-41.52v-39.98c0-27.33,14.75-41.89,36.02-41.89,22.97,0,32.3,11.23,32.3,36.07v7.23Zm708.76,20.97l-22.18-4.56-1.57.94v89.81c0,15.06-11.8,27.27-26.36,27.28h-167.02c4.57-8,7.2-17.32,7.2-27.28v-84.12l-1.78-2.06-22.18-4.56-1.57.94v89.81c0,15.06-11.81,27.27-26.36,27.28h-157.51v-5.76c0-36.91-26.12-57.02-61.15-57.02s-61.16,20.11-61.16,57.02v5.65l-124.97.11h-1.09s-.2,0-.2,0c-4.78,0-14.33-1.98-14.33-14.83v-183.25l-2.33-1.71-21.1,5.96s-16.19-9.45-36.43-9.45c-35.33,0-62.41,21.66-62.41,61.4v50.98c0,41.16,22.63,62.1,52.81,62.1s38.89-9.53,42.91-16.36v34.15c0,34.6,26.12,37.24,34.72,37.24h1.32v.09h131.15c.84,35.76,26.65,55.22,61.12,55.22s60.22-19.43,61.11-55.12h369.28c28.66,0,51.9-24.05,51.9-53.7v-84.12l-1.78-2.06Z"/>
  <path class="cls-3" d="m649.74,90.37c-18.85,22.08,11.82,57.91,68.5,80.06,26.66,10.4,54.31,15.93,78.1,16.57-3.23-1.04-6.44-2.18-9.65-3.43-37.18-14.52-57.31-38.04-44.94-52.53,12.36-14.47,52.52-14.44,89.71.08,10.37,4.05,19.41,8.8,26.79,13.86-7.65-18.83-33.91-39.72-71.76-54.5-28.38-11.09-57.91-16.64-82.68-16.64s-44.66,5.51-54.07,16.54"/>
  <path class="cls-2" d="m684.57,365.55c-35.91-14.02-35.83-59.57.17-101.74,24.04-28.15,58.02-47.68,88.63-53.38-8.23,5.49-15.95,12.22-22.54,19.93-23.62,27.67-23.67,57.54-.11,66.75,23.57,9.2,61.8-5.78,85.43-33.44,2.03-2.39,3.89-4.78,5.58-7.18-1.04,17.69-10.02,38.27-26.95,58.1-36,42.17-94.29,64.98-130.21,50.96"/>
  <path class="cls-3" d="m972.54,193.42c49.48,19.33,76.27,50.63,59.81,69.9-16.46,19.29-69.92,19.25-119.41-.08-13.81-5.39-25.83-11.72-35.66-18.45,10.18,25.06,45.13,52.88,95.5,72.54,75.44,29.46,156.94,29.53,182.03.14,25.08-29.39-15.75-77.1-91.19-106.56-35.45-13.86-72.27-21.21-103.93-22.05,4.29,1.39,8.58,2.89,12.85,4.56"/>
  <path class="cls-1" d="m1015.02,41.94c29.37,11.47,29.3,48.73-.14,83.24-19.67,23.04-47.47,39.02-72.52,43.67,6.73-4.48,13.05-9.99,18.44-16.31,19.33-22.63,19.37-47.08.09-54.6-19.27-7.53-50.56,4.72-69.89,27.36-1.66,1.94-3.18,3.91-4.56,5.86.84-14.48,8.2-31.31,22.05-47.53,29.46-34.49,77.15-53.17,106.53-41.69"/>
</svg>