<svg width="74" height="37" viewBox="0 0 74 37" fill="none" xmlns="http://www.w3.org/2000/svg">
<rect x="0.918701" y="0.961426" width="72.7249" height="35.2587" rx="17.6294" fill="white"/>
<path d="M11.7573 15.2757C11.494 15.2757 11.2842 15.1975 11.1279 15.0412C10.9798 14.8849 10.9058 14.6751 10.9058 14.4118V7.76025C10.9716 7.7438 11.0744 7.72323 11.2143 7.69855C11.3624 7.67387 11.5064 7.66153 11.6462 7.66153C11.9424 7.66153 12.1604 7.71501 12.3003 7.82196C12.4401 7.92891 12.5101 8.12636 12.5101 8.41431V13.9552H15.6816C15.7227 14.021 15.7639 14.1115 15.805 14.2267C15.8461 14.3337 15.8667 14.453 15.8667 14.5846C15.8667 14.8067 15.8132 14.9795 15.7063 15.1029C15.6075 15.2181 15.4677 15.2757 15.2867 15.2757H11.7573ZM22.6302 12.3263C22.6302 12.8034 22.5561 13.2354 22.4081 13.622C22.2682 14.0005 22.0666 14.3254 21.8034 14.5969C21.5401 14.8684 21.2234 15.0782 20.8532 15.2263C20.4829 15.3662 20.0675 15.4361 19.6068 15.4361C19.146 15.4361 18.7306 15.3662 18.3604 15.2263C17.9901 15.0782 17.6734 14.8725 17.4101 14.6093C17.1469 14.3378 16.9412 14.0128 16.7931 13.6344C16.6532 13.2477 16.5833 12.8117 16.5833 12.3263C16.5833 11.8491 16.6532 11.4213 16.7931 11.0428C16.9412 10.6562 17.1469 10.3312 17.4101 10.0679C17.6816 9.79645 18.0025 9.59077 18.3727 9.45091C18.7429 9.30283 19.1543 9.22878 19.6068 9.22878C20.0592 9.22878 20.4706 9.30283 20.8408 9.45091C21.211 9.59077 21.5278 9.79645 21.791 10.0679C22.0625 10.3394 22.2682 10.6685 22.4081 11.0552C22.5561 11.4336 22.6302 11.8573 22.6302 12.3263ZM19.6068 10.4628C19.1625 10.4628 18.8128 10.6274 18.5578 10.9565C18.3028 11.2773 18.1752 11.7339 18.1752 12.3263C18.1752 12.9268 18.2987 13.3876 18.5455 13.7084C18.8005 14.0293 19.1543 14.1897 19.6068 14.1897C20.0592 14.1897 20.4089 14.0293 20.6557 13.7084C20.9107 13.3793 21.0383 12.9186 21.0383 12.3263C21.0383 11.7339 20.9107 11.2773 20.6557 10.9565C20.4007 10.6274 20.051 10.4628 19.6068 10.4628ZM27.669 14.745C27.5045 14.8273 27.3111 14.8972 27.089 14.9548C26.8751 15.0124 26.6242 15.0412 26.3362 15.0412C25.966 15.0412 25.6164 14.9918 25.2873 14.8931C24.9582 14.7861 24.6702 14.6175 24.4234 14.3871C24.1766 14.1568 23.9792 13.8606 23.8311 13.4986C23.6912 13.1284 23.6213 12.68 23.6213 12.1535C23.6213 11.6763 23.6912 11.2567 23.8311 10.8948C23.9792 10.5245 24.1848 10.216 24.4481 9.96922C24.7196 9.7224 25.0405 9.5373 25.4107 9.41389C25.7809 9.29048 26.1922 9.22878 26.6447 9.22878C27.0725 9.22878 27.4633 9.28226 27.8171 9.38921C28.1791 9.49616 28.467 9.61957 28.6809 9.75943C28.829 9.85815 28.9442 9.96922 29.0265 10.0926C29.117 10.216 29.1622 10.3723 29.1622 10.5616V15.325C29.1622 15.7446 29.084 16.1066 28.9277 16.411C28.7796 16.7154 28.574 16.9622 28.3107 17.1514C28.0474 17.3489 27.7389 17.4928 27.3852 17.5833C27.0314 17.6738 26.6488 17.7191 26.2375 17.7191C25.8097 17.7191 25.4354 17.678 25.1145 17.5957C24.8019 17.5216 24.5674 17.4353 24.4111 17.3365C24.1396 17.1638 24.0039 16.9334 24.0039 16.6455C24.0039 16.4891 24.0368 16.3534 24.1026 16.2382C24.1684 16.123 24.2465 16.0367 24.337 15.9791C24.5509 16.1107 24.8101 16.2259 25.1145 16.3246C25.4189 16.4233 25.7439 16.4727 26.0894 16.4727C26.583 16.4727 26.9697 16.3781 27.2494 16.1889C27.5291 15.9996 27.669 15.6952 27.669 15.2757V14.745ZM26.5954 13.8318C26.834 13.8318 27.0355 13.7989 27.2001 13.7331C27.3728 13.6673 27.5209 13.5891 27.6443 13.4986V10.7096C27.5291 10.6438 27.3934 10.5862 27.2371 10.5369C27.089 10.4875 26.908 10.4628 26.6941 10.4628C26.2416 10.4628 25.8755 10.6027 25.5958 10.8824C25.3243 11.1539 25.1885 11.5776 25.1885 12.1535C25.1885 12.4661 25.2215 12.7294 25.2873 12.9433C25.3613 13.1572 25.46 13.33 25.5834 13.4616C25.7151 13.5932 25.8673 13.6878 26.04 13.7454C26.2128 13.803 26.3979 13.8318 26.5954 13.8318ZM36.4651 12.3263C36.4651 12.8034 36.3911 13.2354 36.243 13.622C36.1031 14.0005 35.9016 14.3254 35.6383 14.5969C35.375 14.8684 35.0583 15.0782 34.6881 15.2263C34.3179 15.3662 33.9024 15.4361 33.4417 15.4361C32.981 15.4361 32.5655 15.3662 32.1953 15.2263C31.8251 15.0782 31.5083 14.8725 31.2451 14.6093C30.9818 14.3378 30.7761 14.0128 30.628 13.6344C30.4882 13.2477 30.4182 12.8117 30.4182 12.3263C30.4182 11.8491 30.4882 11.4213 30.628 11.0428C30.7761 10.6562 30.9818 10.3312 31.2451 10.0679C31.5166 9.79645 31.8374 9.59077 32.2076 9.45091C32.5778 9.30283 32.9892 9.22878 33.4417 9.22878C33.8942 9.22878 34.3055 9.30283 34.6757 9.45091C35.046 9.59077 35.3627 9.79645 35.626 10.0679C35.8975 10.3394 36.1031 10.6685 36.243 11.0552C36.3911 11.4336 36.4651 11.8573 36.4651 12.3263ZM33.4417 10.4628C32.9974 10.4628 32.6478 10.6274 32.3927 10.9565C32.1377 11.2773 32.0102 11.7339 32.0102 12.3263C32.0102 12.9268 32.1336 13.3876 32.3804 13.7084C32.6354 14.0293 32.9892 14.1897 33.4417 14.1897C33.8942 14.1897 34.2438 14.0293 34.4906 13.7084C34.7457 13.3793 34.8732 12.9186 34.8732 12.3263C34.8732 11.7339 34.7457 11.2773 34.4906 10.9565C34.2356 10.6274 33.8859 10.4628 33.4417 10.4628ZM16.5824 20.7228C16.5824 20.8874 16.5372 21.0313 16.4467 21.1547C16.3562 21.2699 16.2534 21.3604 16.1382 21.4262C15.9243 21.2864 15.6857 21.1589 15.4224 21.0437C15.1592 20.9285 14.8342 20.8709 14.4475 20.8709C13.7482 20.8709 13.1888 21.0971 12.7692 21.5496C12.3579 22.0021 12.1522 22.6562 12.1522 23.5118C12.1522 24.3839 12.3661 25.0379 12.7939 25.4739C13.2217 25.91 13.7976 26.128 14.5216 26.128C14.9 26.128 15.225 26.0786 15.4965 25.9799C15.7762 25.8729 16.023 25.7495 16.2369 25.6097C16.3521 25.6837 16.4467 25.7866 16.5207 25.9182C16.5948 26.0416 16.6318 26.1856 16.6318 26.3501C16.6318 26.49 16.5948 26.6175 16.5207 26.7327C16.4467 26.8479 16.3233 26.9507 16.1505 27.0412C15.986 27.1399 15.7515 27.2304 15.4471 27.3127C15.1509 27.4032 14.7807 27.4484 14.3365 27.4484C13.7935 27.4484 13.2875 27.3703 12.8186 27.214C12.3579 27.0494 11.9547 26.8067 11.6092 26.4859C11.2637 26.1568 10.9922 25.7454 10.7947 25.2518C10.5973 24.7582 10.4986 24.1782 10.4986 23.5118C10.4986 22.8701 10.5973 22.3065 10.7947 21.8211C10.9922 21.3275 11.2596 20.9162 11.5969 20.5871C11.9424 20.2498 12.3414 19.9947 12.7939 19.822C13.2546 19.6492 13.74 19.5628 14.2501 19.5628C14.6038 19.5628 14.9247 19.5957 15.2126 19.6615C15.5006 19.7191 15.7474 19.8014 15.9531 19.9083C16.1588 20.0153 16.3151 20.1387 16.422 20.2786C16.529 20.4184 16.5824 20.5665 16.5824 20.7228ZM23.4135 24.3263C23.4135 24.8034 23.3395 25.2354 23.1914 25.622C23.0515 26.0005 22.85 26.3254 22.5867 26.5969C22.3234 26.8684 22.0067 27.0782 21.6365 27.2263C21.2663 27.3662 20.8508 27.4361 20.3901 27.4361C19.9294 27.4361 19.5139 27.3662 19.1437 27.2263C18.7735 27.0782 18.4567 26.8725 18.1935 26.6093C17.9302 26.3378 17.7245 26.0128 17.5764 25.6344C17.4366 25.2477 17.3667 24.8117 17.3667 24.3263C17.3667 23.8491 17.4366 23.4213 17.5764 23.0428C17.7245 22.6562 17.9302 22.3312 18.1935 22.0679C18.465 21.7964 18.7858 21.5908 19.156 21.4509C19.5263 21.3028 19.9376 21.2288 20.3901 21.2288C20.8426 21.2288 21.2539 21.3028 21.6241 21.4509C21.9944 21.5908 22.3111 21.7964 22.5744 22.0679C22.8459 22.3394 23.0515 22.6685 23.1914 23.0552C23.3395 23.4336 23.4135 23.8573 23.4135 24.3263ZM20.3901 22.4628C19.9458 22.4628 19.5962 22.6274 19.3411 22.9565C19.0861 23.2773 18.9586 23.7339 18.9586 24.3263C18.9586 24.9268 19.082 25.3876 19.3288 25.7084C19.5838 26.0293 19.9376 26.1897 20.3901 26.1897C20.8426 26.1897 21.1922 26.0293 21.439 25.7084C21.6941 25.3793 21.8216 24.9186 21.8216 24.3263C21.8216 23.7339 21.6941 23.2773 21.439 22.9565C21.184 22.6274 20.8344 22.4628 20.3901 22.4628ZM33.3886 27.2386C33.3227 27.2551 33.224 27.2757 33.0924 27.3003C32.969 27.325 32.8332 27.3374 32.6851 27.3374C32.389 27.3374 32.171 27.2839 32.0311 27.1769C31.8995 27.07 31.8336 26.8808 31.8336 26.6093V23.4007C31.8336 23.0716 31.7432 22.8331 31.5622 22.685C31.3812 22.5369 31.1426 22.4628 30.8464 22.4628C30.649 22.4628 30.4556 22.4999 30.2664 22.5739C30.0854 22.6479 29.925 22.7467 29.7851 22.8701C29.8098 22.9853 29.8221 23.1004 29.8221 23.2156V27.2386C29.7563 27.2551 29.6576 27.2757 29.526 27.3003C29.4026 27.325 29.2668 27.3374 29.1187 27.3374C28.8226 27.3374 28.6045 27.2839 28.4647 27.1769C28.333 27.07 28.2672 26.8808 28.2672 26.6093V23.4007C28.2672 23.0716 28.1726 22.8331 27.9834 22.685C27.7942 22.5369 27.5515 22.4628 27.2553 22.4628C27.0496 22.4628 26.8604 22.4957 26.6876 22.5616C26.5149 22.6274 26.3709 22.6932 26.2557 22.759V27.2386C26.1817 27.2551 26.0829 27.2757 25.9595 27.3003C25.8361 27.325 25.6963 27.3374 25.54 27.3374C25.252 27.3374 25.0381 27.2839 24.8983 27.1769C24.7584 27.07 24.6885 26.8808 24.6885 26.6093V22.6479C24.6885 22.4587 24.7296 22.3024 24.8119 22.179C24.8941 22.0474 25.0217 21.924 25.1944 21.8088C25.4412 21.6442 25.7539 21.5085 26.1323 21.4015C26.5108 21.2864 26.9015 21.2288 27.3047 21.2288C28.0533 21.2288 28.6621 21.4303 29.1311 21.8335C29.3696 21.6607 29.6411 21.5167 29.9455 21.4015C30.2582 21.2864 30.6243 21.2288 31.0439 21.2288C31.3647 21.2288 31.6691 21.2699 31.9571 21.3522C32.245 21.4262 32.4918 21.5496 32.6975 21.7224C32.9114 21.8952 33.08 22.1173 33.2035 22.3888C33.3269 22.6521 33.3886 22.9688 33.3886 23.339V27.2386ZM37.7328 27.4237C37.4942 27.4237 37.2721 27.3991 37.0664 27.3497C36.869 27.3086 36.688 27.2551 36.5234 27.1893V29.4599C36.4494 29.4764 36.3507 29.497 36.2273 29.5216C36.1039 29.5463 35.964 29.5587 35.8077 29.5587C35.5197 29.5587 35.3058 29.5052 35.166 29.3982C35.0261 29.2913 34.9562 29.1021 34.9562 28.8306V22.5739C34.9562 22.3765 34.9932 22.216 35.0673 22.0926C35.1495 21.9692 35.277 21.854 35.4498 21.7471C35.6884 21.6072 35.9846 21.4879 36.3383 21.3892C36.6921 21.2823 37.0911 21.2288 37.5354 21.2288C37.9879 21.2288 38.4033 21.2905 38.7818 21.4139C39.1684 21.5291 39.5016 21.7142 39.7814 21.9692C40.0611 22.216 40.2791 22.5328 40.4354 22.9194C40.5917 23.3061 40.6699 23.7668 40.6699 24.3016C40.6699 24.8199 40.5958 25.2724 40.4477 25.659C40.2997 26.0457 40.094 26.3707 39.8307 26.6339C39.5757 26.8972 39.2672 27.0947 38.9052 27.2263C38.5514 27.3579 38.1606 27.4237 37.7328 27.4237ZM37.4984 26.1773C37.992 26.1773 38.3786 26.0251 38.6584 25.7207C38.9381 25.4163 39.0779 24.9433 39.0779 24.3016C39.0779 23.6352 38.934 23.1621 38.646 22.8824C38.3581 22.6027 37.9879 22.4628 37.5354 22.4628C37.3132 22.4628 37.1158 22.4916 36.943 22.5492C36.7785 22.6068 36.6345 22.6685 36.5111 22.7343V25.9059C36.6427 25.9881 36.7867 26.0539 36.943 26.1033C37.1076 26.1527 37.2927 26.1773 37.4984 26.1773ZM44.2778 26.2514C44.5163 26.2514 44.7344 26.2308 44.9318 26.1897C45.1293 26.1403 45.2732 26.0827 45.3637 26.0169V24.6471L44.1667 24.7582C43.8376 24.7911 43.5867 24.8651 43.4139 24.9803C43.2411 25.0873 43.1548 25.26 43.1548 25.4986C43.1548 25.7372 43.2411 25.9223 43.4139 26.0539C43.5949 26.1856 43.8829 26.2514 44.2778 26.2514ZM44.2284 21.2288C45.0346 21.2288 45.6764 21.4015 46.1535 21.7471C46.6389 22.0926 46.8816 22.6274 46.8816 23.3514V26.202C46.8816 26.3995 46.8323 26.5558 46.7335 26.671C46.6348 26.7861 46.5114 26.889 46.3633 26.9795C46.133 27.1193 45.8409 27.2304 45.4871 27.3127C45.1334 27.3949 44.7302 27.4361 44.2778 27.4361C43.455 27.4361 42.8051 27.2798 42.3279 26.9671C41.859 26.6463 41.6245 26.1691 41.6245 25.5356C41.6245 24.9844 41.7973 24.5648 42.1428 24.2769C42.4966 23.9807 43.0067 23.7997 43.6731 23.7339L45.3637 23.5611V23.339C45.3637 23.0264 45.2485 22.796 45.0182 22.6479C44.7961 22.4999 44.4793 22.4258 44.068 22.4258C43.7471 22.4258 43.4345 22.467 43.1301 22.5492C42.8257 22.6233 42.5542 22.7179 42.3156 22.8331C42.2251 22.7672 42.147 22.6809 42.0811 22.5739C42.0235 22.4587 41.9948 22.3353 41.9948 22.2037C41.9948 22.0391 42.0318 21.9075 42.1058 21.8088C42.1881 21.7018 42.3156 21.6072 42.4884 21.525C42.727 21.4262 42.9984 21.3522 43.3028 21.3028C43.6073 21.2535 43.9158 21.2288 44.2284 21.2288ZM52.2925 23.4871C52.2925 23.1333 52.1896 22.8742 51.984 22.7096C51.7865 22.5451 51.515 22.4628 51.1695 22.4628C50.9309 22.4628 50.7088 22.4916 50.5031 22.5492C50.3056 22.6068 50.1329 22.6809 49.9848 22.7714V27.2386C49.9107 27.2551 49.812 27.2757 49.6886 27.3003C49.5652 27.325 49.4253 27.3374 49.269 27.3374C48.9811 27.3374 48.7672 27.2839 48.6273 27.1769C48.4875 27.07 48.4175 26.8808 48.4175 26.6093V22.6479C48.4175 22.4505 48.4587 22.2901 48.5409 22.1667C48.6232 22.0433 48.7507 21.924 48.9235 21.8088C49.1621 21.6442 49.4788 21.5085 49.8737 21.4015C50.2686 21.2864 50.7046 21.2288 51.1818 21.2288C52.0292 21.2288 52.6833 21.418 53.144 21.7964C53.6129 22.1667 53.8474 22.7138 53.8474 23.4377V27.2386C53.7816 27.2551 53.6828 27.2757 53.5512 27.3003C53.4278 27.325 53.2921 27.3374 53.144 27.3374C52.8478 27.3374 52.6298 27.2839 52.4899 27.1769C52.3583 27.07 52.2925 26.8808 52.2925 26.6093V23.4871ZM55.4811 21.4509C55.5469 21.4345 55.6415 21.4139 55.7649 21.3892C55.8965 21.3645 56.0364 21.3522 56.1845 21.3522C56.4806 21.3522 56.6945 21.4057 56.8262 21.5126C56.966 21.6196 57.036 21.8088 57.036 22.0803V27.2386C56.9702 27.2551 56.8714 27.2757 56.7398 27.3003C56.6164 27.325 56.4806 27.3374 56.3326 27.3374C56.0364 27.3374 55.8184 27.2839 55.6785 27.1769C55.5469 27.07 55.4811 26.8808 55.4811 26.6093V21.4509ZM55.3577 19.6615C55.3577 19.4229 55.4399 19.2214 55.6045 19.0568C55.7772 18.8841 55.9952 18.7977 56.2585 18.7977C56.5218 18.7977 56.7357 18.8841 56.9002 19.0568C57.0648 19.2214 57.147 19.4229 57.147 19.6615C57.147 19.9083 57.0648 20.1181 56.9002 20.2909C56.7357 20.4554 56.5218 20.5377 56.2585 20.5377C55.9952 20.5377 55.7772 20.4554 55.6045 20.2909C55.4399 20.1181 55.3577 19.9083 55.3577 19.6615ZM59.9202 25.0297C60.0354 25.4493 60.2493 25.7537 60.5619 25.9429C60.8745 26.1321 61.2612 26.2267 61.7219 26.2267C62.0674 26.2267 62.3842 26.1773 62.6721 26.0786C62.9683 25.9717 63.2069 25.8606 63.3879 25.7454C63.5031 25.8112 63.5977 25.9017 63.6717 26.0169C63.7458 26.1321 63.7828 26.2555 63.7828 26.3871C63.7828 26.5517 63.7252 26.6998 63.61 26.8314C63.5031 26.9548 63.3509 27.0618 63.1534 27.1523C62.9642 27.2427 62.7379 27.3127 62.4747 27.362C62.2114 27.4114 61.9276 27.4361 61.6232 27.4361C61.1378 27.4361 60.6935 27.3703 60.2904 27.2386C59.8955 27.107 59.5541 26.9096 59.2661 26.6463C58.9864 26.3748 58.7643 26.0416 58.5997 25.6467C58.4434 25.2518 58.3653 24.7911 58.3653 24.2646C58.3653 23.7545 58.4434 23.3102 58.5997 22.9318C58.7561 22.5533 58.9659 22.2366 59.2291 21.9816C59.5006 21.7265 59.8132 21.5373 60.167 21.4139C60.5208 21.2905 60.8951 21.2288 61.29 21.2288C61.6931 21.2288 62.0633 21.2946 62.4006 21.4262C62.7379 21.5496 63.0259 21.7265 63.2645 21.9569C63.5031 22.179 63.6882 22.4505 63.8198 22.7714C63.9597 23.084 64.0296 23.4254 64.0296 23.7956C64.0296 24.026 63.9679 24.1987 63.8445 24.3139C63.7293 24.4291 63.5648 24.5031 63.3509 24.5361L59.9202 25.0297ZM61.29 22.4011C60.8869 22.4011 60.5496 22.5369 60.2781 22.8084C60.0066 23.0716 59.8544 23.4501 59.8215 23.9437L62.5611 23.5365C62.5282 23.2321 62.4089 22.9688 62.2032 22.7467C61.9975 22.5163 61.6931 22.4011 61.29 22.4011Z" fill="url(#paint0_linear)"/>
<rect width="9.51925" height="9.51925" rx="4.75963" transform="matrix(-1 0 0 1 64.6067 7.60498)" fill="url(#paint1_linear)"/>
<rect width="7.81145" height="7.81145" rx="3.90573" transform="matrix(-1 0 0 1 54.356 8.45947)" fill="url(#paint2_linear)"/>
<rect width="5.85859" height="5.85859" rx="2.92929" transform="matrix(-1 0 0 1 45.8132 9.43604)" fill="url(#paint3_linear)"/>
<defs>
<linearGradient id="paint0_linear" x1="15.0081" y1="7.30925" x2="25.1204" y2="42.9697" gradientUnits="userSpaceOnUse">
<stop offset="1" stop-color="#2DC8D8"/>
</linearGradient>
<linearGradient id="paint1_linear" x1="0.880057" y1="0.408163" x2="7.57221" y2="11.0659" gradientUnits="userSpaceOnUse">
<stop offset="1" stop-color="#2DC8D8"/>
</linearGradient>
<linearGradient id="paint2_linear" x1="0.72217" y1="0.334937" x2="6.21372" y2="9.08064" gradientUnits="userSpaceOnUse">
<stop offset="1" stop-color="#2DC8D8"/>
</linearGradient>
<linearGradient id="paint3_linear" x1="0.541628" y1="0.251203" x2="4.66029" y2="6.81048" gradientUnits="userSpaceOnUse">
<stop offset="1" stop-color="#2DC8D8"/>
</linearGradient>
</defs>
</svg>
