<svg width="130" height="113" viewBox="0 0 130 113" fill="none" xmlns="http://www.w3.org/2000/svg">
<g opacity="0.7" filter="url(#filter0_f)">
<path d="M111.38 56.4834C111.38 61.5466 110.186 66.379 108.019 70.8002C105.275 76.4022 100.966 81.3466 95.5406 85.2632C87.3739 91.1576 76.6775 94.7315 64.9694 94.7315C56.4206 94.7315 48.4093 92.8269 41.5339 89.5018C34.9635 86.3298 29.4269 81.8629 25.4337 76.5256C21.679 71.5037 19.29 65.7099 18.7027 59.5003C18.6055 58.5044 18.5583 57.4995 18.5583 56.4834C18.5583 35.3611 39.3362 18.2354 64.9694 18.2354C65.4321 18.2354 65.8924 18.24 66.3524 18.2514H66.355C69.4503 18.3267 72.4654 18.6511 75.378 19.2014C79.7203 20.0212 83.8328 21.3435 87.6153 23.0884C101.795 29.6334 111.38 42.1368 111.38 56.4834Z" fill="url(#paint0_linear)"/>
</g>
<path d="M102.737 56.4811C102.737 61.5442 101.753 66.3767 99.9664 70.7979C97.705 76.3999 94.1531 81.3443 89.6806 85.261C82.9488 91.1553 74.1319 94.7293 64.481 94.7293C57.4342 94.7293 50.8305 92.8247 45.1632 89.4996C39.7473 86.3276 35.1835 81.8606 31.8919 76.5233C28.7969 71.5015 26.8277 65.7076 26.3436 59.498C26.2635 58.5021 26.2246 57.4972 26.2246 56.4811C26.2246 35.3587 43.3517 18.2329 64.481 18.2329C64.8623 18.2329 65.2417 18.2375 65.6209 18.2489H65.6231C68.1745 18.3242 70.6599 18.6487 73.0607 19.199C76.64 20.0188 80.0299 21.3411 83.1478 23.086C94.8359 29.6309 102.737 42.1344 102.737 56.4811Z" fill="url(#paint1_linear)"/>
<path d="M32.2671 76.2921C29.2078 71.3282 27.2615 65.6016 26.783 59.4638L26.7829 59.4627C26.7038 58.479 26.6653 57.4859 26.6653 56.4811C26.6653 35.6022 43.595 18.6736 64.481 18.6736C64.8588 18.6736 65.2337 18.6782 65.6077 18.6895L65.6076 18.6897H65.6166C68.1367 18.7645 70.5913 19.0851 72.9622 19.6286L72.9623 19.6286C76.5 20.4389 79.8506 21.7458 82.9324 23.4705C94.487 29.9407 102.296 42.3004 102.296 56.4811C102.296 61.4867 101.323 66.2631 99.5577 70.6328L99.5577 70.633C97.3225 76.1699 93.8116 81.0575 89.3902 84.9294C82.7358 90.7561 74.021 94.2886 64.481 94.2886C57.5146 94.2886 50.9877 92.4059 45.3862 89.1195L45.386 89.1193C40.0324 85.9838 35.5209 81.5681 32.2671 76.2921ZM32.2671 76.2921L31.8919 76.5233L32.2671 76.2921Z" stroke="white" stroke-opacity="0.5" stroke-width="0.881469"/>
<path opacity="0.06" d="M102.737 56.4833C102.737 77.6079 85.6101 94.7315 64.4808 94.7315C62.4205 94.7315 60.3964 94.5693 58.4253 94.2543C76.6762 91.354 90.6259 75.5483 90.6259 56.4836C90.6259 37.4213 76.6762 21.6131 58.4253 18.7128C60.3967 18.3976 62.4205 18.2354 64.4808 18.2354C85.6101 18.2354 102.737 35.3612 102.737 56.4833Z" fill="#332A40"/>
<path opacity="0.3" d="M68.4966 31.2046C68.4966 48.0837 54.8095 61.7679 37.9268 61.7679C33.8266 61.7679 29.9159 60.9617 26.3434 59.4978C26.2635 58.5021 26.2246 57.4972 26.2246 56.4811C26.2246 35.3587 43.3517 18.2329 64.481 18.2329C64.8623 18.2329 65.2417 18.2375 65.6209 18.2489H65.6231C67.4665 22.1838 68.4966 26.5733 68.4966 31.2046Z" fill="white"/>
<path opacity="0.3" d="M83.1543 23.3471C83.1543 26.6036 80.5138 29.2458 77.254 29.2458C73.9968 29.2458 71.3562 26.6036 71.3562 23.3471C71.3562 21.7302 72.0072 20.2641 73.0601 19.1997C76.6395 20.0196 80.0294 21.3419 83.1473 23.0867C83.1521 23.1734 83.1543 23.2601 83.1543 23.3471Z" fill="white"/>
<path opacity="0.3" d="M99.9661 70.7979C97.7047 76.3999 94.1528 81.3443 89.6803 85.2609C88.1247 83.6394 87.1677 81.438 87.1677 79.0127C87.1677 74.0227 91.213 69.9783 96.2041 69.9783C97.5471 69.9778 98.8218 70.2702 99.9661 70.7979Z" fill="white"/>
<path opacity="0.3" d="M48.8843 82.0206C48.8843 85.0739 47.4248 87.787 45.1634 89.4998C39.7474 86.3277 35.1836 81.8608 31.8921 76.5235C33.596 74.1688 36.3692 72.6365 39.4985 72.6365C44.6815 72.6367 48.8843 76.8365 48.8843 82.0206Z" fill="white"/>
<path opacity="0.3" d="M57.9699 72.6337C51.9217 72.6337 49.1393 66.6135 49.0953 62.3389L48.8837 42.8302C48.8439 40.3182 50.1113 37.3778 52.1128 35.3442C53.9159 33.5124 56.1034 32.5442 58.4389 32.5442C59.1756 32.5442 59.923 32.6442 60.6597 32.8414C67.8712 34.7735 74.7887 39.4906 81.8298 44.5676C84.2394 46.3365 85.6706 49.2832 85.6662 52.4555C85.6616 55.6659 84.2035 58.644 81.7664 60.4219C75.0998 65.2018 68.0018 70.0427 60.8708 72.1847C59.8788 72.4824 58.9026 72.6337 57.9699 72.6337Z" fill="#332A40"/>
<path opacity="0.3" d="M57.97 71.494C52.7012 71.494 50.2766 66.1346 50.2375 62.3292L50.026 42.82C49.9905 40.5955 51.129 37.9738 52.9269 36.1475C54.5104 34.5387 56.4166 33.6882 58.439 33.6882C59.0761 33.6882 59.7239 33.7752 60.3642 33.9466C67.3886 35.8284 74.2102 40.4833 81.162 45.4957C83.275 47.0468 84.5283 49.6462 84.5242 52.4557C84.5201 55.3033 83.2373 57.937 81.0935 59.5012C74.508 64.2231 67.505 69.0014 60.5425 71.0928C59.6569 71.3589 58.7915 71.494 57.97 71.494Z" fill="#332A40"/>
<path opacity="0.3" d="M78.0284 86.1654C69.5928 89.4837 62.9181 84.8111 59.6951 81.7349C59.2635 81.3192 59.2521 80.73 59.5124 80.3031C59.5627 80.3808 59.622 80.4561 59.6951 80.5246C62.9181 83.6007 69.5928 88.2755 78.0284 84.9572C85.8495 81.8811 87.4325 74.6391 87.5833 69.96C87.5901 70.008 87.5947 70.0581 87.5947 70.1108C87.6426 74.6782 86.4662 82.8471 78.0284 86.1654Z" fill="#332A40"/>
<path d="M80.3607 46.6073C73.7492 41.8402 66.8533 37.1037 60.0101 35.2705C54.9818 33.9234 51.341 39.3042 51.3969 42.8053C51.4673 49.3087 51.5378 55.812 51.6082 62.3154C51.6441 65.8163 54.1227 71.5912 60.1483 69.781C66.7962 67.7841 73.654 63.1496 80.2859 58.3949C84.0646 55.6378 84.1302 49.3743 80.3607 46.6073Z" fill="white"/>
<path d="M73.4678 79.7641C70.3007 81.1345 69.3964 77.9389 69.3964 77.9389C71.2249 77.5656 73.1499 77.0059 75.0865 76.1807H75.0923C75.0923 76.1804 76.6321 78.3966 73.4678 79.7641Z" fill="white"/>
<path d="M81.908 75.3141C79.5193 77.8013 77.4486 75.2033 77.4486 75.2033L77.3932 75.072C79.0731 74.1623 80.7355 73.0308 82.3163 71.6226C82.8441 72.133 83.7219 73.4247 81.908 75.3141Z" fill="white"/>
<path d="M82.3167 71.6187C82.8448 72.1289 83.7226 73.4209 81.9084 75.3102C79.5197 77.7975 77.449 75.1995 77.449 75.1995L77.3941 75.0691C77.3939 75.0691 77.3939 75.0691 77.3936 75.0693C76.6261 75.4848 75.8566 75.8525 75.0868 76.1791H75.0927C75.0927 76.1791 76.6326 78.3951 73.4681 79.7626C70.3041 81.1318 69.3986 77.9439 69.3969 77.9376C65.8814 78.6523 62.7293 78.6751 60.5661 78.5428C59.5998 78.4857 59.0334 79.5498 59.5131 80.3012C59.5634 80.3789 59.6226 80.4542 59.6958 80.5227C62.9188 83.5988 69.5934 88.2737 78.0291 84.9554C85.8502 81.8792 87.4331 74.6373 87.584 69.9581C87.5954 69.5882 87.6 69.2342 87.5954 68.9007C87.584 67.8159 86.2111 67.3616 85.5373 68.2089C84.5164 69.4969 83.436 70.6274 82.3167 71.6187Z" fill="#332A40"/>
<path d="M74.15 52.591C74.15 54.265 73.7024 55.834 72.9188 57.1837C72.6424 56.5807 72.0325 56.1606 71.3266 56.1606C70.3603 56.1606 69.577 56.944 69.577 57.9098C69.577 58.7251 70.1344 59.4104 70.8882 59.6044C69.2891 60.9542 67.2243 61.7672 64.9697 61.7672C59.9011 61.7672 55.7893 57.6587 55.7893 52.591C55.7893 51.3282 56.0451 50.1247 56.5066 49.0284C57.1415 49.8689 58.1534 50.41 59.2909 50.41C61.2234 50.41 62.7904 48.8434 62.7904 46.9113C62.7904 45.7762 62.249 44.767 61.4107 44.1297C62.505 43.6683 63.7085 43.4126 64.9694 43.4126C70.0385 43.4128 74.15 47.5213 74.15 52.591Z" fill="#332A40"/>
<path opacity="0.2" d="M64.9694 55.3382C66.4865 55.3382 67.7163 54.1086 67.7163 52.5918C67.7163 51.075 66.4865 49.8455 64.9694 49.8455C63.4523 49.8455 62.2224 51.075 62.2224 52.5918C62.2224 54.1086 63.4523 55.3382 64.9694 55.3382Z" fill="white"/>
<defs>
<filter id="filter0_f" x="0.928976" y="0.605978" width="128.081" height="111.755" filterUnits="userSpaceOnUse" color-interpolation-filters="sRGB">
<feFlood flood-opacity="0" result="BackgroundImageFix"/>
<feBlend mode="normal" in="SourceGraphic" in2="BackgroundImageFix" result="shape"/>
<feGaussianBlur stdDeviation="8.81469" result="effect1_foregroundBlur"/>
</filter>
<linearGradient id="paint0_linear" x1="27.1398" y1="21.5153" x2="92.5877" y2="152.991" gradientUnits="userSpaceOnUse">
<stop stop-color="#2DC8D8"/>
<stop offset="1" stop-color="#ECF281"/>
</linearGradient>
<linearGradient id="paint1_linear" x1="33.2982" y1="21.5129" x2="105.896" y2="141.727" gradientUnits="userSpaceOnUse">
<stop stop-color="#2DC8D8"/>
<stop offset="1" stop-color="#ECF281"/>
</linearGradient>
</defs>
</svg>
