<svg width="49" height="40" viewBox="0 0 49 40" fill="none" xmlns="http://www.w3.org/2000/svg">
<path d="M32.3531 3.70992C36.1395 3.70992 39.2094 19.6731 39.2094 39.3648H44.6956C44.6956 18.1578 39.169 0.966797 32.3533 0.966797C28.4753 0.966797 25.0154 6.13337 22.7531 14.2125C20.4912 6.13337 17.0303 0.966797 13.1526 0.966797C6.33687 0.966797 0.80957 18.1578 0.80957 39.3648H6.29646C6.29646 19.6731 9.36671 3.70992 13.1526 3.70992C16.9395 3.70992 20.0106 18.4452 20.0106 36.6232H25.4956C25.4957 18.4452 28.5658 3.70992 32.3531 3.70992ZM47.4417 36.6232C48.1858 36.6232 48.8096 37.2124 48.8096 37.9875C48.8096 38.775 48.1858 39.3645 47.4417 39.3645C46.6949 39.3645 46.066 38.7747 46.066 37.9875C46.066 37.2124 46.6949 36.6232 47.4417 36.6232ZM47.4417 39.1644C48.0719 39.1644 48.5613 38.658 48.5613 37.988C48.5613 37.3297 48.0716 36.8239 47.4417 36.8239C46.8036 36.8239 46.3147 37.3297 46.3147 37.988C46.3146 38.6578 46.8036 39.1644 47.4417 39.1644ZM46.9083 37.1914H47.5264C47.9046 37.1914 48.0829 37.342 48.0829 37.649C48.0829 37.9387 47.9022 38.0597 47.6653 38.0849L48.1203 38.7935H47.8532L47.4196 38.1042H47.1574V38.7935H46.9086L46.9083 37.1914ZM47.1572 37.9031H47.4163C47.6346 37.9031 47.8356 37.8923 47.8356 37.6383C47.8356 37.4253 47.6533 37.3918 47.4856 37.3918H47.1575L47.1572 37.9031Z" fill="#FFC300"/>
</svg>
