<svg width="25" height="25" viewBox="0 0 25 25" fill="none" xmlns="http://www.w3.org/2000/svg">
<g id="Iconly/Light-Outline/Message">
<g id="Message">
<path id="Fill 1" fill-rule="evenodd" clip-rule="evenodd" d="M11.824 14.2687C11.155 14.2687 10.488 14.0477 9.93002 13.6057L5.44502 9.9897C5.12202 9.7297 5.07202 9.2567 5.33102 8.9347C5.59202 8.6137 6.06402 8.5627 6.38602 8.8217L10.867 12.4337C11.43 12.8797 12.223 12.8797 12.79 12.4297L17.226 8.8237C17.548 8.5607 18.02 8.6107 18.282 8.9327C18.543 9.2537 18.494 9.7257 18.173 9.9877L13.729 13.5997C13.167 14.0457 12.495 14.2687 11.824 14.2687Z" fill="#312B3E"/>
<g id="Group 5">
<mask id="mask0" style="mask-type:alpha" maskUnits="userSpaceOnUse" x="1" y="2" width="22" height="21">
<path id="Clip 4" fill-rule="evenodd" clip-rule="evenodd" d="M1.04712 2.80371H22.547V22.3037H1.04712V2.80371Z" fill="white"/>
</mask>
<g mask="url(#mask0)">
<path id="Fill 3" fill-rule="evenodd" clip-rule="evenodd" d="M6.88601 20.8037H16.706C16.708 20.8017 16.716 20.8037 16.722 20.8037C17.863 20.8037 18.875 20.3957 19.651 19.6207C20.552 18.7237 21.047 17.4347 21.047 15.9917V9.12371C21.047 6.33071 19.221 4.30371 16.706 4.30371H6.88801C4.37301 4.30371 2.54701 6.33071 2.54701 9.12371V15.9917C2.54701 17.4347 3.04301 18.7237 3.94301 19.6207C4.71901 20.3957 5.73201 20.8037 6.87201 20.8037H6.88601ZM6.86901 22.3037C5.32601 22.3037 3.94801 21.7437 2.88401 20.6837C1.69901 19.5017 1.04701 17.8357 1.04701 15.9917V9.12371C1.04701 5.52071 3.55801 2.80371 6.88801 2.80371H16.706C20.036 2.80371 22.547 5.52071 22.547 9.12371V15.9917C22.547 17.8357 21.895 19.5017 20.71 20.6837C19.647 21.7427 18.268 22.3037 16.722 22.3037H16.706H6.88801H6.86901Z" fill="#312B3E"/>
</g>
</g>
</g>
</g>
</svg>
