<svg width="18" height="12" viewBox="0 0 18 12" fill="none" xmlns="http://www.w3.org/2000/svg">
<path fill-rule="evenodd" clip-rule="evenodd" d="M1.44565 0.690066L6.8553 5.35137C8.03516 6.36561 9.96382 6.36649 11.1447 5.35137L16.5543 0.690066C16.6088 0.643143 16.6009 0.565871 16.5377 0.527908C15.9859 0.196483 15.3146 0 14.5914 0H3.40857C2.68539 0 2.01407 0.196517 1.46231 0.527908C1.39911 0.565871 1.39117 0.643143 1.44565 0.690066ZM0 2.93573C0 2.44595 0.14099 1.98319 0.389337 1.57645C0.428173 1.51282 0.526612 1.49995 0.585629 1.55078L5.9268 6.15108C7.61818 7.60996 10.3808 7.61081 12.0732 6.15108L17.4144 1.55078C17.4734 1.49995 17.5718 1.51282 17.6107 1.57645C17.859 1.98319 18 2.44599 18 2.93573V9.06424C18 10.6842 16.47 12 14.5914 12H3.40857C1.53005 12 0 10.6842 0 9.06424V2.93573Z" fill="currentColor"/>
</svg>
