<svg width="25" height="25" viewBox="0 0 25 25" fill="none" xmlns="http://www.w3.org/2000/svg">
<g id="Iconly/Light-Outline/Message">
<g id="Message">
<path id="Fill 1" fill-rule="evenodd" clip-rule="evenodd" d="M12.2146 14.2687C11.5456 14.2687 10.8786 14.0477 10.3206 13.6057L5.83565 9.9897C5.51265 9.7297 5.46265 9.2567 5.72165 8.9347C5.98265 8.6137 6.45465 8.5627 6.77665 8.8217L11.2576 12.4337C11.8206 12.8797 12.6136 12.8797 13.1806 12.4297L17.6166 8.8237C17.9386 8.5607 18.4106 8.6107 18.6726 8.9327C18.9336 9.2537 18.8846 9.7257 18.5636 9.9877L14.1196 13.5997C13.5576 14.0457 12.8856 14.2687 12.2146 14.2687Z" fill="#999CAD"/>
<g id="Group 5">
<mask id="mask0" style="mask-type:alpha" maskUnits="userSpaceOnUse" x="1" y="2" width="22" height="21">
<path id="Clip 4" fill-rule="evenodd" clip-rule="evenodd" d="M1.43774 2.80371H22.9376V22.3037H1.43774V2.80371Z" fill="white"/>
</mask>
<g mask="url(#mask0)">
<path id="Fill 3" fill-rule="evenodd" clip-rule="evenodd" d="M7.27664 20.8037H17.0966C17.0986 20.8017 17.1066 20.8037 17.1126 20.8037C18.2536 20.8037 19.2656 20.3957 20.0416 19.6207C20.9426 18.7237 21.4376 17.4347 21.4376 15.9917V9.12371C21.4376 6.33071 19.6116 4.30371 17.0966 4.30371H7.27864C4.76364 4.30371 2.93764 6.33071 2.93764 9.12371V15.9917C2.93764 17.4347 3.43364 18.7237 4.33364 19.6207C5.10964 20.3957 6.12264 20.8037 7.26264 20.8037H7.27664ZM7.25964 22.3037C5.71664 22.3037 4.33864 21.7437 3.27464 20.6837C2.08964 19.5017 1.43764 17.8357 1.43764 15.9917V9.12371C1.43764 5.52071 3.94864 2.80371 7.27864 2.80371H17.0966C20.4266 2.80371 22.9376 5.52071 22.9376 9.12371V15.9917C22.9376 17.8357 22.2856 19.5017 21.1006 20.6837C20.0376 21.7427 18.6586 22.3037 17.1126 22.3037H17.0966H7.27864H7.25964Z" fill="#999CAD"/>
</g>
</g>
</g>
</g>
</svg>
