<svg width="20" height="21" viewBox="0 0 20 21" fill="none" xmlns="http://www.w3.org/2000/svg">
<path fill-rule="evenodd" clip-rule="evenodd" d="M0 10.2949C0 4.77492 4.47 0.294922 10 0.294922C15.52 0.294922 20 4.77492 20 10.2949C20 15.8249 15.52 20.2949 10 20.2949C4.47 20.2949 0 15.8249 0 10.2949ZM12.23 12.1246L13.85 7.00461C13.96 6.65461 13.64 6.32462 13.29 6.43461L8.16995 8.03462C7.95995 8.10461 7.78995 8.26462 7.72995 8.47462L6.12995 13.6046C6.01995 13.9446 6.34995 14.2746 6.68995 14.1646L11.79 12.5646C12 12.5046 12.17 12.3346 12.23 12.1246Z" fill="currentColor"/>
</svg>
