<svg width="24" height="25" viewBox="0 0 24 25" fill="none" xmlns="http://www.w3.org/2000/svg">
<path d="M5.57009 2.20459C5.35231 2.20431 5.14626 2.3035 5.01065 2.47385L2.15904 6.04393C2.0565 6.17061 2.00028 6.32868 2 6.49176C2 7.81739 2.48004 8.88465 3.23466 9.57634C3.98928 10.268 4.98079 10.5785 5.94956 10.5515C7.32708 10.5133 8.45463 9.53756 9.14575 8.19518C9.3532 8.59418 9.35557 9.15305 9.67172 9.43405C10.4217 10.1006 11.3936 10.4204 12.3559 10.4204C13.3182 10.4204 14.2901 10.1006 15.0401 9.43405C15.3346 9.17233 15.33 8.64372 15.5312 8.27889C16.1629 9.56381 17.1527 10.5125 18.4037 10.5515C19.3037 10.5797 20.224 10.2507 20.9037 9.54984C21.5834 8.84893 22.0003 7.799 22.0003 6.49176C22.0003 6.32881 21.9448 6.17089 21.8426 6.04393L18.9841 2.47385C18.8496 2.30504 18.646 2.20599 18.4302 2.20459H5.57009ZM2 10.3518V21.4931C2.00154 21.8854 2.3192 22.2031 2.71151 22.2046H13.426V15.0602C13.4267 14.8705 13.5028 14.6889 13.6376 14.5554C13.7724 14.4219 13.9547 14.3476 14.1444 14.3487H18.4302C18.6187 14.3494 18.7992 14.4246 18.9324 14.5578C19.0657 14.6912 19.1408 14.8717 19.1417 15.0602V22.2046H21.2887C21.681 22.203 21.9987 21.8854 22.0003 21.4931V10.4618C21.9757 10.4886 21.9544 10.5181 21.9291 10.5441C20.9563 11.5474 19.6369 12.0196 18.359 11.9797C17.2467 11.945 16.3703 11.413 15.633 10.7115C14.6532 11.4479 13.5028 11.8486 12.3559 11.8486C11.1623 11.8486 9.95572 11.4362 8.95321 10.6362C8.13791 11.3807 7.18015 11.9466 5.9886 11.9797C4.68808 12.0158 3.32645 11.5983 2.26926 10.6292C2.17453 10.5423 2.08775 10.4462 2 10.3516L2 10.3518ZM5.57009 14.3487H9.85729C10.0468 14.348 10.2287 14.4225 10.3632 14.5559C10.4976 14.6894 10.5735 14.8707 10.5744 15.0602V19.346C10.5755 19.5365 10.5003 19.7197 10.3657 19.8548C10.2309 19.9897 10.0479 20.0651 9.85731 20.0644H5.5701C5.38037 20.0636 5.19885 19.9874 5.06534 19.8527C4.93183 19.7179 4.85747 19.5356 4.85859 19.3459V15.0602C4.85928 14.8717 4.93448 14.6912 5.06785 14.5578C5.20109 14.4246 5.38162 14.3494 5.57008 14.3487L5.57009 14.3487Z" fill="currentColor"/>
</svg>
