<svg width="25" height="22" viewBox="0 0 25 22" fill="none" xmlns="http://www.w3.org/2000/svg">
<path d="M10.8551 13.7298V8.27123C10.8551 8.23817 10.8638 8.20569 10.8803 8.17706C10.8968 8.14843 10.9206 8.12465 10.9492 8.10812C10.9779 8.09159 11.0103 8.08289 11.0434 8.08289C11.0765 8.08289 11.1089 8.0916 11.1376 8.10813L15.8648 10.8374C15.8935 10.854 15.9172 10.8777 15.9338 10.9064C15.9503 10.935 15.959 10.9675 15.959 11.0005C15.959 11.0336 15.9503 11.0661 15.9338 11.0947C15.9172 11.1233 15.8935 11.1471 15.8648 11.1636L11.1376 13.8929C11.1089 13.9094 11.0765 13.9181 11.0434 13.9181C11.0103 13.9181 10.9779 13.9094 10.9492 13.8929C10.9206 13.8764 10.8968 13.8526 10.8803 13.824C10.8638 13.7953 10.8551 13.7629 10.8551 13.7298ZM0.619141 20.0008V2.00026C0.619728 1.48136 0.826113 0.983872 1.19302 0.61694C1.55993 0.250007 2.0574 0.0435898 2.5763 0.0429688H22.662C23.1809 0.0435898 23.6784 0.250007 24.0453 0.61694C24.4122 0.983872 24.6186 1.48136 24.6191 2.00026V20.0008C24.6186 20.5197 24.4122 21.0172 24.0453 21.3841C23.6784 21.751 23.1809 21.9575 22.662 21.9581H2.5763C2.0574 21.9575 1.55993 21.751 1.19302 21.3841C0.826113 21.0172 0.619728 20.5197 0.619141 20.0008ZM4.70207 20.8914V17.2429H1.68581V20.0008C1.68605 20.2369 1.77994 20.4633 1.94689 20.6302C2.11383 20.7972 2.34019 20.8911 2.5763 20.8914H4.70207ZM8.16784 11.0005C8.16784 11.8809 8.42891 12.7415 8.91802 13.4735C9.40714 14.2056 10.1023 14.7761 10.9157 15.113C11.7291 15.4499 12.6241 15.5381 13.4876 15.3663C14.351 15.1946 15.1442 14.7706 15.7667 14.1481C16.3892 13.5256 16.8132 12.7324 16.9849 11.8689C17.1567 11.0055 17.0686 10.1105 16.7316 9.29708C16.3947 8.48371 15.8242 7.78851 15.0922 7.29939C14.3602 6.81027 13.4995 6.54921 12.6192 6.54921C11.4386 6.54921 10.3064 7.01819 9.4716 7.85297C8.63682 8.68776 8.16784 9.81996 8.16784 11.0005ZM20.5362 15.546H23.5525V11.849H20.5362V15.546ZM23.5525 10.152V6.45508L20.5362 6.45507V10.152H23.5525ZM4.70207 6.45507H1.68581V10.152H4.70207V6.45507ZM1.68581 11.849V15.546H4.70207V11.849H1.68581ZM23.5525 20.0008V17.2429H20.5362V20.8914H22.662C22.8981 20.8911 23.1245 20.7972 23.2914 20.6302C23.4583 20.4633 23.5522 20.2369 23.5525 20.0008ZM20.5362 1.10964V4.75811H23.5525V2.00026C23.5522 1.76415 23.4583 1.53777 23.2914 1.37081C23.1245 1.20384 22.8981 1.10991 22.662 1.10964L20.5362 1.10964ZM1.68581 2.00026V4.75811H4.70207V1.10964H2.5763C2.34019 1.10992 2.11383 1.20384 1.94689 1.37081C1.77994 1.53778 1.68605 1.76415 1.68581 2.00026Z" fill="#430383"/>
</svg>
