<svg width="25" height="23" viewBox="0 0 25 23" fill="none" xmlns="http://www.w3.org/2000/svg">
<path d="M10.2757 14.6072V9.14867C10.2757 9.11561 10.2844 9.08313 10.3009 9.0545C10.3175 9.02587 10.3413 9.0021 10.3699 8.98557C10.3985 8.96904 10.431 8.96033 10.4641 8.96033C10.4971 8.96033 10.5296 8.96904 10.5582 8.98557L15.2855 11.7149C15.3141 11.7314 15.3379 11.7552 15.3544 11.7838C15.371 11.8124 15.3797 11.8449 15.3797 11.878C15.3797 11.911 15.371 11.9435 15.3544 11.9721C15.3379 12.0008 15.3141 12.0245 15.2855 12.0411L10.5582 14.7704C10.5296 14.7869 10.4971 14.7956 10.4641 14.7956C10.431 14.7956 10.3985 14.7869 10.3699 14.7704C10.3413 14.7538 10.3175 14.73 10.3009 14.7014C10.2844 14.6728 10.2757 14.6403 10.2757 14.6072ZM0.0397949 20.8782V2.8777C0.0403821 2.3588 0.246767 1.86131 0.613675 1.49438C0.980584 1.12745 1.47805 0.921031 1.99696 0.92041H22.0826C22.6015 0.921031 23.099 1.12745 23.4659 1.49438C23.8328 1.86131 24.0392 2.3588 24.0398 2.8777V20.8782C24.0392 21.3971 23.8328 21.8946 23.4659 22.2616C23.099 22.6285 22.6015 22.8349 22.0826 22.8355H1.99696C1.47805 22.8349 0.980584 22.6285 0.613675 22.2616C0.246767 21.8946 0.0403821 21.3971 0.0397949 20.8782ZM4.12273 21.7689V18.1204H1.10646V20.8782C1.1067 21.1143 1.2006 21.3407 1.36754 21.5077C1.53449 21.6747 1.76085 21.7686 1.99696 21.7689H4.12273ZM7.58849 11.878C7.58849 12.7584 7.84956 13.619 8.33868 14.351C8.82779 15.083 9.52299 15.6535 10.3364 15.9904C11.1497 16.3274 12.0447 16.4155 12.9082 16.2438C13.7717 16.072 14.5648 15.6481 15.1874 15.0255C15.8099 14.403 16.2338 13.6098 16.4056 12.7464C16.5774 11.8829 16.4892 10.9879 16.1523 10.1745C15.8154 9.36115 15.2448 8.66595 14.5128 8.17683C13.7808 7.68772 12.9202 7.42665 12.0398 7.42665C10.8593 7.42665 9.72704 7.89563 8.89226 8.73041C8.05747 9.5652 7.5885 10.6974 7.58849 11.878ZM19.9569 16.4234H22.9731V12.7265H19.9569V16.4234ZM22.9731 11.0295V7.33252L19.9569 7.33251V11.0295H22.9731ZM4.12273 7.33251H1.10646V11.0295H4.12273V7.33251ZM1.10646 12.7264V16.4234H4.12273V12.7264H1.10646ZM22.9731 20.8782V18.1204H19.9569V21.7689H22.0826C22.3188 21.7686 22.5451 21.6747 22.7121 21.5077C22.879 21.3407 22.9729 21.1143 22.9731 20.8782ZM19.9569 1.98708V5.63555H22.9731V2.8777C22.9729 2.64159 22.879 2.41522 22.712 2.24825C22.5451 2.08128 22.3187 1.98735 22.0826 1.98708L19.9569 1.98708ZM1.10646 2.8777V5.63555H4.12273V1.98708H1.99696C1.76085 1.98736 1.53449 2.08128 1.36754 2.24825C1.2006 2.41522 1.10671 2.64159 1.10646 2.8777Z" fill="white"/>
</svg>
