<svg width="49" height="27" viewBox="0 0 49 27" fill="none" xmlns="http://www.w3.org/2000/svg">
<path d="M0.78125 26.1724H1.85696V24.0366C1.85696 23.6562 1.85696 23.1869 2.05179 22.912C2.24565 22.6132 2.5938 22.516 2.78814 22.516C3.69442 22.516 3.69442 23.5844 3.69442 23.9555V26.1724H4.76964V23.7455C4.76964 23.3969 4.76964 22.6454 4.35752 22.1522C3.98593 21.6986 3.39461 21.5277 3.0069 21.5277C2.3267 21.5277 1.95462 21.9012 1.77688 22.0712V21.6815H0.78125V26.1724Z" fill="#E21836"/>
<path fill-rule="evenodd" clip-rule="evenodd" d="M9.66212 24.4086C9.69288 24.2636 9.72657 24.0771 9.72657 23.8671C9.72657 22.7352 8.82811 21.5033 7.40424 21.5033C6.02041 21.5033 5.04187 22.6698 5.04187 23.9394C5.04187 25.2495 6.07754 26.3184 7.41254 26.3184C8.46433 26.3184 9.32129 25.5669 9.58057 24.7573H8.44724C8.24557 25.1294 7.8901 25.331 7.41254 25.331C6.64397 25.331 6.22306 24.7001 6.17423 24.4086H9.66212ZM6.142 23.5429C6.34415 22.7094 7.01605 22.4911 7.41254 22.4911C7.94674 22.4911 8.50437 22.8227 8.62596 23.5429H6.142Z" fill="#E21836"/>
<path d="M11.107 26.1724H11.7691L12.6192 23.2602H12.6349L13.4772 26.1724H14.1403L15.7824 21.6815H14.6339L13.8077 24.4248H13.7921L13.0631 21.6815H12.2066L11.4703 24.4248H11.4542L10.6372 21.6815H9.48828L11.107 26.1724Z" fill="#E21836"/>
<path fill-rule="evenodd" clip-rule="evenodd" d="M17.8651 26.1724H18.8515V25.6304C19.1176 25.9302 19.4994 26.3184 20.3652 26.3184C22.0068 26.3184 22.5977 24.8056 22.5977 23.9067C22.5977 22.7186 21.708 21.5277 20.3408 21.5277C19.8388 21.5277 19.3124 21.7147 18.9403 22.0873V20.1854H17.8651V26.1724ZM18.8754 23.8671C18.8754 23.2118 19.3852 22.516 20.2104 22.516C20.8906 22.516 21.522 23.0409 21.522 23.9159C21.522 24.7885 20.9311 25.3315 20.227 25.3315C19.5961 25.3315 18.8754 24.8623 18.8754 23.8671Z" fill="#E21836"/>
<path fill-rule="evenodd" clip-rule="evenodd" d="M27.6206 21.6815H26.6328V22.2494H26.6167C26.584 22.184 26.0415 21.5272 25.1284 21.5272C23.8827 21.5272 22.8788 22.5228 22.8788 23.8993C22.8788 25.3955 23.9066 26.3184 25.0639 26.3184C25.6294 26.3184 26.2934 26.0181 26.6328 25.6157V26.1724H27.6206V21.6815ZM26.6015 23.9159C26.6015 24.749 26.0341 25.331 25.2895 25.331C24.5214 25.331 23.9545 24.708 23.9545 23.9477C23.9545 23.2763 24.4076 22.516 25.2895 22.516C25.9292 22.516 26.6015 22.9848 26.6015 23.9159Z" fill="#E21836"/>
<path d="M29.2683 20.1854H28.1926V26.1724H29.2683V20.1854Z" fill="#E21836"/>
<path fill-rule="evenodd" clip-rule="evenodd" d="M34.3325 21.6815H33.3457V22.2494H33.3291C33.2964 22.184 32.7539 21.5272 31.8408 21.5272C30.5937 21.5272 29.5912 22.5228 29.5912 23.8993C29.5912 25.3955 30.619 26.3184 31.7758 26.3184C32.3418 26.3184 33.0049 26.0181 33.3457 25.6157V26.1724H34.3325V21.6815ZM33.313 23.9159C33.313 24.749 32.747 25.331 32.0024 25.331C31.2333 25.331 30.6674 24.708 30.6674 23.9477C30.6674 23.2763 31.1205 22.516 32.0024 22.516C32.6416 22.516 33.313 22.9848 33.313 23.9159Z" fill="#E21836"/>
<path d="M34.9053 26.1724H35.9805V24.0366C35.9805 23.6562 35.9805 23.1869 36.1753 22.912C36.3692 22.6132 36.7183 22.516 36.9117 22.516C37.8175 22.516 37.8175 23.5844 37.8175 23.9555V26.1724H38.8942V23.7455C38.8942 23.3969 38.8942 22.6454 38.4806 22.1522C38.1085 21.6986 37.5186 21.5277 37.1299 21.5277C36.4498 21.5277 36.0786 21.9012 35.8999 22.0712V21.6815H34.9053V26.1724Z" fill="#E21836"/>
<path d="M42.7171 24.708C42.4334 25.1611 42.0784 25.331 41.7225 25.331C40.9124 25.331 40.3709 24.6918 40.3709 23.9233C40.3709 23.0009 41.0184 22.5155 41.6732 22.5155C42.3368 22.5155 42.5882 22.9442 42.7171 23.1703H43.9315C43.4701 21.7865 42.2391 21.5272 41.6732 21.5272C40.4353 21.5272 39.2952 22.5321 39.2952 23.9062C39.2952 25.3955 40.5315 26.3179 41.682 26.3179C42.7337 26.3179 43.5663 25.7109 43.9315 24.708H42.7171Z" fill="#E21836"/>
<path fill-rule="evenodd" clip-rule="evenodd" d="M48.7173 24.4086C48.749 24.2636 48.7813 24.0771 48.7813 23.8671C48.7813 22.7352 47.8838 21.5033 46.4599 21.5033C45.0761 21.5033 44.097 22.6698 44.097 23.9394C44.097 25.2495 45.1327 26.3184 46.4677 26.3184C47.519 26.3184 48.3774 25.5669 48.6357 24.7573H47.5034C47.3008 25.1294 46.9458 25.331 46.4677 25.331C45.6987 25.331 45.2782 24.7001 45.2309 24.4086H48.7173ZM45.1977 23.5429C45.4003 22.7094 46.0712 22.4911 46.4677 22.4911C47.0024 22.4911 47.56 22.8227 47.6811 23.5429H45.1977Z" fill="#E21836"/>
<path fill-rule="evenodd" clip-rule="evenodd" d="M19.0938 11.2874L17.6558 13.7709L9.69611 13.3231L10.493 11.9398L19.0938 11.2874ZM24.8479 3.37411L25.5691 6.11492L14.2749 5.37271L15.0713 3.98985L24.8479 3.37411ZM17.3604 0.0146446L23.9714 0.0195255L24.4705 1.8936L16.565 1.3975L17.3604 0.0146446ZM16.7793 15.3154L15.6313 17.2891L7.40698 17.2979L8.20339 15.9155L16.7793 15.3154ZM31.2187 9.99051L29.2279 13.4413H31.124C32.0024 13.4413 33.5767 13.0028 34.0611 11.7518C34.5098 10.5892 33.6851 9.98905 33.1094 9.98905L31.2187 9.99051ZM33.1172 6.68964L34.771 6.67938C35.8717 6.67352 37.0196 6.17009 37.4396 5.14858C37.8268 4.2008 37.3063 3.39365 36.6163 3.39658L35.0167 3.39462L33.1172 6.68964ZM25.6311 6.11492L27.3011 3.21786L32.9531 2.85506L33.1504 2.50348L27.9222 2.13775L29.1449 0.0146446L38.8405 0.0141563C41.822 0.0141563 44.0277 1.0801 43.1702 4.21496C42.9124 5.16469 41.7004 7.55539 38.1461 8.55688C38.9006 8.64673 40.7795 9.47927 40.4558 11.6375C39.8806 15.4648 34.9253 17.2866 32.1689 17.2876L20.7223 17.293L20.1583 15.0786L26.1536 14.6557L26.3572 14.3051L19.8546 13.9091L19.1539 11.284L28.4066 10.744L28.6078 10.3963L11.9847 9.34743L12.7812 7.96507L30.6742 6.80341L30.8769 6.45526L25.6311 6.11492Z" fill="#E21836"/>
</svg>
