<svg width="24" height="24" viewBox="0 0 24 24" fill="none" xmlns="http://www.w3.org/2000/svg">
<g filter="url(#filter0_d_4242_39316)">
<circle cx="11" cy="11" r="10" fill="url(#paint0_linear_4242_39316)"/>
<path d="M7.92226 10.2116C7.82271 10.3105 7.69414 10.3751 7.55531 10.3959C7.41647 10.4167 7.27463 10.3926 7.15045 10.3271C7.09404 10.2966 7.04261 10.2576 6.99794 10.2116C6.92142 10.1356 6.86523 10.0416 6.83455 9.93822C6.80386 9.83485 6.79965 9.72542 6.82232 9.62L7.32145 7.11508L6.07362 8.36292C5.95105 8.48549 5.7848 8.55435 5.61146 8.55435C5.43811 8.55435 5.27187 8.48549 5.1493 8.36292C5.02672 8.24034 4.95786 8.0741 4.95786 7.90076C4.95786 7.72741 5.02672 7.56117 5.1493 7.43859L7.92226 4.66563C8.02182 4.56665 8.15039 4.50206 8.28922 4.48128C8.42806 4.4605 8.5699 4.4846 8.69407 4.55009C8.81804 4.61643 8.91709 4.72128 8.97627 4.84882C9.03546 4.97636 9.05158 5.11969 9.02221 5.25719L8.52307 7.76211L9.77091 6.51427C9.89348 6.3917 10.0597 6.32284 10.2331 6.32284C10.4064 6.32284 10.5727 6.3917 10.6952 6.51427C10.8178 6.63684 10.8867 6.80309 10.8867 6.97643C10.8867 7.14978 10.8178 7.31602 10.6952 7.43859L7.92226 10.2116ZM12.0817 10.6737C12.2043 10.7963 12.2731 10.9625 12.2731 11.1359C12.2731 11.3092 12.2043 11.4755 12.0817 11.598C11.9591 11.7206 11.7929 11.7895 11.6196 11.7895C11.4462 11.7895 11.28 11.7206 11.1574 11.598L10.2331 10.6737L9.77091 11.1359L10.6952 12.0602C10.8178 12.1828 10.8867 12.349 10.8867 12.5224C10.8867 12.6957 10.8178 12.862 10.6952 12.9845C10.5727 13.1071 10.4064 13.176 10.2331 13.176C10.0597 13.176 9.89348 13.1071 9.77091 12.9845L8.38442 11.598C8.26185 11.4755 8.19299 11.3092 8.19299 11.1359C8.19299 10.9625 8.26185 10.7963 8.38442 10.6737L11.1574 7.90076C11.28 7.77818 11.4462 7.70932 11.6196 7.70932C11.7929 7.70932 11.9591 7.77818 12.0817 7.90076L13.4682 9.28724C13.5908 9.40981 13.6596 9.57606 13.6596 9.7494C13.6596 9.92274 13.5908 10.089 13.4682 10.2116C13.3456 10.3341 13.1794 10.403 13.006 10.403C12.8327 10.403 12.6664 10.3341 12.5439 10.2116L11.6196 9.28724L11.1574 9.7494L12.0817 10.6737ZM13.8513 16.2885C13.7336 16.3719 13.5919 16.4147 13.4477 16.4105C13.3035 16.4064 13.1645 16.3554 13.0518 16.2654L13.006 16.2197C12.9126 16.1247 12.8499 16.0039 12.826 15.8728C12.8021 15.7418 12.8182 15.6066 12.872 15.4848L13.3064 14.5328L12.3544 14.9672C12.2227 15.0292 12.0741 15.0456 11.9321 15.0136C11.7902 14.9816 11.6629 14.9031 11.5706 14.7906C11.4783 14.6781 11.4261 14.538 11.4224 14.3925C11.4187 14.247 11.4637 14.1045 11.5502 13.9874L13.861 10.7523C13.9628 10.6113 14.1163 10.5166 14.2879 10.4888C14.4596 10.4611 14.6352 10.5027 14.7761 10.6044C14.9171 10.7061 15.0118 10.8597 15.0396 11.0313C15.0673 11.2029 15.0257 11.3785 14.924 11.5195L14.0274 12.7673L14.3509 12.6194C14.4725 12.5626 14.6087 12.5446 14.7409 12.5678C14.8731 12.5911 14.9949 12.6545 15.0898 12.7494C15.1848 12.8443 15.2481 12.9661 15.2714 13.0983C15.2946 13.2305 15.2766 13.3667 15.2198 13.4883L15.0719 13.8118L16.3197 12.9152C16.4607 12.8135 16.6363 12.7719 16.8079 12.7996C16.8929 12.8134 16.9743 12.8437 17.0476 12.8889C17.1208 12.9341 17.1844 12.9933 17.2348 13.0631C17.2852 13.1329 17.3213 13.2119 17.3412 13.2957C17.361 13.3794 17.3641 13.4663 17.3504 13.5513C17.3367 13.6362 17.3063 13.7177 17.2611 13.7909C17.2159 13.8642 17.1567 13.9278 17.0869 13.9782L13.8513 16.2885Z" fill="white"/>
</g>
<defs>
<filter id="filter0_d_4242_39316" x="0" y="0" width="24" height="24" filterUnits="userSpaceOnUse" color-interpolation-filters="sRGB">
<feFlood flood-opacity="0" result="BackgroundImageFix"/>
<feColorMatrix in="SourceAlpha" type="matrix" values="0 0 0 0 0 0 0 0 0 0 0 0 0 0 0 0 0 0 127 0" result="hardAlpha"/>
<feOffset dx="1" dy="1"/>
<feGaussianBlur stdDeviation="1"/>
<feComposite in2="hardAlpha" operator="out"/>
<feColorMatrix type="matrix" values="0 0 0 0 0 0 0 0 0 0 0 0 0 0 0 0 0 0 0.1 0"/>
<feBlend mode="normal" in2="BackgroundImageFix" result="effect1_dropShadow_4242_39316"/>
<feBlend mode="normal" in="SourceGraphic" in2="effect1_dropShadow_4242_39316" result="shape"/>
</filter>
<linearGradient id="paint0_linear_4242_39316" x1="2.849" y1="1.85755" x2="16.9093" y2="24.2496" gradientUnits="userSpaceOnUse">
<stop stop-color="#FFB800"/>
</linearGradient>
</defs>
</svg>
