<?xml version="1.0" encoding="UTF-8"?>
<svg id="Layer_1" data-name="Layer 1" xmlns="http://www.w3.org/2000/svg" viewBox="0 0 283.46 283.46" 
  fill="currentColor" 
  stroke="none">
  <defs>
    <style>
      .cls-1 {
        fill: #fff;
      }
    </style>
  </defs>
  <g>
    <polygon points="78.05 54.43 46.11 54.43 18.89 102.9 61.71 102.9 78.05 54.43"/>
    <polygon points="117.19 102.9 160.58 102.9 155.13 54.43 122.63 54.43 117.19 102.9"/>
    <polygon points="119.98 48.49 157.78 48.49 195.59 48.49 229.58 48.49 228.15 42.89 49.61 42.89 48.19 48.49 82.18 48.49 119.98 48.49"/>
    <polygon points="231.65 54.43 199.72 54.43 216.05 102.9 258.88 102.9 231.65 54.43"/>
    <polygon points="67.97 102.9 111.22 102.9 116.66 54.43 84.31 54.43 67.97 102.9"/>
    <path d="M166.86,117.85c0,12.16,9.89,22.05,22.05,22.05s22.05-9.89,22.05-22.05v-9.01h-44.09v9.01Z"/>
    <path d="M116.84,117.85c0,12.16,9.89,22.05,22.05,22.05s22.05-9.89,22.05-22.05v-9.01h-44.09v9.01Z"/>
    <polygon points="166.55 102.9 209.79 102.9 193.46 54.43 161.1 54.43 166.55 102.9"/>
    <path d="M66.81,117.85c0,12.16,9.89,22.05,22.05,22.05s22.05-9.89,22.05-22.05v-9.01h-44.09v9.01Z"/>
    <path d="M213.92,130.37c-4.6,9.15-14.09,15.45-25.01,15.45s-20.41-6.3-25.01-15.45c-4.6,9.15-14.09,15.45-25.01,15.45s-20.41-6.3-25.01-15.45c-4.6,9.15-14.09,15.45-25.01,15.45s-20.41-6.3-25.01-15.45c-4.6,9.15-14.07,15.44-24.98,15.45v97.65c0,6.41,5.21,11.62,11.62,11.62h176.8c6.41,0,11.62-5.21,11.62-11.62v-97.65c-10.91-.01-20.38-6.3-24.98-15.45ZM100.09,236.3c0,1.64-1.33,2.97-2.97,2.97h-38.48c-1.64,0-2.97-1.33-2.97-2.97v-68.03c0-1.64,1.33-2.97,2.97-2.97h38.48c1.64,0,2.97,1.33,2.97,2.97v68.03ZM222.08,236.3c0,1.64-1.33,2.97-2.97,2.97h-102.18c-1.64,0-2.97-1.33-2.97-2.97v-68.03c0-1.64,1.33-2.97,2.97-2.97h102.18c1.64,0,2.97,1.33,2.97,2.97v68.03Z"/>
    <path d="M216.89,117.85c0,12.16,9.89,22.05,22.05,22.05s22.05-9.89,22.05-22.05v-9.01h-44.09v9.01Z"/>
    <path d="M60.88,117.85v-9.01H16.78v9.01c0,12.16,9.89,22.05,22.05,22.05s22.05-9.89,22.05-22.05Z"/>
    <rect x="119.9" y="171.24" width="96.25" height="62.09"/>
    <rect x="61.62" y="171.24" width="32.54" height="62.09"/>
  </g>
  <path class="cls-1" d="M125.76,215.76l5.37-27.39h5.03l7.45,16.74h.12l3.25-16.74h6.17l-5.37,27.39h-5.03l-7.45-16.74h-.12l-3.25,16.74h-6.17Z"/>
  <path class="cls-1" d="M169.11,215.76h-17.28l5.37-27.39h17.27l-1.1,5.6h-10.85l-1.07,5.47h10.21l-1,5.12h-10.21l-1.1,5.6h10.85l-1.08,5.6Z"/>
  <path class="cls-1" d="M183.72,215.76h-6.08l-1.24-27.39h6.52l-.09,18.26h.12l7.78-18.26h5.09l.86,18.26h.12l6.89-18.26h6.61l-11.9,27.39h-6.01l-1.03-17.04h-.12l-7.5,17.04Z"/>
</svg>