<svg width="18" height="21" viewBox="0 0 18 21" fill="none" xmlns="http://www.w3.org/2000/svg">
<path fill-rule="evenodd" clip-rule="evenodd" d="M16.0977 7.65375C16.0977 8.90968 16.4296 9.64995 17.1601 10.503C17.7137 11.1315 17.8906 11.9382 17.8906 12.8134C17.8906 13.6877 17.6034 14.5176 17.028 15.1914C16.2746 15.9991 15.2122 16.5148 14.1279 16.6044C12.5566 16.7384 10.9843 16.8512 9.39112 16.8512C7.79697 16.8512 6.22567 16.7837 4.65438 16.6044C3.56908 16.5148 2.50664 15.9991 1.75429 15.1914C1.17884 14.5176 0.890625 13.6877 0.890625 12.8134C0.890625 11.9382 1.06853 11.1315 1.62111 10.503C2.37446 9.64995 2.68454 8.90968 2.68454 7.65375V7.22772C2.68454 5.54576 3.10395 4.44594 3.96762 3.36928C5.25169 1.79912 7.30998 0.857422 9.3464 0.857422H9.43585C11.516 0.857422 13.6409 1.84444 14.9031 3.48209C15.722 4.53659 16.0977 5.59008 16.0977 7.22772V7.65375ZM6.4643 18.9183C6.4643 18.4147 6.92645 18.184 7.35381 18.0853C7.85372 17.9796 10.8999 17.9796 11.3998 18.0853C11.8272 18.184 12.2893 18.4147 12.2893 18.9183C12.2645 19.3977 11.9832 19.8227 11.5946 20.0926C11.0907 20.4854 10.4994 20.7342 9.8812 20.8238C9.53931 20.8681 9.20338 20.8691 8.87342 20.8238C8.25424 20.7342 7.6629 20.4854 7.16 20.0916C6.77041 19.8227 6.48915 19.3977 6.4643 18.9183Z" fill="currentColor"/>
</svg>
