<svg width="18" height="21" viewBox="0 0 18 21" fill="none" xmlns="http://www.w3.org/2000/svg">
<path fill-rule="evenodd" clip-rule="evenodd" d="M15.7071 7.65375C15.7071 8.90968 16.039 9.64995 16.7695 10.503C17.3231 11.1315 17.5 11.9382 17.5 12.8134C17.5 13.6877 17.2128 14.5176 16.6373 15.1914C15.884 15.9991 14.8215 16.5148 13.7372 16.6044C12.1659 16.7384 10.5937 16.8512 9.0005 16.8512C7.40634 16.8512 5.83505 16.7837 4.26375 16.6044C3.17846 16.5148 2.11602 15.9991 1.36367 15.1914C0.78822 14.5176 0.5 13.6877 0.5 12.8134C0.5 11.9382 0.677901 11.1315 1.23049 10.503C1.98384 9.64995 2.29392 8.90968 2.29392 7.65375V7.22772C2.29392 5.54576 2.71333 4.44594 3.577 3.36928C4.86106 1.79912 6.91935 0.857422 8.95577 0.857422H9.04522C11.1254 0.857422 13.2502 1.84444 14.5125 3.48209C15.3314 4.53659 15.7071 5.59008 15.7071 7.22772V7.65375ZM6.07367 18.9183C6.07367 18.4147 6.53582 18.184 6.96318 18.0853C7.46309 17.9796 10.5093 17.9796 11.0092 18.0853C11.4366 18.184 11.8987 18.4147 11.8987 18.9183C11.8738 19.3977 11.5926 19.8227 11.204 20.0926C10.7001 20.4854 10.1088 20.7342 9.49057 20.8238C9.14868 20.8681 8.81276 20.8691 8.48279 20.8238C7.86362 20.7342 7.27227 20.4854 6.76938 20.0916C6.37978 19.8227 6.09852 19.3977 6.07367 18.9183Z" fill="url(#paint0_linear)"/>
<defs>
<linearGradient id="paint0_linear" x1="2.07165" y1="1.71498" x2="16.9925" y2="21.9132" gradientUnits="userSpaceOnUse">
<stop stop-color="#FFB800"/>
</linearGradient>
</defs>
</svg>
