<svg width="21" height="23" viewBox="0 0 21 23" fill="none" xmlns="http://www.w3.org/2000/svg">
<path d="M1.40002 17.9018C0.985811 17.9018 0.650024 18.2375 0.650024 18.6518C0.650024 19.066 0.985811 19.4018 1.40002 19.4018V17.9018ZM20.2445 19.4018C20.6587 19.4018 20.9945 19.066 20.9945 18.6518C20.9945 18.2375 20.6587 17.9018 20.2445 17.9018V19.4018ZM3.32293 18.6518H2.57293V19.4018H3.32293V18.6518ZM8.7589 2.26735L8.20008 1.76714L8.20008 1.76714L8.7589 2.26735ZM9.5422 1.39227L8.98337 0.892062V0.892062L9.5422 1.39227ZM11.7177 1.39228L11.1589 1.89249V1.89249L11.7177 1.39228ZM12.4973 2.26322L13.0561 1.763V1.763L12.4973 2.26322ZM18.3216 18.6518V19.4018H19.0716V18.6518H18.3216ZM7.57247 19.0814V19.511H9.07247V19.0814H7.57247ZM13.6874 19.511V19.0814H12.1874V19.511H13.6874ZM10.63 22.8389C12.3945 22.8389 13.6874 21.2687 13.6874 19.511H12.1874C12.1874 20.6009 11.4141 21.3389 10.63 21.3389V22.8389ZM7.57247 19.511C7.57247 21.2687 8.86536 22.8389 10.63 22.8389V21.3389C9.84577 21.3389 9.07247 20.6009 9.07247 19.511H7.57247ZM1.40002 19.4018H20.2445V17.9018H1.40002V19.4018ZM4.07293 18.6518V8.25838H2.57293V18.6518H4.07293ZM9.31773 2.76757L10.101 1.89249L8.98337 0.892062L8.20008 1.76714L9.31773 2.76757ZM11.1589 1.89249L11.9385 2.76343L13.0561 1.763L12.2765 0.892063L11.1589 1.89249ZM17.5716 8.68217V18.6518H19.0716V8.68217H17.5716ZM18.3216 17.9018H3.32293V19.4018H18.3216V17.9018ZM12.6314 3.07528C15.2838 3.07528 17.5716 5.50526 17.5716 8.68217H19.0716C19.0716 4.83746 16.2642 1.57528 12.6314 1.57528V3.07528ZM11.9385 2.76343C12.1066 2.9513 12.3537 3.07528 12.6314 3.07528V1.57528C12.8085 1.57528 12.9591 1.65461 13.0561 1.763L11.9385 2.76343ZM10.101 1.89249C10.4037 1.55439 10.8563 1.55439 11.1589 1.89249L12.2765 0.892063C11.3777 -0.112132 9.88224 -0.112134 8.98337 0.892062L10.101 1.89249ZM8.63373 3.07528C8.9081 3.07528 9.15194 2.95279 9.31773 2.76757L8.20008 1.76714C8.29947 1.6561 8.45326 1.57528 8.63373 1.57528V3.07528ZM4.07293 8.25838C4.07293 5.31552 6.19086 3.07528 8.63373 3.07528V1.57528C5.21045 1.57528 2.57293 4.64772 2.57293 8.25838H4.07293Z" fill="currentColor"/>
</svg>
