<svg width="18" height="21" viewBox="0 0 18 21" fill="none" xmlns="http://www.w3.org/2000/svg">
<path fill-rule="evenodd" clip-rule="evenodd" d="M16.0799 7.38715C16.0799 8.64308 16.4118 9.38335 17.1423 10.2364C17.6959 10.8649 17.8728 11.6716 17.8728 12.5468C17.8728 13.4211 17.5856 14.251 17.0101 14.9248C16.2568 15.7325 15.1943 16.2482 14.11 16.3378C12.5387 16.4718 10.9665 16.5846 9.3733 16.5846C7.77915 16.5846 6.20785 16.5171 4.63656 16.3378C3.55126 16.2482 2.48882 15.7325 1.73647 14.9248C1.16102 14.251 0.872803 13.4211 0.872803 12.5468C0.872803 11.6716 1.0507 10.8649 1.60329 10.2364C2.35664 9.38335 2.66672 8.64308 2.66672 7.38715V6.96112C2.66672 5.27916 3.08613 4.17934 3.9498 3.10268C5.23387 1.53252 7.29215 0.59082 9.32858 0.59082H9.41802C11.4982 0.59082 13.6231 1.57784 14.8853 3.21548C15.7042 4.26998 16.0799 5.32347 16.0799 6.96112V7.38715ZM6.44648 18.6517C6.44648 18.1481 6.90862 17.9174 7.33598 17.8187C7.8359 17.713 10.8821 17.713 11.382 17.8187C11.8094 17.9174 12.2715 18.1481 12.2715 18.6517C12.2467 19.1311 11.9654 19.5561 11.5768 19.826C11.0729 20.2188 10.4816 20.4676 9.86337 20.5572C9.52148 20.6015 9.18556 20.6025 8.8556 20.5572C8.23642 20.4676 7.64507 20.2188 7.14218 19.825C6.75259 19.5561 6.47132 19.1311 6.44648 18.6517Z" fill="currentColor"/>
</svg>
