<svg width="24" height="25" viewBox="0 0 24 25" fill="none" xmlns="http://www.w3.org/2000/svg">
<path d="M8.00507 3.11511L7.70517 2.42768L8.00507 3.11511ZM8.00509 21.4553L8.30499 20.7679L8.00509 21.4553ZM15.995 21.4553L15.6951 20.7679L15.995 21.4553ZM21.3091 15.9452L20.6112 15.6706L21.3091 15.9452ZM21.3091 8.62526L20.6112 8.89987L21.3091 8.62526ZM15.66 21.5943L15.9346 22.2922L15.66 21.5943ZM16.295 2.42769C16.176 2.37577 16.0558 2.32594 15.9346 2.27825L15.3854 3.67409C15.4896 3.71508 15.5928 3.75791 15.6952 3.80255L16.295 2.42769ZM22.007 8.35065C21.9593 8.22926 21.9093 8.10895 21.8573 7.98977L20.4825 8.58965C20.5272 8.69211 20.5701 8.79553 20.6112 8.89987L22.007 8.35065ZM21.8578 16.5797C21.9096 16.4608 21.9594 16.3408 22.007 16.2198L20.6112 15.6706C20.5702 15.7746 20.5275 15.8778 20.4829 15.98L21.8578 16.5797ZM15.9346 22.2922C16.0558 22.2445 16.1759 22.1947 16.2949 22.1428L15.6951 20.7679C15.5928 20.8125 15.4896 20.8554 15.3854 20.8963L15.9346 22.2922ZM7.7052 22.1428C7.82419 22.1947 7.94431 22.2445 8.06551 22.2922L8.61473 20.8963C8.51055 20.8554 8.40729 20.8125 8.30499 20.7679L7.7052 22.1428ZM1.99309 16.2198C2.04078 16.341 2.09059 16.4611 2.1425 16.58L3.51736 15.9803C3.47274 15.878 3.42992 15.7747 3.38893 15.6706L1.99309 16.2198ZM2.14263 7.99007C2.09068 8.10915 2.04082 8.22935 1.9931 8.35064L3.38893 8.89987C3.42995 8.79561 3.47281 8.69228 3.51748 8.58991L2.14263 7.99007ZM8.06548 2.27826C7.94428 2.32595 7.82416 2.37577 7.70517 2.42768L8.30498 3.80254C8.40727 3.75791 8.51053 3.71508 8.6147 3.67409L8.06548 2.27826ZM6.51997 6.80491C6.82125 6.50364 7.0286 6.14204 7.18667 5.81062C7.34003 5.48907 7.47971 5.12069 7.59502 4.84263C7.86447 4.1929 8.0606 3.90915 8.30498 3.80254L7.70517 2.42768C6.83959 2.8053 6.45615 3.67313 6.20945 4.26801C6.06669 4.61225 5.96415 4.88943 5.83277 5.1649C5.70609 5.4305 5.58619 5.61737 5.45931 5.74425L6.51997 6.80491ZM3.51748 8.58991C3.6241 8.34552 3.90787 8.1494 4.55762 7.87996C4.8357 7.76465 5.20409 7.62497 5.52565 7.47161C5.85708 7.31355 6.21869 7.10619 6.51997 6.80491L5.45931 5.74425C5.33244 5.87113 5.14556 5.99103 4.87995 6.1177C4.60448 6.24908 4.32729 6.35162 3.98305 6.49437C3.38815 6.74106 2.52029 7.12449 2.14263 7.99007L3.51748 8.58991ZM4.25005 12.2852C4.25005 11.859 4.14087 11.4565 4.01819 11.1103C3.89917 10.7744 3.73732 10.415 3.62219 10.1369C3.35313 9.48678 3.29139 9.14776 3.38893 8.89987L1.9931 8.35064C1.64707 9.23005 1.98986 10.1153 2.23621 10.7105C2.37879 11.055 2.50236 11.3235 2.60434 11.6113C2.70266 11.8888 2.75005 12.1057 2.75005 12.2852H4.25005ZM3.38893 15.6706C3.29139 15.4227 3.35312 15.0836 3.62219 14.4336C3.73732 14.1554 3.89917 13.796 4.01819 13.4601C4.14087 13.1139 4.25005 12.7115 4.25005 12.2852H2.75005C2.75005 12.4647 2.70266 12.6817 2.60434 12.9591C2.50235 13.2469 2.37878 13.5154 2.23621 13.8599C1.98986 14.4551 1.64707 15.3404 1.99309 16.2198L3.38893 15.6706ZM6.51997 17.7653C6.21868 17.464 5.85705 17.2566 5.52561 17.0986C5.20403 16.9452 4.83563 16.8055 4.55754 16.6902C3.90775 16.4208 3.62398 16.2246 3.51736 15.9803L2.1425 16.58C2.52014 17.4457 3.38805 17.8291 3.98297 18.0758C4.32723 18.2186 4.60443 18.3211 4.87992 18.4525C5.14554 18.5792 5.33243 18.6991 5.45931 18.8259L6.51997 17.7653ZM8.30499 20.7679C8.06061 20.6613 7.86448 20.3775 7.59504 19.7277C7.47972 19.4496 7.34005 19.0812 7.18669 18.7597C7.02862 18.4282 6.82126 18.0666 6.51997 17.7653L5.45931 18.8259C5.58619 18.9528 5.70609 19.1397 5.83277 19.4053C5.96415 19.6808 6.06669 19.958 6.20944 20.3023C6.45613 20.8972 6.83956 21.7651 7.7052 22.1428L8.30499 20.7679ZM17.4801 17.765C17.1788 18.0663 16.9714 18.428 16.8134 18.7595C16.66 19.0811 16.5204 19.4495 16.405 19.7276C16.1356 20.3775 15.9395 20.6613 15.6951 20.7679L16.2949 22.1428C17.1605 21.7651 17.544 20.8971 17.7907 20.3021C17.9334 19.9579 18.0359 19.6806 18.1673 19.4051C18.294 19.1395 18.4139 18.9526 18.5408 18.8257L17.4801 17.765ZM20.4829 15.98C20.3763 16.2243 20.0925 16.4205 19.4427 16.6899C19.1646 16.8052 18.7961 16.9449 18.4745 17.0983C18.1431 17.2564 17.7814 17.4637 17.4801 17.765L18.5408 18.8257C18.6677 18.6988 18.8546 18.5789 19.1202 18.4522C19.3957 18.3208 19.6729 18.2183 20.0172 18.0755C20.6122 17.8288 21.4801 17.4454 21.8578 16.5797L20.4829 15.98ZM19.7501 12.2852C19.7501 12.7115 19.8592 13.1139 19.9819 13.4601C20.1009 13.796 20.2628 14.1554 20.3779 14.4336C20.647 15.0836 20.7087 15.4227 20.6112 15.6706L22.007 16.2198C22.353 15.3404 22.0103 14.4551 21.7639 13.8599C21.6213 13.5154 21.4978 13.2469 21.3958 12.9591C21.2975 12.6817 21.2501 12.4647 21.2501 12.2852H19.7501ZM17.4801 6.80469C17.7814 7.10596 18.143 7.31332 18.4744 7.47138C18.796 7.62473 19.1643 7.7644 19.4424 7.87971C20.0921 8.14914 20.3759 8.34526 20.4825 8.58965L21.8573 7.98977C21.4797 7.12422 20.6119 6.74081 20.017 6.49413C19.6728 6.35138 19.3956 6.24884 19.1201 6.11747C18.8545 5.9908 18.6677 5.87091 18.5408 5.74403L17.4801 6.80469ZM12.0001 20.0352C11.5738 20.0352 11.1714 20.1444 10.8252 20.2671C10.4893 20.3861 10.1299 20.548 9.85172 20.6631C9.20164 20.9321 8.86262 20.9939 8.61473 20.8963L8.06551 22.2922C8.94492 22.6382 9.83016 22.2954 10.4254 22.0491C10.7698 21.9065 11.0384 21.7829 11.3262 21.6809C11.6036 21.5826 11.8206 21.5352 12.0001 21.5352V20.0352ZM15.6952 3.80255C15.9395 3.90916 16.1356 4.19289 16.4051 4.84255C16.5204 5.12059 16.6601 5.48894 16.8135 5.81047C16.9715 6.14186 17.1789 6.50343 17.4801 6.80469L18.5408 5.74403C18.4139 5.61716 18.294 5.43029 18.1673 5.16471C18.036 4.88926 17.9334 4.6121 17.7907 4.26789C17.5439 3.67305 17.1605 2.80529 16.295 2.42769L15.6952 3.80255ZM12 4.53521C12.4263 4.53521 12.8288 4.42603 13.175 4.30335C13.5108 4.18433 13.8702 4.02247 14.1484 3.90734C14.7985 3.63828 15.1375 3.57655 15.3854 3.67409L15.9346 2.27825C15.0552 1.93223 14.17 2.27502 13.5747 2.52137C13.2303 2.66394 12.9617 2.78751 12.674 2.8895C12.3965 2.98782 12.1795 3.03521 12 3.03521V4.53521ZM20.6112 8.89987C20.7087 9.14776 20.647 9.48678 20.3779 10.1369C20.2628 10.415 20.1009 10.7744 19.9819 11.1103C19.8592 11.4565 19.7501 11.859 19.7501 12.2852H21.2501C21.2501 12.1057 21.2975 11.8888 21.3958 11.6113C21.4978 11.3235 21.6213 11.055 21.7639 10.7105C22.0103 10.1153 22.353 9.23006 22.007 8.35065L20.6112 8.89987ZM15.3854 20.8963C15.1375 20.9939 14.7985 20.9321 14.1484 20.6631C13.8702 20.548 13.5109 20.3861 13.175 20.2671C12.8288 20.1444 12.4263 20.0352 12.0001 20.0352V21.5352C12.1795 21.5352 12.3965 21.5826 12.674 21.6809C12.9618 21.7829 13.2303 21.9065 13.5748 22.0491C14.17 22.2954 15.0552 22.6382 15.9346 22.2922L15.3854 20.8963ZM12 3.03521C11.8206 3.03521 11.6036 2.98782 11.3261 2.8895C11.0383 2.78751 10.7698 2.66394 10.4253 2.52137C9.83013 2.27502 8.94489 1.93223 8.06548 2.27826L8.6147 3.67409C8.86259 3.57655 9.20161 3.63829 9.8517 3.90735C10.1299 4.02248 10.4893 4.18433 10.8251 4.30335C11.1713 4.42603 11.5738 4.53521 12 4.53521V3.03521Z" fill="currentColor"/>
<circle opacity="0.3" cx="9.79834" cy="10.0838" r="0.791538" transform="rotate(45 9.79834 10.0838)" fill="currentColor"/>
<circle opacity="0.3" cx="14.2014" cy="14.4867" r="0.791538" transform="rotate(45 14.2014 14.4867)" fill="currentColor"/>
<path opacity="0.3" d="M9.76115 14.5239L14.2388 10.0463" stroke="currentColor" stroke-width="1.5" stroke-linecap="round" stroke-linejoin="round"/>
</svg>
