<svg width="21" height="21" viewBox="0 0 21 21" fill="none" xmlns="http://www.w3.org/2000/svg">
<path d="M12.7288 11.8975C12.1253 11.8975 11.6296 12.3932 11.6296 12.9966C11.6296 13.6 12.1253 14.0957 12.7288 14.0957C13.3538 14.0957 13.8279 13.6 13.8279 12.9966C13.8279 12.3932 13.3322 11.8975 12.7288 11.8975Z" fill="url(#paint0_linear)"/>
<path d="M7.77175 8.47116C8.37519 8.47116 8.87088 7.99702 8.87088 7.39357C8.87088 6.79012 8.37519 6.29443 7.77175 6.29443C7.14675 6.29443 6.67261 6.76857 6.67261 7.37202C6.67261 7.97547 7.1683 8.47116 7.77175 8.47116Z" fill="url(#paint0_linear)"/>
<path d="M19.927 9.13879L19.1727 8.0181C19.108 7.88879 19.0865 7.75948 19.0865 7.60862L19.1727 6.25086C19.2158 5.475 18.8063 4.76379 18.1166 4.41896L16.9097 3.81551C16.7804 3.75086 16.6942 3.66465 16.6296 3.53534L16.0261 2.32844C15.6813 1.63879 14.9485 1.22931 14.1942 1.27241L12.8365 1.35862C12.7071 1.35862 12.5563 1.33707 12.4485 1.25086L11.3278 0.5181C10.6813 0.0870656 9.86231 0.0870656 9.21576 0.5181L8.09507 1.27241C7.94421 1.33707 7.8149 1.35862 7.66404 1.35862L6.30628 1.27241C5.53042 1.22931 4.81921 1.63879 4.47438 2.32844L3.87093 3.53534C3.80628 3.66465 3.72007 3.75086 3.59076 3.81551L2.38386 4.41896C1.69421 4.76379 1.28473 5.49655 1.32783 6.25086L1.41404 7.60862C1.41404 7.73793 1.39249 7.88879 1.30628 7.99655L0.57352 9.11724C0.142486 9.76379 0.142486 10.6043 0.57352 11.2293L1.32783 12.35C1.39249 12.5009 1.41404 12.6302 1.41404 12.781L1.32783 14.1388C1.28473 14.9147 1.69421 15.6259 2.38386 15.9707L3.59076 16.5741C3.72007 16.6388 3.80628 16.7465 3.87093 16.8543L4.47438 18.0612C4.81921 18.7509 5.55197 19.1603 6.30628 19.1172L7.66404 19.031C7.79335 19.031 7.94421 19.0526 8.05197 19.1388L9.17266 19.8715C9.49593 20.0871 9.86231 20.1948 10.2287 20.1948C10.5951 20.1948 10.9615 20.0871 11.2847 19.8715L12.4054 19.1172C12.5132 19.0526 12.664 19.0095 12.7933 19.0095L14.1511 19.0957C14.927 19.1388 15.6382 18.7293 15.983 18.0397L16.5865 16.8328C16.6511 16.7034 16.7373 16.6172 16.8666 16.5526L18.0735 15.9491C18.7632 15.6043 19.1727 14.8715 19.1296 14.1172L19.0865 12.781C19.0865 12.6517 19.108 12.5009 19.1942 12.3931L19.927 11.2509C20.358 10.6043 20.358 9.76379 19.927 9.13879ZM7.7718 4.97931C9.08645 4.97931 10.164 6.05689 10.164 7.37155C10.164 8.6862 9.08645 9.76379 7.7718 9.76379C6.43559 9.76379 5.37955 8.70776 5.37955 7.37155C5.37955 6.05689 6.45714 4.97931 7.7718 4.97931ZM6.58645 14.7422C6.45714 14.8715 6.28473 14.9362 6.13386 14.9362C5.983 14.9362 5.81059 14.8715 5.68128 14.7422C5.42266 14.5052 5.42266 14.0957 5.68128 13.8371L13.914 5.62586C14.1511 5.36724 14.5606 5.36724 14.8192 5.62586C15.0563 5.88448 15.0563 6.29396 14.7977 6.53103L6.58645 14.7422ZM12.7287 15.4103C11.414 15.4103 10.3365 14.3328 10.3365 13.0181C10.3365 11.7034 11.414 10.6259 12.7287 10.6259C14.0649 10.6259 15.1209 11.6819 15.1209 13.0181C15.1209 14.3328 14.0433 15.4103 12.7287 15.4103Z" fill="url(#paint0_linear)"/>
<defs>
<linearGradient id="paint0_linear" x1="1.34433" y1="1.40902" x2="10.306" y2="19.9545" gradientUnits="userSpaceOnUse">
<stop stop-color="#2DC8D8"/>
<stop offset="1" stop-color="#ECF281"/>
</linearGradient>
</defs>
</svg>
