<svg width="153" height="132" viewBox="0 0 153 132" fill="none" xmlns="http://www.w3.org/2000/svg">
<path d="M128.68 105.14C125.488 108.427 122.631 110.361 120.444 111.819C99.1132 126.05 74.7303 121.948 67.1916 120.547C55.029 118.285 44.7617 116.689 35.9407 108.726C15.8963 90.6326 16.871 52.8869 32.1873 29.5053C34.0033 26.7329 49.2965 4.08286 73.7326 0.891107C74.3301 0.813163 74.776 0.768433 75.1669 0.727246C78.9469 0.327337 102.372 -1.78337 121.473 14.2059C124.207 16.4947 128.608 20.6231 132.688 26.9193C147.607 49.9418 147.654 85.5985 128.68 105.14Z" fill="url(#paint0_linear_5192_19337)" fill-opacity="0.2"/>
<circle opacity="0.2" cx="22.1739" cy="22.1739" r="21.8456" transform="matrix(-1 0 0 1 44.7734 16.6328)" stroke="url(#paint1_linear_5192_19337)" stroke-width="0.656716"/>
<ellipse cx="86.8296" cy="127.123" rx="65.9546" ry="4.36923" fill="#F3F3F3"/>
<path d="M57.75 76.4619C61.8909 72.4657 70.3419 80.0351 75.2521 85.1995C77.5119 87.5723 79.0184 89.4374 79.0184 89.4374C79.7757 90.1625 80.4202 90.8151 80.968 91.4113C81.2661 91.7336 81.532 92.0357 81.7656 92.3177L74.8413 95.0611C72.6782 93.768 70.3459 92.3459 68.8233 91.3348C62.342 87.0204 53.8387 80.2365 57.75 76.4619Z" fill="#F3F3F3"/>
<path d="M64.3579 81.6214C64.4748 81.4764 64.6802 81.4522 64.8252 81.565C65.2763 81.9195 74.2429 88.937 79.1129 93.3642L78.4201 93.6381C73.4575 89.1666 64.5231 82.1733 64.4143 82.0887C64.2693 81.9759 64.2452 81.7664 64.3579 81.6214Z" fill="#DDDFE4"/>
<path d="M76.586 81.1875C76.9727 82.1583 77.2909 83.0244 77.5447 83.7898C77.738 84.382 77.8911 84.9057 78.0039 85.369L72.5256 87.5363C70.7815 85.0588 67.99 81.0505 66.5157 78.6899C62.3989 72.0833 57.4645 62.3909 62.5883 60.57C68.0101 58.6445 72.574 69.0337 74.9062 75.7652C75.9817 78.8631 76.586 81.1875 76.586 81.1875Z" fill="#DDDFE4"/>
<path d="M75.4026 86.3923C73.1428 80.7041 66.7582 68.4416 66.6857 68.3087C66.6012 68.1475 66.6656 67.9461 66.8267 67.8615C66.9919 67.7769 67.1893 67.8414 67.2738 68.0025C67.5598 68.5544 73.7631 80.4624 76.0189 86.1505L75.4026 86.3923Z" fill="#999CAD"/>
<path d="M131.074 63.5506C131.074 63.5506 155.537 55.7476 152.524 46.5547C149.201 36.4192 135.513 51.7353 131.074 63.5506Z" fill="#999CAD"/>
<path d="M128.641 65.938C134.155 59.6053 143.162 52.1205 143.275 52.0238C143.363 51.9513 143.488 51.9634 143.561 52.052C143.633 52.1366 143.621 52.2655 143.533 52.338C143.42 52.4307 134.352 59.9679 128.878 66.2804L128.641 65.938Z" fill="#350d05"/>
<path d="M133.234 56.4716C133.234 56.4716 132.525 26.4962 144.582 29.3161C153.798 31.4713 145.492 48.3786 133.234 56.4716Z" fill="#DDDFE4"/>
<path d="M128.428 67.1264C133.096 56.6767 140.826 39.7331 140.919 39.5317C140.967 39.431 141.084 39.3827 141.189 39.431C141.29 39.4793 141.338 39.6002 141.29 39.7009C141.197 39.9023 133.358 57.0916 128.698 67.5171L128.428 67.1264Z" fill="#999CAD"/>
<path d="M126.416 111.678C131.484 104.604 136.241 96.3818 138.871 90.9112C142.307 83.7648 143.576 78.0928 142.641 74.0523C142.581 73.7864 142.311 73.6172 142.045 73.6817C141.779 73.7421 141.61 74.012 141.675 74.2779C143.31 81.3397 137.622 94.6657 125.184 111.662L126.416 111.678Z" fill="#999CAD"/>
<path d="M141.404 84.2816C141.404 84.2816 144.945 86.469 148.542 80.0961C148.542 80.0961 142.178 78.2873 141.404 84.2816Z" fill="#DDDFE4"/>
<path d="M139.725 87.6588C139.725 87.6588 142.105 84.2467 135.942 80.2988C135.942 80.2988 133.779 86.555 139.725 87.6588Z" fill="#DDDFE4"/>
<path d="M142.425 77.2702C142.425 77.2702 145.804 74.8451 141.313 69.0684C141.313 69.0724 137.188 74.2489 142.425 77.2702Z" fill="#DDDFE4"/>
<path d="M136.539 94.5748C136.539 94.5748 139.129 97.8298 144.672 93.048C144.672 93.048 139.294 89.1928 136.539 94.5748Z" fill="#DDDFE4"/>
<path d="M134.301 97.7573C134.301 97.7573 137.234 94.8085 131.848 89.8535C131.848 89.8535 128.642 95.6383 134.301 97.7573Z" fill="#DDDFE4"/>
<path d="M131.668 102.421C131.668 102.421 134.198 105.724 139.829 101.051C139.829 101.047 134.524 97.0909 131.668 102.421Z" fill="#DDDFE4"/>
<path d="M129.639 106.021C129.639 106.021 125.531 105.364 126.973 98.1855C126.973 98.1896 132.975 100.977 129.639 106.021Z" fill="#EDE0C3"/>
<path d="M134.629 17.1526V120.546C134.629 123.789 132.003 126.415 128.76 126.415H77.2772C75.6498 126.415 74.1755 125.755 73.1121 124.683C72.0608 123.62 71.4082 122.161 71.4082 120.55V17.1526C71.4082 13.9097 74.0345 11.2832 77.2772 11.2832H128.76C129.719 11.2832 130.621 11.5128 131.423 11.9197C133.328 12.8905 134.629 14.8685 134.629 17.1526Z" fill="#133643"/>
<path d="M71.4126 43.5412H71.2515C70.1558 43.5412 69.2656 42.6509 69.2656 41.5552V31.8669C69.2656 30.7711 70.1558 29.8809 71.2515 29.8809H71.4126V43.5412Z" fill="#000B17"/>
<path d="M134.629 39.9682H134.762C135.66 39.9682 136.385 39.243 136.385 38.3447V30.4692C136.385 29.5708 135.66 28.8457 134.762 28.8457H134.629V39.9682Z" fill="#000B17"/>
<path d="M71.2915 59.0139H71.1304C70.0347 59.0139 69.1445 58.1236 69.1445 57.0279V47.3395C69.1445 46.2438 70.0347 45.3535 71.1304 45.3535H71.2915V59.0139Z" fill="#000B17"/>
<path d="M131.702 16.7991V120.902C131.702 122.332 130.542 123.488 129.116 123.488H76.9238C75.8564 123.488 74.938 122.839 74.5472 121.917C74.4143 121.606 74.3418 121.264 74.3418 120.906V16.7991C74.3418 15.3731 75.5019 14.2129 76.9278 14.2129H129.124C129.487 14.2129 129.825 14.2854 130.139 14.4183C131.058 14.8172 131.702 15.7316 131.702 16.7991Z" fill="white"/>
<path d="M127.382 66.2715H79.8541C79.6648 66.2715 79.5117 66.4246 79.5117 66.6139C79.5117 66.8032 79.6648 66.9563 79.8541 66.9563H127.382C127.571 66.9563 127.724 66.8032 127.724 66.6139C127.724 66.4205 127.571 66.2715 127.382 66.2715Z" fill="#DDDFE4"/>
<path d="M127.382 69.1289H79.8541C79.6648 69.1289 79.5117 69.282 79.5117 69.4713C79.5117 69.6607 79.6648 69.8137 79.8541 69.8137H127.382C127.571 69.8137 127.724 69.6607 127.724 69.4713C127.724 69.282 127.571 69.1289 127.382 69.1289Z" fill="#DDDFE4"/>
<path d="M127.384 31.0872H104.585C104.395 31.0872 104.242 30.9341 104.242 30.7448C104.242 30.5554 104.395 30.4023 104.585 30.4023H127.384C127.573 30.4023 127.726 30.5554 127.726 30.7448C127.726 30.9341 127.573 31.0872 127.384 31.0872Z" fill="#DDDFE4"/>
<path d="M127.384 33.9466H104.585C104.395 33.9466 104.242 33.7935 104.242 33.6041C104.242 33.4148 104.395 33.2617 104.585 33.2617H127.384C127.573 33.2617 127.726 33.4148 127.726 33.6041C127.726 33.7935 127.573 33.9466 127.384 33.9466Z" fill="#DDDFE4"/>
<path d="M127.384 36.8079H104.585C104.395 36.8079 104.242 36.6548 104.242 36.4655C104.242 36.2761 104.395 36.123 104.585 36.123H127.384C127.573 36.123 127.726 36.2761 127.726 36.4655C127.726 36.6548 127.573 36.8079 127.384 36.8079Z" fill="#DDDFE4"/>
<path d="M127.384 39.6673H104.585C104.395 39.6673 104.242 39.5142 104.242 39.3248C104.242 39.1355 104.395 38.9824 104.585 38.9824H127.384C127.573 38.9824 127.726 39.1355 127.726 39.3248C127.726 39.5142 127.573 39.6673 127.384 39.6673Z" fill="#DDDFE4"/>
<path d="M127.384 42.5286H104.585C104.395 42.5286 104.242 42.3755 104.242 42.1862C104.242 41.9968 104.395 41.8438 104.585 41.8438H127.384C127.573 41.8438 127.726 41.9968 127.726 42.1862C127.726 42.3755 127.573 42.5286 127.384 42.5286Z" fill="#DDDFE4"/>
<path d="M127.384 45.388H104.585C104.395 45.388 104.242 45.2349 104.242 45.0455C104.242 44.8562 104.395 44.7031 104.585 44.7031H127.384C127.573 44.7031 127.726 44.8562 127.726 45.0455C127.726 45.2349 127.573 45.388 127.384 45.388Z" fill="#DDDFE4"/>
<path d="M100.585 106.148H119.844V91.5213H100.585V106.148Z" fill="#F77659"/>
<path d="M99.9531 93.2207H120.484V90.7875H99.9531V93.2207Z" fill="#F77659"/>
<path d="M100.585 94.5625H119.844V93.2251H100.585V94.5625Z" fill="#E33D15"/>
<path d="M109.371 106.16H111.059V90.7877H109.371V106.16Z" fill="white"/>
<path d="M111.063 94.4727H109.375V106.163H111.063V94.4727Z" fill="#F3F3F3"/>
<path d="M111.063 93.2207H109.375V94.5581H111.063V93.2207Z" fill="#EDE0C3"/>
<path d="M92.141 94.5166L109.674 86.5469L103.622 73.2303L86.0887 81.2L92.141 94.5166Z" fill="url(#paint2_linear_5192_19337)"/>
<path d="M86.2146 83.0102L104.906 74.5137L103.899 72.2985L85.2078 80.795L86.2146 83.0102Z" fill="url(#paint3_linear_5192_19337)"/>
<path d="M87.346 83.9658L104.879 75.9961L104.326 74.7785L86.7927 82.7482L87.346 83.9658Z" fill="#D38400"/>
<path d="M100.143 90.8899L101.68 90.1914L95.3191 76.1963L93.7825 76.8948L100.143 90.8899Z" fill="white"/>
<path d="M96.851 79.5457L95.3145 80.2441L100.152 90.8871L101.688 90.1887L96.851 79.5457Z" fill="#F3F3F3"/>
<path d="M96.3354 78.4109L94.7988 79.1094L95.3522 80.327L96.8888 79.6285L96.3354 78.4109Z" fill="#EDE0C3"/>
<path d="M113.119 119.38C114.536 119.38 115.685 118.231 115.685 116.814C115.685 115.397 114.536 114.248 113.119 114.248C111.702 114.248 110.553 115.397 110.553 116.814C110.553 118.231 111.702 119.38 113.119 119.38Z" fill="#221B22"/>
<path d="M113.117 118.42C114.005 118.42 114.724 117.7 114.724 116.812C114.724 115.925 114.005 115.205 113.117 115.205C112.229 115.205 111.51 115.925 111.51 116.812C111.51 117.7 112.229 118.42 113.117 118.42Z" fill="#564C54"/>
<path d="M96.5391 116.814C96.5391 118.232 97.6871 119.38 99.105 119.38C100.523 119.38 101.671 118.232 101.671 116.814C101.671 115.396 100.523 114.248 99.105 114.248C97.6871 114.244 96.5391 115.396 96.5391 116.814Z" fill="#221B22"/>
<path d="M99.1053 118.416C99.9915 118.416 100.712 117.695 100.712 116.809C100.712 115.922 99.9915 115.201 99.1053 115.201C98.2191 115.201 97.498 115.922 97.498 116.809C97.498 117.695 98.2191 118.416 99.1053 118.416Z" fill="#564C54"/>
<path d="M124.343 83.649C124.218 83.508 124.041 83.4234 123.851 83.4234H85.9991L85.3989 81.2199C85.3224 80.9338 85.0606 80.7324 84.7625 80.7324H80.6699V82.0497H84.259L84.843 84.1848C84.8471 84.2049 84.8511 84.2251 84.8551 84.2452L86.0394 88.4952L86.2207 89.1518L87.7111 94.5096L88.0736 95.8148L89.5197 100.999L89.8822 102.305L91.1833 106.978C91.1914 107.006 91.1994 107.034 91.2115 107.058L92.3313 111.083C92.9154 113.177 94.8408 114.644 97.016 114.644H116.979C117.342 114.644 117.632 114.354 117.632 113.991C117.632 113.628 117.342 113.338 116.979 113.338H97.016C95.4249 113.338 94.0151 112.267 93.5881 110.732L92.6737 107.453H120.677C121.003 107.453 121.277 107.211 121.322 106.889L121.962 102.301L122.143 100.995L122.864 95.8108L123.046 94.5056L123.811 89.0028C123.867 88.9061 123.9 88.7933 123.9 88.6724C123.9 88.616 123.892 88.5596 123.88 88.5073L124.484 84.1566C124.524 83.9793 124.468 83.79 124.343 83.649ZM120.117 106.16H92.3192L91.425 102.949C91.4169 102.921 91.4048 102.893 91.3928 102.865V102.861L91.2397 102.313H120.653L120.117 106.16ZM120.834 101.007H90.8772L89.4351 95.8229H121.559L120.834 101.007ZM121.737 94.5177H89.0685L87.6265 89.3331H122.458L121.737 94.5177ZM122.643 88.0319H87.2639L86.3455 84.7326H123.102L122.643 88.0319Z" fill="#b49056"/>
<path d="M76.6719 81.3969C76.6719 81.7595 76.9659 82.0576 77.3325 82.0576H81.8802V80.7403H77.3325C76.9659 80.7362 76.6719 81.0344 76.6719 81.3969Z" fill="#564C54"/>
<path d="M97.4246 46.2845H83.157C81.147 46.2845 79.5156 44.653 79.5156 42.6428V32.9464C79.5156 30.9362 81.147 29.3047 83.157 29.3047H97.4246C99.4347 29.3047 101.066 30.9362 101.066 32.9464V42.6428C101.062 44.653 99.4347 46.2845 97.4246 46.2845Z" fill="#DDDFE4"/>
<path d="M80.899 42.4218L97.9621 42.3493C98.087 42.1197 98.1554 41.7893 98.1836 41.3986C98.2843 39.9564 97.813 37.6521 97.5834 36.2019C97.5552 36.0327 97.5311 35.8756 97.5109 35.7306C97.4787 35.4889 97.4586 35.2875 97.4586 35.1384C97.4545 33.9541 96.4032 34.1595 96.4032 34.1595C94.6832 35.8595 92.7175 33.3297 91.5775 34.1676C91.5775 34.1676 91.0861 34.5221 89.7367 35.7467C88.3873 36.9713 86.0872 37.7851 84.1295 38.6149C81.6039 39.6825 80.8869 40.746 80.7499 41.4751C80.6452 42.0512 80.899 42.4218 80.899 42.4218Z" fill="#F77659"/>
<path d="M80.9026 42.4256L97.9657 42.3531C98.0905 42.1234 98.159 41.7931 98.1872 41.4023L80.7576 41.4789C80.6488 42.0549 80.9026 42.4256 80.9026 42.4256Z" fill="#E33D15"/>
<path d="M91.3276 34.8916C91.3276 34.8916 91.0215 34.1464 90.3448 34.3881C89.668 34.6298 89.7405 35.7457 89.7405 35.7457C89.7405 35.7457 90.1514 36.7568 91.3276 34.8916Z" fill="white"/>
<path d="M91.5568 38.2448C91.7139 38.2448 91.8387 38.1159 91.8387 37.9628C91.8307 36.2668 90.7672 35.3564 90.7229 35.3161C90.6061 35.2154 90.4249 35.2315 90.3282 35.3524C90.2275 35.4692 90.2436 35.6464 90.3604 35.7472C90.4007 35.7794 91.2708 36.5408 91.2788 37.9668C91.2748 38.1199 91.3997 38.2488 91.5568 38.2448Z" fill="white"/>
<path d="M88.0053 36.0475C88.0698 36.0475 88.1383 36.0233 88.1906 35.975C88.5451 35.6568 89.5964 35.5923 90.1725 35.6286C90.3255 35.6366 90.4625 35.5198 90.4705 35.3627C90.4786 35.2096 90.3618 35.0726 90.2087 35.0646C90.0315 35.0525 88.4645 34.9759 87.82 35.556C87.7032 35.6608 87.6952 35.838 87.7999 35.9549C87.8523 36.0153 87.9288 36.0475 88.0053 36.0475Z" fill="white"/>
<path d="M90.4735 35.8316L90.5903 35.2354C90.5903 35.2354 90.5943 35.2354 90.6064 35.2394L90.3164 34.9494C90.4775 34.7923 91.8954 33.4025 93.0757 33.3984C93.0837 33.3984 93.0918 33.3984 93.0998 33.3984C93.4543 33.4025 93.7484 33.5273 93.982 33.7691C94.2277 34.0228 94.3042 34.3572 94.1915 34.6795C94.0021 35.2193 93.3335 35.6342 92.4392 35.7591C91.8431 35.8437 91.3959 35.8679 91.0777 35.8679C90.6789 35.8719 90.4896 35.8356 90.4735 35.8316ZM90.8723 35.2596C91.1462 35.2676 91.6255 35.2596 92.3546 35.1589C93.0998 35.0541 93.5228 34.7439 93.6154 34.4821C93.6517 34.3733 93.6275 34.2847 93.5429 34.192C93.4221 34.0672 93.2811 34.0108 93.0918 34.0067C93.0878 34.0067 93.0837 34.0067 93.0757 34.0067C92.3627 34.0108 91.3395 34.8245 90.8723 35.2596Z" fill="white"/>
<path d="M90.0146 35.5655L90.2724 35.0136C89.7085 34.7517 89.1727 34.0548 89.205 33.6318C89.213 33.5311 89.2573 33.4022 89.5192 33.3257C89.7044 33.2733 89.7931 33.3176 89.8535 33.3619C90.1475 33.5875 90.2442 34.3569 90.2362 34.788L90.8444 34.8001C90.8484 34.655 90.8565 33.3619 90.2241 32.8745C90.0549 32.7456 89.7649 32.6126 89.35 32.7375C88.7377 32.9148 88.6169 33.3418 88.5967 33.5835C88.5403 34.3328 89.2976 35.2311 90.0146 35.5655Z" fill="white"/>
<path d="M96.2206 42.3592L96.7281 42.3551C96.2206 41.7791 95.7412 40.8928 95.7976 39.6279C95.8742 37.94 96.8812 36.8 97.5781 36.2037C97.5499 36.0346 97.5257 35.8774 97.5055 35.7324C96.7523 36.3165 95.4794 37.5895 95.3868 39.6078C95.3384 40.8203 95.7412 41.7227 96.2206 42.3592Z" fill="#E33D15"/>
<path d="M90.0426 36.7454C90.1675 36.7454 90.2843 36.6568 90.3125 36.5319C90.3487 36.3829 90.2561 36.2298 90.107 36.1935L89.0396 35.9317C88.8905 35.8954 88.7375 35.9881 88.7012 36.1371C88.665 36.2862 88.7576 36.4393 88.9067 36.4755L89.9741 36.7374C89.9983 36.7454 90.0184 36.7454 90.0426 36.7454Z" fill="white"/>
<path d="M88.9742 37.3743C89.0991 37.3743 89.2159 37.2857 89.2441 37.1608C89.2804 37.0118 89.1877 36.8587 89.0387 36.8224L87.9712 36.5606C87.8222 36.5243 87.6691 36.617 87.6329 36.766C87.5966 36.9151 87.6893 37.0682 87.8383 37.1044L88.9057 37.3663C88.9299 37.3743 88.9501 37.3743 88.9742 37.3743Z" fill="white"/>
<path d="M87.9098 37.972C88.0346 37.972 88.1515 37.8834 88.1797 37.7585C88.2159 37.6094 88.1233 37.4564 87.9742 37.4201L86.9068 37.1583C86.7577 37.122 86.6047 37.2146 86.5684 37.3637C86.5322 37.5128 86.6248 37.6658 86.7738 37.7021L87.8413 37.9639C87.8655 37.972 87.8856 37.972 87.9098 37.972Z" fill="white"/>
<path d="M86.7496 38.5267C86.8745 38.5267 86.9913 38.4381 87.0195 38.3132C87.0558 38.1641 86.9631 38.011 86.8141 37.9748L85.7466 37.7129C85.5976 37.6767 85.4445 37.7693 85.4083 37.9184C85.372 38.0674 85.4646 38.2205 85.6137 38.2568L86.6811 38.5186C86.7053 38.5267 86.7295 38.5267 86.7496 38.5267Z" fill="white"/>
<path d="M85.4996 39.0032C85.6245 39.0032 85.7413 38.9146 85.7695 38.7897C85.8058 38.6407 85.7131 38.4876 85.5641 38.4514L84.4966 38.1895C84.3476 38.1532 84.1945 38.2459 84.1583 38.395C84.122 38.544 84.2146 38.6971 84.3637 38.7333L85.4311 38.9952C85.4513 39.0032 85.4754 39.0032 85.4996 39.0032Z" fill="white"/>
<path d="M86.3651 58.0215L84.5726 58.9601L84.915 56.966L83.4648 55.5561L85.4668 55.266L86.3651 53.4492L87.2593 55.266L89.2613 55.5561L87.8112 56.966L88.1536 58.9601L86.3651 58.0215Z" fill="url(#paint4_linear_5192_19337)"/>
<path d="M95.4978 58.0215L93.7093 58.9601L94.0517 56.966L92.6016 55.5561L94.6035 55.266L95.4978 53.4492L96.392 55.266L98.394 55.5561L96.9479 56.966L97.2903 58.9601L95.4978 58.0215Z" fill="url(#paint5_linear_5192_19337)"/>
<path d="M104.636 58.0215L102.844 58.9601L103.186 56.966L101.74 55.5561L103.742 55.266L104.636 53.4492L105.531 55.266L107.533 55.5561L106.083 56.966L106.425 58.9601L104.636 58.0215Z" fill="url(#paint6_linear_5192_19337)"/>
<path d="M113.66 57.8281L111.867 58.7667L112.21 56.7727L110.76 55.3627L112.762 55.0727L113.66 53.2559L114.554 55.0727L116.556 55.3627L115.106 56.7727L115.448 58.7667L113.66 57.8281Z" fill="url(#paint7_linear_5192_19337)"/>
<path d="M122.412 58.0215L120.619 58.9601L120.962 56.966L119.512 55.5561L121.514 55.266L122.412 53.4492L123.306 55.266L125.308 55.5561L123.858 56.966L124.2 58.9601L122.412 58.0215Z" fill="#DDDFE4"/>
<path d="M122.316 61.6192H84.609C81.6282 61.6192 79.1992 59.1941 79.1992 56.209C79.1992 53.228 81.6241 50.7988 84.609 50.7988H122.316C125.297 50.7988 127.726 53.2239 127.726 56.209C127.726 59.1941 125.297 61.6192 122.316 61.6192ZM84.609 51.3266C81.9182 51.3266 79.7269 53.518 79.7269 56.209C79.7269 58.9 81.9182 61.0914 84.609 61.0914H122.316C125.007 61.0914 127.198 58.9 127.198 56.209C127.198 53.518 125.007 51.3266 122.316 51.3266H84.609V51.3266Z" fill="#DDDFE4"/>
<path d="M131.702 16.7991V22.2858H74.3379V16.7991C74.3379 15.3731 75.498 14.2129 76.9239 14.2129H129.12C129.483 14.2129 129.821 14.2854 130.135 14.4183C131.058 14.8172 131.702 15.7316 131.702 16.7991Z" fill="#DDDFE4"/>
<path d="M118.014 19.3816H88.0285C86.514 19.3816 85.2773 18.1449 85.2773 16.6302V16.1831C85.2773 14.6684 86.514 13.4316 88.0285 13.4316H118.014C119.528 13.4316 120.765 14.6684 120.765 16.1831V16.6302C120.765 18.1449 119.528 19.3816 118.014 19.3816Z" fill="#133643"/>
<path d="M111.506 16.7514H91.5908C91.2202 16.7514 90.9141 16.4452 90.9141 16.0746V15.9658C90.9141 15.5952 91.2202 15.2891 91.5908 15.2891H111.506C111.876 15.2891 112.183 15.5952 112.183 15.9658V16.0746C112.183 16.4452 111.876 16.7514 111.506 16.7514Z" fill="#000B17"/>
<path d="M117.362 15.97C117.362 16.4534 116.967 16.8482 116.484 16.8482C116 16.8482 115.605 16.4534 115.605 15.97C115.605 15.4866 116 15.0918 116.484 15.0918C116.971 15.0918 117.362 15.4826 117.362 15.97Z" fill="#335464"/>
<path d="M132.132 36.0592L136.857 46.8271C137.163 47.524 137.977 47.8423 138.678 47.5361L149.445 42.8108C150.142 42.5046 150.46 41.6909 150.154 40.9899L145.429 30.222C145.123 29.5251 144.309 29.2068 143.608 29.513L132.841 34.2383C132.144 34.5485 131.826 35.3622 132.132 36.0592ZM139.314 33.9845C138.883 34.2907 138.291 34.049 138.194 33.5253C138.146 33.2634 138.263 32.9855 138.48 32.8324C138.911 32.5262 139.504 32.7679 139.6 33.2916C139.645 33.5535 139.532 33.8314 139.314 33.9845Z" fill="#350d05"/>
<path d="M136.243 38.7836C135.724 37.5992 136.191 36.5881 137.202 36.145C138.213 35.7018 139.273 36.0442 139.792 37.2286C140.316 38.421 139.845 39.4241 138.833 39.8672C137.822 40.3103 136.767 39.98 136.243 38.7836ZM141.166 34.5215L142.777 33.8125L141.146 42.4937L139.534 43.2027L141.166 34.5215ZM138.439 37.8208C138.157 37.1803 137.867 37.0836 137.653 37.1762C137.444 37.2689 137.315 37.5509 137.597 38.1914C137.879 38.8319 138.173 38.9286 138.382 38.8359C138.592 38.7433 138.721 38.4613 138.439 37.8208ZM142.519 39.7866C142 38.6023 142.467 37.5912 143.478 37.148C144.489 36.7049 145.548 37.0473 146.068 38.2317C146.592 39.4241 146.12 40.4272 145.109 40.8703C144.098 41.3134 143.043 40.9791 142.519 39.7866ZM144.715 38.8239C144.433 38.1833 144.143 38.0867 143.929 38.1793C143.72 38.272 143.595 38.5539 143.873 39.1945C144.155 39.835 144.445 39.9317 144.658 39.839C144.868 39.7464 144.996 39.4644 144.715 38.8239Z" fill="white"/>
<path d="M139.736 28.0466C139.011 24.6305 137.162 20.7431 134.789 17.6452C134.741 17.5808 134.692 17.5163 134.64 17.4518V18.0561C137.105 21.3352 138.769 25.1542 139.397 28.1191C139.655 29.3397 139.744 30.4072 139.663 31.2492C139.599 31.8937 139.442 32.4094 139.188 32.7598C139.091 32.8928 138.978 33.0056 138.853 33.0902C138.668 33.215 138.447 33.2835 138.197 33.2996C138.181 33.4124 138.189 33.5333 138.229 33.6501C138.535 33.63 138.805 33.5373 139.047 33.3762C139.204 33.2714 139.341 33.1345 139.462 32.9733C139.784 32.5383 139.973 31.8978 140.026 31.0921C140.078 30.2461 139.985 29.2189 139.736 28.0466ZM134.64 31.2089C131.023 26.7333 125.935 13.5644 125.065 11.2803C125.057 11.2642 125.053 11.2481 125.045 11.232C125.122 11.2481 125.198 11.2642 125.275 11.2803H126.56C125.996 11.091 125.412 10.9379 124.803 10.8332C124.743 10.8211 124.679 10.8452 124.638 10.8936C124.598 10.9419 124.586 11.0064 124.61 11.0668C124.622 11.1031 124.65 11.1756 124.691 11.2843C125.452 13.3066 130.846 27.4182 134.636 31.7487C134.991 32.1515 135.329 32.4738 135.651 32.6873C135.752 32.7558 135.849 32.8162 135.945 32.8767L136.336 32.7075C136.179 32.6148 136.014 32.5141 135.844 32.4013C135.474 32.1435 135.067 31.7366 134.64 31.2089Z" fill="url(#paint8_linear_5192_19337)"/>
<path d="M34.1179 113.703L32.7871 114.823L34.3263 117.243L35.6572 116.124L34.1179 113.703Z" fill="#995113"/>
<path d="M34.1901 125.469L28.584 116.656C28.6614 116.516 28.8073 116.37 29.0008 116.23C29.7124 115.7 31.0521 115.182 31.8768 114.821C31.9721 114.78 32.0644 114.741 32.1418 114.702C32.2787 114.64 32.3889 114.583 32.4633 114.533C33.0766 114.143 33.3148 114.753 33.3148 114.753C33.0082 116.2 34.9612 116.376 34.9047 117.239C34.9047 117.239 34.8838 117.608 34.6992 118.71C34.5146 119.809 34.857 121.265 35.0773 122.548C35.3632 124.203 35.0535 124.921 34.7231 125.234C34.464 125.478 34.1901 125.469 34.1901 125.469Z" fill="url(#paint9_linear_5192_19337)"/>
<path d="M34.1901 125.47L28.584 116.656C28.6614 116.516 28.8073 116.37 29.0008 116.23L34.726 125.231C34.464 125.478 34.1901 125.47 34.1901 125.47Z" fill="#D38400"/>
<path d="M34.6169 117.613C34.6169 117.613 35.1022 117.526 35.2005 117.952C35.3017 118.381 34.7003 118.711 34.7003 118.711C34.7003 118.711 34.0453 118.836 34.6169 117.613Z" fill="white"/>
<path d="M32.8254 118.605C32.7748 118.525 32.7986 118.418 32.879 118.367C33.7543 117.81 34.576 118.057 34.6117 118.066C34.7011 118.093 34.7546 118.191 34.7249 118.281C34.6981 118.37 34.5998 118.42 34.5105 118.394C34.4807 118.385 33.7989 118.188 33.0665 118.656C32.9832 118.706 32.876 118.685 32.8254 118.605Z" fill="white"/>
<path d="M35.129 119.715C35.1081 119.68 35.0962 119.638 35.1052 119.596C35.1528 119.307 34.8372 118.748 34.6288 118.462C34.5722 118.384 34.5901 118.277 34.6675 118.221C34.7449 118.164 34.8521 118.182 34.9087 118.259C34.9712 118.346 35.5309 119.129 35.4476 119.653C35.4327 119.748 35.3434 119.811 35.2511 119.796C35.1945 119.784 35.1528 119.754 35.129 119.715Z" fill="white"/>
<path d="M34.2023 118.069C34.0981 117.905 33.9642 117.667 33.8093 117.334C33.5801 116.834 33.5712 116.351 33.7855 116.074C33.9136 115.911 34.11 115.839 34.3244 115.881C34.5269 115.919 34.6906 116.033 34.8097 116.211C34.8127 116.214 34.8157 116.22 34.8186 116.223C35.2057 116.831 34.9615 118.022 34.9318 118.156L34.6847 118.102C34.6876 118.108 34.6906 118.108 34.6906 118.108L34.4227 118.367C34.4167 118.361 34.3333 118.278 34.2023 118.069ZM34.5001 116.423C34.4971 116.42 34.4971 116.417 34.4941 116.414C34.4316 116.318 34.3542 116.265 34.25 116.244C34.1755 116.229 34.119 116.247 34.0773 116.304C33.9731 116.438 33.9523 116.759 34.1458 117.176C34.3333 117.584 34.4882 117.837 34.5834 117.974C34.6549 117.587 34.7353 116.792 34.5001 116.423Z" fill="white"/>
<path d="M34.7148 118.524L34.9143 118.208C35.2359 118.41 35.7718 118.458 35.9802 118.3C36.0308 118.262 36.0814 118.199 36.0338 118.035C36.001 117.922 35.9474 117.892 35.9057 117.875C35.6914 117.797 35.2627 118.003 35.0453 118.151L34.8369 117.842C34.9113 117.791 35.5723 117.359 36.0338 117.523C36.1558 117.568 36.3196 117.672 36.394 117.928C36.5042 118.303 36.3255 118.506 36.2094 118.595C35.8373 118.875 35.1227 118.78 34.7148 118.524Z" fill="white"/>
<path d="M29.157 117.561L28.9902 117.299C29.4547 117.371 30.068 117.323 30.7021 116.877C31.5447 116.281 31.8007 115.385 31.8752 114.828C31.9705 114.786 32.0627 114.748 32.1402 114.709C32.0895 115.29 31.8543 116.367 30.8451 117.082C30.2407 117.508 29.6452 117.597 29.157 117.561Z" fill="#D38400"/>
<path d="M34.0818 118.896C34.0401 118.83 34.0461 118.744 34.1026 118.684C34.1681 118.616 34.2783 118.613 34.3468 118.678L34.835 119.143C34.9035 119.208 34.9065 119.318 34.841 119.387C34.7755 119.455 34.6653 119.458 34.5969 119.393L34.1116 118.928C34.0997 118.919 34.0907 118.907 34.0818 118.896Z" fill="white"/>
<path d="M34.1248 119.638C34.0831 119.572 34.089 119.486 34.1456 119.426C34.2111 119.358 34.3213 119.355 34.3897 119.42L34.878 119.885C34.9465 119.95 34.9495 120.061 34.884 120.129C34.8185 120.197 34.7083 120.2 34.6398 120.135L34.1545 119.67C34.1397 119.662 34.1307 119.65 34.1248 119.638Z" fill="white"/>
<path d="M34.1638 120.388C34.1221 120.322 34.1281 120.236 34.1847 120.176C34.2502 120.108 34.3603 120.105 34.4288 120.17L34.9171 120.635C34.9855 120.7 34.9885 120.811 34.923 120.879C34.8575 120.947 34.7474 120.95 34.6789 120.885L34.1906 120.42C34.1787 120.409 34.1698 120.4 34.1638 120.388Z" fill="white"/>
<path d="M34.2615 121.169C34.2198 121.103 34.2258 121.017 34.2823 120.958C34.3478 120.889 34.458 120.886 34.5265 120.952L35.0147 121.416C35.0832 121.482 35.0862 121.592 35.0207 121.66C34.9552 121.729 34.845 121.732 34.7765 121.666L34.2883 121.202C34.2764 121.193 34.2674 121.181 34.2615 121.169Z" fill="white"/>
<path d="M34.4314 121.98C34.3897 121.914 34.3957 121.828 34.4522 121.768C34.5177 121.7 34.6279 121.697 34.6964 121.762L35.1817 122.227C35.2501 122.292 35.2531 122.402 35.1876 122.471C35.1221 122.539 35.012 122.542 34.9435 122.477L34.4582 122.012C34.4493 122 34.4403 121.991 34.4314 121.98Z" fill="white"/>
<path d="M50.2074 98.0114C50.2044 98.0323 50.2014 98.0502 50.1985 98.071C50.1985 98.071 50.1478 98.1693 50.0496 98.3509C49.3589 99.6282 46.3548 105.071 42.6273 110.201C42.0884 110.94 41.5377 111.675 40.975 112.387C40.7279 112.699 40.4778 113.009 40.2277 113.313C39.138 114.635 38.221 115.444 37.179 116.129C37.0688 116.201 36.9557 116.272 36.8426 116.344C36.6252 116.478 36.4019 116.606 36.1697 116.737C36.0595 116.796 35.9464 116.859 35.8333 116.921C35.8333 116.921 34.1541 115.153 33.3711 113.441C33.3711 113.441 33.5884 113.083 33.9427 112.506C34.0112 112.393 34.0856 112.271 34.163 112.14C34.4012 111.746 34.6781 111.288 34.9788 110.785C36.3334 108.525 38.1555 105.419 38.8373 103.978C39.3345 102.924 39.927 101.757 40.5909 100.605C40.7159 100.384 40.844 100.167 40.975 99.9498C40.9898 99.923 41.0047 99.8992 41.0196 99.8753C41.9217 98.3866 42.928 96.9753 43.985 95.9332L41.5823 81.7515L41.4305 80.8613L46.7449 78.9854L47.0485 78.8783L48.3139 78.4316C48.3139 78.4316 48.4151 78.8961 48.5729 79.7C48.5907 79.7953 48.6116 79.8995 48.6324 80.0037C49.3351 83.6333 50.91 92.7324 50.2074 98.0114Z" fill="#350d05"/>
<path d="M37.1728 116.131C37.0627 116.202 36.9495 116.273 36.8364 116.345L34.7791 113.618L34.5886 113.367L33.9336 112.501C34.0021 112.388 34.0765 112.266 34.1539 112.135L34.794 112.983L34.9846 113.233L37.1728 116.131Z" fill="#b49056"/>
<path d="M50.2045 98.0094C50.2015 98.0303 50.1985 98.0481 50.1955 98.069C50.1955 98.069 50.1449 98.1672 50.0467 98.3488C48.8409 98.1226 47.915 97.5271 47.8614 97.4913C47.778 97.4377 47.7572 97.3276 47.8108 97.2442C47.8644 97.1608 47.9745 97.14 48.0579 97.1936C48.0698 97.1995 49.0136 97.8069 50.2045 98.0094Z" fill="#b49056"/>
<path d="M45.3685 96.4231C45.3417 96.4499 42.6771 99.0998 34.9868 113.234C34.9184 113.359 34.8499 113.487 34.7784 113.618L34.5879 113.368C34.6593 113.24 34.7278 113.112 34.7963 112.987C41.9327 99.8799 44.6718 96.7446 45.1095 96.2831C44.4842 93.9637 42.5639 82.0925 42.4806 81.5834C42.4686 81.506 42.5222 81.4315 42.5996 81.4196C42.6771 81.4077 42.7515 81.4613 42.7634 81.5387C42.7842 81.6638 44.8088 94.1959 45.4072 96.2861C45.4221 96.3308 45.4072 96.3844 45.3685 96.4231Z" fill="#b49056"/>
<path d="M42.6265 110.198C41.8524 111.261 41.0486 112.312 40.2269 113.309C40.078 111.136 39.6761 103.948 40.5901 100.595C40.6973 100.197 40.8253 99.8511 40.9742 99.5742L41.0188 99.866L42.6265 110.198Z" fill="#b49056"/>
<path d="M32.6799 74.9495C32.6799 74.9495 32.281 78.7428 33.1444 80.8568C34.0078 82.9679 45.1813 81.8811 48.0276 79.9815C49.1947 79.2014 46.7087 72.0078 46.7087 72.0078L32.6799 74.9495Z" fill="#350d05"/>
<path d="M48.6306 79.9881C48.4609 79.9583 48.2971 79.9166 48.1364 79.8601C47.8803 79.7737 47.6362 79.6546 47.401 79.5057C47.1598 79.3509 46.9395 79.1693 46.746 78.9698C45.5134 77.7282 45.1502 75.8494 45.1353 75.7571C45.1204 75.6797 45.174 75.6053 45.2514 75.5904C45.3288 75.5755 45.4033 75.6291 45.4181 75.7065C45.4211 75.7303 45.7992 77.6835 47.0497 78.8656C47.2045 79.0145 47.3742 79.1484 47.5588 79.2675C47.7821 79.4105 48.0143 79.5206 48.2614 79.601C48.3626 79.6338 48.4668 79.6636 48.574 79.6844C48.5919 79.7797 48.6127 79.8809 48.6306 79.9881Z" fill="#b49056"/>
<path d="M41.7323 81.056C41.7352 81.1305 41.6757 81.196 41.5983 81.2019C41.5179 81.2049 41.4524 81.1483 41.4494 81.0709C41.4256 80.5528 41.3928 80.0199 41.3601 79.4899C41.3541 79.3976 41.3482 79.3023 41.3422 79.21C41.2291 77.4771 41.0862 75.774 40.979 74.5711C40.9701 74.4729 40.9611 74.3806 40.9522 74.2883C40.9284 74.0233 40.9076 73.791 40.8867 73.5915C40.982 73.5767 41.0773 73.5618 41.1696 73.5469C41.1874 73.7464 41.2112 73.9816 41.2351 74.2466C41.244 74.3359 41.2529 74.4312 41.2618 74.5294C41.369 75.7204 41.5119 77.4086 41.6251 79.1326C41.631 79.2279 41.637 79.3232 41.6429 79.4184C41.6727 79.9693 41.7055 80.5201 41.7323 81.056Z" fill="#b49056"/>
<path d="M42.1403 79.226C42.0956 79.2469 41.8932 79.3422 41.6401 79.4166C41.5508 79.4434 41.4555 79.4672 41.3573 79.4881C41.2679 79.5059 41.1756 79.5178 41.0863 79.5238C40.9136 79.5327 40.7439 79.5148 40.604 79.4493C40.4284 79.366 40.3152 79.2141 40.2765 79.0117C40.1723 78.4757 39.952 76.2694 39.8061 74.7062C39.7972 74.611 39.7883 74.5157 39.7793 74.4264C39.7555 74.1763 39.7347 73.95 39.7168 73.7564C39.8121 73.7445 39.9073 73.7326 40.0026 73.7207C40.0205 73.9142 40.0413 74.1465 40.0651 74.3996C40.0741 74.4889 40.083 74.5842 40.0919 74.6794C40.2408 76.2367 40.4581 78.443 40.5594 78.961C40.5832 79.0801 40.6368 79.1576 40.732 79.2022C40.8839 79.2737 41.1131 79.2588 41.3394 79.2111C41.4347 79.1903 41.5329 79.1635 41.6222 79.1337C41.786 79.0801 41.9289 79.0206 42.0152 78.9789C42.0867 78.9462 42.173 78.9729 42.2058 79.0414C42.2415 79.1099 42.2117 79.1903 42.1403 79.226Z" fill="#b49056"/>
<path d="M37.3555 118.748L37.6383 120.996H40.5054L40.6721 118.629L37.3555 118.748Z" fill="#995113"/>
<path d="M40.9122 79.737V118.346L40.8705 118.956H36.613C36.5684 118.676 36.4642 118.227 36.3302 117.649C36.3004 117.524 36.2707 117.39 36.2379 117.253C35.6841 114.892 34.7314 110.866 34.5647 107.368C34.3265 102.372 34.392 95.8957 34.392 95.8957C33.9067 92.1828 33.1416 84.1377 32.7635 80.0198C32.7545 79.9216 32.7456 79.8263 32.7367 79.734C32.6087 78.3495 32.5312 77.4801 32.5312 77.4801C33.216 77.1942 34.4605 77.3907 35.7824 77.7659C35.8777 77.7927 35.9729 77.8195 36.0712 77.8493C38.4202 78.549 40.9122 79.737 40.9122 79.737Z" fill="#350d05"/>
<path d="M40.9741 117.285V117.681H36.3892C36.3594 117.556 36.3296 117.422 36.2969 117.285H40.9741Z" fill="#b49056"/>
<path d="M40.9773 96.7969V97.1661C40.4772 97.2911 39.9085 97.3328 39.3756 97.3328C38.3901 97.3328 37.5267 97.1929 37.4672 97.1839C37.3689 97.1691 37.3034 97.0768 37.3213 96.9785C37.3362 96.8802 37.4285 96.8147 37.5267 96.8326C37.5446 96.8326 39.6287 97.172 40.9773 96.7969Z" fill="#b49056"/>
<path d="M37.1024 117.683H36.8106C36.7868 117.561 36.763 117.427 36.7362 117.287C36.361 115.286 35.6703 111.549 35.313 109.123C34.8129 105.734 35.0481 96.3405 35.057 95.9743C34.6789 92.7437 33.9078 81.6765 33.8988 81.5663C33.8929 81.4859 33.9524 81.4175 34.0328 81.4145C34.1132 81.4085 34.1787 81.4681 34.1847 81.5485C34.1936 81.6616 34.9647 92.7437 35.3428 95.9534C35.3428 95.9594 35.3428 95.9683 35.3428 95.9743C35.3398 96.0695 35.0927 105.669 35.5959 109.084C35.9561 111.529 36.6528 115.307 37.0279 117.29C37.0547 117.427 37.0785 117.561 37.1024 117.683Z" fill="#b49056"/>
<path d="M41.6008 124.825C41.6008 124.852 41.6008 124.876 41.6008 124.9C41.5978 125.016 41.5949 125.117 41.5889 125.206C41.577 125.4 41.5621 125.522 41.5621 125.522H35.0985C35.0985 125.522 35.0658 125.272 35.0926 124.9C35.1343 124.239 35.3546 123.196 36.2477 122.506C37.4684 121.562 36.998 121.758 37.2481 121.327C37.2749 121.279 37.4952 120.547 37.519 120.496C37.7304 120.049 37.9239 119.838 39.0791 119.838C40.6153 119.838 40.7493 120.582 40.9131 120.975C40.9816 121.139 41.0738 121.481 41.1691 121.886C41.2078 122.05 41.2465 122.223 41.2852 122.401C41.3805 122.848 41.4668 123.313 41.5294 123.682C41.5919 124.084 41.6038 124.495 41.6008 124.825Z" fill="url(#paint10_linear_5192_19337)"/>
<path d="M41.5936 124.831C41.5936 124.858 41.5936 124.882 41.5936 124.906C41.5906 125.022 41.5876 125.123 41.5817 125.212C41.2661 124.992 41.0428 124.7 40.9118 124.343C40.5129 123.253 41.1262 121.946 41.153 121.893L41.1649 121.899C41.2036 122.062 41.2423 122.235 41.281 122.414C41.1351 122.857 40.9684 123.605 41.2006 124.239C41.281 124.468 41.415 124.668 41.5936 124.831Z" fill="#D38400"/>
<path d="M41.5978 124.906C41.5889 125.275 41.5591 125.529 41.5591 125.529H35.0985C35.0985 125.529 35.0658 125.278 35.0926 124.906H41.5978Z" fill="#D38400"/>
<path d="M38.3922 120.801C38.3654 120.801 38.3416 120.795 38.3177 120.786C38.154 120.712 36.713 120.042 36.5999 119.342C36.5761 119.202 36.5939 118.997 36.8053 118.803C37.0048 118.622 37.2013 118.622 37.3293 118.657C37.9813 118.83 38.4755 120.274 38.5678 120.563C38.5887 120.631 38.5708 120.709 38.5142 120.756C38.4785 120.783 38.4339 120.801 38.3922 120.801ZM37.1924 119.006C37.1566 119.006 37.112 119.021 37.0524 119.074C36.9572 119.163 36.9542 119.232 36.9631 119.283C37.0107 119.577 37.5586 119.967 38.0587 120.244C37.8295 119.681 37.499 119.083 37.234 119.012C37.2191 119.009 37.2072 119.006 37.1924 119.006Z" fill="white"/>
<path d="M38.7071 120.795C38.6624 120.795 38.6177 120.78 38.585 120.747C38.5314 120.7 38.5106 120.622 38.5314 120.554C38.6237 120.265 39.1179 118.821 39.7699 118.648C39.898 118.615 40.0944 118.612 40.2939 118.794C40.5023 118.988 40.5202 119.193 40.4994 119.333C40.3862 120.033 38.9452 120.703 38.7815 120.777C38.7577 120.789 38.7339 120.795 38.7071 120.795ZM39.9069 118.999C39.892 118.999 39.8771 119.002 39.8652 119.005C39.5972 119.077 39.2668 119.675 39.0405 120.238C39.5407 119.961 40.0885 119.574 40.1361 119.276C40.1451 119.226 40.1421 119.154 40.0468 119.068C39.9873 119.014 39.9426 118.999 39.9069 118.999Z" fill="white"/>
<path d="M38.5481 120.255C38.5481 120.255 38.2474 120.112 38.2236 120.526C38.2057 120.86 38.4439 120.931 38.5392 120.877C38.5392 120.877 38.7446 120.94 38.8459 120.776C38.9501 120.609 38.8846 120.088 38.5481 120.255Z" fill="white"/>
<path d="M37.231 121.386C37.1923 121.386 37.1536 121.374 37.1208 121.35C37.0404 121.29 37.0226 121.174 37.0821 121.091C37.6627 120.311 38.5588 120.48 38.5975 120.486C38.6988 120.507 38.7613 120.602 38.7404 120.704C38.7196 120.802 38.6243 120.867 38.5231 120.85C38.4933 120.844 37.8145 120.722 37.3769 121.311C37.3441 121.359 37.2876 121.386 37.231 121.386Z" fill="white"/>
<path d="M40.0522 121.567C39.9807 121.567 39.9152 121.525 39.8855 121.459C39.5877 120.801 38.5457 120.644 38.5338 120.641C38.4326 120.626 38.3641 120.533 38.379 120.432C38.3939 120.331 38.4862 120.263 38.5874 120.277C38.638 120.283 39.8408 120.468 40.2219 121.308C40.2636 121.4 40.2219 121.51 40.1296 121.552C40.1028 121.561 40.076 121.567 40.0522 121.567Z" fill="white"/>
<path d="M39.2918 121.862C39.2769 121.862 39.262 121.859 39.2441 121.856C38.4224 121.644 37.7525 121.823 37.7466 121.826C37.6483 121.853 37.5471 121.796 37.5203 121.698C37.4935 121.599 37.5501 121.498 37.6483 121.471C37.6781 121.463 38.4194 121.263 39.3364 121.501C39.4347 121.528 39.4942 121.626 39.4674 121.725C39.4496 121.805 39.3751 121.862 39.2918 121.862Z" fill="white"/>
<path d="M39.0066 122.445C38.9917 122.445 38.9768 122.443 38.959 122.44C38.1432 122.228 37.4674 122.407 37.4614 122.41C37.3632 122.437 37.262 122.38 37.2352 122.282C37.2084 122.183 37.2649 122.082 37.3632 122.055C37.393 122.047 38.1343 121.847 39.0513 122.085C39.1495 122.112 39.2091 122.21 39.1823 122.309C39.1614 122.389 39.087 122.445 39.0066 122.445Z" fill="white"/>
<path d="M38.6883 123.115C38.6734 123.115 38.6585 123.112 38.6406 123.109C37.8249 122.898 37.149 123.077 37.1431 123.08C37.0448 123.106 36.9436 123.05 36.9168 122.952C36.89 122.853 36.9466 122.752 37.0448 122.725C37.0746 122.716 37.8159 122.517 38.7329 122.755C38.8312 122.782 38.8907 122.88 38.8639 122.978C38.8431 123.059 38.7686 123.115 38.6883 123.115Z" fill="white"/>
<path d="M36.9292 75.7562C36.9173 75.8217 36.7208 76.84 36.1372 77.8672C35.7949 78.4716 35.3155 79.082 34.6605 79.5018C34.1127 79.8562 33.4964 80.0348 32.8295 80.0378C32.8206 79.9395 32.8117 79.8442 32.8027 79.7519C33.428 79.7519 33.9966 79.5882 34.5057 79.2607C35.0893 78.8855 35.5269 78.3377 35.8485 77.7838C36.4439 76.7626 36.6434 75.7175 36.6464 75.7026C36.6612 75.6252 36.7357 75.5716 36.8131 75.5865C36.8935 75.6043 36.9441 75.6788 36.9292 75.7562Z" fill="#b49056"/>
<path d="M56.0262 62.1839C56.0381 62.8597 55.2819 63.7828 54.2071 64.7236C54.1356 64.7862 54.0612 64.8517 53.9868 64.9142C52.7959 65.9236 51.2745 66.9359 49.9824 67.6743C48.723 68.3919 46.9694 69.2047 45.3111 69.4191C43.7421 69.6216 42.2594 69.294 41.3573 67.8529C41.2531 67.6862 41.1578 67.5135 41.0715 67.3289C39.6037 64.2502 40.4671 59.0486 40.4671 59.0486L44.1916 52.4297C46.8325 54.8057 46.1566 60.9571 47.1212 61.6658C47.1391 61.6777 47.154 61.6896 47.1719 61.6985C47.2939 61.773 47.4368 61.8147 47.5976 61.8266C48.6575 61.9129 50.5242 60.8112 52.4029 60.317C52.5041 60.2902 52.6053 60.2664 52.7065 60.2426C52.8018 60.2217 52.8971 60.2009 52.9924 60.183C54.6685 59.8763 56.0024 60.7368 56.0262 62.1839Z" fill="url(#paint11_linear_5192_19337)"/>
<path d="M54.2024 64.8062C54.131 64.8688 54.0566 64.9343 53.9821 64.9968C53.1932 64.2614 52.6841 63.2579 52.4846 62.0134C52.3923 61.4298 52.3774 60.873 52.3953 60.4026C52.4965 60.3758 52.5977 60.3519 52.6989 60.3281C52.6721 60.8045 52.6811 61.3762 52.7793 61.9747C52.9728 63.1746 53.4492 64.1214 54.2024 64.8062Z" fill="#D38400"/>
<path d="M47.5936 61.9141C46.9088 62.3726 45.971 63.0962 45.5333 63.8614C45.5065 63.909 45.4559 63.9358 45.4053 63.9358C45.3815 63.9358 45.3547 63.9299 45.3309 63.9179C45.2594 63.8763 45.2356 63.7869 45.2743 63.7155C45.6048 63.1349 46.1913 62.587 46.754 62.1493C46.1139 62.2744 45.5065 62.5007 45.5006 62.5037C45.4827 62.5096 45.4648 62.5126 45.447 62.5126C45.3874 62.5126 45.3309 62.4769 45.307 62.4173C45.2773 62.3399 45.319 62.2535 45.3934 62.2268C45.4351 62.2119 46.358 61.8665 47.1648 61.7891C47.2899 61.8605 47.4328 61.9022 47.5936 61.9141Z" fill="#D38400"/>
<path d="M45.3021 69.5052C43.7331 69.7076 42.2504 69.3801 41.3483 67.939C41.2441 67.7723 41.1488 67.5996 41.0625 67.415C41.6044 67.2334 42.703 67.0607 44.0874 67.8795C44.9835 68.4095 45.2634 69.0079 45.3021 69.5052Z" fill="#D38400"/>
<path d="M58.939 57.3809C58.939 57.3809 57.5932 62.0108 55.1489 62.5706L54.0176 61.1474C54.0176 61.1503 56.3726 57.6191 58.939 57.3809Z" fill="#995113"/>
<path d="M53.9551 62.2994L54.1426 62.4066C54.2409 62.4632 54.363 62.4512 54.4493 62.3738C55.2323 61.6741 59.0313 58.2709 59.6803 57.598C59.7399 57.5355 59.7637 57.4461 59.7458 57.3628L59.1533 54.5669C59.1385 54.4984 59.0997 54.4389 59.0402 54.4032L58.7812 54.2305L59.3856 57.2437L53.9551 62.2994Z" fill="#564C54"/>
<path d="M53.94 62.2608L53.2672 59.4947C53.2404 59.3875 53.3148 59.2119 53.4309 59.1017L58.5816 54.305C58.6977 54.1978 58.8138 54.1978 58.8406 54.305L59.5134 57.0711C59.5402 57.1783 59.4658 57.3539 59.3497 57.4641L54.1991 62.2608C54.0829 62.3709 53.9668 62.3709 53.94 62.2608Z" fill="#221B22"/>
<path d="M54.8609 60.9407L54.3727 58.928C54.3459 58.8208 54.4203 58.6451 54.5364 58.5349L58.3562 54.9769C58.4723 54.8697 58.5884 54.8697 58.6152 54.9769L59.1035 56.9896C59.1303 57.0968 59.0559 57.2725 58.9397 57.3827L55.1199 60.9407C55.0009 61.0479 54.8847 61.0479 54.8609 60.9407Z" fill="#564C54"/>
<path d="M54.1732 60.7197C53.9946 60.8865 53.816 60.8865 53.7743 60.7197C53.7326 60.553 53.8457 60.282 54.0244 60.1153C54.203 59.9485 54.3816 59.9485 54.4233 60.1153C54.465 60.282 54.3519 60.553 54.1732 60.7197Z" fill="#564C54"/>
<path d="M54.3648 58.3103C54.3648 58.3103 53.9004 57.2503 54.5852 56.7293C55.2699 56.2082 56.6841 56.0742 56.6841 56.0742C57.2349 56.5089 56.306 57.0091 55.133 57.5183L54.3648 58.3103Z" fill="#995113"/>
<path d="M56.6465 60.4111C56.6465 60.4111 57.364 60.7357 57.5992 60.3307C57.8344 59.9258 57.4087 58.9045 57.236 58.5561C57.0633 58.2078 56.8757 59.0921 56.9621 59.4911C57.0127 59.7263 56.9948 60.1015 56.9948 60.1015L56.6465 60.4111Z" fill="#995113"/>
<path d="M57.5977 59.4049C57.5977 59.4049 58.3509 59.7176 58.6308 59.2352C58.9106 58.7529 58.4045 57.541 58.1991 57.1272C57.9936 56.7133 57.7406 57.7733 57.8745 58.2378C58.0085 58.7022 57.8507 58.9077 57.8507 58.9077L57.5977 59.4049Z" fill="#995113"/>
<path d="M58.1309 58.9076C58.1309 58.9076 58.7978 59.1815 59.0449 58.7587C59.292 58.3329 58.8454 57.264 58.6638 56.8978C58.4822 56.5316 58.2589 57.4665 58.378 57.8774C58.4971 58.2883 58.3571 58.4699 58.3571 58.4699L58.1309 58.9076Z" fill="#995113"/>
<path d="M57.082 60.1452C57.082 60.1452 57.8353 60.4578 58.1151 59.9754C58.395 59.4931 57.8889 58.2813 57.6834 57.8674C57.478 57.4535 57.2249 58.5135 57.3589 58.978C57.4929 59.4425 57.3351 59.6479 57.3351 59.6479L57.082 60.1452Z" fill="#995113"/>
<path d="M32.4871 78.2669L32.1328 80.4316C32.1328 80.4316 36.2265 81.3456 38.8048 80.6847C41.3831 80.0237 47.6085 79.4014 48.6714 79.3597L47.9896 76.4805C47.9896 76.4805 40.0076 78.9934 32.4871 78.2669Z" fill="white"/>
<path d="M41.2335 51.1481C41.2335 51.1481 42.7549 48.0575 39.5246 46.3455C37.2649 45.1456 32.9062 44.9282 31.5754 47.6734C30.3369 50.2251 33.1206 52.3749 33.1206 52.3749C33.1206 52.3749 39.081 53.6462 41.2335 51.1481Z" fill="#D38400"/>
<path d="M35.979 47.5762C35.979 47.5762 33.1893 47.9573 34.1986 49.446C34.7345 50.235 37.7594 50.6638 37.7594 50.6638C37.7594 50.6638 38.3518 47.9335 35.979 47.5762Z" fill="#221B22"/>
<path d="M47.6603 75.7203C47.6603 75.7203 37.3234 79.192 32.8664 77.4592C32.8664 77.4592 31.4701 77.0244 30.9104 74.2882C30.8925 74.1988 30.8746 74.1065 30.8568 74.0113C30.6216 72.6565 30.5859 70.7867 30.9759 68.2022C31.4463 65.1027 30.7943 63.5187 30.5174 60.434C30.5084 60.3268 30.4965 60.2137 30.4876 60.1035C30.4578 59.77 30.431 59.4187 30.4013 59.0435C30.1006 54.9704 28.8055 53.2286 30.833 52.0167C32.8634 50.8079 35.5251 49.8789 35.5251 49.8789C35.5251 49.8789 37.7908 50.5965 39.3866 49.8789C39.3866 49.8789 41.816 51.0699 43.6827 51.7488C45.5495 52.4306 44.9362 57.3642 45.5256 60.1958C46.1151 63.0304 47.1125 65.2843 48.0116 69.9827C48.8393 74.2882 47.6603 75.7203 47.6603 75.7203Z" fill="url(#paint12_linear_5192_19337)"/>
<path d="M47.9094 69.5642C47.832 69.5642 47.7665 69.5047 47.7605 69.4272C47.6742 68.2422 46.7721 65.232 46.2332 63.4366C46.129 63.0882 46.0367 62.7845 45.9742 62.5612C45.5841 61.2154 45.1405 58.0504 45.1227 57.9164C45.1108 57.836 45.1673 57.7586 45.2507 57.7496C45.3311 57.7377 45.4085 57.7943 45.4174 57.8777C45.4234 57.9104 45.8759 61.1558 46.26 62.4808C46.3255 62.7041 46.4148 63.0049 46.519 63.3532C47.0609 65.1635 47.9689 68.1916 48.0582 69.4094C48.0642 69.4927 48.0017 69.5612 47.9213 69.5672C47.9153 69.5642 47.9123 69.5642 47.9094 69.5642Z" fill="#D38400"/>
<path d="M48.1919 74.2852C48.1919 74.2852 48.6325 75.6369 48.0103 76.548C48.0103 76.548 38.7243 79.7726 32.4929 78.269C32.4929 78.269 31.9332 77.5931 31.7754 76.2056C31.7724 76.2026 39.2661 78.0665 48.1919 74.2852Z" fill="#D38400"/>
<path d="M38.5818 54.2231C40.3026 54.2231 40.8415 52.6807 40.8474 52.6629C40.8683 52.6033 40.8355 52.5408 40.776 52.52C40.7164 52.4991 40.6539 52.5319 40.6331 52.5914C40.6122 52.654 40.1001 54.098 38.4091 53.9908C36.6495 53.8807 34.3868 52.7195 34.366 52.7075C34.3094 52.6778 34.2439 52.7016 34.2141 52.7552C34.1844 52.8118 34.2082 52.8773 34.2618 52.907C34.357 52.9547 36.587 54.104 38.3942 54.2171C38.4597 54.2231 38.5222 54.2231 38.5818 54.2231Z" fill="#D38400"/>
<path d="M44.7704 67.5981C44.7704 67.5981 45.9643 71.2544 45.5266 73.285C45.5266 73.285 41.5967 75.6283 35.7375 74.4492C35.7375 74.4492 35.41 70.8346 35.1777 68.5122C35.1807 68.5122 41.162 67.5415 44.7704 67.5981Z" fill="#D38400"/>
<path d="M37.9034 70.4098C37.948 70.4098 37.9867 70.374 37.9867 70.3294C38.347 62.5225 36.1647 50.8091 36.1409 50.693C36.1319 50.6483 36.0873 50.6156 36.0426 50.6245C35.9979 50.6335 35.9652 50.6781 35.9741 50.7228C35.995 50.8389 38.1773 62.5314 37.817 70.3204C37.8141 70.3681 37.8498 70.4068 37.8974 70.4098C37.9004 70.4098 37.9034 70.4098 37.9034 70.4098Z" fill="white"/>
<path d="M43.1194 69.8852C43.1224 69.8852 43.1224 69.8852 43.1194 69.8852C43.1701 69.8852 43.2058 69.8435 43.2028 69.7988C42.92 60.3692 39.7165 50.749 39.6867 50.6537C39.6718 50.6091 39.6242 50.5852 39.5795 50.6001C39.5348 50.615 39.511 50.6627 39.5259 50.7073C39.5587 50.8026 42.7503 60.399 43.0361 69.8018C43.0361 69.8494 43.0748 69.8852 43.1194 69.8852Z" fill="white"/>
<path d="M42.6492 51.2616C42.6492 51.2616 43.2566 57.1362 40.9641 61.1468C37.9005 66.5063 30.9784 68.1975 30.9784 68.1975C30.9784 68.1975 30.6331 67.3161 30.9963 66.0358C30.9963 66.0358 37.4003 64.8448 40.0828 59.4884C42.2651 55.1323 41.2261 50.7793 41.2261 50.7793C41.2261 50.7793 42.1699 50.7823 42.6492 51.2616Z" fill="#221B22"/>
<path d="M37.3255 65.9942C37.3642 65.9912 37.4059 65.9883 37.4446 65.9853C37.6441 65.9704 37.8406 65.9406 38.0341 65.9019C38.1383 65.8811 38.2425 65.8573 38.3467 65.8275C38.5015 65.7858 38.6564 65.7382 38.8082 65.6816C38.9184 65.6429 39.0255 65.5982 39.1327 65.5506C40.6273 64.8985 41.8748 63.5944 42.4672 62.0759C42.5089 61.9657 42.5506 61.8555 42.5863 61.7424C42.6518 61.5429 42.7024 61.3404 42.7441 61.135C42.7649 61.0308 42.7828 60.9296 42.7947 60.8253C42.8185 60.6407 42.8364 60.4532 42.8394 60.2686C42.8394 60.2299 42.8394 60.1882 42.8394 60.1495C42.8304 58.2439 40.0854 57.1035 40.0854 57.1035L39.3501 58.3898L39.1804 58.6845L37.8674 60.9802L35.694 62.3974L35.4141 62.5791L34.125 63.4187C34.125 63.4217 35.4201 66.0984 37.3255 65.9942Z" fill="#221B22"/>
<g opacity="0.5">
<path d="M38.0291 65.9088C38.1333 65.8879 38.2375 65.8641 38.3417 65.8343C37.8147 64.3992 36.606 63.1755 35.692 62.4043L35.4121 62.5859C36.2904 63.3243 37.5021 64.5272 38.0291 65.9088Z" fill="#564C54"/>
</g>
<g opacity="0.5">
<path d="M40.2943 59.8653C41.1339 60.6067 41.9556 61.0354 42.7356 61.1456C42.7565 61.0414 42.7743 60.9402 42.7862 60.836C41.384 60.6424 40.0889 59.3234 39.3416 58.4004L39.1719 58.6952C39.4756 59.0584 39.8566 59.4753 40.2943 59.8653Z" fill="#564C54"/>
</g>
<path d="M40.0837 57.1074C40.0837 57.1074 42.2779 58.2567 41.0155 60.1742C39.7532 62.0917 37.5739 64.4409 36.2341 64.5779C34.8943 64.7148 34.1113 63.4375 34.1113 63.4375L40.0837 57.1074Z" fill="#564C54"/>
<g opacity="0.5">
<path d="M38.8047 65.6872C38.9148 65.6485 39.022 65.6039 39.1292 65.5562C39.156 64.8803 39.3525 64.0228 40.0194 63.2666C40.731 62.4567 41.7015 62.1708 42.4637 62.0815C42.5054 61.9714 42.5471 61.8612 42.5828 61.748C41.7432 61.8195 40.6148 62.1113 39.7842 63.0611C39.0042 63.9484 38.8106 64.9399 38.8047 65.6872Z" fill="#564C54"/>
</g>
<path d="M39.3078 49.4433L39.0935 50.4258C38.9595 50.4943 38.8136 50.5241 38.6915 50.5926C36.6134 51.7776 35.0087 50.0924 35.0355 49.9881L35.9435 46.1621L38.9059 49.0502L39.3078 49.4433Z" fill="#995113"/>
<path d="M39.3074 49.425L39.0841 50.4374C38.9501 50.5058 38.8162 50.5594 38.6822 50.6041C37.3543 49.7109 36.6309 47.9512 36.6309 47.9512L38.8965 49.0618L39.3074 49.425Z" fill="#221B22"/>
<path d="M35.388 42.3937C35.388 42.3937 34.3519 41.6017 34.858 40.6519C35.3642 39.7021 36.3645 39.9998 36.3645 39.9998C36.3645 39.9998 36.3824 38.9577 37.2488 38.66C38.1181 38.3622 38.651 39.178 38.651 39.178C38.651 39.178 39.047 38.1776 39.9283 38.2878C40.8095 38.3979 40.7857 39.2495 40.7857 39.2495C40.7857 39.2495 41.6313 38.52 42.5482 39.1066C43.4652 39.6931 42.7745 40.5268 42.7745 40.5268C42.7745 40.5268 43.5903 40.7591 43.2806 41.6136C43.1199 42.0632 42.4053 42.2835 42.4053 42.2835L35.388 42.3937Z" fill="#221B22"/>
<path d="M35.8631 42.1014C35.8631 42.1014 35.1635 42.0032 34.8389 42.8071C34.5055 43.6378 35.0712 44.0696 35.0712 44.0696C35.0712 44.0696 34.4876 44.5608 34.7526 45.2337C35.0176 45.9037 35.6815 45.6744 35.6815 45.6744C35.6815 45.6744 34.9372 46.3354 35.4701 46.919C36.003 47.5026 36.9974 46.2312 36.9974 46.2312L35.8631 42.1014Z" fill="#221B22"/>
<path d="M41.5872 41.4043C41.5872 41.4043 43.9065 42.2469 42.3435 43.7059C42.3435 43.7029 41.3907 42.0415 41.5872 41.4043Z" fill="#221B22"/>
<path d="M41.7033 43.0829C41.7033 43.0829 42.4715 42.9787 42.6947 43.5891C42.9151 44.1965 42.3166 44.521 42.3166 44.521C42.3166 44.521 42.6947 44.92 42.4179 45.584C42.138 46.2509 41.6736 46.114 41.6736 46.114C41.6736 46.114 42.1201 46.5457 41.5753 47.1174C41.0305 47.692 40.3457 46.644 40.3457 46.644L41.7033 43.0829Z" fill="#221B22"/>
<path d="M41.3465 45.3154C41.3465 45.3154 42.0491 44.7794 42.2218 45.506C42.3915 46.2354 41.8556 47.5157 41.0547 47.1108L41.3465 45.3154Z" fill="#6C370D"/>
<path d="M41.5729 47.7945C41.5729 47.7945 41.1293 49.8281 39.0155 49.3577C36.9165 48.8932 35.8447 46.9281 35.7881 46.8358C35.7881 46.8328 35.7852 46.8328 35.7852 46.8328L35.8566 46.401L36.2228 44.159L36.4193 42.9591C36.4193 42.9591 36.6188 40.7677 38.7326 40.8213C40.2778 40.863 41.6116 41.4138 42.1445 42.3398C42.341 42.6822 42.4274 43.0752 42.3738 43.5129L41.9719 45.6567L41.8736 46.1807L41.5729 47.7945Z" fill="#995113"/>
<path d="M36.6245 44.8869C36.5769 44.5564 36.3774 44.1693 35.8058 43.9073C35.7373 43.7227 35.6331 43.4488 35.6867 42.9962C35.7373 42.5555 35.6837 42.1179 35.9516 41.6504C35.9516 41.6504 36.6275 40.7691 38.7413 40.8227C40.2865 40.8643 41.6203 41.4152 42.1502 42.3412C42.1205 42.4096 42.0699 42.4573 42.0163 42.502C41.4833 42.9575 40.6825 42.6806 39.8429 42.2042C39.0033 41.7278 38.125 42.1417 38.125 42.1417C38.2292 42.2102 38.2947 42.3322 38.2858 42.5347C38.2798 42.6806 38.2352 42.8235 38.1697 42.9545C38.0863 43.1153 37.9464 43.3208 37.7945 43.285C37.7945 43.285 38.0119 43.7912 37.7082 44.083C37.4075 44.3748 37.2735 44.3658 37.2735 44.3658C37.2735 44.3658 37.4819 44.7946 37.214 45.0864C37.0234 45.2948 36.6245 44.8869 36.6245 44.8869Z" fill="#221B22"/>
<path d="M36.6405 46.166C36.6256 46.1869 36.2236 46.7496 35.7979 46.8449C35.7979 46.8419 35.7949 46.8419 35.7949 46.8419L35.8664 46.4102C35.8694 46.4102 36.2147 46.4251 36.6405 46.166Z" fill="#221B22"/>
<path d="M36.5706 44.672C36.5706 44.672 35.9989 43.4006 35.2129 44.1301C34.5669 44.7286 35.0909 46.7741 36.2014 46.3572L36.5706 44.672Z" fill="#995113"/>
<path d="M34.3312 49.5977C34.3312 49.5977 37.3114 50.9077 37.8979 50.9018C37.8979 50.9018 37.1387 51.6134 35.9329 51.7325C34.355 51.8873 31.6934 51.5449 31.6934 51.5449C31.6934 51.5449 32.4794 49.9222 34.3312 49.5977Z" fill="#D38400"/>
<path d="M39.3105 49.3652C39.3105 49.3652 39.3105 50.589 37.9082 50.8957C37.9082 50.8957 38.1732 51.8097 39.37 51.64C40.5669 51.4703 41.2338 50.7825 41.2338 50.7825C41.2338 50.7825 40.2543 49.3652 39.3105 49.3652Z" fill="#D38400"/>
<path d="M35.6518 74.1419C35.6518 74.1419 30.9061 74.9518 27.6401 73.0224C25.7852 71.9267 24.4098 69.9496 24.6479 66.4392C24.6509 66.3856 24.6539 66.332 24.6598 66.2784C25.4309 56.8041 30.3196 52.5166 30.3196 52.5166C32.1506 52.0402 34.187 52.5285 31.3616 64.5902C30.5339 69.4822 35.2499 69.8841 35.2499 69.8841L35.6518 74.1419Z" fill="url(#paint13_linear_5192_19337)"/>
<path d="M31.2649 65.7091C31.25 65.7091 31.2352 65.7061 31.2203 65.7031C31.1429 65.6763 31.0982 65.5929 31.125 65.5155C31.1429 65.456 33.0275 59.6231 33.0602 56.5385C33.0602 56.4551 33.1257 56.3926 33.212 56.3926C33.2954 56.3926 33.3609 56.4611 33.3579 56.5444C33.3252 59.6737 31.4287 65.5513 31.4078 65.6078C31.387 65.6674 31.3275 65.7091 31.2649 65.7091Z" fill="#D38400"/>
<path d="M32.9642 58.9902C32.9374 58.9902 32.9106 58.9842 32.8868 58.9693C32.8183 58.9276 32.7945 58.8353 32.8392 58.7639L33.7085 57.3555C33.7532 57.2871 33.8425 57.2632 33.9139 57.3079C33.9854 57.3496 34.0062 57.4419 33.9616 57.5134L33.0922 58.9217C33.0624 58.9634 33.0148 58.9902 32.9642 58.9902Z" fill="#D38400"/>
<path d="M34.6476 74.4578C34.5911 74.4578 34.5345 74.4251 34.5107 74.3685C33.9658 73.0882 34.0879 69.4795 34.0939 69.3247C34.0968 69.2413 34.1653 69.1788 34.2487 69.1817C34.332 69.1847 34.3946 69.2532 34.3916 69.3366C34.3916 69.3723 34.2636 73.0346 34.7846 74.2524C34.8173 74.3268 34.7816 74.4161 34.7072 74.4489C34.6863 74.4519 34.6685 74.4578 34.6476 74.4578Z" fill="#D38400"/>
<path d="M35.6973 74.2844C35.6348 74.3023 34.6463 74.603 33.2679 74.603C32.5623 74.603 31.7554 74.5256 30.9188 74.2904C30.901 74.2011 30.8831 74.1088 30.8652 74.0135C30.898 73.9926 30.9397 73.9867 30.9813 73.9986C33.3721 74.6715 35.5871 74.0075 35.608 73.9986C35.6854 73.9748 35.7687 74.0194 35.7926 74.0969C35.8194 74.1773 35.7747 74.2606 35.6973 74.2844Z" fill="#D38400"/>
<path d="M34.3078 69.477C34.2483 69.477 34.1858 69.474 34.1203 69.471C33.4831 69.4294 32.5572 69.1495 31.7623 68.0508C31.7147 67.9853 31.7295 67.89 31.795 67.8424C31.8605 67.7947 31.9558 67.8096 32.0034 67.8751C33.3879 69.7926 35.1951 69.0214 35.2129 69.0155C35.2873 68.9827 35.3767 69.0155 35.4094 69.0929C35.4422 69.1673 35.4094 69.2567 35.332 69.2894C35.3141 69.2984 34.9003 69.477 34.3078 69.477Z" fill="#D38400"/>
<path d="M27.6401 73.0187C25.7852 71.923 24.4098 69.946 24.6479 66.4355C25.952 67.8796 28.0539 70.6308 27.6401 73.0187Z" fill="#D38400"/>
<path d="M58.1057 51.1358H50.3172C50.1862 51.1358 50.082 51.0315 50.082 50.9005V44.493C50.082 44.362 50.1862 44.2578 50.3172 44.2578H58.1057C58.2367 44.2578 58.3409 44.362 58.3409 44.493V50.9005C58.3379 51.0315 58.2337 51.1358 58.1057 51.1358Z" fill="#F77659"/>
<path d="M55.9238 50.8613L56.6473 52.3084C56.6771 52.3679 56.7634 52.362 56.7843 52.2994L57.2576 50.8613H55.9238Z" fill="#F77659"/>
<path d="M55.8593 48.9106C55.8563 48.9106 55.8534 48.9106 55.8474 48.9106L51.6495 48.202C51.6227 48.196 51.6019 48.1752 51.5989 48.1484L51.325 46.3351C51.322 46.3173 51.328 46.2994 51.3399 46.2845C51.3518 46.2696 51.3696 46.2637 51.3875 46.2637H56.3893C56.4071 46.2637 56.425 46.2726 56.4369 46.2875C56.4488 46.3024 56.4548 46.3202 56.4488 46.3411L55.9218 48.863C55.9129 48.8898 55.8861 48.9106 55.8593 48.9106ZM51.715 48.0859L55.8087 48.7767L56.3059 46.3887H51.456L51.715 48.0859Z" fill="white"/>
<path d="M56.21 47.122L51.4881 46.9851C51.4583 46.9851 51.4375 46.9613 51.4375 46.9315C51.4375 46.9017 51.4613 46.8809 51.4911 46.8809L56.213 47.0178C56.2428 47.0178 56.2636 47.0416 56.2636 47.0714C56.2606 47.1012 56.2398 47.122 56.21 47.122Z" fill="white"/>
<path d="M55.9985 48.0147C55.9955 48.0147 55.9955 48.0147 55.9926 48.0147L51.5714 47.583C51.5416 47.58 51.5207 47.5532 51.5237 47.5264C51.5267 47.4967 51.5535 47.4758 51.5803 47.4788L56.0015 47.9105C56.0313 47.9135 56.0521 47.9403 56.0491 47.9671C56.0491 47.9939 56.0253 48.0147 55.9985 48.0147Z" fill="white"/>
<path d="M56.3886 46.3873C56.3827 46.3873 56.3797 46.3873 56.3737 46.3844C56.341 46.3754 56.3172 46.3427 56.3261 46.3099L56.5256 45.4256C56.5315 45.3958 56.5583 45.375 56.5881 45.375H57.4307C57.4664 45.375 57.4932 45.4048 57.4932 45.4375C57.4932 45.4733 57.4634 45.5001 57.4307 45.5001H56.6387L56.4512 46.3337C56.4422 46.3665 56.4154 46.3873 56.3886 46.3873Z" fill="white"/>
<path d="M57.6872 45.6117H57.062C56.9786 45.6117 56.9102 45.5433 56.9102 45.4599V45.4331C56.9102 45.3497 56.9786 45.2812 57.062 45.2812H57.6872C57.7706 45.2812 57.8391 45.3497 57.8391 45.4331V45.4569C57.842 45.5433 57.7736 45.6117 57.6872 45.6117Z" fill="white"/>
<path d="M55.7238 49.5224H51.8653C51.8295 49.5224 51.8027 49.4926 51.8027 49.4599C51.8027 49.4241 51.8295 49.3973 51.8653 49.3973H55.6731L55.7982 48.8405C55.8071 48.8078 55.8399 48.784 55.8726 48.7929C55.9054 48.8018 55.9292 48.8346 55.9203 48.8673L55.7833 49.4747C55.7774 49.5015 55.7535 49.5224 55.7238 49.5224Z" fill="white"/>
<path d="M53.149 50.1497C52.9615 50.1497 52.8066 49.9948 52.8066 49.8073C52.8066 49.6197 52.9615 49.4648 53.149 49.4648C53.3366 49.4648 53.4914 49.6197 53.4914 49.8073C53.4914 49.9948 53.3396 50.1497 53.149 50.1497ZM53.149 49.572C53.021 49.572 52.9168 49.6762 52.9168 49.8043C52.9168 49.9323 53.021 50.0365 53.149 50.0365C53.277 50.0365 53.3812 49.9323 53.3812 49.8043C53.3812 49.6762 53.277 49.572 53.149 49.572Z" fill="white"/>
<path d="M54.5377 50.1516C54.3501 50.1516 54.1953 49.9968 54.1953 49.8092C54.1953 49.6216 54.3501 49.4668 54.5377 49.4668C54.7253 49.4668 54.8801 49.6216 54.8801 49.8092C54.8801 49.9968 54.7282 50.1516 54.5377 50.1516ZM54.5377 49.574C54.4097 49.574 54.3055 49.6782 54.3055 49.8062C54.3055 49.9343 54.4097 50.0385 54.5377 50.0385C54.6657 50.0385 54.7699 49.9343 54.7699 49.8062C54.7699 49.6782 54.6687 49.574 54.5377 49.574Z" fill="white"/>
<path d="M75.3531 108.219C75.2202 108.215 75.1154 108.102 75.1235 107.97C75.1517 107.389 75.2524 105.863 75.5706 104.352C76.1265 101.693 77.0489 100.344 78.3218 100.344C79.5947 100.344 80.497 101.693 81.0045 104.356C81.2905 105.867 81.363 107.393 81.3832 107.974C81.3872 108.107 81.2825 108.215 81.1495 108.219C81.0206 108.219 80.9119 108.119 80.9079 107.986C80.8555 105.786 80.3157 100.819 78.3218 100.819C76.3239 100.819 75.6955 105.786 75.5988 107.99C75.5907 108.123 75.482 108.223 75.3531 108.219Z" fill="#b49056"/>
<path d="M86.4928 126.532H69.2363L71.6129 107.324H84.1162L86.4928 126.532Z" fill="#b49056"/>
<path d="M85.6178 126.532H68.3613L70.7379 107.324H83.2412L85.6178 126.532Z" fill="#350d05"/>
<path d="M76.9906 120.21L79.476 121.515L79.0007 118.747L81.0107 116.79L78.2313 116.387L76.9906 113.873L75.75 116.387L72.9746 116.79L74.9806 118.747L74.5093 121.515L76.9906 120.21Z" fill="#b49056"/>
<path d="M74.2444 108.876C74.5692 108.876 74.8325 108.612 74.8325 108.287C74.8325 107.963 74.5692 107.699 74.2444 107.699C73.9196 107.699 73.6562 107.963 73.6562 108.287C73.6562 108.612 73.9196 108.876 74.2444 108.876Z" fill="#350d05"/>
<path d="M80.2776 108.876C80.6024 108.876 80.8657 108.612 80.8657 108.287C80.8657 107.963 80.6024 107.699 80.2776 107.699C79.9528 107.699 79.6895 107.963 79.6895 108.287C79.6895 108.612 79.9528 108.876 80.2776 108.876Z" fill="#350d05"/>
<path d="M74.2615 108.216C74.1246 108.212 74.0158 108.095 74.0239 107.958C74.0521 107.358 74.1608 105.779 74.4831 104.216C75.0551 101.464 76.0137 100.07 77.3309 100.07C78.6481 100.07 79.5827 101.468 80.1063 104.22C80.4044 105.783 80.4769 107.362 80.497 107.962C80.5011 108.099 80.3923 108.216 80.2554 108.216C80.1224 108.216 80.0096 108.111 80.0056 107.978C79.9492 105.702 79.3933 100.57 77.3309 100.57C75.2685 100.57 74.612 105.706 74.5153 107.986C74.5072 108.115 74.3944 108.22 74.2615 108.216Z" fill="#b49056"/>
<path d="M61.8247 105.728C61.6717 105.724 61.5548 105.595 61.5629 105.446C61.5951 104.79 61.7119 103.053 62.0704 101.337C62.6988 98.316 63.7502 96.7852 65.1963 96.7852C66.6423 96.7852 67.6695 98.32 68.2415 101.341C68.5678 103.057 68.6524 104.794 68.6725 105.45C68.6765 105.603 68.5557 105.728 68.4067 105.728C68.2576 105.728 68.1368 105.611 68.1328 105.466C68.0723 102.965 67.4601 97.329 65.1963 97.329C62.9284 97.329 62.2114 102.973 62.1027 105.474C62.0946 105.619 61.9697 105.732 61.8247 105.728Z" fill="#b49056"/>
<path d="M74.4739 126.533H54.873L57.5719 104.715H71.775L74.4739 126.533Z" fill="#E33D15"/>
<path d="M73.4836 126.533H53.8828L56.5816 104.715H70.7848L73.4836 126.533Z" fill="#F77659"/>
<path d="M64.3055 120.96C64.3015 120.96 64.2975 120.96 64.2935 120.96H64.2572C63.0367 120.956 61.8887 120.481 61.0267 119.614C60.1646 118.748 59.6934 117.6 59.6934 116.38V116.343C59.6974 113.826 61.7477 111.783 64.2653 111.783C64.2693 111.783 64.2733 111.783 64.2774 111.783H64.3136C66.8352 111.787 68.8815 113.846 68.8734 116.364V116.4C68.8694 117.62 68.3941 118.768 67.528 119.631C66.666 120.485 65.522 120.96 64.3055 120.96ZM64.2935 120.646C64.2975 120.646 64.3015 120.646 64.3015 120.646C65.4334 120.646 66.5009 120.207 67.3065 119.405C68.1121 118.603 68.5592 117.536 68.5592 116.396V116.359C68.5633 114.011 66.658 112.097 64.3096 112.089H64.2733C64.2693 112.089 64.2653 112.089 64.2653 112.089C61.9209 112.089 60.0116 113.995 60.0076 116.339V116.376C60.0035 117.512 60.4466 118.583 61.2482 119.389C62.0498 120.195 63.1173 120.642 64.2572 120.642L64.2935 120.646Z" fill="#E33D15"/>
<path d="M64.3657 119.412C64.3254 119.412 64.2851 119.396 64.2529 119.368L62.0415 117.144C61.6991 116.798 61.5098 116.342 61.5098 115.851C61.5098 115.364 61.6991 114.904 62.0455 114.562C62.3476 114.26 62.7343 114.115 63.1291 114.155C63.5762 114.199 64.0112 114.477 64.3738 114.941C64.7363 114.477 65.1754 114.203 65.6225 114.159C66.0172 114.123 66.3999 114.268 66.702 114.574C67.0444 114.916 67.2337 115.376 67.2297 115.867C67.2297 116.355 67.0404 116.814 66.6939 117.156L64.4704 119.368C64.4463 119.396 64.406 119.412 64.3657 119.412Z" fill="#E33D15"/>
<path d="M60.5632 106.478C60.9325 106.478 61.2319 106.179 61.2319 105.809C61.2319 105.44 60.9325 105.141 60.5632 105.141C60.1939 105.141 59.8945 105.44 59.8945 105.809C59.8945 106.179 60.1939 106.478 60.5632 106.478Z" fill="#E33D15"/>
<path d="M68.0795 105.809C68.0795 106.18 67.7814 106.478 67.4109 106.478C67.0403 106.478 66.7422 106.18 66.7422 105.809C66.7422 105.439 67.0403 105.141 67.4109 105.141C67.7814 105.141 68.0795 105.439 68.0795 105.809Z" fill="#E33D15"/>
<path d="M60.5789 105.728C60.4218 105.724 60.3009 105.591 60.309 105.434C60.3412 104.753 60.462 102.96 60.8326 101.184C61.4852 98.0618 62.5728 96.4746 64.0632 96.4746C65.5616 96.4746 66.621 98.0618 67.2132 101.188C67.5515 102.964 67.6361 104.757 67.6563 105.438C67.6603 105.595 67.5354 105.724 67.3783 105.724C67.2252 105.724 67.1004 105.603 67.0963 105.45C67.0319 102.864 66.3995 97.0346 64.0591 97.0346C61.7148 97.0346 60.9736 102.872 60.8608 105.458C60.8568 105.615 60.7319 105.736 60.5789 105.728Z" fill="#b49056"/>
<defs>
<linearGradient id="paint0_linear_5192_19337" x1="100.155" y1="-60.987" x2="146.43" y2="196.797" gradientUnits="userSpaceOnUse">
<stop stop-color="#2DC8D8"/>
<stop offset="1" stop-color="#ECF281"/>
</linearGradient>
<linearGradient id="paint1_linear_5192_19337" x1="4.09997" y1="1.90153" x2="46.1918" y2="71.5861" gradientUnits="userSpaceOnUse">
<stop stop-color="#2DC8D8"/>
<stop offset="1" stop-color="#ECF281"/>
</linearGradient>
<linearGradient id="paint2_linear_5192_19337" x1="107.793" y1="86.7127" x2="92.0192" y2="73.4487" gradientUnits="userSpaceOnUse">
<stop stop-color="#FFB800"/>
</linearGradient>
<linearGradient id="paint3_linear_5192_19337" x1="103.135" y1="75.2042" x2="101.316" y2="71.8817" gradientUnits="userSpaceOnUse">
<stop stop-color="#FFB800"/>
</linearGradient>
<linearGradient id="paint4_linear_5192_19337" x1="84.0007" y1="53.6855" x2="87.787" y2="60.0279" gradientUnits="userSpaceOnUse">
<stop stop-color="#FFB800"/>
</linearGradient>
<linearGradient id="paint5_linear_5192_19337" x1="93.1371" y1="53.6855" x2="96.9246" y2="60.0255" gradientUnits="userSpaceOnUse">
<stop stop-color="#FFB800"/>
</linearGradient>
<linearGradient id="paint6_linear_5192_19337" x1="102.276" y1="53.6855" x2="106.063" y2="60.0255" gradientUnits="userSpaceOnUse">
<stop stop-color="#FFB800"/>
</linearGradient>
<linearGradient id="paint7_linear_5192_19337" x1="111.296" y1="53.4922" x2="115.082" y2="59.8345" gradientUnits="userSpaceOnUse">
<stop stop-color="#FFB800"/>
</linearGradient>
<linearGradient id="paint8_linear_5192_19337" x1="126.025" y1="11.8085" x2="143.787" y2="30.95" gradientUnits="userSpaceOnUse">
<stop stop-color="#FFB800"/>
</linearGradient>
<linearGradient id="paint9_linear_5192_19337" x1="29.1947" y1="114.877" x2="37.8212" y2="123.078" gradientUnits="userSpaceOnUse">
<stop stop-color="#FFB800"/>
</linearGradient>
<linearGradient id="paint10_linear_5192_19337" x1="35.6847" y1="120.082" x2="39.4222" y2="126.908" gradientUnits="userSpaceOnUse">
<stop stop-color="#FFB800"/>
</linearGradient>
<linearGradient id="paint11_linear_5192_19337" x1="41.6766" y1="53.1605" x2="54.027" y2="71.4071" gradientUnits="userSpaceOnUse">
<stop stop-color="#FFB800"/>
</linearGradient>
<linearGradient id="paint12_linear_5192_19337" x1="31.4354" y1="51.0823" x2="53.3092" y2="74.1566" gradientUnits="userSpaceOnUse">
<stop stop-color="#FFB800"/>
</linearGradient>
<linearGradient id="paint13_linear_5192_19337" x1="25.6409" y1="53.3417" x2="42.332" y2="66.7256" gradientUnits="userSpaceOnUse">
<stop stop-color="#FFB800"/>
</linearGradient>
</defs>
</svg>
