<svg width="25" height="24" viewBox="0 0 25 24" fill="none" xmlns="http://www.w3.org/2000/svg">
<path d="M4.13745 1.5H14.6375C14.8364 1.5 15.0271 1.57902 15.1678 1.71967C15.3084 1.86032 15.3875 2.05109 15.3875 2.25V20.25C15.3875 20.4489 15.3084 20.6397 15.1678 20.7803C15.0271 20.921 14.8364 21 14.6375 21H4.13745C3.93854 21 3.74777 20.921 3.60712 20.7803C3.46647 20.6397 3.38745 20.4489 3.38745 20.25V2.25C3.38745 2.05109 3.46647 1.86032 3.60712 1.71967C3.74777 1.57902 3.93854 1.5 4.13745 1.5Z" fill="currentColor"/>
<path d="M14.6375 7.5H20.6375C20.8364 7.5 21.0271 7.57902 21.1678 7.71967C21.3084 7.86032 21.3875 8.05109 21.3875 8.25V20.25C21.3875 20.4489 21.3084 20.6397 21.1678 20.7803C21.0271 20.921 20.8364 21 20.6375 21H14.6375C14.4385 21 14.2478 20.921 14.1071 20.7803C13.9665 20.6397 13.8875 20.4489 13.8875 20.25V8.25C13.8875 8.05109 13.9665 7.86032 14.1071 7.71967C14.2478 7.57902 14.4385 7.5 14.6375 7.5Z" fill="currentColor"/>
<path d="M1.88745 19.5H22.8875V21H1.88745V19.5Z" fill="currentColor"/>
<path d="M4.88745 3V19.5H13.8875V3H4.88745ZM4.13745 1.5H14.6375C14.8364 1.5 15.0271 1.57902 15.1678 1.71967C15.3084 1.86032 15.3875 2.05109 15.3875 2.25V20.25C15.3875 20.4489 15.3084 20.6397 15.1678 20.7803C15.0271 20.921 14.8364 21 14.6375 21H4.13745C3.93854 21 3.74777 20.921 3.60712 20.7803C3.46647 20.6397 3.38745 20.4489 3.38745 20.25V2.25C3.38745 2.05109 3.46647 1.86032 3.60712 1.71967C3.74777 1.57902 3.93854 1.5 4.13745 1.5Z" fill="currentColor"/>
<path d="M6.38745 6H12.3875V7.5H6.38745V6ZM6.38745 10.5H12.3875V12H6.38745V10.5ZM6.38745 15H12.3875V16.5H6.38745V15ZM15.3875 12H18.3875V13.5H15.3875V12ZM15.3875 15H18.3875V16.5H15.3875V15Z" fill="white"/>
<path d="M15.3875 9V19.5H19.8875V9H15.3875ZM14.6375 7.5H20.6375C20.8364 7.5 21.0271 7.57902 21.1678 7.71967C21.3084 7.86032 21.3875 8.05109 21.3875 8.25V20.25C21.3875 20.4489 21.3084 20.6397 21.1678 20.7803C21.0271 20.921 20.8364 21 20.6375 21H14.6375C14.4385 21 14.2478 20.921 14.1071 20.7803C13.9665 20.6397 13.8875 20.4489 13.8875 20.25V8.25C13.8875 8.05109 13.9665 7.86032 14.1071 7.71967C14.2478 7.57902 14.4385 7.5 14.6375 7.5Z" fill="currentColor"/>
</svg>
