<svg width="25" height="24" viewBox="0 0 25 24" fill="none" xmlns="http://www.w3.org/2000/svg">
<path fill-rule="evenodd" clip-rule="evenodd" d="M12.6191 0C19.2638 0 24.6191 5.35537 24.6191 12C24.6191 18.6446 19.2638 24 12.6191 24C5.97451 24 0.619141 18.6446 0.619141 12C0.619141 5.35537 5.97451 0 12.6191 0ZM8.6522 4.8595C10.4373 4.8595 11.9249 6.24793 11.9249 8.03306C11.9249 9.81818 10.4373 11.3058 8.6522 11.3058C6.86707 11.3058 5.47864 9.81818 5.47864 8.03306C5.47864 6.24793 6.86707 4.8595 8.6522 4.8595ZM16.5861 6.14876C17.677 6.14876 18.4704 6.94215 18.4704 8.03306C18.4704 9.12397 17.677 10.0165 16.5861 10.0165C15.4952 10.0165 14.6026 9.12397 14.6026 8.03306C14.6026 6.94215 15.4952 6.14876 16.5861 6.14876ZM8.6522 13.9835C9.74311 13.9835 10.6357 14.876 10.6357 15.9669C10.6357 17.0579 9.74311 17.8512 8.6522 17.8512C7.56129 17.8512 6.7679 17.0579 6.7679 15.9669C6.7679 14.876 7.56129 13.9835 8.6522 13.9835ZM16.5861 12.6942C18.3712 12.6942 19.7596 14.1818 19.7596 15.9669C19.7596 17.7521 18.3712 19.1405 16.5861 19.1405C14.801 19.1405 13.3134 17.7521 13.3134 15.9669C13.3134 14.1818 14.801 12.6942 16.5861 12.6942Z" fill="#9BA5A9"/>
</svg>
