<svg width="193" height="198" viewBox="0 0 193 198" fill="none" xmlns="http://www.w3.org/2000/svg">
<g filter="url(#filter0_f_61_2162)">
<ellipse cx="96.9846" cy="116.536" rx="36" ry="20.9217" fill="url(#paint0_linear_61_2162)"/>
</g>
<mask id="mask0_61_2162" style="mask-type:alpha" maskUnits="userSpaceOnUse" x="50" y="32" width="76" height="89">
<rect x="50.1272" y="32.9443" width="75.7151" height="87.6701" rx="15" fill="white"/>
</mask>
<g mask="url(#mask0_61_2162)">
<ellipse cx="87.9848" cy="90.3288" rx="33.8725" ry="47.8201" fill="url(#paint1_linear_61_2162)"/>
</g>
<g filter="url(#filter1_bd_61_2162)">
<rect x="42.9846" y="30.6143" width="90" height="90" rx="15" fill="url(#paint2_linear_61_2162)"/>
</g>
<path fill-rule="evenodd" clip-rule="evenodd" d="M98.1099 68.339V71.1501C101.268 72.1357 103.568 74.9942 103.568 78.4084V87.4593C103.568 91.686 100.064 95.113 95.744 95.113H80.2277C75.9058 95.113 72.4016 91.686 72.4016 87.4593V78.4084C72.4016 74.9942 74.7042 72.1357 77.86 71.1501V68.339C77.8786 62.8734 82.4055 58.4463 87.957 58.4463C93.583 58.4463 98.1099 62.8734 98.1099 68.339ZM87.9943 61.6345C91.776 61.6345 94.8498 64.6406 94.8498 68.3389V70.7547H81.1201V68.3025C81.1387 64.6224 84.2126 61.6345 87.9943 61.6345ZM89.615 84.947C89.615 85.8397 88.8885 86.5502 87.9756 86.5502C87.0814 86.5502 86.3549 85.8397 86.3549 84.947V80.9025C86.3549 80.028 87.0814 79.3175 87.9756 79.3175C88.8885 79.3175 89.615 80.028 89.615 80.9025V84.947Z" fill="white"/>
<defs>
<filter id="filter0_f_61_2162" x="0.984619" y="35.6143" width="192" height="161.844" filterUnits="userSpaceOnUse" color-interpolation-filters="sRGB">
<feFlood flood-opacity="0" result="BackgroundImageFix"/>
<feBlend mode="normal" in="SourceGraphic" in2="BackgroundImageFix" result="shape"/>
<feGaussianBlur stdDeviation="30" result="effect1_foregroundBlur_61_2162"/>
</filter>
<filter id="filter1_bd_61_2162" x="12.9846" y="0.614258" width="150" height="150" filterUnits="userSpaceOnUse" color-interpolation-filters="sRGB">
<feFlood flood-opacity="0" result="BackgroundImageFix"/>
<feGaussianBlur in="BackgroundImageFix" stdDeviation="10"/>
<feComposite in2="SourceAlpha" operator="in" result="effect1_backgroundBlur_61_2162"/>
<feColorMatrix in="SourceAlpha" type="matrix" values="0 0 0 0 0 0 0 0 0 0 0 0 0 0 0 0 0 0 127 0" result="hardAlpha"/>
<feOffset/>
<feGaussianBlur stdDeviation="15"/>
<feColorMatrix type="matrix" values="0 0 0 0 0 0 0 0 0 0 0 0 0 0 0 0 0 0 0.05 0"/>
<feBlend mode="normal" in2="effect1_backgroundBlur_61_2162" result="effect2_dropShadow_61_2162"/>
<feBlend mode="normal" in="SourceGraphic" in2="effect2_dropShadow_61_2162" result="shape"/>
</filter>
<linearGradient id="paint0_linear_61_2162" x1="67.641" y1="97.4084" x2="95.6868" y2="177.302" gradientUnits="userSpaceOnUse">
<stop stop-color="#2DC8D8"/>
<stop offset="1" stop-color="#ECF281"/>
</linearGradient>
<linearGradient id="paint1_linear_61_2162" x1="60.3753" y1="46.6096" x2="161.644" y2="165.364" gradientUnits="userSpaceOnUse">
<stop stop-color="#2DC8D8"/>
<stop offset="1" stop-color="#ECF281"/>
</linearGradient>
<linearGradient id="paint2_linear_61_2162" x1="51.3051" y1="34.4732" x2="136.727" y2="175.892" gradientUnits="userSpaceOnUse">
<stop stop-color="#2DC8D8"/>
<stop offset="1" stop-color="#ECF281"/>
</linearGradient>
</defs>
</svg>
