<svg width="25" height="25" viewBox="0 0 25 25" fill="none" xmlns="http://www.w3.org/2000/svg">
<path fill-rule="evenodd" clip-rule="evenodd" d="M12.653 17.628L15.4946 14.758C15.7818 14.458 15.7818 13.988 15.4847 13.698C15.1976 13.408 14.7322 13.408 14.4451 13.698L12.8709 15.298V10.478C12.8709 10.058 12.5441 9.72803 12.1382 9.72803C11.7322 9.72803 11.3956 10.058 11.3956 10.478V15.298L9.82136 13.698C9.53423 13.408 9.06888 13.408 8.78175 13.698C8.49462 13.988 8.49462 14.458 8.78175 14.758L11.6134 17.628C11.6827 17.698 11.762 17.748 11.8511 17.788C11.9402 17.828 12.0392 17.848 12.1382 17.848C12.2372 17.848 12.3263 17.828 12.4154 17.788C12.5045 17.748 12.5837 17.698 12.653 17.628ZM19.8282 10.0134C20.0609 10.0107 20.3143 10.0078 20.5446 10.0078C20.802 10.0078 21 10.2078 21 10.4578V18.4978C21 20.9778 19 22.9878 16.5446 22.9878H8.67327C6.08911 22.9878 4 20.8778 4 18.2778V7.49779C4 5.01779 5.9901 2.98779 8.46535 2.98779H13.7525C14 2.98779 14.2079 3.19779 14.2079 3.44779V6.66779C14.2079 8.49779 15.6931 9.99779 17.5149 10.0078C17.9333 10.0078 18.3077 10.011 18.6346 10.0137C18.8878 10.0159 19.1125 10.0178 19.3069 10.0178C19.4479 10.0178 19.6306 10.0157 19.8282 10.0134ZM20.1039 8.55405C19.2911 8.55705 18.3317 8.55405 17.6416 8.54705C16.5465 8.54705 15.6445 7.63605 15.6445 6.53005V3.89405C15.6445 3.46305 16.1624 3.24905 16.4574 3.56005C17.2201 4.36032 18.3879 5.58693 19.3747 6.6234C19.7739 7.04266 20.1434 7.43081 20.4445 7.74705C20.7336 8.05005 20.5218 8.55305 20.1039 8.55405Z" fill="#FFFFFF"/>
</svg>
