<svg width="15" height="24" viewBox="0 0 15 24" fill="none" xmlns="http://www.w3.org/2000/svg">
<path d="M2.65925 0C1.48588 0 0.525879 0.96 0.525879 2.13338V21.8666C0.525879 23.04 1.48588 24 2.65925 24H12.5791C13.7525 24 14.7125 23.04 14.7125 21.8666V2.13338C14.7125 0.96 13.7525 0 12.5791 0H2.65925ZM6.43025 2.05463H8.80888C8.96525 2.05463 9.092 2.23388 9.092 2.45475C9.092 2.67563 8.96525 2.85488 8.80888 2.85488H6.43025C6.27388 2.85488 6.14713 2.67563 6.14713 2.45475C6.14713 2.23388 6.27388 2.05463 6.43025 2.05463ZM1.69775 4.90688H13.541V19.0935H1.69775V4.90688ZM7.61938 20.226C8.34875 20.226 8.94013 20.8174 8.94013 21.5467C8.94013 22.2761 8.34875 22.8675 7.61938 22.8675C6.89 22.8675 6.29863 22.2761 6.29863 21.5467C6.29863 20.8174 6.89 20.226 7.61938 20.226Z" fill="#70929F"/>
</svg>
