<svg width="21" height="21" viewBox="0 0 21 21" fill="none" xmlns="http://www.w3.org/2000/svg">
<path d="M10.3775 0.895508C4.85745 0.895508 0.387451 5.37551 0.387451 10.8955C0.387451 16.4155 4.85745 20.8955 10.3775 20.8955C15.9075 20.8955 20.3875 16.4155 20.3875 10.8955C20.3875 5.37551 15.9075 0.895508 10.3775 0.895508ZM17.3075 6.89551H14.3575C14.0445 5.65697 13.581 4.4614 12.9775 3.33551C14.8016 3.96351 16.3386 5.22723 17.3075 6.89551ZM10.3875 2.93551C11.2175 4.13551 11.8675 5.46551 12.2975 6.89551H8.47745C8.90745 5.46551 9.55745 4.13551 10.3875 2.93551ZM2.64745 12.8955C2.48745 12.2555 2.38745 11.5855 2.38745 10.8955C2.38745 10.2055 2.48745 9.53551 2.64745 8.89551H6.02745C5.94745 9.55551 5.88745 10.2155 5.88745 10.8955C5.88745 11.5755 5.94745 12.2355 6.02745 12.8955H2.64745ZM3.46745 14.8955H6.41745C6.73745 16.1455 7.19745 17.3455 7.79745 18.4555C5.97142 17.8309 4.43328 16.5663 3.46745 14.8955ZM6.41745 6.89551H3.46745C4.43328 5.22469 5.97142 3.96008 7.79745 3.33551C7.19388 4.4614 6.73043 5.65697 6.41745 6.89551ZM10.3875 18.8555C9.55745 17.6555 8.90745 16.3255 8.47745 14.8955H12.2975C11.8675 16.3255 11.2175 17.6555 10.3875 18.8555ZM12.7275 12.8955H8.04745C7.95745 12.2355 7.88745 11.5755 7.88745 10.8955C7.88745 10.2155 7.95745 9.54551 8.04745 8.89551H12.7275C12.8175 9.54551 12.8875 10.2155 12.8875 10.8955C12.8875 11.5755 12.8175 12.2355 12.7275 12.8955ZM12.9775 18.4555C13.5775 17.3455 14.0375 16.1455 14.3575 14.8955H17.3075C16.3386 16.5638 14.8016 17.8275 12.9775 18.4555ZM14.7475 12.8955C14.8275 12.2355 14.8875 11.5755 14.8875 10.8955C14.8875 10.2155 14.8275 9.55551 14.7475 8.89551H18.1275C18.2875 9.53551 18.3875 10.2055 18.3875 10.8955C18.3875 11.5855 18.2875 12.2555 18.1275 12.8955H14.7475Z" fill="currentColor"/>
</svg>
