<svg width="21" height="21" viewBox="0 0 21 21" fill="none" xmlns="http://www.w3.org/2000/svg">
<path fill-rule="evenodd" clip-rule="evenodd" d="M6.32146 0.683594H15.6515C19.0515 0.683594 20.9915 2.60359 20.9915 6.01359V15.3536C20.9915 18.7436 19.0615 20.6836 15.6615 20.6836H6.32146C2.91145 20.6836 0.991455 18.7436 0.991455 15.3536V6.01359C0.991455 2.60359 2.91145 0.683594 6.32146 0.683594ZM11.8115 11.5136H14.6515C15.1115 11.5036 15.4815 11.1336 15.4815 10.6736C15.4815 10.2136 15.1115 9.84359 14.6515 9.84359H11.8115V7.02359C11.8115 6.56359 11.4415 6.19359 10.9815 6.19359C10.5215 6.19359 10.1515 6.56359 10.1515 7.02359V9.84359H7.32146C7.10146 9.84359 6.89146 9.93359 6.73145 10.0836C6.58146 10.2436 6.49146 10.4526 6.49146 10.6736C6.49146 11.1336 6.86145 11.5036 7.32146 11.5136H10.1515V14.3436C10.1515 14.8036 10.5215 15.1736 10.9815 15.1736C11.4415 15.1736 11.8115 14.8036 11.8115 14.3436V11.5136Z" fill="url(#paint0_linear)"/>
<defs>
<linearGradient id="paint0_linear" x1="2.84046" y1="1.54115" x2="21.823" y2="32.9675" gradientUnits="userSpaceOnUse">
<stop stop-color="#2DC8D8"/>
<stop offset="1" stop-color="#ECF281"/>
</linearGradient>
</defs>
</svg>
