<svg width="25" height="25" viewBox="0 0 25 25" fill="none" xmlns="http://www.w3.org/2000/svg">
<circle cx="12.7812" cy="12.5908" r="12" fill="#FFB800"/>
<path d="M8.1111 15.9731H7.53052L8.04628 18.2278H17.516L18.0318 15.9731H17.4512H8.1111Z" fill="currentColor"/>
<path d="M19.5452 6.9541C18.9223 6.9541 18.4178 7.45859 18.4178 8.08145C18.4178 8.28719 18.4714 8.48163 18.5757 8.65358L15.1175 12.1117L13.5674 8.88745C13.7788 8.68461 13.9084 8.39714 13.9084 8.08145C13.9084 7.45859 13.4039 6.9541 12.7811 6.9541C12.1582 6.9541 11.6537 7.45859 11.6537 8.08145C11.6537 8.39426 11.7777 8.68174 11.9948 8.88748L10.4447 12.1117L6.98652 8.65358C7.0908 8.48163 7.14435 8.28719 7.14435 8.08145C7.14435 7.45859 6.63986 6.9541 6.017 6.9541C5.39414 6.9541 4.88965 7.45859 4.88965 8.08145C4.88965 8.69301 5.37723 9.19186 5.986 9.20598L7.40364 15.4092H7.9814H17.5808H18.1585L19.5762 9.20598C20.185 9.19186 20.6725 8.69301 20.6725 8.08145C20.6725 7.45859 20.168 6.9541 19.5452 6.9541Z" fill="currentColor"/>
<defs>
<linearGradient id="paint0_linear" x1="3.00005" y1="1.61988" x2="19.8723" y2="28.4903" gradientUnits="userSpaceOnUse">
<stop stop-color="#FFB800"/>
</linearGradient>
</defs>
</svg>
