<svg
  xmlns="http://www.w3.org/2000/svg"
  viewBox="0 0 64 64"
  width="20"
  height="20"
  fill="none"
  stroke="currentColor"
  stroke-width="3"
>
  <!-- Circle Background -->
  <circle cx="32" cy="32" r="30" stroke="currentColor" fill="none" />

  <!-- Hand -->
  <path
    d="M20 42C20 38.6863 22.6863 36 26 36H38C41.3137 36 44 38.6863 44 42V48C44 49.6569 42.6569 51 41 51H25C22.2386 51 20 48.7614 20 46V42Z"
    fill="currentColor"
  />
  <path
    d="M18 45C18 44.4477 18.4477 44 19 44H41C41.5523 44 42 44.4477 42 45V47C42 47.5523 41.5523 48 41 48H19C18.4477 48 18 47.5523 18 47V45Z"
    fill="currentColor"
  />

  <!-- Star -->
  <path
    d="M32 12L35.5 22H45L37 28L40 38L32 32L24 38L27 28L19 22H28.5L32 12Z"
    fill="currentColor"
  />

  <!-- Small Sparkles -->
  <circle cx="22" cy="16" r="2" fill="currentColor" />
  <circle cx="42" cy="20" r="2" fill="currentColor" />
  <circle cx="28" cy="9" r="2" fill="currentColor" />
</svg>
