<svg width="13" height="13" viewBox="0 0 13 13" fill="none" xmlns="http://www.w3.org/2000/svg">
<path d="M1.57019 12.4376C1.57019 12.7282 1.80795 12.966 2.09855 12.966H6.37827V6.78418H1.57019V12.4376Z" fill="#999CAD"/>
<path d="M7.22363 12.966H11.5033C11.7939 12.966 12.0317 12.7282 12.0317 12.4376V6.78418H7.22363V12.966Z" fill="#999CAD"/>
<path d="M4.66115 3.3236H8.94087C9.38998 3.3236 9.81267 3.12547 10.0901 2.76883C10.3674 2.41218 10.4599 1.94987 10.3542 1.51397C10.2354 1.02524 9.8655 0.642176 9.38998 0.496877C8.90124 0.338369 8.38609 0.444041 8.00303 0.761057L6.80101 1.79136L5.59899 0.774266C5.21593 0.444041 4.70078 0.338369 4.22526 0.483668C3.74973 0.642176 3.37988 1.01203 3.261 1.50076C3.14212 1.93666 3.24779 2.39897 3.52518 2.75562C3.78936 3.11226 4.21205 3.3236 4.66115 3.3236ZM8.67669 1.56681C8.82199 1.43472 8.99371 1.47434 9.04654 1.48755C9.11259 1.51397 9.25789 1.58002 9.31072 1.76494C9.33714 1.88382 9.31072 2.0027 9.24468 2.10838C9.16542 2.20084 9.07296 2.24047 8.92766 2.26688H7.85773L8.67669 1.56681ZM4.27809 1.76494C4.33093 1.56681 4.47623 1.50076 4.54227 1.48755C4.56869 1.47434 4.60832 1.47434 4.66115 1.47434C4.74041 1.47434 4.83287 1.50076 4.91213 1.56681L5.73108 2.26688H4.66115C4.54227 2.26688 4.42339 2.21405 4.34414 2.10838C4.27809 2.01591 4.25168 1.88382 4.27809 1.76494Z" fill="#999CAD"/>
<path d="M0.605957 4.53861V5.3972C0.605957 5.6878 0.843719 5.92556 1.13432 5.92556H6.37829V4.01025H1.13432C0.843719 4.01025 0.605957 4.24802 0.605957 4.53861Z" fill="#999CAD"/>
<path d="M12.4676 4.01025H7.22363V5.92556H12.4676C12.7582 5.92556 12.996 5.6878 12.996 5.3972V4.53861C12.996 4.24802 12.7582 4.01025 12.4676 4.01025Z" fill="#999CAD"/>
</svg>
