<svg width="67" height="67" viewBox="0 0 67 67" fill="none" xmlns="http://www.w3.org/2000/svg">
<circle opacity="0.2" cx="33.3652" cy="33.0806" r="33" fill="#FF406E"/>
<circle opacity="0.4" cx="34.0464" cy="33.1245" r="24.75" fill="#FF406E"/>
<circle opacity="0.6" cx="33.9369" cy="33.7483" r="16.5" fill="#FF406E"/>
<mask id="path-4-inside-1" fill="white">
<path fill-rule="evenodd" clip-rule="evenodd" d="M39.5974 19.7382C40.8871 18.3263 41.6034 16.4837 41.6058 14.5714C41.6063 13.0848 41.1746 11.6302 40.3634 10.3844C39.5522 9.13869 38.3964 8.15559 37.0367 7.55473C35.677 6.95387 34.1719 6.76117 32.7047 7.00007C31.2374 7.23897 29.8712 7.89916 28.7724 8.90033C27.6735 9.9015 26.8893 11.2005 26.5151 12.6392C26.141 14.0779 26.1931 15.5944 26.6651 17.004C27.1371 18.4137 28.0086 19.6557 29.1737 20.5791C30.3387 21.5025 31.7469 22.0674 33.2271 22.205V30.9132C32.0524 31.2262 31.187 32.2974 31.187 33.5707C31.187 35.0895 32.4183 36.3207 33.937 36.3207C35.4558 36.3207 36.687 35.0895 36.687 33.5707C36.687 32.2923 35.8148 31.2177 34.633 30.9095V22.205C36.5373 22.0299 38.3076 21.1502 39.5974 19.7382Z"/>
</mask>
<path fill-rule="evenodd" clip-rule="evenodd" d="M39.5974 19.7382C40.8871 18.3263 41.6034 16.4837 41.6058 14.5714C41.6063 13.0848 41.1746 11.6302 40.3634 10.3844C39.5522 9.13869 38.3964 8.15559 37.0367 7.55473C35.677 6.95387 34.1719 6.76117 32.7047 7.00007C31.2374 7.23897 29.8712 7.89916 28.7724 8.90033C27.6735 9.9015 26.8893 11.2005 26.5151 12.6392C26.141 14.0779 26.1931 15.5944 26.6651 17.004C27.1371 18.4137 28.0086 19.6557 29.1737 20.5791C30.3387 21.5025 31.7469 22.0674 33.2271 22.205V30.9132C32.0524 31.2262 31.187 32.2974 31.187 33.5707C31.187 35.0895 32.4183 36.3207 33.937 36.3207C35.4558 36.3207 36.687 35.0895 36.687 33.5707C36.687 32.2923 35.8148 31.2177 34.633 30.9095V22.205C36.5373 22.0299 38.3076 21.1502 39.5974 19.7382Z" fill="#FF406E"/>
<path d="M41.6058 14.5714L42.6058 14.5727L42.6058 14.5717L41.6058 14.5714ZM40.3634 10.3844L41.2014 9.83874V9.83874L40.3634 10.3844ZM37.0367 7.55473L36.6325 8.46941L37.0367 7.55473ZM32.7047 7.00007L32.544 6.01307H32.544L32.7047 7.00007ZM28.7724 8.90033L28.0989 8.16112L28.0989 8.16112L28.7724 8.90033ZM26.5151 12.6392L27.4829 12.8909L26.5151 12.6392ZM26.6651 17.004L25.7169 17.3215L26.6651 17.004ZM29.1737 20.5791L29.7948 19.7954H29.7948L29.1737 20.5791ZM33.2271 22.205H34.2271V21.2937L33.3197 21.2093L33.2271 22.205ZM33.2271 30.9132L33.4846 31.8795L34.2271 31.6816V30.9132H33.2271ZM34.633 30.9095H33.633V31.6822L34.3806 31.8771L34.633 30.9095ZM34.633 22.205L34.5414 21.2092L33.633 21.2927V22.205H34.633ZM40.6058 14.5701C40.6037 16.2333 39.9808 17.8358 38.859 19.0638L40.3357 20.4127C41.7935 18.8168 42.603 16.7342 42.6058 14.5727L40.6058 14.5701ZM39.5254 10.9301C40.2309 12.0134 40.6062 13.2784 40.6058 14.5711L42.6058 14.5717C42.6063 12.8912 42.1184 11.2469 41.2014 9.83874L39.5254 10.9301ZM36.6325 8.46941C37.8149 8.99191 38.82 9.84682 39.5254 10.9301L41.2014 9.83874C40.2844 8.43056 38.9779 7.31926 37.4409 6.64006L36.6325 8.46941ZM32.8654 7.98707C34.1413 7.77933 35.4501 7.9469 36.6325 8.46941L37.4409 6.64006C35.9039 5.96085 34.2025 5.74302 32.544 6.01307L32.8654 7.98707ZM29.4458 9.63954C30.4014 8.76893 31.5895 8.19482 32.8654 7.98707L32.544 6.01307C30.8854 6.28311 29.3411 7.0294 28.0989 8.16112L29.4458 9.63954ZM27.4829 12.8909C27.8083 11.6397 28.4902 10.5102 29.4458 9.63954L28.0989 8.16112C26.8567 9.29284 25.9702 10.7612 25.5473 12.3875L27.4829 12.8909ZM27.6134 16.6865C27.2029 15.4607 27.1576 14.142 27.4829 12.8909L25.5473 12.3875C25.1244 14.0139 25.1833 15.7281 25.7169 17.3215L27.6134 16.6865ZM29.7948 19.7954C28.7817 18.9925 28.0238 17.9123 27.6134 16.6865L25.7169 17.3215C26.2504 18.915 27.2356 20.319 28.5525 21.3628L29.7948 19.7954ZM33.3197 21.2093C32.0325 21.0896 30.8079 20.5984 29.7948 19.7954L28.5525 21.3628C29.8694 22.4066 31.4614 23.0451 33.1346 23.2007L33.3197 21.2093ZM34.2271 30.9132V22.205H32.2271V30.9132H34.2271ZM32.187 33.5707C32.187 32.7618 32.7367 32.0787 33.4846 31.8795L32.9697 29.9469C31.3681 30.3736 30.187 31.833 30.187 33.5707H32.187ZM33.937 35.3207C32.9705 35.3207 32.187 34.5372 32.187 33.5707H30.187C30.187 35.6417 31.866 37.3207 33.937 37.3207V35.3207ZM35.687 33.5707C35.687 34.5372 34.9035 35.3207 33.937 35.3207V37.3207C36.0081 37.3207 37.687 35.6417 37.687 33.5707H35.687ZM34.3806 31.8771C35.1329 32.0733 35.687 32.7586 35.687 33.5707H37.687C37.687 31.8261 36.4966 30.3621 34.8853 29.9419L34.3806 31.8771ZM33.633 22.205V30.9095H35.633V22.205H33.633ZM38.859 19.0638C37.7373 20.2918 36.1976 21.0569 34.5414 21.2092L34.7245 23.2008C36.8769 23.0029 38.8779 22.0086 40.3357 20.4127L38.859 19.0638Z" fill="white" mask="url(#path-4-inside-1)"/>
</svg>
