<svg width="25" height="24" viewBox="0 0 25 24" fill="none" xmlns="http://www.w3.org/2000/svg">
<path d="M9.78601 18.8799C10.3457 18.8799 10.8655 19.1198 11.2253 19.4796H11.2653C11.6252 19.8794 11.865 20.3992 11.865 20.9589C11.865 21.5586 11.6252 22.0784 11.2653 22.4382L11.1854 22.5182C10.8255 22.838 10.3058 23.038 9.78601 23.038C9.18629 23.038 8.66653 22.838 8.3067 22.4382C7.90688 22.0784 7.66699 21.5586 7.66699 20.9589C7.66699 20.3992 7.90688 19.8794 8.3067 19.4796C8.66653 19.1198 9.18629 18.8799 9.78601 18.8799Z" fill="#FD5402"/>
<path d="M19.1015 18.8799C19.7012 18.8799 20.221 19.1198 20.5808 19.4796C20.9806 19.8794 21.2205 20.3992 21.2205 20.9589C21.2205 21.5586 20.9806 22.0784 20.5808 22.4382L20.5408 22.5182C20.141 22.838 19.6612 23.038 19.1015 23.038C18.5418 23.038 18.022 22.838 17.6222 22.4382C17.2623 22.0784 17.0225 21.5586 17.0225 20.9589C17.0225 20.3992 17.2623 19.8794 17.6222 19.4796C18.022 19.1198 18.5418 18.8799 19.1015 18.8799Z" fill="#FD5402"/>
<path d="M1.70976 2.88774C1.19001 2.96771 0.710228 2.60787 0.630265 2.08812C0.550302 1.56836 0.910135 1.12856 1.42989 1.0486C1.50986 1.00862 1.58982 1.00862 1.70976 1.00862C3.46895 0.808709 4.90828 1.2485 5.98778 2.36799C6.70745 3.04767 7.22721 4.00723 7.58704 5.16669C16.5029 5.16669 19.0217 5.00676 20.4611 4.9268C21.1408 4.88682 21.6205 4.84684 22.2602 4.84684C22.5001 4.84684 22.7 4.88682 22.9399 4.96678C23.4597 5.08672 23.8595 5.36659 24.1793 5.76641C24.4592 6.16622 24.6191 6.646 24.6191 7.16576C24.6191 7.40565 24.5792 7.64554 24.5392 7.88543L23.4597 11.8436C23.2598 12.5633 22.82 13.203 22.2203 13.6428C21.6605 14.1225 20.9408 14.4024 20.1812 14.4024H8.1068V14.6423C8.06682 15.282 8.02683 16.0017 7.94687 16.7213H20.661C21.1807 16.7213 21.5805 17.1211 21.5805 17.6409C21.5805 18.1607 21.1807 18.5605 20.661 18.5605H6.90735C6.86737 18.5605 6.82739 18.5605 6.78741 18.5605C6.26765 18.4805 5.90782 18.0007 5.98778 17.521C6.10772 16.5214 6.18769 15.4819 6.22767 14.5223L6.26765 13.6827C6.26765 13.6028 6.26765 13.5228 6.26765 13.4828V7.96539L5.98778 6.36613C5.70791 5.16669 5.26811 4.24711 4.66839 3.64739C4.02869 3.00769 3.10912 2.72782 1.94965 2.84776L1.70976 2.88774Z" fill="#FD5402"/>
</svg>
