<svg width="33" height="32" viewBox="0 0 33 32" fill="none" xmlns="http://www.w3.org/2000/svg">
<circle cx="16.3035" cy="16.2004" r="15.2922" fill="#312B3E" stroke="white"/>
<path fill-rule="evenodd" clip-rule="evenodd" d="M13.6799 24.2281L22.4662 12.8656C22.9438 12.2529 23.1136 11.5445 22.9544 10.8232C22.8164 10.1675 22.4132 9.54397 21.8083 9.07098L20.3333 7.89926C19.0493 6.87803 17.4576 6.98553 16.545 8.15725L15.5581 9.43755C15.4308 9.59772 15.4626 9.83421 15.6218 9.96321C15.6218 9.96321 18.1155 11.9627 18.1686 12.0057C18.3383 12.1669 18.4657 12.3819 18.4975 12.6399C18.5506 13.1451 18.2004 13.6181 17.6804 13.6826C17.4364 13.7149 17.2029 13.6396 17.0331 13.4999L14.4121 11.4144C14.2847 11.3187 14.0937 11.3392 13.9876 11.4682L7.75861 19.5305C7.35537 20.0357 7.21741 20.6914 7.35537 21.3257L8.15123 24.7763C8.19368 24.9591 8.35285 25.0881 8.54386 25.0881L12.0457 25.0451C12.6824 25.0343 13.2766 24.7441 13.6799 24.2281ZM18.5832 23.1534H24.2932C24.8504 23.1534 25.3035 23.6125 25.3035 24.1768C25.3035 24.7423 24.8504 25.2002 24.2932 25.2002H18.5832C18.026 25.2002 17.5729 24.7423 17.5729 24.1768C17.5729 23.6125 18.026 23.1534 18.5832 23.1534Z" fill="white"/>
</svg>
