<svg width="17" height="17" viewBox="0 0 17 17" fill="none" xmlns="http://www.w3.org/2000/svg">
<path d="M16.8066 8.76443C16.8066 9.8234 16.6007 10.8341 16.2271 11.7589C15.7541 12.9305 15.0112 13.9647 14.0758 14.7839C12.6678 16.0167 10.8237 16.7642 8.8052 16.7642C7.33134 16.7642 5.95015 16.3658 4.7648 15.6704C3.63204 15.0069 2.67749 14.0727 1.98906 12.9563C1.34172 11.906 0.929856 10.6942 0.828605 9.39543C0.811839 9.18713 0.803711 8.97695 0.803711 8.76443C0.803711 4.34659 4.38591 0.764648 8.8052 0.764648C8.88496 0.764648 8.96432 0.765613 9.04362 0.768001H9.04408C9.57772 0.783746 10.0975 0.851605 10.5997 0.966701C11.3483 1.13818 12.0573 1.41474 12.7094 1.77969C15.1541 3.1486 16.8066 5.76376 16.8066 8.76443Z" fill="#FF406E"/>
<path opacity="0.06" d="M16.8068 8.76438C16.8068 13.1827 13.2246 16.7642 8.80535 16.7642C8.37443 16.7642 7.95109 16.7302 7.53882 16.6644C11.3561 16.0577 14.2737 12.7519 14.2737 8.76443C14.2737 4.77747 11.3561 1.47112 7.53882 0.864507C7.95114 0.798578 8.37443 0.764648 8.80535 0.764648C13.2246 0.764648 16.8068 4.34659 16.8068 8.76438Z" fill="#332A40"/>
<path opacity="0.3" d="M9.64508 3.47773C9.64508 7.00807 6.78236 9.87019 3.25127 9.87019C2.39371 9.87019 1.57577 9.70155 0.828554 9.39538C0.811839 9.18713 0.803711 8.97695 0.803711 8.76443C0.803711 4.34659 4.38591 0.764648 8.8052 0.764648C8.88496 0.764648 8.96432 0.765613 9.04362 0.768001H9.04408C9.42963 1.59099 9.64508 2.50907 9.64508 3.47773Z" fill="white"/>
<path opacity="0.3" d="M12.7109 1.83374C12.7109 2.51487 12.1586 3.0675 11.4768 3.0675C10.7956 3.0675 10.2433 2.51487 10.2433 1.83374C10.2433 1.49557 10.3794 1.18893 10.5997 0.966309C11.3483 1.13778 12.0573 1.41435 12.7094 1.77929C12.7105 1.79743 12.7109 1.81556 12.7109 1.83374Z" fill="white"/>
<path opacity="0.3" d="M16.2272 11.7588C15.7543 12.9305 15.0114 13.9646 14.0759 14.7838C13.7506 14.4447 13.5504 13.9843 13.5504 13.477C13.5504 12.4333 14.3965 11.5874 15.4404 11.5874C15.7213 11.5873 15.9879 11.6485 16.2272 11.7588Z" fill="white"/>
<path opacity="0.3" d="M5.54314 14.1058C5.54314 14.7444 5.23786 15.3119 4.76488 15.6701C3.63212 15.0067 2.67757 14.0724 1.98914 12.9561C2.34552 12.4636 2.92554 12.1431 3.58004 12.1431C4.66409 12.1431 5.54314 13.0215 5.54314 14.1058Z" fill="white"/>
<path opacity="0.3" d="M7.44356 12.1427C6.17856 12.1427 5.5966 10.8836 5.58741 9.9895L5.54316 5.90918C5.53483 5.38378 5.79992 4.76879 6.21854 4.34345C6.59565 3.96032 7.05319 3.75781 7.54167 3.75781C7.69575 3.75781 7.85207 3.77874 8.00616 3.81998C9.51446 4.22409 10.9613 5.21068 12.434 6.27255C12.938 6.64253 13.2373 7.25884 13.2364 7.92235C13.2354 8.59383 12.9304 9.21669 12.4207 9.58855C11.0264 10.5883 9.5418 11.6008 8.05031 12.0488C7.84283 12.1111 7.63865 12.1427 7.44356 12.1427Z" fill="#332A40"/>
<path opacity="0.3" d="M7.44368 11.9043C6.3417 11.9043 5.83458 10.7834 5.8264 9.98745L5.78215 5.90702C5.77473 5.44176 6.01285 4.89341 6.3889 4.51145C6.72008 4.17495 7.11879 3.99707 7.54178 3.99707C7.67504 3.99707 7.81053 4.01525 7.94445 4.05111C9.41363 4.44471 10.8404 5.4183 12.2944 6.46666C12.7363 6.79107 12.9985 7.33475 12.9976 7.92237C12.9967 8.51797 12.7285 9.06881 12.2801 9.39597C10.9027 10.3836 9.43797 11.383 7.98174 11.8204C7.79651 11.8761 7.61549 11.9043 7.44368 11.9043Z" fill="#332A40"/>
<path opacity="0.3" d="M11.6388 14.9729C9.87445 15.667 8.47843 14.6897 7.80432 14.0463C7.71404 13.9593 7.71165 13.8361 7.76611 13.7468C7.77663 13.7631 7.78902 13.7788 7.80432 13.7931C8.47843 14.4365 9.87445 15.4143 11.6388 14.7202C13.2746 14.0769 13.6057 12.5622 13.6373 11.5835C13.6387 11.5936 13.6396 11.604 13.6396 11.615C13.6497 12.5703 13.4036 14.2789 11.6388 14.9729Z" fill="#332A40"/>
<path d="M12.1266 6.69965C10.7438 5.70259 9.30151 4.71193 7.87023 4.3285C6.81854 4.04675 6.05705 5.17216 6.06874 5.90444C6.08347 7.26466 6.0982 8.62484 6.11293 9.98506C6.12045 10.7173 6.63885 11.9251 7.89913 11.5465C9.28957 11.1289 10.7239 10.1595 12.111 9.16507C12.9013 8.58842 12.9151 7.27838 12.1266 6.69965Z" fill="white"/>
<path d="M10.6851 13.6343C10.0226 13.9209 9.8335 13.2525 9.8335 13.2525C10.2159 13.1744 10.6186 13.0574 11.0236 12.8848H11.0248C11.0248 12.8847 11.3469 13.3482 10.6851 13.6343Z" fill="white"/>
<path d="M12.4503 12.7032C11.9507 13.2235 11.5176 12.6801 11.5176 12.6801L11.506 12.6526C11.8573 12.4623 12.205 12.2257 12.5357 11.9312C12.6461 12.0379 12.8297 12.3081 12.4503 12.7032Z" fill="white"/>
<path d="M12.5357 11.9303C12.6461 12.037 12.8297 12.3072 12.4503 12.7024C11.9507 13.2226 11.5176 12.6792 11.5176 12.6792L11.5061 12.6519C11.506 12.6519 11.506 12.6519 11.506 12.652C11.3455 12.7389 11.1845 12.8158 11.0235 12.8841H11.0247C11.0247 12.8841 11.3468 13.3476 10.685 13.6336C10.0232 13.92 9.8338 13.2532 9.83344 13.2519C9.09816 13.4014 8.43889 13.4062 7.98643 13.3785C7.78433 13.3665 7.66586 13.5891 7.7662 13.7463C7.77671 13.7625 7.78911 13.7783 7.8044 13.7926C8.47851 14.436 9.87454 15.4137 11.6389 14.7197C13.2747 14.0763 13.6058 12.5616 13.6373 11.583C13.6397 11.5056 13.6407 11.4315 13.6397 11.3618C13.6373 11.1349 13.3502 11.0399 13.2093 11.2171C12.9957 11.4865 12.7698 11.7229 12.5357 11.9303Z" fill="#332A40"/>
<path d="M10.8275 7.95096C10.8275 8.30107 10.7339 8.62924 10.57 8.91154C10.5122 8.78543 10.3846 8.69756 10.237 8.69756C10.0349 8.69756 9.87106 8.86141 9.87106 9.06341C9.87106 9.23392 9.98765 9.37726 10.1453 9.41784C9.81086 9.70015 9.37898 9.8702 8.90742 9.8702C7.8473 9.8702 6.9873 9.01089 6.9873 7.95096C6.9873 7.68683 7.0408 7.43511 7.13733 7.20583C7.27013 7.38162 7.48177 7.49479 7.71969 7.49479C8.12388 7.49479 8.45161 7.16712 8.45161 6.76302C8.45161 6.52561 8.33837 6.31452 8.16305 6.18124C8.39192 6.08473 8.64365 6.03125 8.90737 6.03125C9.96758 6.0313 10.8275 6.89061 10.8275 7.95096Z" fill="#332A40"/>
<path opacity="0.2" d="M8.9073 8.52578C9.22461 8.52578 9.48184 8.26861 9.48184 7.95137C9.48184 7.63413 9.22461 7.37695 8.9073 7.37695C8.58999 7.37695 8.33276 7.63413 8.33276 7.95137C8.33276 8.26861 8.58999 8.52578 8.9073 8.52578Z" fill="white"/>
</svg>
