<svg width="74" height="37" viewBox="0 0 74 37" fill="none" xmlns="http://www.w3.org/2000/svg">
<rect x="0.484619" y="0.846207" width="72.7249" height="35.2587" rx="17.6294" fill="#FF406E"/>
<path d="M11.3232 15.1602C11.0599 15.1602 10.8502 15.082 10.6938 14.9257C10.5458 14.7694 10.4717 14.5596 10.4717 14.2964V7.64479C10.5375 7.62834 10.6404 7.60777 10.7802 7.58309C10.9283 7.55841 11.0723 7.54607 11.2121 7.54607C11.5083 7.54607 11.7263 7.59954 11.8662 7.70649C12.0061 7.81345 12.076 8.0109 12.076 8.29884V13.8398H15.2475C15.2886 13.9056 15.3298 13.9961 15.3709 14.1112C15.412 14.2182 15.4326 14.3375 15.4326 14.4691C15.4326 14.6913 15.3791 14.864 15.2722 14.9874C15.1735 15.1026 15.0336 15.1602 14.8526 15.1602H11.3232ZM22.1961 12.2108C22.1961 12.688 22.1221 13.1199 21.974 13.5066C21.8341 13.885 21.6326 14.21 21.3693 14.4815C21.106 14.753 20.7893 14.9627 20.4191 15.1108C20.0489 15.2507 19.6334 15.3206 19.1727 15.3206C18.712 15.3206 18.2965 15.2507 17.9263 15.1108C17.5561 14.9627 17.2393 14.7571 16.9761 14.4938C16.7128 14.2223 16.5071 13.8973 16.359 13.5189C16.2192 13.1322 16.1492 12.6962 16.1492 12.2108C16.1492 11.7336 16.2192 11.3058 16.359 10.9274C16.5071 10.5407 16.7128 10.2157 16.9761 9.95248C17.2475 9.68098 17.5684 9.47531 17.9386 9.33545C18.3088 9.18736 18.7202 9.11332 19.1727 9.11332C19.6252 9.11332 20.0365 9.18736 20.4067 9.33545C20.7769 9.47531 21.0937 9.68098 21.357 9.95248C21.6284 10.224 21.8341 10.5531 21.974 10.9397C22.1221 11.3182 22.1961 11.7419 22.1961 12.2108ZM19.1727 10.3474C18.7284 10.3474 18.3788 10.5119 18.1237 10.841C17.8687 11.1619 17.7412 11.6185 17.7412 12.2108C17.7412 12.8114 17.8646 13.2721 18.1114 13.5929C18.3664 13.9138 18.7202 14.0742 19.1727 14.0742C19.6252 14.0742 19.9748 13.9138 20.2216 13.5929C20.4767 13.2639 20.6042 12.8031 20.6042 12.2108C20.6042 11.6185 20.4767 11.1619 20.2216 10.841C19.9666 10.5119 19.6169 10.3474 19.1727 10.3474ZM27.2349 14.6296C27.0704 14.7118 26.877 14.7818 26.6549 14.8393C26.441 14.8969 26.1901 14.9257 25.9021 14.9257C25.5319 14.9257 25.1823 14.8764 24.8532 14.7776C24.5241 14.6707 24.2362 14.502 23.9893 14.2717C23.7425 14.0413 23.5451 13.7451 23.397 13.3832C23.2571 13.0129 23.1872 12.5646 23.1872 12.038C23.1872 11.5609 23.2571 11.1413 23.397 10.7793C23.5451 10.4091 23.7508 10.1006 24.014 9.85375C24.2855 9.60694 24.6064 9.42183 24.9766 9.29843C25.3468 9.17502 25.7582 9.11332 26.2106 9.11332C26.6385 9.11332 27.0292 9.16679 27.383 9.27375C27.745 9.3807 28.0329 9.5041 28.2468 9.64396C28.3949 9.74269 28.5101 9.85375 28.5924 9.97716C28.6829 10.1006 28.7281 10.2569 28.7281 10.4461V15.2096C28.7281 15.6291 28.65 15.9911 28.4937 16.2955C28.3456 16.5999 28.1399 16.8467 27.8766 17.036C27.6134 17.2334 27.3048 17.3774 26.9511 17.4679C26.5973 17.5584 26.2148 17.6036 25.8034 17.6036C25.3756 17.6036 25.0013 17.5625 24.6804 17.4802C24.3678 17.4062 24.1333 17.3198 23.977 17.2211C23.7055 17.0483 23.5698 16.8179 23.5698 16.53C23.5698 16.3737 23.6027 16.2379 23.6685 16.1228C23.7343 16.0076 23.8125 15.9212 23.903 15.8636C24.1169 15.9952 24.376 16.1104 24.6804 16.2091C24.9848 16.3079 25.3098 16.3572 25.6553 16.3572C26.1489 16.3572 26.5356 16.2626 26.8153 16.0734C27.0951 15.8842 27.2349 15.5798 27.2349 15.1602V14.6296ZM26.1613 13.7163C26.3999 13.7163 26.6014 13.6834 26.766 13.6176C26.9387 13.5518 27.0868 13.4737 27.2102 13.3832V10.5942C27.0951 10.5284 26.9593 10.4708 26.803 10.4214C26.6549 10.3721 26.4739 10.3474 26.26 10.3474C25.8075 10.3474 25.4414 10.4872 25.1617 10.767C24.8902 11.0384 24.7545 11.4621 24.7545 12.038C24.7545 12.3507 24.7874 12.6139 24.8532 12.8278C24.9272 13.0417 25.026 13.2145 25.1494 13.3461C25.281 13.4778 25.4332 13.5724 25.606 13.63C25.7787 13.6876 25.9638 13.7163 26.1613 13.7163ZM36.031 12.2108C36.031 12.688 35.957 13.1199 35.8089 13.5066C35.669 13.885 35.4675 14.21 35.2042 14.4815C34.941 14.753 34.6242 14.9627 34.254 15.1108C33.8838 15.2507 33.4683 15.3206 33.0076 15.3206C32.5469 15.3206 32.1314 15.2507 31.7612 15.1108C31.391 14.9627 31.0742 14.7571 30.811 14.4938C30.5477 14.2223 30.342 13.8973 30.1939 13.5189C30.0541 13.1322 29.9842 12.6962 29.9842 12.2108C29.9842 11.7336 30.0541 11.3058 30.1939 10.9274C30.342 10.5407 30.5477 10.2157 30.811 9.95248C31.0825 9.68098 31.4033 9.47531 31.7735 9.33545C32.1438 9.18736 32.5551 9.11332 33.0076 9.11332C33.4601 9.11332 33.8714 9.18736 34.2417 9.33545C34.6119 9.47531 34.9286 9.68098 35.1919 9.95248C35.4634 10.224 35.669 10.5531 35.8089 10.9397C35.957 11.3182 36.031 11.7419 36.031 12.2108ZM33.0076 10.3474C32.5633 10.3474 32.2137 10.5119 31.9587 10.841C31.7036 11.1619 31.5761 11.6185 31.5761 12.2108C31.5761 12.8114 31.6995 13.2721 31.9463 13.5929C32.2013 13.9138 32.5551 14.0742 33.0076 14.0742C33.4601 14.0742 33.8097 13.9138 34.0565 13.5929C34.3116 13.2639 34.4391 12.8031 34.4391 12.2108C34.4391 11.6185 34.3116 11.1619 34.0565 10.841C33.8015 10.5119 33.4519 10.3474 33.0076 10.3474ZM16.1484 20.6074C16.1484 20.7719 16.1031 20.9159 16.0126 21.0393C15.9221 21.1545 15.8193 21.245 15.7041 21.3108C15.4902 21.1709 15.2516 21.0434 14.9884 20.9282C14.7251 20.813 14.4001 20.7554 14.0134 20.7554C13.3142 20.7554 12.7547 20.9817 12.3351 21.4342C11.9238 21.8867 11.7181 22.5407 11.7181 23.3963C11.7181 24.2684 11.932 24.9224 12.3598 25.3585C12.7876 25.7945 13.3635 26.0125 14.0875 26.0125C14.4659 26.0125 14.7909 25.9632 15.0624 25.8644C15.3421 25.7575 15.5889 25.6341 15.8028 25.4942C15.918 25.5683 16.0126 25.6711 16.0867 25.8027C16.1607 25.9261 16.1977 26.0701 16.1977 26.2347C16.1977 26.3745 16.1607 26.502 16.0867 26.6172C16.0126 26.7324 15.8892 26.8352 15.7164 26.9257C15.5519 27.0244 15.3174 27.1149 15.013 27.1972C14.7169 27.2877 14.3466 27.333 13.9024 27.333C13.3594 27.333 12.8534 27.2548 12.3845 27.0985C11.9238 26.934 11.5207 26.6913 11.1751 26.3704C10.8296 26.0413 10.5581 25.63 10.3606 25.1363C10.1632 24.6427 10.0645 24.0627 10.0645 23.3963C10.0645 22.7546 10.1632 22.1911 10.3606 21.7057C10.5581 21.212 10.8255 20.8007 11.1628 20.4716C11.5083 20.1343 11.9073 19.8793 12.3598 19.7065C12.8205 19.5337 13.3059 19.4473 13.816 19.4473C14.1698 19.4473 14.4906 19.4803 14.7786 19.5461C15.0665 19.6037 15.3133 19.6859 15.519 19.7929C15.7247 19.8998 15.881 20.0232 15.9879 20.1631C16.0949 20.303 16.1484 20.451 16.1484 20.6074ZM22.9794 24.2108C22.9794 24.688 22.9054 25.1199 22.7573 25.5066C22.6175 25.885 22.4159 26.21 22.1526 26.4815C21.8894 26.753 21.5726 26.9627 21.2024 27.1108C20.8322 27.2507 20.4167 27.3206 19.956 27.3206C19.4953 27.3206 19.0798 27.2507 18.7096 27.1108C18.3394 26.9627 18.0227 26.7571 17.7594 26.4938C17.4961 26.2223 17.2904 25.8973 17.1424 25.5189C17.0025 25.1322 16.9326 24.6962 16.9326 24.2108C16.9326 23.7336 17.0025 23.3058 17.1424 22.9274C17.2904 22.5407 17.4961 22.2157 17.7594 21.9525C18.0309 21.681 18.3517 21.4753 18.722 21.3354C19.0922 21.1874 19.5035 21.1133 19.956 21.1133C20.4085 21.1133 20.8198 21.1874 21.1901 21.3354C21.5603 21.4753 21.877 21.681 22.1403 21.9525C22.4118 22.224 22.6175 22.5531 22.7573 22.9397C22.9054 23.3182 22.9794 23.7419 22.9794 24.2108ZM19.956 22.3474C19.5117 22.3474 19.1621 22.5119 18.9071 22.841C18.652 23.1619 18.5245 23.6185 18.5245 24.2108C18.5245 24.8114 18.6479 25.2721 18.8947 25.5929C19.1498 25.9138 19.5035 26.0742 19.956 26.0742C20.4085 26.0742 20.7581 25.9138 21.005 25.5929C21.26 25.2639 21.3875 24.8031 21.3875 24.2108C21.3875 23.6185 21.26 23.1619 21.005 22.841C20.7499 22.5119 20.4003 22.3474 19.956 22.3474ZM32.9545 27.1232C32.8887 27.1396 32.7899 27.1602 32.6583 27.1849C32.5349 27.2096 32.3992 27.2219 32.2511 27.2219C31.9549 27.2219 31.7369 27.1684 31.597 27.0615C31.4654 26.9545 31.3996 26.7653 31.3996 26.4938V23.2853C31.3996 22.9562 31.3091 22.7176 31.1281 22.5695C30.9471 22.4214 30.7085 22.3474 30.4123 22.3474C30.2149 22.3474 30.0215 22.3844 29.8323 22.4584C29.6513 22.5325 29.4909 22.6312 29.351 22.7546C29.3757 22.8698 29.3881 22.985 29.3881 23.1001V27.1232C29.3222 27.1396 29.2235 27.1602 29.0919 27.1849C28.9685 27.2096 28.8327 27.2219 28.6846 27.2219C28.3885 27.2219 28.1705 27.1684 28.0306 27.0615C27.899 26.9545 27.8331 26.7653 27.8331 26.4938V23.2853C27.8331 22.9562 27.7385 22.7176 27.5493 22.5695C27.3601 22.4214 27.1174 22.3474 26.8212 22.3474C26.6155 22.3474 26.4263 22.3803 26.2536 22.4461C26.0808 22.5119 25.9368 22.5777 25.8216 22.6435V27.1232C25.7476 27.1396 25.6489 27.1602 25.5255 27.1849C25.4021 27.2096 25.2622 27.2219 25.1059 27.2219C24.8179 27.2219 24.604 27.1684 24.4642 27.0615C24.3243 26.9545 24.2544 26.7653 24.2544 26.4938V22.5325C24.2544 22.3433 24.2955 22.1869 24.3778 22.0635C24.4601 21.9319 24.5876 21.8085 24.7603 21.6933C25.0072 21.5288 25.3198 21.393 25.6982 21.2861C26.0767 21.1709 26.4675 21.1133 26.8706 21.1133C27.6192 21.1133 28.228 21.3149 28.697 21.718C28.9356 21.5452 29.2071 21.4013 29.5115 21.2861C29.8241 21.1709 30.1902 21.1133 30.6098 21.1133C30.9306 21.1133 31.235 21.1545 31.523 21.2367C31.8109 21.3108 32.0577 21.4342 32.2634 21.6069C32.4773 21.7797 32.646 22.0018 32.7694 22.2733C32.8928 22.5366 32.9545 22.8533 32.9545 23.2236V27.1232ZM37.2987 27.3083C37.0602 27.3083 36.838 27.2836 36.6323 27.2342C36.4349 27.1931 36.2539 27.1396 36.0894 27.0738V29.3445C36.0153 29.3609 35.9166 29.3815 35.7932 29.4062C35.6698 29.4309 35.5299 29.4432 35.3736 29.4432C35.0857 29.4432 34.8718 29.3897 34.7319 29.2828C34.592 29.1758 34.5221 28.9866 34.5221 28.7151V22.4584C34.5221 22.261 34.5591 22.1006 34.6332 21.9772C34.7154 21.8538 34.843 21.7386 35.0157 21.6316C35.2543 21.4918 35.5505 21.3725 35.9043 21.2737C36.258 21.1668 36.657 21.1133 37.1013 21.1133C37.5538 21.1133 37.9692 21.175 38.3477 21.2984C38.7344 21.4136 39.0676 21.5987 39.3473 21.8538C39.627 22.1006 39.845 22.4173 40.0013 22.804C40.1576 23.1906 40.2358 23.6514 40.2358 24.1861C40.2358 24.7044 40.1617 25.1569 40.0137 25.5436C39.8656 25.9303 39.6599 26.2552 39.3966 26.5185C39.1416 26.7818 38.8331 26.9792 38.4711 27.1108C38.1173 27.2425 37.7265 27.3083 37.2987 27.3083ZM37.0643 26.0619C37.5579 26.0619 37.9446 25.9097 38.2243 25.6053C38.504 25.3009 38.6439 24.8278 38.6439 24.1861C38.6439 23.5197 38.4999 23.0467 38.2119 22.767C37.924 22.4872 37.5538 22.3474 37.1013 22.3474C36.8792 22.3474 36.6817 22.3762 36.5089 22.4338C36.3444 22.4913 36.2004 22.5531 36.077 22.6189V25.7904C36.2087 25.8727 36.3526 25.9385 36.5089 25.9878C36.6735 26.0372 36.8586 26.0619 37.0643 26.0619ZM43.8437 26.1359C44.0823 26.1359 44.3003 26.1154 44.4977 26.0742C44.6952 26.0249 44.8391 25.9673 44.9296 25.9015V24.5317L43.7326 24.6427C43.4035 24.6756 43.1526 24.7497 42.9798 24.8648C42.8071 24.9718 42.7207 25.1446 42.7207 25.3832C42.7207 25.6217 42.8071 25.8068 42.9798 25.9385C43.1608 26.0701 43.4488 26.1359 43.8437 26.1359ZM43.7943 21.1133C44.6006 21.1133 45.2423 21.2861 45.7194 21.6316C46.2048 21.9772 46.4475 22.5119 46.4475 23.2359V26.0866C46.4475 26.284 46.3982 26.4403 46.2994 26.5555C46.2007 26.6707 46.0773 26.7735 45.9292 26.864C45.6989 27.0039 45.4068 27.1149 45.053 27.1972C44.6993 27.2795 44.2962 27.3206 43.8437 27.3206C43.021 27.3206 42.371 27.1643 41.8939 26.8517C41.4249 26.5308 41.1905 26.0537 41.1905 25.4202C41.1905 24.869 41.3632 24.4494 41.7088 24.1614C42.0625 23.8653 42.5726 23.6843 43.239 23.6185L44.9296 23.4457V23.2236C44.9296 22.9109 44.8145 22.6806 44.5841 22.5325C44.362 22.3844 44.0452 22.3104 43.6339 22.3104C43.313 22.3104 43.0004 22.3515 42.696 22.4338C42.3916 22.5078 42.1201 22.6024 41.8815 22.7176C41.791 22.6518 41.7129 22.5654 41.6471 22.4584C41.5895 22.3433 41.5607 22.2199 41.5607 22.0882C41.5607 21.9237 41.5977 21.792 41.6717 21.6933C41.754 21.5864 41.8815 21.4918 42.0543 21.4095C42.2929 21.3108 42.5644 21.2367 42.8688 21.1874C43.1732 21.138 43.4817 21.1133 43.7943 21.1133ZM51.8584 23.3716C51.8584 23.0179 51.7555 22.7587 51.5499 22.5942C51.3524 22.4296 51.0809 22.3474 50.7354 22.3474C50.4968 22.3474 50.2747 22.3762 50.069 22.4338C49.8716 22.4913 49.6988 22.5654 49.5507 22.6559V27.1232C49.4767 27.1396 49.3779 27.1602 49.2545 27.1849C49.1311 27.2096 48.9913 27.2219 48.8349 27.2219C48.547 27.2219 48.3331 27.1684 48.1932 27.0615C48.0534 26.9545 47.9834 26.7653 47.9834 26.4938V22.5325C47.9834 22.335 48.0246 22.1746 48.1069 22.0512C48.1891 21.9278 48.3166 21.8085 48.4894 21.6933C48.728 21.5288 49.0447 21.393 49.4396 21.2861C49.8345 21.1709 50.2706 21.1133 50.7477 21.1133C51.5951 21.1133 52.2492 21.3025 52.7099 21.681C53.1788 22.0512 53.4133 22.5983 53.4133 23.3223V27.1232C53.3475 27.1396 53.2488 27.1602 53.1171 27.1849C52.9937 27.2096 52.858 27.2219 52.7099 27.2219C52.4137 27.2219 52.1957 27.1684 52.0558 27.0615C51.9242 26.9545 51.8584 26.7653 51.8584 26.4938V23.3716ZM55.047 21.3354C55.1128 21.319 55.2074 21.2984 55.3308 21.2737C55.4624 21.2491 55.6023 21.2367 55.7504 21.2367C56.0466 21.2367 56.2605 21.2902 56.3921 21.3972C56.532 21.5041 56.6019 21.6933 56.6019 21.9648V27.1232C56.5361 27.1396 56.4373 27.1602 56.3057 27.1849C56.1823 27.2096 56.0466 27.2219 55.8985 27.2219C55.6023 27.2219 55.3843 27.1684 55.2444 27.0615C55.1128 26.9545 55.047 26.7653 55.047 26.4938V21.3354ZM54.9236 19.5461C54.9236 19.3075 55.0058 19.1059 55.1704 18.9414C55.3431 18.7686 55.5612 18.6822 55.8244 18.6822C56.0877 18.6822 56.3016 18.7686 56.4661 18.9414C56.6307 19.1059 56.713 19.3075 56.713 19.5461C56.713 19.7929 56.6307 20.0027 56.4661 20.1754C56.3016 20.34 56.0877 20.4222 55.8244 20.4222C55.5612 20.4222 55.3431 20.34 55.1704 20.1754C55.0058 20.0027 54.9236 19.7929 54.9236 19.5461ZM59.4861 24.9142C59.6013 25.3338 59.8152 25.6382 60.1278 25.8274C60.4404 26.0166 60.8271 26.1112 61.2878 26.1112C61.6334 26.1112 61.9501 26.0619 62.2381 25.9632C62.5342 25.8562 62.7728 25.7451 62.9538 25.63C63.069 25.6958 63.1636 25.7863 63.2376 25.9015C63.3117 26.0166 63.3487 26.14 63.3487 26.2717C63.3487 26.4362 63.2911 26.5843 63.1759 26.7159C63.069 26.8393 62.9168 26.9463 62.7193 27.0368C62.5301 27.1273 62.3039 27.1972 62.0406 27.2466C61.7773 27.2959 61.4935 27.3206 61.1891 27.3206C60.7037 27.3206 60.2594 27.2548 59.8563 27.1232C59.4614 26.9915 59.12 26.7941 58.8321 26.5308C58.5523 26.2593 58.3302 25.9261 58.1657 25.5312C58.0094 25.1363 57.9312 24.6756 57.9312 24.1491C57.9312 23.639 58.0094 23.1948 58.1657 22.8163C58.322 22.4379 58.5318 22.1211 58.795 21.8661C59.0665 21.6111 59.3792 21.4218 59.7329 21.2984C60.0867 21.175 60.461 21.1133 60.8559 21.1133C61.259 21.1133 61.6293 21.1791 61.9666 21.3108C62.3039 21.4342 62.5918 21.6111 62.8304 21.8414C63.069 22.0635 63.2541 22.335 63.3857 22.6559C63.5256 22.9685 63.5955 23.3099 63.5955 23.6802C63.5955 23.9105 63.5338 24.0833 63.4104 24.1985C63.2952 24.3136 63.1307 24.3877 62.9168 24.4206L59.4861 24.9142ZM60.8559 22.2857C60.4528 22.2857 60.1155 22.4214 59.844 22.6929C59.5725 22.9562 59.4203 23.3346 59.3874 23.8282L62.127 23.421C62.0941 23.1166 61.9748 22.8533 61.7691 22.6312C61.5634 22.4009 61.259 22.2857 60.8559 22.2857Z" fill="white"/>
<rect width="9.51925" height="9.51925" rx="4.75963" transform="matrix(-1 0 0 1 64.1726 7.48976)" fill="white"/>
<rect width="7.81145" height="7.81145" rx="3.90573" transform="matrix(-1 0 0 1 53.9219 8.34425)" fill="white"/>
<rect width="5.85859" height="5.85859" rx="2.92929" transform="matrix(-1 0 0 1 45.3792 9.32082)" fill="white"/>
</svg>
