<svg width="24" height="25" viewBox="0 0 24 25" fill="none" xmlns="http://www.w3.org/2000/svg">
<path d="M23.1439 10.2155H21.3016C21.0998 9.43313 20.7717 8.72651 20.3931 8.04512L21.7054 6.73282C22.0335 6.40474 22.0335 5.90001 21.7054 5.59717L19.207 3.09875C18.8789 2.77067 18.3742 2.77067 18.0714 3.09875L16.7591 4.41105C16.0777 4.0325 15.3458 3.72966 14.5887 3.52777V1.6855C14.5887 1.23124 14.2354 0.87793 13.7811 0.87793H10.2733C9.819 0.87793 9.46568 1.23124 9.46568 1.6855V3.52777C8.68335 3.72966 7.95149 4.05774 7.29534 4.43629L5.98304 3.14922C5.65496 2.82115 5.15023 2.82115 4.84739 3.14922L2.34897 5.64765C2.02089 5.95048 2.02089 6.48045 2.34897 6.78329L3.66127 8.09559C3.28272 8.77698 2.97988 9.50884 2.75275 10.2659H0.935717C0.506695 10.2659 0.128146 10.6445 0.128146 11.0735V14.6066C0.10291 15.0104 0.481459 15.389 0.935717 15.389H2.77799C2.97988 16.1461 3.30796 16.8779 3.68651 17.5593L2.3742 18.8716C2.04613 19.1745 2.04613 19.7044 2.3742 20.0073L4.87263 22.5057C5.2007 22.8338 5.70543 22.8338 6.00827 22.5057L7.32057 21.1934C7.77483 21.4458 8.22909 21.6476 8.73382 21.8243V17.5341C7.24487 16.4994 6.28587 14.7581 6.28587 12.7896C6.28587 9.60979 8.88524 7.01042 12.0651 7.01042C15.2449 7.01042 17.8442 9.60979 17.8442 12.7896C17.8442 14.7328 16.8852 16.4741 15.3963 17.5341V21.8495C15.901 21.6729 16.3805 21.4458 16.8348 21.1934L18.0966 22.4552C18.4247 22.7833 18.9294 22.7833 19.2322 22.4552L21.7307 19.9568C22.0587 19.6287 22.0587 19.124 21.7307 18.8211L20.4436 17.5088C20.8222 16.8275 21.125 16.0956 21.3269 15.3385H23.1439C23.5982 15.3385 23.9515 14.9852 23.9515 14.5309V10.9978C23.9767 10.5688 23.5982 10.2155 23.1439 10.2155Z" fill="white"/>
<path d="M15.3963 12.7643C15.3963 11.6035 14.8159 10.5688 13.9326 9.96308C13.7055 9.81166 13.3774 9.98831 13.3774 10.2659V11.9568C13.3774 12.6886 12.7717 13.2943 12.0398 13.2943C11.308 13.2943 10.7023 12.6886 10.7023 11.9568V10.2912C10.7023 10.0135 10.3742 9.83689 10.1471 9.98831C9.26382 10.6192 8.68338 11.6287 8.68338 12.7896C8.68338 14.1271 9.46571 15.2628 10.5761 15.818V23.4142C10.5761 24.2218 11.2323 24.8779 12.0398 24.8779C12.8474 24.8779 13.5036 24.2218 13.5036 23.4142V15.7927C14.614 15.2375 15.3963 14.1019 15.3963 12.7643Z" fill="white"/>
</svg>
