<svg width="25" height="24" viewBox="0 0 25 24" fill="none" xmlns="http://www.w3.org/2000/svg">
<path d="M23.723 9.33754H21.8807C21.6789 8.5552 21.3508 7.84858 20.9722 7.16719L22.2845 5.85489C22.6126 5.52681 22.6126 5.02208 22.2845 4.71924L19.7861 2.22082C19.458 1.89274 18.9533 1.89274 18.6505 2.22082L17.3382 3.53312C16.6568 3.15457 15.9249 2.85173 15.1678 2.64984V0.807571C15.1678 0.353312 14.8145 0 14.3602 0H10.8524C10.3981 0 10.0448 0.353312 10.0448 0.807571V2.64984C9.26245 2.85173 8.53059 3.17981 7.87444 3.55836L6.56214 2.27129C6.23406 1.94322 5.72933 1.94322 5.42649 2.27129L2.92807 4.76972C2.59999 5.07256 2.59999 5.60252 2.92807 5.90536L4.24037 7.21767C3.86182 7.89905 3.55898 8.63091 3.33185 9.38801H1.51482C1.0858 9.38801 0.707248 9.76656 0.707248 10.1956V13.7287C0.682011 14.1325 1.06056 14.511 1.51482 14.511H3.35709C3.55898 15.2681 3.88706 16 4.26561 16.6814L2.9533 17.9937C2.62523 18.2965 2.62523 18.8265 2.9533 19.1293L5.45173 21.6278C5.7798 21.9558 6.28453 21.9558 6.58737 21.6278L7.89968 20.3155C8.35393 20.5678 8.80819 20.7697 9.31293 20.9464V16.6562C7.82397 15.6215 6.86498 13.8801 6.86498 11.9117C6.86498 8.73186 9.46434 6.13249 12.6442 6.13249C15.824 6.13249 18.4233 8.73186 18.4233 11.9117C18.4233 13.8549 17.4643 15.5962 15.9754 16.6562V20.9716C16.4801 20.795 16.9596 20.5678 17.4139 20.3155L18.6757 21.5773C19.0038 21.9054 19.5085 21.9054 19.8113 21.5773L22.3098 19.0789C22.6378 18.7508 22.6378 18.2461 22.3098 17.9432L21.0227 16.6309C21.4013 15.9495 21.7041 15.2177 21.906 14.4606H23.723C24.1773 14.4606 24.5306 14.1073 24.5306 13.653V10.1199C24.5558 9.69085 24.1773 9.33754 23.723 9.33754Z" fill="#EC4A60"/>
<path d="M15.9756 11.8862C15.9756 10.7253 15.3952 9.69058 14.5119 9.0849C14.2848 8.93348 13.9567 9.11014 13.9567 9.38774V11.0786C13.9567 11.8105 13.351 12.4161 12.6192 12.4161C11.8873 12.4161 11.2816 11.8105 11.2816 11.0786V9.41298C11.2816 9.13538 10.9535 8.95872 10.7264 9.11014C9.84314 9.74105 9.2627 10.7505 9.2627 11.9114C9.2627 13.2489 10.045 14.3846 11.1554 14.9398V22.536C11.1554 23.3436 11.8116 23.9997 12.6192 23.9997C13.4267 23.9997 14.0829 23.3436 14.0829 22.536V14.9146C15.1933 14.3594 15.9756 13.2237 15.9756 11.8862Z" fill="#EC4A60"/>
</svg>
