<svg width="25" height="24" viewBox="0 0 25 24" fill="none" xmlns="http://www.w3.org/2000/svg">
<path d="M3.85477 23.3791L13.8896 12.6161C14.086 12.4171 14.3315 12.2735 14.6013 12.1999C14.871 12.1263 15.1555 12.1254 15.4257 12.1972C16.4964 12.4148 17.6052 12.3509 18.6437 12.0117C19.6823 11.6725 20.615 11.0697 21.3508 10.262C23.9842 7.62866 24.9318 5.0651 24.453 4.59627C23.9742 4.12745 19.8346 8.74585 18.9568 7.86806C18.0791 6.99026 22.7872 2.93046 22.2286 2.37186C21.67 1.81326 17.5903 6.52144 16.7324 5.64364C15.8746 4.76585 20.5828 0.706043 20.0042 0.147445C19.4257 -0.411152 17.0117 0.616268 14.3384 3.24966C13.5308 3.98546 12.928 4.91823 12.5888 5.95679C12.2496 6.99534 12.1857 8.10413 12.4033 9.17478C12.4751 9.44503 12.4741 9.72946 12.4006 9.99923C12.327 10.269 12.1834 10.5145 11.9844 10.7109L1.22139 20.7457L1.13161 20.8355C0.821674 21.201 0.664296 21.6718 0.692112 22.1502C0.719928 22.6286 0.930803 23.0779 1.28101 23.405C1.63122 23.7322 2.09389 23.9119 2.57308 23.9071C3.05228 23.9023 3.51123 23.7132 3.85477 23.3791Z" fill="#915CFF"/>
<path d="M17.0218 14.3217H16.6826C16.1729 14.3245 15.6644 14.271 15.1664 14.1621L13.8896 15.5287L21.2212 23.3291C21.3957 23.5312 21.61 23.695 21.8508 23.8103C22.0917 23.9256 22.3537 23.9897 22.6206 23.9988C22.8874 24.0079 23.1532 23.9616 23.4013 23.863C23.6494 23.7643 23.8743 23.6154 24.0621 23.4256C24.2498 23.2358 24.3963 23.0092 24.4922 22.76C24.5881 22.5109 24.6314 22.2446 24.6194 21.9779C24.6075 21.7112 24.5404 21.4498 24.4225 21.2103C24.3046 20.9707 24.1384 20.7582 23.9344 20.586L17.0218 14.3217Z" fill="#915CFF"/>
<path d="M10.4183 9.43378C10.3335 9.02309 10.2835 8.606 10.2687 8.18691L1.46079 0.157077C1.3956 0.0875833 1.31115 0.0391216 1.21826 0.0178931C1.12537 -0.00333528 1.02826 0.00363511 0.939354 0.0379123C0.850448 0.0721896 0.77379 0.132215 0.719192 0.210306C0.664593 0.288398 0.634537 0.381004 0.632869 0.476275C0.33362 4.46626 4.38345 9.53353 7.12656 12.4462L10.4183 9.43378Z" fill="#915CFF"/>
</svg>
