<svg width="21" height="21" viewBox="0 0 21 21" fill="none" xmlns="http://www.w3.org/2000/svg">
<rect x="0.0327148" y="0.0944824" width="20" height="20" rx="5" fill="url(#paint0_linear)"/>
<path d="M6.04887 15.2668L10.6101 10.3745C10.6994 10.284 10.811 10.2188 10.9336 10.1853C11.0563 10.1519 11.1856 10.1514 11.3084 10.1841C11.7951 10.283 12.299 10.2539 12.7711 10.0998C13.2432 9.94559 13.6672 9.67156 14.0016 9.30446C15.1986 8.10747 15.6294 6.94221 15.4117 6.72911C15.1941 6.51601 13.3125 8.61528 12.9135 8.21629C12.5145 7.81729 14.6545 5.97192 14.4006 5.71801C14.1467 5.4641 12.2923 7.60419 11.9024 7.20519C11.5124 6.80619 13.6525 4.96082 13.3895 4.70691C13.1266 4.45301 12.0293 4.92001 10.8142 6.11701C10.4471 6.45147 10.1731 6.87546 10.0189 7.34752C9.8647 7.81959 9.83565 8.32359 9.93457 8.81025C9.9672 8.93309 9.96677 9.06238 9.93333 9.185C9.89988 9.30763 9.83462 9.41923 9.74414 9.5085L4.85187 14.0698L4.81107 14.1106C4.67019 14.2767 4.59865 14.4907 4.61129 14.7082C4.62394 14.9256 4.71979 15.1299 4.87898 15.2786C5.03816 15.4273 5.24847 15.509 5.46628 15.5068C5.6841 15.5046 5.89271 15.4186 6.04887 15.2668Z" fill="white"/>
<path d="M12.0339 11.1497H11.8798C11.6481 11.151 11.4169 11.1266 11.1906 11.0771L10.6102 11.6983L13.9428 15.244C14.0221 15.3358 14.1195 15.4103 14.229 15.4627C14.3384 15.5151 14.4575 15.5443 14.5788 15.5484C14.7001 15.5525 14.8209 15.5315 14.9337 15.4866C15.0465 15.4418 15.1487 15.3741 15.2341 15.2878C15.3194 15.2016 15.386 15.0985 15.4296 14.9853C15.4732 14.872 15.4929 14.751 15.4874 14.6298C15.482 14.5085 15.4515 14.3897 15.3979 14.2809C15.3443 14.172 15.2688 14.0754 15.176 13.9971L12.0339 11.1497Z" fill="white"/>
<path d="M9.03232 8.92825C8.99379 8.74157 8.97104 8.55198 8.96431 8.36149L4.96073 4.71156C4.93109 4.67997 4.89271 4.65794 4.85049 4.64829C4.80826 4.63864 4.76412 4.64181 4.72371 4.65739C4.6833 4.67297 4.64845 4.70026 4.62364 4.73575C4.59882 4.77125 4.58516 4.81334 4.5844 4.85665C4.44838 6.67028 6.28921 8.97359 7.53608 10.2975L9.03232 8.92825Z" fill="white"/>
<defs>
<linearGradient id="paint0_linear" x1="0.0327148" y1="0.0944824" x2="20.0327" y2="21.1162" gradientUnits="userSpaceOnUse">
<stop stop-color="#A983FF"/>
<stop offset="1" stop-color="#5900FF"/>
</linearGradient>
</defs>
</svg>
