<svg width="25" height="25" viewBox="0 0 25 25" fill="none" xmlns="http://www.w3.org/2000/svg">
<path fill-rule="evenodd" clip-rule="evenodd" d="M9.04391 3.9751C9.46391 3.9751 9.80491 4.30948 9.80491 4.72232C9.80491 5.13417 9.46491 5.46855 9.04391 5.46855L7.41491 5.46953C6.06291 5.47149 4.96291 6.55114 4.96291 7.87789V9.73711C4.96291 10.149 4.62091 10.4843 4.20091 10.4843C3.78091 10.4843 3.43991 10.149 3.43991 9.73711V7.87789C3.43991 5.72841 5.22291 3.97804 7.41391 3.97608L9.04291 3.9751H9.04391ZM16.2168 3.97539H17.8098C20.0068 3.97539 21.7928 5.72674 21.7928 7.88112V9.7374C21.7928 10.1493 21.4528 10.4846 21.0318 10.4846C20.6118 10.4846 20.2708 10.1493 20.2708 9.7374V7.88112C20.2708 6.55045 19.1668 5.46787 17.8098 5.46787H16.2168C15.7968 5.46787 15.4558 5.13446 15.4558 4.72261C15.4558 4.30978 15.7968 3.97539 16.2168 3.97539ZM15.3787 7.71776H9.85471C8.59071 7.7305 7.57471 8.74346 7.58571 9.98392V11.2293C7.58871 11.3744 7.70771 11.4931 7.85571 11.498H17.3757C17.5247 11.494 17.6437 11.3754 17.6487 11.2293V9.98392C17.6497 9.38478 17.4137 8.80916 16.9877 8.38064C16.5647 7.95604 15.9837 7.71776 15.3787 7.71776ZM2.37821 13.0163H22.8552C23.2752 13.0163 23.6162 13.3507 23.6162 13.7635C23.6162 14.1754 23.2752 14.5088 22.8552 14.5088H21.7932V18.0684C21.7932 20.2237 20.0062 21.9751 17.8102 21.9751H16.2172C15.7962 21.9751 15.4552 21.6407 15.4552 21.2279C15.4552 20.816 15.7962 20.4816 16.2172 20.4816H17.8102C19.1672 20.4816 20.2712 19.4 20.2712 18.0684V14.5088H17.6482V15.5002C17.6582 16.7407 16.6432 17.7546 15.3782 17.7664H9.85421C8.59021 17.7546 7.57521 16.7407 7.58521 15.5002V14.5088H4.96221V18.0723C4.96221 19.3991 6.06321 20.4787 7.41621 20.4807L9.04421 20.4816C9.46421 20.4816 9.80521 20.816 9.80521 21.2279C9.80421 21.6407 9.46421 21.9751 9.04321 21.9751L7.41421 21.9741C5.22321 21.9722 3.43921 20.2218 3.43921 18.0723V14.5088H2.37821C1.95821 14.5088 1.61621 14.1754 1.61621 13.7635C1.61621 13.3507 1.95821 13.0163 2.37821 13.0163Z" fill="currentColor"/>
</svg>
