<svg width="20" height="20" viewBox="0 0 20 20" fill="none" xmlns="http://www.w3.org/2000/svg">
<path d="M10 12.0834C11.3807 12.0834 12.5 10.9641 12.5 9.58337C12.5 8.20266 11.3807 7.08337 10 7.08337C8.61929 7.08337 7.5 8.20266 7.5 9.58337C7.5 10.9641 8.61929 12.0834 10 12.0834Z" stroke="currentColor" stroke-width="1.7" stroke-linecap="round" stroke-linejoin="round"/>
<path d="M17.089 13.5416C16.4349 14.65 15.6989 14.9666 14.3088 14.4916C13.4093 14.175 12.3463 14.7291 12.1828 15.6791C11.9375 17.1041 11.2833 17.5 9.97494 17.5C8.6666 17.5 8.01244 17.025 7.76712 15.6791C7.60358 14.7291 6.54055 14.175 5.64107 14.4916C4.25096 14.9666 3.51502 14.65 2.86085 13.5416C2.20668 12.5125 2.452 11.6416 3.51502 10.7708C4.25096 10.1375 4.16919 9.02913 3.43325 8.47496C2.37023 7.44579 2.28845 6.73329 2.94262 5.62496C3.59679 4.59579 4.4145 4.35829 5.72284 4.75413C6.62233 5.07079 7.60358 4.43746 7.76712 3.56663C8.09421 2.14163 8.6666 1.66663 10.0567 1.66663C11.2833 1.66663 11.9375 2.29996 12.1828 3.64579C12.3463 4.51663 13.4093 5.07079 14.3088 4.75413C15.6989 4.19996 16.4349 4.51663 17.089 5.62496C17.7432 6.73329 17.6614 7.44579 16.5166 8.39579C15.7807 9.02913 15.7807 10.1375 16.5166 10.7708C17.6614 11.7208 17.7432 12.4333 17.089 13.5416Z" stroke="currentColor" stroke-width="1.7" stroke-linecap="round" stroke-linejoin="round"/>
</svg>
