<svg width="20" height="21" viewBox="0 0 20 21" fill="none" xmlns="http://www.w3.org/2000/svg">
<path fill-rule="evenodd" clip-rule="evenodd" d="M18.281 12.0372C18.6387 12.2272 18.9146 12.5272 19.1088 12.8272C19.4869 13.4472 19.4563 14.2072 19.0884 14.8772L18.373 16.0772C17.9949 16.7172 17.2897 17.1172 16.5641 17.1172C16.2064 17.1172 15.8079 17.0172 15.4808 16.8172C15.2151 16.6472 14.9085 16.5872 14.5815 16.5872C13.5698 16.5872 12.7216 17.4172 12.6909 18.4072C12.6909 19.5572 11.7507 20.4572 10.5754 20.4572H9.18559C8.00012 20.4572 7.05992 19.5572 7.05992 18.4072C7.03948 17.4172 6.19125 16.5872 5.17951 16.5872C4.84227 16.5872 4.53568 16.6472 4.28019 16.8172C3.95317 17.0172 3.54438 17.1172 3.19692 17.1172C2.46111 17.1172 1.75596 16.7172 1.37783 16.0772L0.672682 14.8772C0.294558 14.2272 0.274119 13.4472 0.652243 12.8272C0.815756 12.5272 1.12234 12.2272 1.46981 12.0372C1.75596 11.8972 1.93991 11.6672 2.11364 11.3972C2.62462 10.5372 2.31803 9.40715 1.44937 8.89715C0.437632 8.32715 0.110605 7.05715 0.693121 6.06715L1.37783 4.88715C1.97057 3.89715 3.23779 3.54715 4.25975 4.12715C5.14886 4.60715 6.30367 4.28715 6.82487 3.43715C6.98838 3.15715 7.08035 2.85715 7.05992 2.55715C7.03948 2.16715 7.15189 1.79715 7.34606 1.49715C7.72419 0.877153 8.4089 0.477153 9.15493 0.457153H10.5959C11.3521 0.457153 12.0368 0.877153 12.415 1.49715C12.5989 1.79715 12.7216 2.16715 12.6909 2.55715C12.6705 2.85715 12.7624 3.15715 12.926 3.43715C13.4471 4.28715 14.602 4.60715 15.5013 4.12715C16.513 3.54715 17.7905 3.89715 18.373 4.88715L19.0577 6.06715C19.6504 7.05715 19.3234 8.32715 18.3014 8.89715C17.4328 9.40715 17.1262 10.5372 17.6474 11.3972C17.8109 11.6672 17.9949 11.8972 18.281 12.0372ZM6.98838 10.4672C6.98838 12.0372 8.28626 13.2872 9.89074 13.2872C11.4952 13.2872 12.7624 12.0372 12.7624 10.4672C12.7624 8.89715 11.4952 7.63715 9.89074 7.63715C8.28626 7.63715 6.98838 8.89715 6.98838 10.4672Z" fill="currentColor"/>
</svg>
