<svg width="14" height="12" viewBox="0 0 14 12" fill="none" xmlns="http://www.w3.org/2000/svg">
<path d="M0.473475 11.5709C1.83707 9.03575 3.37353 7.11518 7.79082 7.30724C7.86764 7.30724 7.98288 7.42247 7.98288 7.4993V9.41986C7.98288 9.5543 8.17493 9.80397 8.36699 9.61192L13.4949 5.27144C13.5717 5.21383 13.5717 5.09859 13.4949 5.04098L8.36699 0.96938C8.27096 0.892558 7.98288 0.96938 7.98288 1.16144V3.082C7.98288 3.15882 7.86764 3.27406 7.79082 3.27406C0.108568 4.04228 0.511886 9.99603 0.223802 11.4365C0.185391 11.5901 0.396652 11.7053 0.473475 11.5709Z" fill="url(#paint0_linear)"/>
<defs>
<linearGradient id="paint0_linear" x1="1.45185" y1="1.39832" x2="10.4457" y2="19.9693" gradientUnits="userSpaceOnUse">
<stop stop-color="#2DC8D8"/>
<stop offset="1" stop-color="#ECF281"/>
</linearGradient>
</defs>
</svg>
