<svg width="144" height="131" fill="none" viewBox="0 0 144 131" fill="none" xmlns="http://www.w3.org/2000/svg">
<g opacity="0.82">
<g opacity="0.65">
<path d="M143.997 4.80701V119.334C143.997 121.643 142.362 123.622 140.099 124.049C124.799 126.927 66.6215 136.168 3.89201 124.047C1.63509 123.611 0 121.636 0 119.331V4.79833C0 1.81113 2.6934 -0.452274 5.62757 0.0771258C23.0299 3.21534 78.4274 11.2987 138.318 0.0979538C141.269 -0.454011 143.999 1.79897 143.999 4.80701H143.997Z" fill="currentColor"/>
</g>
<g opacity="0.84">
<path d="M70.6479 118.437C51.1896 118.437 32.4432 116.837 14.8624 113.676C13.4023 113.414 12.3457 112.133 12.3457 110.647V15.5809C12.3457 13.6855 14.0362 12.2396 15.9034 12.5416C28.0419 14.4978 48.4425 17.0025 73.343 17.0025C92.3441 17.0025 110.727 15.5201 128.07 12.5919C129.943 12.276 131.645 13.7236 131.645 15.626V110.626C131.645 112.124 130.57 113.407 129.096 113.66C118.556 115.469 97.1974 118.441 70.6462 118.441L70.6479 118.437Z" fill="currentColor"/>
<path d="M70.6481 118.913C51.1777 118.913 32.381 117.309 14.7795 114.143C13.0959 113.841 11.873 112.371 11.873 110.647V15.581C11.873 14.5378 12.3269 13.5519 13.1184 12.875C13.91 12.1998 14.9527 11.9065 15.9781 12.0731C28.5825 14.1056 48.7649 16.527 73.3433 16.527C92.2975 16.527 110.684 15.0447 127.991 12.1217C129.018 11.9481 130.066 12.2345 130.861 12.9097C131.659 13.5867 132.117 14.5743 132.117 15.6244V110.625C132.117 112.361 130.88 113.834 129.174 114.126C118.759 115.914 97.3015 118.911 70.6447 118.913H70.6481ZM15.4152 12.9757C14.802 12.9757 14.2062 13.1926 13.7333 13.5971C13.1531 14.0918 12.8205 14.8156 12.8205 15.581V110.647C12.8205 111.911 13.7143 112.989 14.9475 113.209C32.4936 116.365 51.2348 117.964 70.6498 117.964C97.2375 117.964 118.632 114.973 129.018 113.19C130.267 112.977 131.174 111.897 131.174 110.623V15.6244C131.174 14.8555 130.838 14.1299 130.253 13.6353C129.669 13.1406 128.902 12.9305 128.15 13.0573C110.791 15.9889 92.353 17.4747 73.345 17.4747C48.706 17.4747 28.4682 15.0464 15.8309 13.0087C15.6923 12.9861 15.5537 12.9757 15.4169 12.9757H15.4152Z" fill="#E3EEFF"/>
</g>
</g>
<path d="M34.2618 30.4518C34.4679 30.6862 34.5701 30.9708 34.5701 31.3093C34.5701 31.6478 34.4679 31.9376 34.2618 32.1806C34.0557 32.4236 33.7664 32.5364 33.3923 32.5174L30.6435 32.3768L32.1573 34.6523C32.2872 34.8589 32.353 35.0654 32.353 35.2702C32.353 35.5896 32.2179 35.8656 31.946 36.0999C31.6741 36.3342 31.371 36.4505 31.0349 36.4505C30.6054 36.4505 30.2867 36.2544 30.0823 35.8604L28.849 33.4165L27.6158 35.8604C27.3923 36.2735 27.0736 36.4783 26.6631 36.4783C26.3271 36.4783 26.0223 36.362 25.752 36.1277C25.4801 35.8934 25.345 35.6174 25.345 35.298C25.345 35.0741 25.4108 34.8675 25.5407 34.6801L27.0546 32.375L24.3058 32.5156C23.9316 32.5347 23.6424 32.4271 23.4362 32.1928C23.2301 31.9584 23.1279 31.6738 23.1279 31.3353C23.1279 30.9968 23.2301 30.7087 23.4362 30.464C23.6424 30.221 23.9316 30.1082 24.3058 30.1272L27.0546 30.2678L25.5407 27.9923C25.4091 27.8048 25.345 27.5983 25.345 27.3744C25.345 27.0567 25.4801 26.7842 25.752 26.5603C26.0223 26.3364 26.3271 26.2236 26.6631 26.2236C27.0927 26.2236 27.4097 26.4197 27.6158 26.8137L28.849 29.2576L30.0823 26.8137C30.2884 26.4024 30.6158 26.1958 31.0644 26.1958C31.3813 26.1958 31.6758 26.3138 31.9477 26.5464C32.2179 26.7807 32.3548 27.0567 32.3548 27.3761C32.3548 27.6017 32.289 27.8066 32.1591 27.994L30.6452 30.2696L33.394 30.129C33.7682 30.1099 34.0574 30.2175 34.2635 30.4518H34.2618Z" fill="#E3F0FC"/>
<path d="M55.9181 33.1264C56.1242 33.3607 56.2264 33.6454 56.2264 33.9838C56.2264 34.3223 56.1242 34.6122 55.9181 34.8552C55.7119 35.0982 55.4227 35.211 55.0486 35.1919L52.2997 35.0513L53.8136 37.3269C53.9435 37.5334 54.0093 37.74 54.0093 37.9448C54.0093 38.2642 53.8742 38.5402 53.6023 38.7745C53.3303 39.0088 53.0272 39.1251 52.6912 39.1251C52.2616 39.1251 51.9429 38.929 51.7385 38.5349L50.5053 36.091L49.272 38.5349C49.0486 38.9481 48.7299 39.1529 48.3194 39.1529C47.9834 39.1529 47.6785 39.0366 47.4083 38.8023C47.1364 38.5679 47.0013 38.2919 47.0013 37.9726C47.0013 37.7487 47.0671 37.5421 47.197 37.3546L48.7108 35.0496L45.962 35.1902C45.5879 35.2093 45.2986 35.1017 45.0925 34.8673C44.8864 34.633 44.7842 34.3483 44.7842 34.0099C44.7842 33.6714 44.8864 33.3833 45.0925 33.1385C45.2986 32.8955 45.5879 32.7827 45.962 32.8018L48.7108 32.9424L47.197 30.6669C47.0653 30.4794 47.0013 30.2728 47.0013 30.0489C47.0013 29.7313 47.1364 29.4588 47.4083 29.2349C47.6785 29.011 47.9834 28.8981 48.3194 28.8981C48.7489 28.8981 49.0659 29.0943 49.272 29.4883L50.5053 31.9322L51.7385 29.4883C51.9447 29.0769 52.272 28.8704 52.7206 28.8704C53.0376 28.8704 53.3321 28.9884 53.604 29.221C53.8742 29.4553 54.011 29.7313 54.011 30.0507C54.011 30.2763 53.9452 30.4811 53.8153 30.6686L52.3015 32.9441L55.0503 32.8035C55.4244 32.7845 55.7137 32.8921 55.9198 33.1264H55.9181Z" fill="#E3F0FC"/>
<path d="M78.3663 33.1264C78.5724 33.3607 78.6746 33.6454 78.6746 33.9838C78.6746 34.3223 78.5724 34.6122 78.3663 34.8552C78.1602 35.0982 77.8709 35.211 77.4968 35.1919L74.748 35.0513L76.2618 37.3269C76.3917 37.5334 76.4575 37.74 76.4575 37.9448C76.4575 38.2642 76.3224 38.5402 76.0505 38.7745C75.7786 39.0088 75.4754 39.1251 75.1394 39.1251C74.7099 39.1251 74.3912 38.929 74.1868 38.5349L72.9535 36.091L71.7203 38.5349C71.4968 38.9481 71.1781 39.1529 70.7676 39.1529C70.4316 39.1529 70.1267 39.0366 69.8565 38.8023C69.5846 38.5679 69.4495 38.2919 69.4495 37.9726C69.4495 37.7487 69.5153 37.5421 69.6452 37.3546L71.1591 35.0496L68.4102 35.1902C68.0361 35.2093 67.7469 35.1017 67.5407 34.8673C67.3346 34.633 67.2324 34.3483 67.2324 34.0099C67.2324 33.6714 67.3346 33.3833 67.5407 33.1385C67.7469 32.8955 68.0361 32.7827 68.4102 32.8018L71.1591 32.9424L69.6452 30.6669C69.5136 30.4794 69.4495 30.2728 69.4495 30.0489C69.4495 29.7313 69.5846 29.4588 69.8565 29.2349C70.1267 29.011 70.4316 28.8981 70.7676 28.8981C71.1972 28.8981 71.5142 29.0943 71.7203 29.4883L72.9535 31.9322L74.1868 29.4883C74.3929 29.0769 74.7203 28.8704 75.1689 28.8704C75.4858 28.8704 75.7803 28.9884 76.0522 29.221C76.3224 29.4553 76.4593 29.7313 76.4593 30.0507C76.4593 30.2763 76.3935 30.4811 76.2636 30.6686L74.7497 32.9441L77.4985 32.8035C77.8727 32.7845 78.1619 32.8921 78.368 33.1264H78.3663Z" fill="#E3F0FC"/>
<path d="M112.258 30.129L115.007 30.2696L113.493 27.994C113.363 27.8066 113.297 27.6 113.297 27.3761C113.297 27.0585 113.432 26.7825 113.704 26.5464C113.976 26.3121 114.271 26.1958 114.588 26.1958C115.036 26.1958 115.364 26.4024 115.57 26.8137L116.803 29.2576L118.036 26.8137C118.242 26.4197 118.559 26.2236 118.989 26.2236C119.325 26.2236 119.63 26.3364 119.9 26.5603C120.172 26.7842 120.307 27.0567 120.307 27.3744C120.307 27.6 120.241 27.8048 120.111 27.9923L118.598 30.2678L121.346 30.1272C121.721 30.1082 122.01 30.221 122.216 30.464C122.422 30.707 122.524 30.9986 122.524 31.3353C122.524 31.6721 122.422 31.9584 122.216 32.1928C122.01 32.4271 121.721 32.5347 121.346 32.5156L118.598 32.375L120.111 34.6801C120.243 34.8675 120.307 35.0741 120.307 35.298C120.307 35.6174 120.172 35.8934 119.9 36.1277C119.63 36.362 119.325 36.4783 118.989 36.4783C118.579 36.4783 118.26 36.2718 118.036 35.8604L116.803 33.4165L115.57 35.8604C115.364 36.2544 115.047 36.4505 114.617 36.4505C114.281 36.4505 113.976 36.3342 113.706 36.0999C113.436 35.8656 113.299 35.5896 113.299 35.2702C113.299 35.0637 113.365 34.8589 113.495 34.6523L115.009 32.3768L112.26 32.5174C111.886 32.5364 111.596 32.4236 111.39 32.1806C111.184 31.9376 111.082 31.646 111.082 31.3093C111.082 30.9725 111.184 30.6862 111.39 30.4518C111.596 30.2175 111.886 30.1099 112.26 30.129H112.258Z" fill="#E3F0FC"/>
<path d="M90.6038 32.8035L93.3526 32.9441L91.8388 30.6686C91.7089 30.4811 91.6431 30.2746 91.6431 30.0507C91.6431 29.733 91.7782 29.457 92.0501 29.221C92.3221 28.9867 92.6165 28.8704 92.9335 28.8704C93.3821 28.8704 93.7095 29.0769 93.9156 29.4883L95.1488 31.9322L96.3821 29.4883C96.5882 29.0943 96.9052 28.8981 97.3347 28.8981C97.6708 28.8981 97.9756 29.011 98.2458 29.2349C98.5177 29.4588 98.6529 29.7313 98.6529 30.0489C98.6529 30.2746 98.587 30.4794 98.4571 30.6669L96.9433 32.9424L99.6921 32.8018C100.066 32.7827 100.355 32.8955 100.562 33.1385C100.768 33.3815 100.87 33.6731 100.87 34.0099C100.87 34.3466 100.768 34.633 100.562 34.8673C100.355 35.1017 100.066 35.2093 99.6921 35.1902L96.9433 35.0496L98.4571 37.3546C98.5888 37.5421 98.6529 37.7487 98.6529 37.9726C98.6529 38.2919 98.5177 38.5679 98.2458 38.8023C97.9756 39.0366 97.6708 39.1529 97.3347 39.1529C96.9242 39.1529 96.6055 38.9463 96.3821 38.5349L95.1488 36.091L93.9156 38.5349C93.7095 38.929 93.3925 39.1251 92.9629 39.1251C92.6269 39.1251 92.3221 39.0088 92.0518 38.7745C91.7816 38.5402 91.6448 38.2642 91.6448 37.9448C91.6448 37.7382 91.7106 37.5334 91.8405 37.3269L93.3544 35.0513L90.6056 35.1919C90.2314 35.211 89.9422 35.0982 89.736 34.8552C89.5299 34.6122 89.4277 34.3206 89.4277 33.9838C89.4277 33.6471 89.5299 33.3607 89.736 33.1264C89.9422 32.8921 90.2314 32.7845 90.6056 32.8035H90.6038Z" fill="#E3F0FC"/>
<path d="M86.3618 64.7785H82.2983V56.8236C82.2983 54.3346 80.2856 52.3176 77.8018 52.3176H65.9092C63.4254 52.3176 61.4127 54.3346 61.4127 56.8236V64.7785H57.6298C53.7395 64.7785 50.5889 67.941 50.5889 71.8343V94.4197C50.5889 98.3129 53.7395 101.475 57.6298 101.475H86.3618C90.252 101.475 93.4027 98.3129 93.4027 94.4197V71.8343C93.4027 67.941 90.252 64.7785 86.3618 64.7785ZM65.3099 58.2747C65.3099 57.1968 66.1829 56.322 67.2585 56.322H76.0524C77.128 56.322 78.001 57.1968 78.001 58.2747V64.7785H65.3099V58.2747ZM74.7602 85.3053V93.5414C74.7602 94.9925 73.591 96.1641 72.143 96.1641H71.7637C70.3157 96.1641 69.143 94.9925 69.143 93.5414V85.3192C67.7002 84.3941 66.7441 82.7729 66.7441 80.933C66.7441 78.0586 69.072 75.7258 71.9404 75.7258C74.8087 75.7258 77.1366 78.0586 77.1366 80.933C77.1366 82.7625 76.1909 84.375 74.7619 85.3053H74.7602Z" fill="white"/>
</svg>
