<svg width="11" height="11" viewBox="0 0 11 11" fill="none" xmlns="http://www.w3.org/2000/svg">
<path d="M1.32298 1.78111C1.05554 1.51367 1.05554 1.08044 1.32298 0.813004C1.59012 0.54587 2.0235 0.545717 2.29079 0.813004L10.3552 8.87738C10.6223 9.14451 10.6221 9.57789 10.355 9.84503C10.0877 10.1123 9.65449 10.1123 9.38736 9.84518L1.32314 1.78096L1.32298 1.78111Z" fill="#999CAD"/>
<path d="M9.38685 0.813217C9.65429 0.545777 10.0875 0.545777 10.355 0.813217C10.6221 1.08035 10.6223 1.51373 10.355 1.78102L2.29059 9.84539C2.02346 10.1125 1.59007 10.1124 1.32294 9.84524C1.05565 9.57795 1.05565 9.14472 1.32279 8.87759L9.38701 0.81337L9.38685 0.813217Z" fill="#999CAD"/>
</svg>
