<svg width="25" height="24" viewBox="0 0 25 24" fill="none" xmlns="http://www.w3.org/2000/svg">
<path d="M9.75917 10.5498C8.53682 11.6414 7.04798 12.391 5.4431 12.7229C3.83823 13.0548 2.17419 12.9571 0.619141 12.4398C0.709561 15.1196 1.69937 17.691 3.42915 19.7398L11.2092 11.9998L9.75917 10.5498Z" fill="#6AE7AF"/>
<path d="M8.32931 9.12978L3.45929 4.25977C2.01786 5.96916 1.0827 8.04729 0.759277 10.2598C2.93929 11.4798 5.9593 10.9998 8.32931 9.12978Z" fill="#6AE7AF"/>
<path d="M16.9092 14.8701L21.7792 19.7401C23.2206 18.0307 24.1558 15.9526 24.4792 13.7401C22.2992 12.5201 19.2792 13.0001 16.9092 14.8701Z" fill="#6AE7AF"/>
<path d="M15.4894 16.29C13.5894 18.66 13.1394 21.6801 14.3194 23.8601C16.5319 23.5366 18.61 22.6015 20.3194 21.1601L15.4894 16.29Z" fill="#6AE7AF"/>
<path d="M14.0293 11.9998L15.4793 13.4498C16.7017 12.3582 18.1905 11.6086 19.7954 11.2767C21.4002 10.9449 23.0643 11.0425 24.6193 11.5598C24.5289 8.87996 23.5391 6.30856 21.8093 4.25977L14.0293 11.9998Z" fill="#6AE7AF"/>
<path d="M14.0694 14.8602L12.6194 13.4102L4.87939 21.1602C6.92415 22.9008 9.49595 23.9013 12.1794 24.0002C11.6621 22.4451 11.5645 20.7811 11.8963 19.1762C12.2282 17.5714 12.9778 16.0825 14.0694 14.8602Z" fill="#6AE7AF"/>
<path d="M12.619 10.59L20.359 2.84001C18.3142 1.09939 15.7424 0.0988572 13.059 0C13.5706 1.55086 13.6653 3.20902 13.3336 4.80804C13.0018 6.40707 12.2553 7.8907 11.1689 9.11003L12.619 10.59Z" fill="#6AE7AF"/>
<path d="M9.74896 7.70968C11.619 5.33967 12.099 2.31966 10.919 0.139648C8.70647 0.463071 6.62834 1.39823 4.91895 2.83966L9.74896 7.70968Z" fill="#6AE7AF"/>
</svg>
