<svg width="14" height="14" viewBox="0 0 14 14" fill="none" xmlns="http://www.w3.org/2000/svg">
<path d="M10.9381 8.83166C10.7654 8.99899 10.6861 9.24099 10.7254 9.47833L11.3181 12.7583C11.3681 13.0363 11.2508 13.3177 11.0181 13.4783C10.7901 13.645 10.4868 13.665 10.2381 13.5317L7.28542 11.9917C7.18275 11.937 7.06875 11.9077 6.95208 11.9043H6.77142C6.70875 11.9137 6.64742 11.9337 6.59142 11.9643L3.63808 13.5117C3.49208 13.585 3.32675 13.611 3.16475 13.585C2.77008 13.5103 2.50675 13.1343 2.57142 12.7377L3.16475 9.45766C3.20408 9.21833 3.12475 8.97499 2.95208 8.80499L0.544751 6.47166C0.343418 6.27633 0.273418 5.98299 0.365418 5.71833C0.454751 5.45433 0.682751 5.26166 0.958084 5.21833L4.27142 4.73766C4.52342 4.71166 4.74475 4.55833 4.85808 4.33166L6.31808 1.33833C6.35275 1.27166 6.39742 1.21033 6.45142 1.15833L6.51142 1.11166C6.54275 1.07699 6.57875 1.04833 6.61875 1.02499L6.69142 0.998327L6.80475 0.95166H7.08542C7.33608 0.97766 7.55675 1.12766 7.67208 1.35166L9.15142 4.33166C9.25808 4.54966 9.46542 4.70099 9.70475 4.73766L13.0181 5.21833C13.2981 5.25833 13.5321 5.45166 13.6248 5.71833C13.7121 5.98566 13.6368 6.27899 13.4314 6.47166L10.9381 8.83166Z" fill="url(#paint0_linear)"/>
<defs>
<linearGradient id="paint0_linear" x1="1.55833" y1="1.49481" x2="13.2856" y2="21.9328" gradientUnits="userSpaceOnUse">
<stop stop-color="#2DC8D8"/>
<stop offset="1" stop-color="#ECF281"/>
</linearGradient>
</defs>
</svg>
