<svg width="49" height="49" viewBox="0 0 49 49" fill="none" xmlns="http://www.w3.org/2000/svg">
<path d="M48.6587 24.166C48.6587 37.4209 37.9683 48.166 24.7813 48.166C11.5942 48.166 0.903809 37.4211 0.903809 24.166C0.903809 10.9113 11.5942 0.166016 24.7813 0.166016C37.9685 0.166016 48.6587 10.9113 48.6587 24.166Z" fill="white"/>
<path d="M24.5821 8.69873C25.4227 9.18323 26.3143 9.80674 26.993 10.4675L26.7264 10.7354C25.387 10.593 23.9764 10.7708 22.7067 10.7903C22.5651 10.6475 22.2799 10.4327 22.5456 10.2532L24.5821 8.69873ZM48.2644 25.3361C48.2822 25.9407 48.3391 26.4599 48.1032 27.0786C45.6564 27.7745 44.0491 25.1838 41.6749 25.5745L41.9433 26.9174C44.1398 26.9896 45.5117 29.0958 47.7809 29.0053C47.4585 29.6492 47.9247 31.3456 46.4964 30.6675C45.0139 30.3113 43.942 29.0053 42.3174 29.0053C42.1214 29.3652 42.2455 29.8635 42.2111 30.2893C43.925 30.5582 45.1576 32.0067 46.871 32.2741C46.7098 32.863 46.5501 33.5223 46.0675 33.8814C44.6736 33.5422 43.5848 32.2903 42.1008 32.3261L41.8366 33.5592C43.2469 33.5955 44.1581 34.8432 45.4255 35.2177C45.4603 35.7378 44.9954 36.2026 44.7277 36.6668C43.6025 36.3289 42.7444 35.3623 41.4588 35.4336C41.441 34.9493 41.7285 34.3993 41.62 33.8814C40.1762 34.3108 39.208 32.9692 38.1379 32.1645C38.107 29.5309 35.3346 27.8032 35.1882 25.3361C35.1601 24.8442 35.2351 24.3191 35.4592 23.7548C36.3704 21.648 36.0841 18.9126 35.085 16.9483C34.7814 16.4314 34.2434 16.0233 33.7421 15.7194C34.4756 17.2739 35.3694 19.1106 34.9233 21.0212C34.8716 22.4967 34.001 23.9138 33.9911 25.3361C33.9877 25.8432 34.0959 26.3504 34.3876 26.8625C35.5492 28.9546 37.6391 30.9349 36.8533 33.5587C36.6372 34.3646 35.9937 34.9878 35.8332 35.808C37.1921 36.9335 38.4771 38.2017 40.2802 38.2732C40.9227 37.8628 40.5658 36.0432 41.8875 36.8824L43.8173 37.8477C43.6766 38.3643 43.2442 38.8273 42.8524 39.1831C42.1202 38.8267 41.406 38.3995 40.4931 38.4343C40.2238 38.7199 39.9922 39.0405 40.0127 39.4504C40.6552 39.5561 41.2445 39.8273 41.7812 40.2029C41.532 40.7396 41.0464 41.0759 40.6 41.4869L39.103 40.9517C38.853 41.3094 38.3339 41.6852 38.5161 42.0777C38.8538 42.2223 39.2285 42.4178 39.4772 42.6684C38.8164 43.3827 37.9789 43.8421 37.173 44.3269C36.4789 42.0581 34.1917 40.4673 34.3881 37.8436L34.2818 37.7374C33.7442 38.3419 33.9238 39.3084 33.9585 40.0928C34.6019 41.7362 36.1366 43.0056 36.3694 44.8077C36.1007 45.2715 35.4948 45.364 35.0301 45.5603C35.084 42.3111 30.1554 39.8467 33.316 36.5601C34.3701 34.9507 36.1361 33.4149 35.5104 31.1992C34.8679 29.0599 32.5955 27.7343 32.6156 25.3361L32.6191 25.1491C33.1367 22.6481 34.709 19.9869 33.4228 17.3264C33.0643 16.2562 32.2634 15.0402 31.174 14.5929C32.7981 16.4519 33.442 19.4851 32.5129 21.9865C32.0446 22.9815 31.3999 24.1669 31.3352 25.3366H31.3313C31.2968 25.9474 31.4215 26.5549 31.8157 27.1309C33.0489 29.1318 35.1907 31.3297 33.9586 33.9373C32.5658 36.0258 30.1371 38.1503 31.4935 40.9013C32.4756 42.5442 33.9949 44.1836 33.5851 46.2033L31.9778 46.7385C33.0494 42.9714 27.7983 40.7579 29.9965 36.9895C31.3536 34.9716 33.7809 33.0782 32.4069 30.4C31.5854 28.7406 29.8881 27.7584 29.9417 25.6846L30.0002 25.3364C30.5532 22.3953 32.789 19.6113 31.2257 16.4683C30.8149 15.5403 29.9939 14.5941 29.0827 14.0579L29.0276 14.1129C30.8502 15.8809 31.4047 18.7898 30.4221 21.1282C29.9636 22.5001 28.9573 23.8667 28.7528 25.3369C28.6555 26.0301 28.7376 26.7485 29.1381 27.5053C30.2988 29.3432 32.3342 31.2929 31.064 33.6692C29.7265 35.6319 27.4934 37.5416 28.3853 40.0939C29.3678 42.327 31.4193 44.4542 30.3116 47.2231L28.6531 47.5977C29.9742 44.8992 27.9933 42.2217 26.833 39.8814C25.4214 36.5238 29.8658 34.916 29.9371 31.8463C29.9202 29.865 27.8138 28.7399 27.3687 26.9185C26.457 26.1494 25.5121 27.2243 24.4222 27.0248C23.6176 27.1864 22.3818 25.9172 21.9015 27.293C21.3295 29.31 18.7237 30.7929 19.869 33.1852C20.9587 35.3111 23.5812 36.8657 22.7051 39.617C21.9208 42.1868 19.3297 44.6337 20.9367 47.5977C20.2766 47.3838 19.0438 47.7932 19.0616 46.7386C18.0442 43.1492 22.3831 41.0581 21.0429 37.4706C20.4193 35.2732 17.5776 34.0593 18.2032 31.4164C18.6657 29.2408 21.107 27.7199 20.7646 25.3368C20.7368 25.1372 20.6877 24.933 20.6175 24.7201C19.7063 22.1485 17.8473 19.5763 18.9553 16.5749C19.2596 15.7176 19.8672 14.9856 20.4011 14.2194C18.633 15.1656 17.7411 17.1663 17.7777 19.2017C17.7006 21.4152 19.3357 23.3113 19.5683 25.3368C19.6598 26.1542 19.5259 26.9912 18.9553 27.8791C17.7955 29.453 16.2786 31.1125 16.974 33.1848C17.6353 35.2752 20.2424 36.5415 20.0817 38.9712C20.064 41.8452 16.7244 43.6347 17.6709 46.8489L16.0087 46.3097C15.3488 43.4535 18.3842 41.9921 18.419 39.3494C18.8486 36.3103 14.9725 35.1827 15.2051 32.2202C15.1884 29.9693 17.1697 28.5438 18.0448 26.6504C18.1949 26.1897 18.2448 25.7543 18.2248 25.3369C18.1175 23.2435 16.2312 21.6069 16.5443 19.2533C16.6496 17.5211 17.2389 16.0028 18.3644 14.7C16.8116 15.3239 16.1701 17.1114 15.7411 18.6118C14.9967 21.0176 16.7737 23.1816 16.9519 25.3371C17.0309 26.2889 16.7982 27.2352 15.9026 28.2028C14.6161 29.7189 13.3114 31.6318 14.2403 33.6695C15.2239 35.9178 18.314 37.6678 16.9737 40.472C16.2425 42.2403 14.4915 43.5788 14.5634 45.6676C14.0995 45.4711 13.6182 45.2752 13.2239 44.919C13.2239 42.2586 17.0084 40.5969 15.2052 37.7932C15.0455 38.3464 15.0112 39.0981 14.8861 39.7231C14.2603 41.349 12.9215 42.6505 12.4204 44.3313C11.5826 44.0079 10.7066 43.3286 10.0097 42.6143L10.975 42.0236C10.8678 41.6657 10.5825 41.3625 10.333 41.0589C9.70612 40.9708 9.29451 41.3821 8.77774 41.5433C8.3313 41.1496 7.90042 40.7923 7.54451 40.3102C7.86494 39.3975 10.3686 40.1522 9.10026 38.6517C8.24396 38.1163 7.38446 38.8811 6.6346 39.2381L5.61809 37.9542C6.49317 37.4189 7.366 36.6672 8.45443 36.8828C8.72268 37.3658 8.7413 38.0762 9.25806 38.3284C11.0978 38.2926 12.4013 36.9011 13.8116 35.8113C12.8287 34.3487 12.0286 32.3295 12.9017 30.5607C13.6013 28.7883 15.4242 27.2954 15.5069 25.3359C15.5255 24.89 15.456 24.4207 15.261 23.9157C14.2971 21.433 13.9569 18.0777 15.7967 15.8803C14.7964 16.149 14.2066 17.3957 13.8667 18.3424C12.7608 20.7666 14.1595 23.0125 14.2078 25.3358C14.2144 25.7537 14.1806 26.1725 14.0793 26.5944C13.1324 28.5051 11.5983 30.1815 11.3492 32.3802C10.2595 33.0753 9.36482 34.2909 7.81212 33.8807C7.75754 34.2911 7.8826 34.9165 8.02499 35.3813C6.79369 35.3296 5.95409 36.2371 4.91736 36.6657C4.36511 36.4885 4.22144 35.7746 4.0076 35.275C5.22109 34.8652 6.09649 33.6486 7.48977 33.6679C7.65127 33.2192 7.39923 32.8081 7.32811 32.3799C5.59497 31.6106 2.84774 36.1827 2.61673 32.2187C4.34858 32.1115 5.45531 30.5039 7.17047 30.3437L7.22168 29.0597C5.27519 28.8631 4.02301 30.8641 2.07733 30.6668L1.64822 28.9534C3.89892 29.0941 5.23987 27.0771 7.38334 26.9686C7.66812 26.5941 7.70248 26.0404 7.75738 25.523C5.41774 25.2181 3.81223 27.8109 1.32907 27.0235C1.32907 27.0235 1.24351 25.9444 1.19711 25.3359H1.20049C1.18363 25.098 1.16758 24.9322 1.16758 24.9322C3.38184 25.7914 5.32736 24.201 7.22168 23.38C7.70344 23.2358 8.45475 23.4858 8.67083 22.9506C8.65204 22.5397 9.40126 22.0594 8.77758 21.7727C6.00819 21.3969 4.16846 24.7372 1.32875 23.2183L1.11572 22.7889C1.70649 14.718 6.25831 6.91503 13.8116 3.07519C16.8708 1.32696 20.6713 0.435828 24.5041 0.404202C29.1296 0.365834 33.8034 1.57916 37.2803 4.04032C40.6566 6.11139 43.8863 9.52452 45.639 12.9894C47.3153 16.0251 48.0869 19.4315 48.3172 23.058C45.3878 25.2714 43.4225 20.9726 40.4394 21.9347C40.6001 22.3999 40.6891 22.8812 41.0301 23.274C43.6739 23.2554 45.4945 26.0237 48.262 24.9327L48.2644 25.3361ZM14.6143 15.3961C12.7568 14.1813 10.4017 15.3251 8.67051 15.9867C8.50981 14.3608 7.84953 12.8795 6.47278 11.8081C6.33921 11.7417 6.1546 11.6018 5.98828 11.5916C5.88875 11.5853 5.79404 11.6254 5.72051 11.7528C6.34451 15.5916 3.84899 18.2703 2.08054 21.1824C2.66938 21.6637 3.61541 21.5918 4.32964 21.4504C6.20436 20.7007 7.99016 19.3958 10.2224 19.8431C10.8825 18.718 11.9917 17.6283 12.9011 16.7354C13.4567 16.2546 14.22 15.9493 14.6143 15.3961ZM20.2944 17.807C20.2587 18.0382 20.3122 18.4503 20.6686 18.291C21.2231 17.5232 22.2047 18.1306 22.8116 18.1847V17.9687C22.4786 17.4458 21.7936 17.1832 21.098 17.2093C20.9375 17.215 20.7744 17.2384 20.6174 17.2748C20.3846 17.3265 20.2226 17.5396 20.2944 17.807ZM29.0268 15.5064C28.5282 14.3989 27.3852 13.9506 26.348 13.6829C25.8396 13.6203 25.3119 13.5779 24.7886 13.5729C24.6905 13.5719 24.5925 13.5707 24.4949 13.5729C23.031 13.6024 21.6323 13.9782 20.7777 15.1832C20.6551 15.5234 20.1159 16.0012 20.6166 16.306C21.7418 16.2341 23.0257 16.093 23.7757 17.0586C23.7757 17.9167 24.3297 19.0582 23.4015 19.469C22.6324 18.7569 21.7215 19.7721 20.8847 19.2006C20.4912 18.9682 20.2422 19.2395 20.081 19.5787C19.8484 21.7926 21.0076 24.236 23.0789 25.4677C23.9183 25.7705 25.0467 26.0585 25.9227 25.6289C28.0299 24.6477 28.9027 22.399 29.2951 20.3271C29.2424 19.9328 29.2612 19.1645 28.708 19.1459C28.0834 19.541 27.1723 19.3075 26.5103 19.1459C26.1189 19.2722 26.1009 19.8448 25.6554 19.9534L25.384 19.7368C25.1515 18.7561 25.0082 17.3626 25.9198 16.6841C26.9386 16.2733 28.1351 16.0938 29.1887 16.4161C29.3853 16.0771 29.0817 15.8101 29.0268 15.5064ZM27.9517 17.2673C27.8809 17.2691 27.8121 17.2726 27.7424 17.2748C27.3682 17.5245 26.2777 17.345 26.6713 18.1847C27.3504 17.6476 28.2969 18.0241 28.9755 18.291C29.2264 18.1664 29.172 17.9163 29.1885 17.7007C28.9707 17.2954 28.45 17.2573 27.9517 17.2673ZM35.7271 9.71668C34.4053 9.64653 33.2984 10.3969 32.0838 10.7364C31.978 9.70288 32.7631 8.6114 32.9423 7.57386C30.9785 7.7002 29.423 8.88222 27.7984 9.82649C27.4225 8.91802 27.0454 8.0049 26.672 7.09306L28.8149 5.05667L28.8698 4.78842L25.9752 4.62724C25.4766 3.75361 25.2801 2.7013 24.6908 1.89766C24.2085 2.80838 23.8846 3.77223 23.4028 4.68214L20.5116 4.8438V5.05667L22.7059 7.03799C22.4377 8.05643 22.1884 9.163 21.5282 9.93276C20.2425 9.16268 18.9751 8.32452 17.5654 7.78978C17.2262 7.6803 16.7427 7.50226 16.4391 7.73488C16.8849 8.71735 17.5092 9.77415 17.4043 10.8465C16.8146 10.738 16.3511 10.3599 15.7971 10.201C15.1346 10.0203 14.3485 9.66708 13.7057 9.88187C14.7774 11.3811 15.6522 12.9502 15.9548 14.7544C19.5102 13.0385 23.6565 12.0947 27.9604 12.828C29.9779 13.1491 31.833 13.9709 33.6369 14.6478C33.7074 12.7559 34.9039 11.2357 35.7271 9.71668ZM41.8326 20.0044C43.6527 20.4862 45.4786 22.4693 47.406 21.1826C45.7275 18.3971 43.2291 15.8249 43.9239 12.1823C43.9966 11.9337 43.8359 11.682 43.6047 11.6466C42.5158 12.0916 41.6725 13.1645 41.2416 14.2191C41.0644 14.8427 40.9594 15.5057 40.7098 16.0936C39.4053 15.4147 38.0133 14.757 36.424 14.9159C35.8509 14.9874 35.0292 15.0249 34.9235 15.6133C36.7271 16.5772 38.2103 18.1857 39.3155 19.8986C40.0851 19.7731 41.0289 19.8803 41.8326 20.0044ZM22.76 22.5218L22.8114 22.8446C23.5092 23.3095 23.7239 24.0974 24.69 24.0258C25.5468 24.0767 26.1895 23.274 26.6164 22.6316C25.457 22.4715 24.0462 22.7192 22.76 22.5218ZM23.7248 21.0762C23.7597 21.2192 23.6364 21.4335 23.8311 21.5057C24.4026 21.3816 25.4379 21.8098 25.7571 21.1312C25.5342 20.8816 25.1705 20.7682 24.7887 20.7682C24.4071 20.7682 24.0111 20.8795 23.7248 21.0762Z" fill="#007042"/>
<path opacity="0.99" d="M22.7612 20.4561H26.677V22.0648H22.7612V20.4561Z" fill="white"/>
<path d="M23.4846 21.3165C23.9906 21.4363 24.1158 21.6158 24.5157 21.6659C24.9408 21.6583 24.8795 21.572 25.621 21.3161C25.6696 21.2989 25.7366 21.1915 25.6536 21.1091C25.1932 20.6521 24.875 20.9786 24.5863 20.9873C24.2035 20.9915 23.8443 20.6595 23.4703 21.091C23.4066 21.1786 23.3733 21.2647 23.4846 21.3165Z" fill="#007042"/>
<path d="M41.9839 47.7129V45.4216H41.1655V44.9551H43.3572V45.4216H42.5407V47.7129H41.9839Z" fill="#007042"/>
<path d="M43.7109 47.7121V44.9541H44.5443L45.0447 46.8354L45.5394 44.9541H46.3747V47.7121H45.8573V45.5412L45.3099 47.7121H44.7737L44.2282 45.5412V47.7121H43.7109Z" fill="#007042"/>
</svg>
