<svg width="14" height="13" viewBox="0 0 14 13" fill="none" xmlns="http://www.w3.org/2000/svg">
<path d="M10.6512 7.91784C10.4785 8.08517 10.3992 8.32717 10.4385 8.56451L11.0312 11.8445C11.0812 12.1225 10.9638 12.4038 10.7312 12.5645C10.5032 12.7312 10.1998 12.7512 9.95116 12.6178L6.99849 11.0778C6.89582 11.0232 6.78182 10.9938 6.66516 10.9905H6.48449C6.42182 10.9998 6.36049 11.0198 6.30449 11.0505L3.35116 12.5978C3.20516 12.6712 3.03982 12.6972 2.87782 12.6712C2.48316 12.5965 2.21982 12.2205 2.28449 11.8238L2.87782 8.54384C2.91716 8.30451 2.83782 8.06117 2.66516 7.89117L0.257825 5.55784C0.0564914 5.36251 -0.0135086 5.06917 0.0784914 4.80451C0.167825 4.54051 0.395825 4.34784 0.671158 4.30451L3.98449 3.82384C4.23649 3.79784 4.45782 3.64451 4.57116 3.41784L6.03116 0.424508C6.06582 0.357842 6.11049 0.296508 6.16449 0.244508L6.22449 0.197842C6.25582 0.163175 6.29182 0.134508 6.33182 0.111175L6.40449 0.0845085L6.51783 0.0378418H6.79849C7.04916 0.0638418 7.26982 0.213842 7.38516 0.437842L8.86449 3.41784C8.97116 3.63584 9.17849 3.78717 9.41783 3.82384L12.7312 4.30451C13.0112 4.34451 13.2452 4.53784 13.3378 4.80451C13.4252 5.07184 13.3498 5.36517 13.1445 5.55784L10.6512 7.91784Z" fill="white"/>
</svg>
