<svg width="51" height="51" viewBox="0 0 51 51" fill="none" xmlns="http://www.w3.org/2000/svg">
<path fill-rule="evenodd" clip-rule="evenodd" d="M36.2799 14.1977C36.9729 14.6004 37.2062 15.4853 36.8011 16.1741L25.0657 36.1296C24.4998 37.092 23.187 37.2938 22.3551 36.5463L14.4788 29.4693C13.8834 28.9342 13.8369 28.0207 14.3751 27.4287C14.9133 26.8368 15.8323 26.7906 16.4278 27.3257L23.264 33.4682L34.2919 14.7158C34.697 14.027 35.587 13.795 36.2799 14.1977Z" fill="#1CC0A0"/>
<path fill-rule="evenodd" clip-rule="evenodd" d="M25.5 48.0764C37.9686 48.0764 48.0764 37.9686 48.0764 25.5C48.0764 13.0314 37.9686 2.92357 25.5 2.92357C13.0314 2.92357 2.92357 13.0314 2.92357 25.5C2.92357 37.9686 13.0314 48.0764 25.5 48.0764ZM25.5 51C39.5833 51 51 39.5833 51 25.5C51 11.4167 39.5833 0 25.5 0C11.4167 0 0 11.4167 0 25.5C0 39.5833 11.4167 51 25.5 51Z" fill="#1CC0A0"/>
</svg>
