<svg width="20" height="19" viewBox="0 0 20 19" fill="none" xmlns="http://www.w3.org/2000/svg">
<path d="M14.7832 3.52295C15.1629 3.52295 15.4767 3.8051 15.5264 4.17118L15.5332 4.27295V17.8907C15.5332 18.3049 15.1974 18.6407 14.7832 18.6407C14.4035 18.6407 14.0897 18.3586 14.04 17.9925L14.0332 17.8907V4.27295C14.0332 3.85874 14.369 3.52295 14.7832 3.52295Z" fill="#999CAD"/>
<path d="M18.3293 13.2658C18.6215 12.9722 19.0964 12.9712 19.39 13.2634C19.6569 13.529 19.682 13.9456 19.4649 14.2397L19.3924 14.324L15.3147 18.4207C15.0481 18.6884 14.6299 18.7128 14.3358 18.4937L14.2515 18.4207L10.1738 14.324C9.88155 14.0305 9.88265 13.5556 10.1762 13.2634C10.4431 12.9977 10.8598 12.9745 11.1529 13.193L11.2369 13.2658L14.7827 16.8278L18.3293 13.2658Z" fill="#999CAD"/>
<path d="M4.85474 0.80957C5.23443 0.80957 5.54823 1.09172 5.59789 1.4578L5.60474 1.55957V15.1773C5.60474 15.5916 5.26895 15.9273 4.85474 15.9273C4.47504 15.9273 4.16125 15.6452 4.11158 15.2791L4.10474 15.1773V1.55957C4.10474 1.14536 4.44052 0.80957 4.85474 0.80957Z" fill="#999CAD"/>
<path d="M4.32332 1.02998C4.58984 0.762225 5.00809 0.737884 5.3022 0.956955L5.38643 1.02998L9.46421 5.12665C9.75642 5.42021 9.75533 5.89509 9.46176 6.1873C9.19488 6.45295 8.77816 6.4762 8.48505 6.25766L8.4011 6.18485L4.85466 2.62175L1.30865 6.18485C1.043 6.45173 0.626397 6.4769 0.332282 6.25973L0.247996 6.1873C-0.0188847 5.92165 -0.0440535 5.50505 0.173122 5.21093L0.245546 5.12665L4.32332 1.02998Z" fill="#999CAD"/>
</svg>
