<svg width="60" height="61" viewBox="0 0 60 61" fill="none" xmlns="http://www.w3.org/2000/svg">
<rect y="0.987793" width="60" height="60" rx="10" fill="#b49056"/>
<path fill-rule="evenodd" clip-rule="evenodd" d="M30.0419 29.9099L19.5509 19.4189C18.9401 18.8441 18.006 18.8441 17.4311 19.4189C16.8563 19.9938 16.8563 20.9279 17.4311 21.5387L26.8802 30.9878L17.4311 40.4369C16.8563 41.0117 16.8563 41.9818 17.4311 42.5567C18.006 43.1315 18.9401 43.1315 19.5509 42.5567L30.0419 32.0297C30.6168 31.4549 30.6168 30.5207 30.0419 29.9099Z" fill="white"/>
<path fill-rule="evenodd" clip-rule="evenodd" d="M43.5146 29.9099L33.0236 19.4189C32.4128 18.8441 31.4786 18.8441 30.9038 19.4189C30.3289 19.9938 30.3289 20.9279 30.9038 21.5387L40.3529 30.9878L30.9038 40.4369C30.3289 41.0117 30.3289 41.9818 30.9038 42.5567C31.4786 43.1315 32.4128 43.1315 33.0236 42.5567L43.5146 32.0297C44.0894 31.4549 44.0894 30.5207 43.5146 29.9099Z" fill="white"/>
</svg>
