<svg width="24" height="25" viewBox="0 0 24 25" fill="none" xmlns="http://www.w3.org/2000/svg">
<path d="M10.7175 6.75621H13.3624C13.8221 6.75621 14.1953 6.38297 14.1953 5.92333C14.1953 5.46369 13.8227 5.09045 13.3624 5.09045H10.7175C10.2578 5.09045 9.88458 5.46369 9.88458 5.92333C9.88458 6.38297 10.2578 6.75621 10.7175 6.75621Z" fill="white"/>
<path d="M23.6485 10.7725V10.2829C23.6485 9.79564 23.2541 9.40124 22.7668 9.40124H20.6608C20.6273 9.40124 20.5956 9.40712 20.5627 9.41124V6.03565C20.5627 4.41457 19.2443 3.09678 17.6238 3.09678H15.2727V1.75959C15.2727 1.27291 14.8783 0.87793 14.391 0.87793H9.68884C9.20216 0.87793 8.80718 1.27291 8.80718 1.75959V3.09619H6.45608C4.83559 3.09619 3.51721 4.41398 3.51721 6.03506V9.41065C3.48488 9.40653 3.45314 9.40066 3.41905 9.40066H1.31306C0.826381 9.40066 0.431396 9.79505 0.431396 10.2823V10.7719C0.431396 11.2586 0.826381 11.6536 1.31306 11.6536H2.30463C1.16024 12.6222 0.431396 14.0664 0.431396 15.6834V19.6467C0.431396 21.1038 1.02093 21.7057 1.9743 21.9426V23.4085C1.9743 24.2202 2.63261 24.8779 3.44374 24.8779H4.76623C5.57795 24.8779 6.23567 24.2202 6.23567 23.4085V22.0507H17.8442V23.4085C17.8442 24.2202 18.5025 24.8779 19.3136 24.8779H20.6361C21.4479 24.8779 22.1056 24.2202 22.1056 23.4085V21.9426C23.0589 21.7057 23.6485 21.1038 23.6485 19.6467V15.6834C23.6485 14.0664 22.9202 12.6222 21.7758 11.6536H22.7668C23.2541 11.6542 23.6485 11.2592 23.6485 10.7725ZM4.69276 6.03506C4.69276 5.06288 5.4839 4.27174 6.45608 4.27174H17.6238C18.596 4.27174 19.3871 5.06288 19.3871 6.03506V10.4963C19.0544 10.4304 18.7112 10.394 18.3585 10.394H5.72136C5.36929 10.394 5.02544 10.4304 4.69276 10.4963V6.03506ZM4.10499 18.5253C2.92826 18.5253 1.9743 17.5713 1.9743 16.3946C1.9743 15.2179 2.92826 14.2639 4.10499 14.2639C5.28171 14.2639 6.23567 15.2179 6.23567 16.3946C6.23567 17.5713 5.28171 18.5253 4.10499 18.5253ZM15.4684 20.7647H8.61145V18.5253H15.469V20.7647H15.4684ZM22.1056 16.3946C22.1056 17.5713 21.1516 18.5253 19.9749 18.5253C18.7982 18.5253 17.8442 17.5713 17.8442 16.3946C17.8442 15.2179 18.7982 14.2639 19.9749 14.2639C21.1516 14.2639 22.1056 15.2179 22.1056 16.3946Z" fill="white"/>
</svg>
