<svg width="24" height="24" viewBox="0 0 24 24" fill="none" xmlns="http://www.w3.org/2000/svg">
<path d="M10.2967 5.87864H12.9417C13.4014 5.87864 13.7746 5.50541 13.7746 5.04577C13.7746 4.58613 13.402 4.21289 12.9417 4.21289H10.2967C9.8371 4.21289 9.46387 4.58613 9.46387 5.04577C9.46387 5.50541 9.8371 5.87864 10.2967 5.87864Z" fill="#A98074"/>
<path d="M23.2278 9.89459V9.40498C23.2278 8.91771 22.8334 8.52331 22.3462 8.52331H20.2402C20.2067 8.52331 20.1749 8.52919 20.142 8.53331V5.15772C20.142 3.53664 18.8236 2.21885 17.2031 2.21885H14.852V0.881661C14.852 0.394984 14.4576 0 13.9704 0H9.26819C8.78151 0 8.38653 0.394984 8.38653 0.881661V2.21826H6.03543C4.41493 2.21826 3.09656 3.53605 3.09656 5.15713V8.53272C3.06423 8.5286 3.03249 8.52273 2.9984 8.52273H0.892404C0.405726 8.52273 0.0107422 8.91712 0.0107422 9.40439V9.894C0.0107422 10.3807 0.405726 10.7757 0.892404 10.7757H1.88398C0.739582 11.7443 0.0107422 13.1885 0.0107422 14.8054V18.7688C0.0107422 20.2259 0.60028 20.8278 1.55365 21.0647V22.5306C1.55365 23.3423 2.21196 24 3.02309 24H4.34558C5.15729 24 5.81501 23.3423 5.81501 22.5306V21.1728H17.4236V22.5306C17.4236 23.3423 18.0819 24 18.893 24H20.2155C21.0272 24 21.6849 23.3423 21.6849 22.5306V21.0647C22.6383 20.8278 23.2278 20.2259 23.2278 18.7688V14.8054C23.2278 13.1885 22.4996 11.7443 21.3552 10.7757H22.3462C22.8334 10.7763 23.2278 10.3813 23.2278 9.89459ZM4.27211 5.15713C4.27211 4.18495 5.06325 3.39381 6.03543 3.39381H17.2031C18.1753 3.39381 18.9665 4.18495 18.9665 5.15713V9.61834C18.6338 9.55251 18.2905 9.51607 17.9379 9.51607H5.30071C4.94863 9.51607 4.60479 9.55251 4.27211 9.61834V5.15713ZM3.68433 17.6473C2.50761 17.6473 1.55365 16.6934 1.55365 15.5167C1.55365 14.3399 2.50761 13.386 3.68433 13.386C4.86106 13.386 5.81501 14.3399 5.81501 15.5167C5.81501 16.6934 4.86106 17.6473 3.68433 17.6473ZM15.0478 19.8868H8.1908V17.6473H15.0484V19.8868H15.0478ZM21.6849 15.5167C21.6849 16.6934 20.731 17.6473 19.5542 17.6473C18.3775 17.6473 17.4236 16.6934 17.4236 15.5167C17.4236 14.3399 18.3775 13.386 19.5542 13.386C20.731 13.386 21.6849 14.3399 21.6849 15.5167Z" fill="#A98074"/>
</svg>
