<svg width="57" height="57" viewBox="0 0 57 57" fill="none" xmlns="http://www.w3.org/2000/svg">
<path d="M2.04541 35.6063C1.61274 35.6063 1.24188 35.2973 1.11826 34.8646C0.623784 32.8249 0.438354 30.7233 0.438354 28.6836C0.438354 22.688 2.29265 17.0015 5.81582 12.1803C6.12487 11.7477 6.68116 11.6859 7.11383 11.9949C7.5465 12.304 7.60831 12.8603 7.29926 13.2929C4.02333 17.8051 2.29265 23.1207 2.29265 28.7454C2.29265 30.7233 2.53989 32.6395 2.97256 34.5556C3.09618 35.05 2.78713 35.5445 2.29265 35.6681C2.16903 35.6063 2.10722 35.6063 2.04541 35.6063Z" fill="#999CAD"/>
<path d="M8.96814 10.8206C8.7209 10.8206 8.53547 10.7588 8.35004 10.5734C7.97918 10.2025 7.97918 9.64625 8.35004 9.27539C9.339 8.28643 10.3898 7.29747 11.5024 6.49394C11.935 6.18489 12.4913 6.2467 12.8004 6.67937C13.1094 7.11204 13.0476 7.66833 12.6149 7.97738C11.5642 8.78091 10.5752 9.64625 9.70986 10.5734C9.40081 10.7588 9.21538 10.8206 8.96814 10.8206Z" fill="#999CAD"/>
<path d="M55.6346 29.6107C55.1401 29.6107 54.7074 29.178 54.7074 28.6835C54.7074 14.22 42.9635 2.47608 28.5 2.47608C24.2351 2.47608 19.9702 3.52685 16.2616 5.56658C15.8289 5.81382 15.2727 5.62839 15.0254 5.19572C14.7782 4.76305 14.9636 4.20676 15.3963 3.95952C19.4139 1.85798 23.9261 0.683594 28.5 0.683594C43.9525 0.683594 56.5617 13.2928 56.5617 28.7453C56.5617 29.178 56.1291 29.6107 55.6346 29.6107Z" fill="#999CAD"/>
<path d="M48.6503 47.7207C48.5885 47.7207 48.5267 47.7207 48.4649 47.7207C47.9704 47.6589 47.5995 47.1645 47.7232 46.67C49.6393 35.9768 49.2684 28.3742 49.2066 27.5089C48.8975 21.6987 46.1161 16.3213 41.604 12.6127C41.2331 12.3036 41.1713 11.6855 41.4803 11.3147C41.7894 10.9438 42.4075 10.882 42.7784 11.191C47.6613 15.2087 50.69 21.0806 51.0609 27.3853C51.1227 28.2506 51.4936 36.1005 49.5156 46.979C49.4538 47.4117 49.083 47.7207 48.6503 47.7207Z" fill="#999CAD"/>
<path d="M5.32123 43.5793C5.25942 43.5793 5.19761 43.5793 5.07399 43.5793C4.57951 43.4557 4.27046 42.9612 4.39408 42.4667C6.18657 35.4204 5.93933 30.1047 5.93933 30.0429C5.19761 17.6191 14.7782 6.86417 27.202 6.18426C30.5397 5.99883 33.8156 6.49331 36.9061 7.72951C37.4006 7.91494 37.586 8.47123 37.4006 8.9039C37.2152 9.39838 36.6589 9.58381 36.2262 9.39838C33.383 8.2858 30.4161 7.79132 27.3256 7.97675C15.8907 8.65666 7.11372 18.4844 7.79363 29.9193C7.79363 29.9811 8.04087 35.544 6.18657 42.8994C6.06295 43.3321 5.69209 43.5793 5.32123 43.5793Z" fill="#999CAD"/>
<path d="M41.9747 53.1604C41.9129 53.1604 41.8511 53.1604 41.7274 53.1604C41.233 53.0368 40.9239 52.5423 41.0475 52.0478C41.9747 48.4628 42.6546 44.7542 43.1491 41.0456C43.2109 40.5511 43.6435 40.1803 44.1998 40.2421C44.6943 40.3039 45.0652 40.7984 45.0034 41.2929C44.5089 45.0015 43.7672 48.7719 42.84 52.4187C42.7782 52.8513 42.3455 53.1604 41.9747 53.1604Z" fill="#999CAD"/>
<path d="M44.6944 34.9265C44.1381 34.9265 43.7672 34.4938 43.7672 33.9375C43.9526 30.3525 43.829 28.0656 43.829 27.8183C43.3345 19.3503 36.041 12.9221 27.6348 13.3548C26.0277 13.4784 24.4207 13.7874 22.9372 14.4055C22.4428 14.591 21.9483 14.3437 21.7629 13.9111C21.5774 13.4166 21.8247 12.9221 22.2573 12.7367C23.9262 12.0568 25.7187 11.6859 27.573 11.5623C36.9681 11.006 45.127 18.2378 45.6833 27.6947C45.6833 28.1274 45.8069 30.4143 45.6215 34.0611C45.6215 34.5556 45.1888 34.9265 44.6944 34.9265Z" fill="#999CAD"/>
<path d="M9.33915 48.8335C9.21553 48.8335 9.15372 48.8335 9.0301 48.7716C8.53562 48.5862 8.28838 48.0917 8.412 47.5973C11.6261 37.7695 11.2553 29.7342 11.2553 29.6724C10.9462 24.6657 12.8623 19.7209 16.5091 16.2596C16.88 15.8887 17.4363 15.8887 17.8071 16.2596C18.178 16.6305 18.178 17.1867 17.8071 17.5576C14.5312 20.6481 12.8623 25.0366 13.1096 29.5487C13.1096 29.6105 13.5422 37.9549 10.1427 48.1535C10.1427 48.5862 9.77182 48.8335 9.33915 48.8335Z" fill="#999CAD"/>
<path d="M35.6084 55.7571C35.5466 55.7571 35.423 55.7571 35.2994 55.6953C34.8049 55.5717 34.5577 55.0154 34.6813 54.5209C37.4627 45.6203 38.8226 35.9779 38.3899 28.0663C38.2663 26.3356 37.7718 24.6667 36.7828 23.2451C36.4738 22.8124 36.5974 22.2561 37.0301 21.9471C37.4627 21.638 38.019 21.7616 38.3281 22.1943C39.4407 23.925 40.0588 25.9029 40.1824 27.9426C40.6769 36.0397 39.2552 45.9293 36.412 55.0772C36.3502 55.5099 35.9793 55.7571 35.6084 55.7571Z" fill="#999CAD"/>
<path d="M13.8511 52.4185C13.7275 52.4185 13.6657 52.4185 13.542 52.3567C13.0476 52.1713 12.8003 51.6768 12.9858 51.1823C17.1888 39.6857 16.7562 29.7342 16.7562 29.3016C16.4471 22.8115 21.4537 17.3104 27.882 16.9396C29.6745 16.816 31.4669 17.125 33.1358 17.8667C33.6303 18.0522 33.8157 18.6084 33.6303 19.1029C33.4449 19.5974 32.8886 19.7828 32.3941 19.5974C30.9725 18.9793 29.489 18.7321 28.0056 18.8557C22.5663 19.1647 18.3632 23.8005 18.6105 29.2398C18.6723 30.3523 18.9813 40.1801 14.7782 51.8622C14.5928 52.1713 14.222 52.4185 13.8511 52.4185Z" fill="#999CAD"/>
<path d="M29.4272 56.6838C29.3036 56.6838 29.2418 56.6838 29.1181 56.622C28.6237 56.4366 28.3764 55.9421 28.5619 55.4476C33.6303 40.7368 33.0122 28.5603 33.0122 28.4366C32.8885 25.9642 30.787 24.1099 28.2528 24.2336C25.7804 24.3572 23.8643 26.5205 24.0497 28.9929C24.0497 29.2402 24.1115 30.6618 24.0497 32.887C24.0497 33.3814 23.617 33.8141 23.0608 33.7523C22.5663 33.7523 22.1336 33.3196 22.1954 32.7633C22.2572 30.6 22.1954 29.302 22.1954 29.0547C22.01 25.5934 24.6678 22.5647 28.191 22.3793C31.7142 22.1938 34.681 24.8517 34.8665 28.3748C34.8665 28.4984 35.5464 40.9841 30.3543 56.1275C30.1689 56.4366 29.798 56.6838 29.4272 56.6838Z" fill="#999CAD"/>
<path d="M18.7959 54.8908C18.6723 54.8908 18.5487 54.8908 18.4869 54.829C17.9924 54.6436 17.7452 54.0873 17.9306 53.6546C19.7231 48.8952 20.9593 43.8268 21.6392 38.573C21.701 38.0785 22.1955 37.7076 22.69 37.7694C23.1844 37.8312 23.5553 38.3257 23.4935 38.8202C22.8136 44.1977 21.5156 49.3897 19.6613 54.3345C19.4758 54.7054 19.1668 54.8908 18.7959 54.8908Z" fill="#999CAD"/>
<path d="M23.9263 56.3123C23.8027 56.3123 23.7409 56.3123 23.6172 56.2505C23.1228 56.0651 22.8755 55.5706 23.061 55.0761C23.4936 53.9635 23.8645 52.7273 24.2353 51.5529C24.359 51.0584 24.9153 50.8112 25.4097 50.9348C25.9042 51.0584 26.1515 51.6147 26.0278 52.1092C25.657 53.3454 25.2243 54.5198 24.7916 55.6942C24.668 56.0651 24.2972 56.3123 23.9263 56.3123Z" fill="#999CAD"/>
<path d="M26.646 47.1034C26.5842 47.1034 26.5224 47.1034 26.4606 47.1034C25.9661 46.9797 25.6571 46.4853 25.7807 45.9908C28.0058 36.163 27.635 28.8694 27.635 28.7458C27.635 28.2513 28.0058 27.8186 28.5003 27.7568C28.9948 27.7568 29.4275 28.1277 29.4893 28.6222C29.4893 28.9312 29.9219 36.2866 27.635 46.3616C27.4495 46.7943 27.0787 47.1034 26.646 47.1034Z" fill="#999CAD"/>
</svg>
