<svg width="699" height="772" fill="white" viewBox="0 0 699 772" fill="none" xmlns="http://www.w3.org/2000/svg">
<path d="M507.644 3.66091C477.722 13.2361 456.477 43.1586 456.477 75.4749C456.477 91.0346 460.366 106.594 466.351 114.374C480.115 132.328 486.698 138.312 498.966 144.297C539.063 164.644 591.726 141.304 604.593 97.6175C610.577 78.1679 610.577 72.7818 604.892 54.2299C592.923 14.1338 547.74 -9.50498 507.644 3.66091Z" fill="currentColor"/>
<path d="M439.122 198.755C398.128 220.897 329.905 278.947 307.463 311.263C304.77 314.854 294.297 328.319 284.124 341.186C273.651 354.351 265.273 366.021 265.273 367.517C265.273 369.013 268.564 372.305 272.454 374.699L279.635 379.486L272.753 395.046C268.863 403.724 254.8 435.441 241.634 465.962C228.169 496.184 216.798 521.618 215.901 522.217C214.704 523.413 210.215 521.319 161.142 498.279C142.291 489.601 126.133 483.916 119.55 483.916C103.093 483.916 90.5253 493.491 81.2493 513.24C57.0121 564.108 2.254 683.798 0.458656 689.782C-0.738243 694.271 0.458656 702.051 3.4509 710.13C7.64005 721.201 11.2307 724.792 23.1997 730.776C30.9796 734.965 38.7594 738.257 40.2556 738.257C41.7517 738.257 42.9486 732.871 43.2478 725.989C43.8462 711.626 51.9253 692.476 62.3982 679.908C83.6431 654.773 126.732 648.19 157.252 664.947C165.93 669.734 175.505 676.617 177.899 680.207C182.687 686.192 183.285 685.294 197.349 654.773C215.901 614.378 223.98 597.322 241.335 560.218C248.815 543.761 259.288 521.618 264.076 510.846C304.471 422.275 312.251 407.613 319.432 408.212C324.818 408.81 328.409 406.117 334.094 398.038C338.283 392.054 345.764 381.88 350.552 375.896C355.638 369.911 363.718 359.737 368.505 353.454C388.852 327.72 404.711 312.759 424.46 301.389L445.406 289.42L443.311 299.294C442.114 304.381 436.13 330.413 429.846 356.745C416.68 410.905 413.09 440.528 417.279 459.08C419.074 466.86 431.342 488.703 448.398 514.437C511.235 609.291 506.448 600.613 537.567 676.916C542.355 688.286 552.828 714.02 560.907 733.769L575.868 769.676L612.074 770.573C634.217 771.172 648.28 770.274 648.28 768.479C648.28 766.982 639.304 742.745 628.531 715.217C576.466 582.66 574.97 578.471 546.245 470.451L540.859 449.505L552.828 394.148C559.411 363.627 568.986 320.24 573.773 297.499C584.246 250.221 583.648 239.15 569.883 222.393C557.914 207.731 544.15 201.448 512.133 195.463C472.635 188.282 457.674 189.179 439.122 198.755Z" fill="currentColor"/>
<path d="M605.192 334.904C588.435 388.166 584.844 404.025 588.734 406.418C596.215 411.505 664.139 445.318 664.737 444.42C665.336 443.821 672.816 428.561 682.092 410.608L698.55 377.693L652.469 354.353C621.35 338.794 605.79 332.51 605.192 334.904Z" fill="currentColor"/>
<path d="M388.253 652.08C369.402 702.051 351.748 749.029 348.756 757.108L343.07 771.172H381.371H419.373L445.704 701.452C460.067 663.451 471.737 630.835 471.737 629.639C471.737 626.646 427.152 563.51 424.16 562.313C422.963 562.014 406.805 602.409 388.253 652.08Z" fill="currentColor"/>
<path d="M93.5182 708.335C84.5414 718.209 82.7461 722.698 82.7461 733.17C82.7461 757.408 109.976 776.558 132.118 768.18C152.765 760.4 161.442 742.147 154.859 720.902C150.371 705.941 136.008 696.366 118.055 696.366C105.786 696.366 103.093 697.563 93.5182 708.335Z" fill="currentColor"/>
</svg>
