<svg width="21" height="19" viewBox="0 0 21 19" fill="none" xmlns="http://www.w3.org/2000/svg">
<path fill-rule="evenodd" clip-rule="evenodd" d="M6.42484 0.734962C6.59103 0.854923 6.85903 1.13048 6.85903 1.13048C7.89945 2.10561 9.46652 4.53097 9.96976 5.76147C9.98029 5.76147 10.2787 6.49311 10.2904 6.84112V6.88744C10.2904 7.42074 9.99199 7.91959 9.51216 8.17495C9.31435 8.28023 8.83322 8.37814 8.6011 8.42538C8.52422 8.44103 8.47465 8.45111 8.47174 8.45407C7.78593 8.55859 6.73381 8.62748 5.57869 8.62748C4.36623 8.62748 3.26847 8.55859 2.59319 8.43031C2.58149 8.43031 1.96472 8.30323 1.75875 8.22127C1.46148 8.09418 1.20986 7.86139 1.04953 7.57158C0.934838 7.33997 0.878662 7.0953 0.878662 6.84112C0.889195 6.57388 1.06123 6.07503 1.14082 5.87787C1.64406 4.57729 3.2907 2.09373 4.29719 1.14236C4.40174 1.03625 4.52072 0.925092 4.60351 0.847745C4.64769 0.806477 4.68156 0.774833 4.69744 0.758717C4.94906 0.561552 5.25802 0.457031 5.5904 0.457031C5.88649 0.457031 6.18375 0.549675 6.42484 0.734962ZM17.1073 7.61881C17.1073 8.14262 16.6895 8.56665 16.1734 8.56665C15.6573 8.56665 15.2394 8.14262 15.2394 7.61881L14.982 3.03999C14.982 2.37246 15.5156 1.83203 16.1734 1.83203C16.8311 1.83203 17.3636 2.37246 17.3636 3.03999L17.1073 7.61881ZM19.9986 10.6926C20.2958 10.8209 20.5475 11.0525 20.7078 11.3423C20.8225 11.5739 20.8787 11.8186 20.8787 12.074C20.8681 12.3401 20.6961 12.8401 20.6153 13.0373C20.1133 14.3367 18.4654 16.8203 17.4601 17.7729C17.3573 17.8765 17.2405 17.9854 17.158 18.0625L17.1579 18.0626C17.1117 18.1056 17.0763 18.1387 17.0599 18.1553C16.8071 18.3525 16.4993 18.457 16.1681 18.457C15.8697 18.457 15.5724 18.3644 15.3325 18.1779C15.1663 18.0591 14.8983 17.7836 14.8983 17.7836C13.8567 16.8096 12.2908 14.383 11.7876 13.1525C11.7759 13.1525 11.4786 12.422 11.4669 12.074V12.0277C11.4669 11.4932 11.7642 10.9943 12.2452 10.7389C12.4426 10.6348 12.9222 10.5366 13.1548 10.489L13.1549 10.489C13.2325 10.4731 13.2827 10.4628 13.2856 10.4598C13.9714 10.3553 15.0235 10.2864 16.1786 10.2864C17.3911 10.2864 18.4889 10.3553 19.1641 10.4836C19.1747 10.4836 19.7926 10.6107 19.9986 10.6926ZM5.58419 10.3476C5.06808 10.3476 4.65027 10.7716 4.65027 11.2954L4.3928 15.8741C4.3928 16.5416 4.92647 17.082 5.58419 17.082C6.24192 17.082 6.77442 16.5416 6.77442 15.8741L6.51811 11.2954C6.51811 10.7716 6.10031 10.3476 5.58419 10.3476Z" fill="currentColor"/>
</svg>
