<svg width="25" height="22" viewBox="0 0 25 22" fill="none" xmlns="http://www.w3.org/2000/svg">
<path d="M16.385 3.65293C16.385 2.01082 15.0461 0.671875 13.404 0.671875H10.6756C9.03347 0.671875 7.69452 2.01082 7.69452 3.65293V4.96661H5.14294V21.0845H18.9114V4.96661H16.385V3.65293ZM9.84189 3.65293C9.84189 3.19819 10.2208 2.81924 10.6756 2.81924H13.404C13.8587 2.81924 14.2377 3.19819 14.2377 3.65293V4.96661H9.84189V3.65293ZM9.43768 9.38766C10.5745 9.23608 11.5598 9.76661 11.6608 10.575C11.7619 11.3835 10.9282 12.1413 9.81663 12.2929C8.67979 12.4445 7.69452 11.914 7.59347 11.1056C7.46715 10.2971 8.30084 9.53924 9.43768 9.38766ZM11.9135 15.9561L9.33663 18.1792C9.21031 18.3056 8.98294 18.2803 8.88189 18.154L7.74505 16.8403C7.61873 16.714 7.644 16.4866 7.77031 16.3856L10.3724 14.1624C10.4987 14.0361 10.7261 14.0613 10.8272 14.1877L11.9387 15.4761C12.065 15.6277 12.0398 15.8298 11.9135 15.9561ZM16.5366 12.1161L15.9808 14.5666C15.9303 14.7435 15.7535 14.8445 15.5766 14.8192L13.4293 14.314C13.2524 14.2635 13.1514 14.0866 13.1766 13.9098L13.7324 11.4592C13.7829 11.2824 13.9598 11.1813 14.1366 11.2066L16.284 11.7119C16.4861 11.7624 16.5872 11.9392 16.5366 12.1161Z" fill="white"/>
<path d="M0.0397949 7.36655V18.6592C0.0397949 19.9981 1.12611 21.0592 2.46506 21.0592H3.65243V4.96655H2.46506C1.12611 4.96655 0.0397949 6.05287 0.0397949 7.36655Z" fill="white"/>
<path d="M21.6145 4.96655H20.4272V21.0844H21.6145C22.9535 21.0844 24.0398 19.9981 24.0398 18.6844V7.36655C24.0398 6.05287 22.9535 4.96655 21.6145 4.96655Z" fill="white"/>
</svg>
