<svg width="25" height="22" viewBox="0 0 25 22" fill="none" xmlns="http://www.w3.org/2000/svg">
<path d="M16.9643 3.775C16.9643 2.13289 15.6253 0.793945 13.9832 0.793945H11.2548C9.61269 0.793945 8.27375 2.13289 8.27375 3.775V5.08868H5.72217V21.2066H19.4906V5.08868H16.9643V3.775ZM10.4211 3.775C10.4211 3.32026 10.8001 2.94131 11.2548 2.94131H13.9832C14.438 2.94131 14.8169 3.32026 14.8169 3.775V5.08868H10.4211V3.775ZM10.0169 9.50974C11.1537 9.35816 12.139 9.88868 12.2401 10.6971C12.3411 11.5055 11.5074 12.2634 10.3959 12.415C9.25901 12.5666 8.27375 12.0361 8.17269 11.2276C8.04638 10.4192 8.88006 9.66131 10.0169 9.50974ZM12.4927 16.0782L9.91585 18.3013C9.78954 18.4276 9.56217 18.4024 9.46112 18.2761L8.32427 16.9624C8.19796 16.8361 8.22322 16.6087 8.34954 16.5076L10.9516 14.2845C11.078 14.1582 11.3053 14.1834 11.4064 14.3097L12.518 15.5982C12.6443 15.7497 12.619 15.9518 12.4927 16.0782ZM17.1159 12.2382L16.5601 14.6887C16.5095 14.8655 16.3327 14.9666 16.1559 14.9413L14.0085 14.4361C13.8316 14.3855 13.7306 14.2087 13.7559 14.0318L14.3116 11.5813C14.3622 11.4045 14.539 11.3034 14.7159 11.3287L16.8632 11.8339C17.0653 11.8845 17.1664 12.0613 17.1159 12.2382Z" fill="#34CA84"/>
<path d="M0.619141 7.48887V18.7815C0.619141 20.1204 1.70546 21.1815 3.0444 21.1815H4.23177V5.08887H3.0444C1.70546 5.08887 0.619141 6.17518 0.619141 7.48887Z" fill="#34CA84"/>
<path d="M22.1937 5.08887H21.0063V21.2068H22.1937C23.5327 21.2068 24.619 20.1204 24.619 18.8068V7.48887C24.619 6.17518 23.5327 5.08887 22.1937 5.08887Z" fill="#34CA84"/>
</svg>
