<svg width="49" height="42" viewBox="0 0 49 42" fill="none" xmlns="http://www.w3.org/2000/svg">
<path d="M48.5 5.07652C46.715 5.91452 44.813 6.46997 42.83 6.73967C44.87 5.43612 46.427 3.3877 47.159 0.918665C45.257 2.13231 43.157 2.98957 40.919 3.46796C39.113 1.4099 36.539 0.135254 33.731 0.135254C28.283 0.135254 23.897 4.86783 23.897 10.6696C23.897 11.5044 23.963 12.307 24.125 13.0712C15.944 12.6441 8.705 8.44776 3.842 2.05525C2.993 3.63171 2.495 5.43612 2.495 7.3786C2.495 11.026 4.25 14.2591 6.866 16.131C5.285 16.0989 3.734 15.6076 2.42 14.8338C2.42 14.866 2.42 14.9077 2.42 14.9494C2.42 20.0673 5.831 24.3183 10.304 25.2975C9.503 25.5319 8.63 25.6443 7.724 25.6443C7.094 25.6443 6.458 25.6058 5.861 25.4645C7.136 29.6352 10.754 32.7014 15.056 32.8009C11.708 35.6039 7.457 37.2927 2.855 37.2927C2.048 37.2927 1.274 37.2542 0.5 37.1482C4.859 40.1567 10.025 41.8744 15.596 41.8744C33.704 41.8744 43.604 25.8209 43.604 11.9057C43.604 11.4401 43.589 10.9906 43.568 10.5444C45.521 9.06101 47.162 7.20843 48.5 5.07652Z" fill="white"/>
</svg>
