<svg width="14" height="12" viewBox="0 0 14 12" fill="none" xmlns="http://www.w3.org/2000/svg">
<path fill-rule="evenodd" clip-rule="evenodd" d="M4.61149 6.28499C4.61149 7.70722 5.77572 8.86439 7.21311 8.86439C8.64401 8.86439 9.80824 7.70722 9.80824 6.28499C9.80824 4.85631 8.64401 3.69913 7.21311 3.69913C5.77572 3.69913 4.61149 4.85631 4.61149 6.28499ZM11.0375 2.3157C12.1757 3.19489 13.1448 4.48136 13.8408 6.09105C13.8928 6.21388 13.8928 6.3561 13.8408 6.47247C12.4489 9.69186 9.97084 11.6183 7.21311 11.6183H7.20661C4.45539 11.6183 1.97734 9.69186 0.585472 6.47247C0.53344 6.3561 0.53344 6.21388 0.585472 6.09105C1.97734 2.87166 4.45539 0.95166 7.20661 0.95166H7.21311C8.59198 0.95166 9.89929 1.43004 11.0375 2.3157ZM7.21389 7.89327C8.10495 7.89327 8.83341 7.16923 8.83341 6.28357C8.83341 5.39145 8.10495 4.66741 7.21389 4.66741C7.13585 4.66741 7.0578 4.67387 6.98625 4.6868C6.96024 5.39791 6.37487 5.9668 5.65292 5.9668H5.6204C5.60089 6.07024 5.58788 6.17367 5.58788 6.28357C5.58788 7.16923 6.31633 7.89327 7.21389 7.89327Z" fill="currentColor"/>
</svg>
