<svg width="14" height="12" viewBox="0 0 14 12" fill="none" xmlns="http://www.w3.org/2000/svg">
<path fill-rule="evenodd" clip-rule="evenodd" d="M4.1767 6.28499C4.1767 7.70722 5.34093 8.86439 6.77833 8.86439C8.20922 8.86439 9.37345 7.70722 9.37345 6.28499C9.37345 4.85631 8.20922 3.69913 6.77833 3.69913C5.34093 3.69913 4.1767 4.85631 4.1767 6.28499ZM10.6027 2.3157C11.7409 3.19489 12.71 4.48136 13.406 6.09105C13.458 6.21388 13.458 6.3561 13.406 6.47247C12.0141 9.69186 9.53605 11.6183 6.77833 11.6183H6.77183C4.02061 11.6183 1.54256 9.69186 0.150688 6.47247C0.0986557 6.3561 0.0986557 6.21388 0.150688 6.09105C1.54256 2.87166 4.02061 0.95166 6.77183 0.95166H6.77833C8.15719 0.95166 9.46451 1.43004 10.6027 2.3157ZM6.77911 7.89327C7.67017 7.89327 8.39862 7.16923 8.39862 6.28357C8.39862 5.39145 7.67017 4.66741 6.77911 4.66741C6.70106 4.66741 6.62301 4.67387 6.55147 4.6868C6.52545 5.39791 5.94009 5.9668 5.21813 5.9668H5.18561C5.1661 6.07024 5.15309 6.17367 5.15309 6.28357C5.15309 7.16923 5.88155 7.89327 6.77911 7.89327Z" fill="url(#paint0_linear)"/>
<defs>
<linearGradient id="paint0_linear" x1="1.34433" y1="1.40902" x2="10.306" y2="19.9545" gradientUnits="userSpaceOnUse">
<stop stop-color="#2DC8D8"/>
<stop offset="1" stop-color="#ECF281"/>
</linearGradient>
</defs>
</svg>
