<svg width="20" height="19" viewBox="0 0 20 19" fill="none" xmlns="http://www.w3.org/2000/svg">
<path fill-rule="evenodd" clip-rule="evenodd" d="M17.761 9.20558C17.761 10.0191 18.429 10.681 19.25 10.681C19.664 10.681 20 11.0139 20 11.4241V14.1004C20 16.3636 18.142 18.2046 15.858 18.2046H4.143C1.859 18.2046 0 16.3636 0 14.1004V11.4241C0 11.0139 0.336 10.681 0.75 10.681C1.572 10.681 2.24 10.0191 2.24 9.20558C2.24 8.41289 1.599 7.81639 0.75 7.81639C0.551 7.81639 0.361 7.73811 0.22 7.5984C0.079 7.45869 0 7.26944 0 7.07325L0.002 4.30973C0.002 2.0466 1.86 0.20459 4.144 0.20459H15.856C18.14 0.20459 19.999 2.0466 19.999 4.30973L20 6.98704C20 7.18323 19.921 7.37348 19.781 7.5122C19.64 7.65191 19.45 7.73019 19.25 7.73019C18.429 7.73019 17.761 8.39208 17.761 9.20558ZM12.2518 9.85246L13.4308 8.71495C13.6358 8.51876 13.7068 8.22943 13.6178 7.9619C13.5298 7.69436 13.2998 7.50412 13.0218 7.46547L11.3928 7.22965L10.6638 5.76714C10.5388 5.51546 10.2848 5.3589 10.0018 5.35791H9.99983C9.71782 5.35791 9.46383 5.51447 9.33683 5.76615L8.60783 7.22965L6.98183 7.46448C6.70083 7.50412 6.47083 7.69436 6.38183 7.9619C6.29383 8.22943 6.36483 8.51876 6.56883 8.71495L7.74783 9.85246L7.46983 11.4606C7.42183 11.7381 7.53483 12.0135 7.76483 12.179C7.89483 12.2712 8.04583 12.3187 8.19883 12.3187C8.31583 12.3187 8.43383 12.29 8.54183 12.2335L9.99983 11.4745L11.4548 12.2315C11.7068 12.3653 12.0058 12.3445 12.2348 12.178C12.4658 12.0135 12.5788 11.7381 12.5308 11.4606L12.2518 9.85246Z" fill="currentColor"/>
</svg>
