<svg width="159" height="153" viewBox="0 0 159 153" fill="none" xmlns="http://www.w3.org/2000/svg">
<ellipse cx="79.4997" cy="147.784" rx="78.7302" ry="5.21557" fill="#F3F3F3"/>
<g clip-path="url(#clip0_5192_23390)">
<path d="M134.996 125.847C131.185 129.771 127.775 132.079 125.164 133.82C99.7019 150.808 70.596 145.911 61.597 144.238C47.0785 141.538 34.8224 139.633 24.2927 130.128C0.3657 108.53 1.52919 63.4725 19.8123 35.5618C21.98 32.2524 40.2356 5.21501 69.405 1.40501C70.1182 1.31197 70.6505 1.25857 71.1172 1.20941C75.6293 0.732034 103.592 -1.78752 126.393 17.299C129.657 20.031 134.909 24.9591 139.78 32.475C157.589 59.957 157.645 102.52 134.996 125.847Z" fill="url(#paint0_linear_5192_23390)" fill-opacity="0.2"/>
<path d="M28.7792 4.26842C28.5866 3.53782 29.4575 2.99436 30.0374 3.47967C35.9279 8.40407 50.2592 23.3406 48.4867 50.9791C46.2628 85.6555 54.1629 97.8098 63.5391 104.962C63.5391 104.962 51.0592 102.061 42.6062 89.7526C21.8527 59.5343 32.2025 17.2632 28.7792 4.26842Z" fill="#999CAD"/>
<path d="M34.0565 14.6628C34.9755 18.4565 35.8195 22.2659 36.5226 26.1008C37.2459 29.9314 37.8528 33.7821 38.3385 37.6465C38.8094 41.5121 39.2073 45.386 39.4406 49.2711C39.6909 53.1551 39.774 57.0449 39.8438 60.9511C39.9353 64.8547 40.0052 68.7874 40.4787 72.7253C40.9475 76.6553 41.893 80.5922 43.5306 84.2399C43.9396 85.1492 44.3671 86.0542 44.8438 86.9249C45.3041 87.8051 45.8041 88.6652 46.319 89.5158C47.3576 91.2128 48.5105 92.8432 49.7793 94.381C52.3253 97.4509 55.337 100.131 58.6132 102.357C58.9581 102.592 59.4275 102.502 59.6624 102.158C59.8925 101.82 59.8105 101.361 59.4809 101.123L59.4788 101.121C58.6973 100.557 57.9232 99.9847 57.1772 99.38C56.7994 99.0834 56.4354 98.771 56.0655 98.4654C55.7079 98.1461 55.338 97.8405 54.9904 97.5107C53.5793 96.2144 52.2608 94.8209 51.0518 93.3369C48.6221 90.3839 46.6216 87.0528 45.0512 83.5711C44.2856 81.8208 43.6502 80.017 43.1555 78.1704C42.6623 76.3233 42.311 74.436 42.0666 72.5271C41.5777 68.7065 41.4761 64.8145 41.3565 60.912C41.2317 57.0085 41.0798 53.0869 40.766 49.1781C40.6147 47.2231 40.4279 45.2713 40.2068 43.3237C40.1015 42.3494 39.9777 41.3773 39.8555 40.4051C39.7237 39.4339 39.5872 38.4638 39.4422 37.4948C38.856 33.6203 38.1518 29.7654 37.3264 25.9379C36.483 22.1147 35.538 18.3153 34.448 14.5582C34.4168 14.4509 34.3047 14.389 34.1972 14.4202C34.0925 14.4514 34.0311 14.5582 34.0565 14.6628Z" fill="#350d05"/>
<path d="M44.9681 130.876C44.5903 132.216 42.965 132.735 41.8676 131.877C35.8131 127.14 19.9067 112.201 19.4252 85.6817C19.0189 63.2874 16.6681 51.1829 15.2205 45.7615C14.9141 44.6154 16.2506 43.7447 17.1787 44.4854C27.4141 52.6562 58.6629 82.3099 44.9681 130.876Z" fill="#DDDFE4"/>
<path d="M43.2269 130.201C43.1994 130.222 43.1698 130.24 43.138 130.257C42.8698 130.392 42.5423 130.284 42.4074 130.015C42.2544 129.711 27.0835 99.2493 25.1105 68.137C25.0914 67.8378 25.319 67.5793 25.619 67.5597C25.919 67.5407 26.1772 67.7685 26.1967 68.0677C28.1555 98.9537 43.2275 129.224 43.3793 129.526C43.4984 129.763 43.4285 130.045 43.2269 130.201Z" fill="#999CAD"/>
<path d="M115.993 36.6185C115.754 36.6185 115.555 36.4293 115.546 36.1882C115.537 35.953 114.512 12.5548 104.288 4.13758C101.267 1.64974 97.6969 0.703456 93.6768 1.32515C85.2064 2.63462 79.3471 8.86427 76.2614 19.8402C73.9397 28.0972 74.1561 36.0777 74.1582 36.157C74.1656 36.4039 73.9714 36.6106 73.7243 36.6185C73.4688 36.6222 73.2704 36.4319 73.2624 36.185C73.2598 36.1041 73.0392 28.0052 75.3931 19.6176C76.782 14.6699 78.7826 10.5845 81.3386 7.4755C84.5566 3.56135 88.6619 1.19457 93.5392 0.440716C97.8228 -0.221157 101.631 0.790155 104.859 3.44769C109.292 7.09857 112.59 13.7199 114.658 23.1284C116.192 30.1008 116.438 36.0941 116.441 36.1538C116.45 36.4007 116.258 36.609 116.011 36.6185C116.005 36.618 116 36.6185 115.993 36.6185Z" fill="url(#paint1_linear_5192_23390)"/>
<path d="M34.6024 137.345L50.6246 28.8142L110.815 27.8203L130.215 143.377H39.814C36.5982 143.377 34.1331 140.523 34.6024 137.345Z" fill="#E8505B"/>
<path d="M122.235 28.8142L110.545 27.8203L129.945 143.377H141.55C143.903 143.377 145.661 141.216 145.182 138.915L122.235 28.8142Z" fill="#E32251"/>
<path d="M110.623 44.1339C110.546 44.1339 110.47 44.1006 110.416 44.0372C109.335 42.7388 107.756 41.3215 106.229 39.9512C103.654 37.6405 101.431 35.6443 101.569 34.2931C101.607 33.9119 101.822 33.6047 102.206 33.3806C102.335 33.3055 102.499 33.3489 102.574 33.4768C102.649 33.6047 102.606 33.7697 102.478 33.8442C102.17 34.0234 102.117 34.2175 102.103 34.347C101.993 35.427 104.329 37.5237 106.589 39.5516C108.13 40.935 109.724 42.3656 110.83 43.6941C110.925 43.8083 110.909 43.9774 110.795 44.0726C110.745 44.1138 110.684 44.1339 110.623 44.1339Z" fill="url(#paint2_linear_5192_23390)"/>
<path d="M138.928 77.9956C139.063 77.5838 139.023 77.135 138.819 76.7528C135.777 71.0571 124.869 50.6654 124.501 50.4375C124.074 50.1726 110.515 39.8465 110.515 39.8465C108.018 37.9454 107.395 39.9813 107.395 39.9813L103.803 60.6638L118.197 86.8432C118.604 87.5838 119.52 87.8767 120.282 87.5098L138.107 78.934C138.497 78.7463 138.794 78.4075 138.928 77.9956ZM109.434 47.3058C108.373 46.6476 108.046 45.2541 108.705 44.1931C109.364 43.1321 110.758 42.8059 111.82 43.464C112.882 44.1222 113.209 45.5157 112.55 46.5768C111.891 47.6378 110.496 47.9639 109.434 47.3058Z" fill="white"/>
<path d="M117.337 64.9866C119.264 67.8836 118.987 70.1705 117.6 71.0914C116.181 72.0335 114.043 71.3188 112.27 68.6861C110.54 66.0851 110.508 63.6374 112.067 62.6029C113.671 61.5371 115.692 62.513 117.337 64.9866ZM121.47 76.8437L117.896 58.7326L118.987 58.0078L122.561 76.1195L121.47 76.8437ZM113.679 67.6293C114.718 69.2253 115.913 70.1092 116.676 69.6017C117.44 69.0947 117.083 67.7467 115.971 66.0761C114.959 64.5536 113.831 63.5343 113.005 64.0826C112.226 64.6001 112.652 66.0856 113.679 67.6293ZM128.117 66.0597C130.03 68.9351 129.783 71.2331 128.38 72.1646C126.977 73.0961 124.824 72.3919 123.052 69.7275C121.336 67.1477 121.289 64.6794 122.832 63.6549C124.438 62.5886 126.472 63.5856 128.117 66.0597ZM124.459 68.7014C125.485 70.2763 126.693 71.1813 127.457 70.6743C128.236 70.1568 127.864 68.8193 126.752 67.1487C125.726 65.6051 124.612 64.607 123.786 65.1552C123.006 65.6728 123.432 67.1583 124.459 68.7014Z" fill="#999CAD"/>
<path d="M110.624 44.135C110.572 44.135 110.518 44.1196 110.472 44.0869C110.349 44.0023 110.319 43.8347 110.404 43.7131C110.923 42.9651 110.376 41.0202 109.041 38.8744C107.432 36.2882 104.774 33.6418 102.734 33.9457C102.587 33.9695 102.45 33.8664 102.429 33.7195C102.407 33.5725 102.508 33.4361 102.655 33.4144C104.942 33.0708 107.742 35.7685 109.498 38.5905C110.666 40.4698 111.635 42.8831 110.846 44.0192C110.793 44.0948 110.709 44.135 110.624 44.135Z" fill="url(#paint3_linear_5192_23390)"/>
<path d="M103.061 36.3691C102.821 36.3691 102.623 36.1798 102.613 35.9387C102.604 35.7035 101.58 12.3053 91.3563 3.88811C88.3346 1.40027 84.7647 0.453985 80.7446 1.07568C72.2742 2.38515 66.415 8.6148 63.3292 19.5907C61.0081 27.8477 61.2239 35.8283 61.2261 35.9075C61.2335 36.1544 61.0393 36.3611 60.7922 36.3691C60.7874 36.3691 60.7827 36.3691 60.7784 36.3691C60.5372 36.3691 60.3382 36.1777 60.3308 35.935C60.3282 35.8542 60.107 27.7552 62.4615 19.3676C63.8504 14.4194 65.8509 10.3345 68.407 7.2255C71.625 3.31135 75.7303 0.944575 80.6076 0.190716C84.8912 -0.471157 88.6991 0.540155 91.9272 3.19769C96.3605 6.84857 99.6579 13.4699 101.727 22.8784C103.26 29.8508 103.507 35.8441 103.509 35.9038C103.519 36.1507 103.326 36.359 103.079 36.3685C103.073 36.3685 103.067 36.3691 103.061 36.3691Z" fill="url(#paint4_linear_5192_23390)"/>
<path d="M111.68 88.4057L136.99 109.312C136.499 109.549 135.942 109.67 135.354 109.64L87.4006 107.143C86.5757 107.1 85.8334 106.763 85.2715 106.238L104.093 88.6208C106.137 86.7082 109.509 86.6125 111.68 88.4057Z" fill="#7D97F4"/>
<path d="M88.3669 145.01H134.53C136.393 145.01 137.905 143.5 137.905 141.638V111.605C137.905 109.815 136.506 108.337 134.718 108.238L86.7732 105.568C84.7658 105.456 83.1065 107.111 83.2161 109.118L84.9976 141.821C85.0949 143.61 86.5743 145.01 88.3669 145.01Z" fill="#91B3FA"/>
<path d="M110.367 126.889L85.1328 105.891C85.6249 105.656 86.1825 105.537 86.7698 105.57L134.714 108.24C135.539 108.286 136.28 108.625 136.84 109.152L117.955 126.702C115.904 128.606 112.531 128.69 110.367 126.889Z" fill="#7D97F4"/>
<path d="M94.9922 132.405H126.879V96.2091C126.879 94.824 125.798 93.6795 124.413 93.5997L97.7589 92.065C96.2573 91.9783 94.9922 93.172 94.9922 94.6744V132.405Z" fill="white"/>
<path d="M98.0454 96.5513L98.4126 108.854L98.4697 110.759C98.4713 111.007 98.6766 111.21 98.9258 111.208L123.413 111.057C123.661 111.055 123.865 110.851 123.863 110.602L123.879 108.697L123.98 96.5407C123.978 96.2923 123.682 95.8085 123.145 95.8482L99.21 95.3772C98.8973 95.3713 98.5962 95.4929 98.3761 95.715C98.1555 95.9381 98.0364 96.2399 98.0454 96.5513Z" fill="#F3F3F3"/>
<path d="M110.604 101.378C110.604 102.422 110.429 103.215 110.08 103.758C109.731 104.301 109.223 104.572 108.557 104.572C107.869 104.572 107.362 104.307 107.038 103.776C106.715 103.244 106.553 102.454 106.553 101.406C106.553 99.2756 107.221 98.2109 108.557 98.2109C109.922 98.2104 110.604 99.2661 110.604 101.378ZM108.031 101.391C108.031 102.034 108.072 102.501 108.155 102.794C108.238 103.088 108.377 103.234 108.571 103.234C108.765 103.234 108.907 103.088 108.995 102.794C109.082 102.501 109.126 102.033 109.126 101.391C109.126 100.75 109.081 100.282 108.991 99.9883C108.901 99.6949 108.761 99.5484 108.571 99.5484C108.377 99.5484 108.238 99.6949 108.155 99.9883C108.072 100.282 108.031 100.749 108.031 101.391ZM114.314 98.3563L110.125 108.487H108.69L112.865 98.3563H114.314ZM116.457 105.424C116.457 106.468 116.281 107.261 115.93 107.801C115.579 108.342 115.072 108.612 114.411 108.612C113.717 108.612 113.21 108.348 112.889 107.819C112.567 107.289 112.407 106.501 112.407 105.452C112.407 104.418 112.572 103.626 112.902 103.079C113.233 102.532 113.736 102.258 114.411 102.258C115.775 102.257 116.457 103.313 116.457 105.424ZM113.884 105.438C113.884 106.08 113.926 106.548 114.009 106.841C114.092 107.135 114.231 107.281 114.425 107.281C114.619 107.281 114.76 107.135 114.848 106.841C114.936 106.548 114.98 106.08 114.98 105.438C114.98 104.796 114.935 104.33 114.844 104.038C114.754 103.747 114.614 103.602 114.425 103.602C114.235 103.602 114.098 103.747 114.012 104.038C113.927 104.33 113.884 104.796 113.884 105.438Z" fill="#999CAD"/>
<path d="M99.0717 111.235C98.9273 111.235 98.7866 111.186 98.6749 111.098L98.8977 110.817C98.9469 110.856 99.0067 110.877 99.0702 110.877L100.19 110.87L100.192 111.228L99.0717 111.235ZM101.621 111.22L101.619 110.862L103.047 110.853L103.049 111.211L101.621 111.22ZM104.477 111.202L104.475 110.844L105.903 110.835L105.905 111.193L104.477 111.202ZM107.333 111.185L107.33 110.827L108.759 110.818L108.761 111.176L107.333 111.185ZM110.189 111.167L110.187 110.809L111.615 110.8L111.617 111.158L110.189 111.167ZM113.044 111.149L113.042 110.791L114.47 110.782L114.472 111.14L113.044 111.149ZM115.9 111.132L115.898 110.774L117.326 110.765L117.328 111.123L115.9 111.132ZM118.756 111.114L118.754 110.756L120.182 110.747L120.184 111.105L118.756 111.114ZM121.612 111.096L121.61 110.738L123.038 110.729L123.04 111.087L121.612 111.096ZM123.946 110.014L123.588 110.01L123.6 108.601L123.779 108.586L123.959 108.587L123.946 110.014ZM98.4088 109.589L98.3659 108.162L98.7241 108.151L98.767 109.577L98.4088 109.589ZM123.97 107.16L123.612 107.157L123.624 105.73L123.982 105.733L123.97 107.16ZM98.3225 106.736L98.2797 105.31L98.6379 105.299L98.6807 106.725L98.3225 106.736ZM123.995 104.307L123.636 104.304L123.649 102.877L124.007 102.88L123.995 104.307ZM98.2368 103.884L98.194 102.458L98.5522 102.447L98.595 103.873L98.2368 103.884ZM124.019 101.454L123.661 101.45L123.673 100.024L124.031 100.027L124.019 101.454ZM98.1506 101.032L98.1077 99.6065L98.4659 99.5954L98.5088 101.021L98.1506 101.032ZM124.043 98.6L123.685 98.5968L123.697 97.17L124.055 97.1731L124.043 98.6ZM98.0643 98.1802L98.0215 96.7539L98.2003 96.7418L98.3797 96.7428L98.4231 98.1697L98.0643 98.1802ZM123.212 96.2454C123.167 96.238 123.117 96.2353 123.065 96.2395L121.81 96.2157L121.817 95.8578L123.056 95.8816C123.066 95.8806 123.09 95.8795 123.114 95.8795C123.167 95.8795 123.218 95.8838 123.269 95.8917L123.212 96.2454ZM120.382 96.1883L118.954 96.1608L118.961 95.8029L120.389 95.8304L120.382 96.1883ZM117.527 96.1333L116.099 96.1058L116.106 95.7479L117.534 95.7754L117.527 96.1333ZM114.671 96.0783L113.244 96.0508L113.251 95.6929L114.678 95.7204L114.671 96.0783ZM111.816 96.0228L110.389 95.9953L110.396 95.6374L111.823 95.6649L111.816 96.0228ZM108.961 95.9678L107.533 95.9403L107.54 95.5824L108.968 95.6099L108.961 95.9678ZM106.105 95.9128L104.678 95.8853L104.684 95.5274L106.112 95.5549L106.105 95.9128ZM103.25 95.8573L101.823 95.8298L101.829 95.4719L103.257 95.4994L103.25 95.8573ZM99.0321 95.8293L98.921 95.4889C99.0538 95.4455 99.1919 95.4238 99.3326 95.4238H99.358L100.402 95.4439L100.395 95.8018L99.3501 95.7817C99.2315 95.7738 99.1289 95.7981 99.0321 95.8293Z" fill="white"/>
<path d="M76.0516 118.961L64.451 116.738L65.687 118.309L63.5352 120.172L76.3241 121.152L76.0516 118.961Z" fill="#b49056"/>
<path d="M77.6403 118.932L89.1599 116.322L87.9774 117.934L90.1901 119.724L77.4414 121.131L77.6403 118.932Z" fill="#b49056"/>
<path d="M67.8697 112.771C68.1205 112.6 68.43 112.538 68.7273 112.599L70.7718 113.017C71.0406 113.072 71.2776 113.23 71.4326 113.456L75.8178 119.878L76.558 119.158L71.984 111.452C71.6284 110.854 70.9908 110.478 70.2945 110.456L68.448 110.4C67.1416 110.36 65.9464 111.131 65.4443 112.336L64.7765 113.941C64.4517 114.721 64.8067 115.618 65.5781 115.965L74.8935 120.158L75.2422 119.843L68.0194 114.972C67.54 114.649 67.2956 114.074 67.3956 113.505C67.448 113.207 67.6189 112.942 67.8697 112.771Z" fill="#b49056"/>
<path d="M85.0592 112.484C84.8026 112.322 84.4914 112.27 84.1962 112.341L82.1671 112.827C81.8999 112.891 81.6687 113.056 81.5216 113.288L77.3539 119.853L76.5898 119.158L80.9031 111.304C81.2385 110.693 81.8629 110.297 82.5581 110.252L84.4015 110.133C85.7057 110.05 86.9264 110.78 87.4682 111.968L88.1893 113.55C88.5401 114.318 88.2153 115.226 87.456 115.599L78.2861 120.102L77.9269 119.798L84.9825 114.688C85.4507 114.349 85.6756 113.767 85.5571 113.201C85.4952 112.905 85.3153 112.646 85.0592 112.484Z" fill="#b49056"/>
<path d="M63.7324 122.192L65.2197 145.24C65.2562 145.808 65.7451 146.309 66.3097 146.299L87.7071 145.941C88.2722 145.932 88.7436 145.415 88.761 144.846L89.4753 121.762L63.7324 122.192Z" fill="url(#paint5_linear_5192_23390)"/>
<path d="M79.5551 146.075L74.4207 146.161L74.0059 121.414L79.1408 121.328L79.5551 146.075Z" fill="#b49056"/>
<path d="M90.896 119.664C90.8912 119.391 90.6664 119.174 90.3928 119.178L62.688 119.641C62.415 119.646 62.197 119.871 62.2012 120.144L62.243 122.626C62.2478 122.899 62.4727 123.117 62.7462 123.113L90.451 122.649C90.7246 122.644 90.942 122.42 90.9378 122.146L90.896 119.664Z" fill="url(#paint6_linear_5192_23390)"/>
<path d="M79.1672 122.839L74.0322 122.925L73.9688 119.152L79.1037 119.066L79.1672 122.839Z" fill="#350d05"/>
<path d="M96.7865 50.6926L96.1701 78.7772L96.0743 83.1259C96.0754 83.6937 95.6103 84.1589 95.0421 84.16L39.1552 84.2551C38.5869 84.2562 38.1202 83.792 38.1192 83.2248L38.0488 78.8766L37.5996 51.1366C37.5986 50.5689 38.2663 49.4603 39.4922 49.5417L94.1092 48.0361C94.8225 48.0171 95.5124 48.2893 96.0188 48.7926C96.5246 49.2938 96.8018 49.981 96.7865 50.6926Z" fill="#350d05"/>
<path d="M47.7999 64.1522L47.7422 56.8504L49.102 56.8398L49.1501 62.9532L51.0348 62.9384L51.0443 64.1273L47.7999 64.1522Z" fill="white"/>
<path d="M56.9125 60.4186C56.922 61.6271 56.703 62.5581 56.2548 63.211C55.8067 63.8639 55.1612 64.1937 54.3178 64.2001C53.4712 64.207 52.8188 63.8882 52.3606 63.2443C51.9024 62.6004 51.6686 61.6689 51.6585 60.4504C51.649 59.2419 51.868 58.3135 52.3162 57.6654C52.7643 57.0178 53.4151 56.69 54.268 56.6837C55.1109 56.6768 55.7601 56.9956 56.2151 57.64C56.6707 58.2839 56.903 59.2101 56.9125 60.4186ZM53.0485 60.4493C53.0548 61.2819 53.1649 61.9152 53.3786 62.3498C53.5918 62.7844 53.9019 63 54.3088 62.9969C55.1284 62.9905 55.5315 62.1346 55.5183 60.4297C55.5051 58.7248 55.0913 57.8758 54.2786 57.8822C53.8654 57.8853 53.5553 58.1053 53.349 58.5414C53.1416 58.9775 53.0416 59.6135 53.0485 60.4493Z" fill="white"/>
<path d="M59.7317 59.637L60.6835 56.7474L62.1084 56.7363L60.4084 61.1252L60.4317 64.0518L59.092 64.0624L59.0692 61.1908L57.3047 56.7744L58.7391 56.7633L59.7317 59.637Z" fill="white"/>
<path d="M66.2703 64.0031L65.8359 62.1634L63.9311 62.1782L63.5258 64.0242L62.166 64.0348L63.9179 56.6886L65.7623 56.6738L67.6348 63.9914L66.2703 64.0031ZM65.5713 60.9617L65.1681 59.2669C65.1438 59.1638 65.0893 58.9053 65.0046 58.4913C64.9195 58.0774 64.8681 57.8009 64.8507 57.6608C64.8094 57.9473 64.757 58.2635 64.693 58.6087C64.629 58.9539 64.4618 59.7421 64.1919 60.9728L65.5713 60.9617Z" fill="white"/>
<path d="M68.2803 63.9881L68.2227 56.6864L69.5824 56.6758L69.6306 62.7891L71.5153 62.7743L71.5248 63.9633L68.2803 63.9881Z" fill="white"/>
<path d="M74.6398 63.9398L73.2853 63.9504L73.2371 57.8423L71.8376 57.8534L71.8281 56.6597L75.9821 56.627L75.9916 57.8206L74.5922 57.8318L74.6398 63.9398Z" fill="white"/>
<path d="M78.5442 59.4886L79.496 56.599L80.9209 56.5879L79.2209 60.9768L79.2442 63.9034L77.9045 63.914L77.8817 61.0423L76.1172 56.626L77.5516 56.6149L78.5442 59.4886Z" fill="white"/>
<path d="M49.3116 71.3605C49.318 72.1365 49.1264 72.7328 48.7386 73.1505C48.3502 73.5681 47.7862 73.7796 47.0465 73.7854L46.7068 73.788L46.728 76.435L45.3682 76.4456L45.3105 69.1438L47.165 69.129C48.5841 69.119 49.3 69.8623 49.3116 71.3605ZM46.6968 72.6102L46.9566 72.6081C47.2899 72.6054 47.5375 72.5119 47.6994 72.3274C47.8613 72.1429 47.9407 71.8426 47.937 71.4265C47.9338 71.0438 47.8566 70.7604 47.7053 70.577C47.5539 70.3935 47.3217 70.3026 47.0084 70.3053L46.6783 70.3079L46.6968 72.6102Z" fill="white"/>
<path d="M51.6081 73.5554L51.6304 76.3974L50.2706 76.408L50.2129 69.1062L51.9923 69.0919C52.7452 69.0861 53.3023 69.2595 53.6637 69.6132C54.0245 69.9669 54.2081 70.5098 54.214 71.242C54.2214 72.1645 53.9145 72.811 53.2944 73.1821L54.7245 76.3725L53.27 76.3842L52.0928 73.5517L51.6081 73.5554ZM51.5991 72.3865L51.9489 72.3839C52.269 72.3812 52.4981 72.2887 52.6367 72.1063C52.7753 71.9239 52.8431 71.6527 52.8404 71.2932C52.8372 70.9205 52.761 70.6552 52.6118 70.4982C52.4621 70.3411 52.2325 70.264 51.9224 70.2666L51.5827 70.2692L51.5991 72.3865Z" fill="white"/>
<path d="M60.3871 72.6647C60.3966 73.8732 60.1776 74.8042 59.7294 75.4571C59.2813 76.11 58.6358 76.4398 57.7924 76.4462C56.9458 76.4531 56.2934 76.1343 55.8352 75.4904C55.377 74.8465 55.1432 73.915 55.1331 72.6964C55.1236 71.4879 55.3426 70.5596 55.7908 69.9115C56.2389 69.2639 56.8897 68.9361 57.7426 68.9298C58.5855 68.9229 59.2347 69.2417 59.6897 69.8861C60.1453 70.53 60.377 71.4562 60.3871 72.6647ZM56.5231 72.6954C56.5294 73.528 56.6395 74.1613 56.8532 74.5959C57.0664 75.0305 57.3765 75.2461 57.7834 75.243C58.603 75.2366 59.0061 74.3807 58.9929 72.6758C58.9797 70.9709 58.5659 70.1219 57.7532 70.1283C57.34 70.1314 57.0299 70.3513 56.8236 70.7875C56.6162 71.2236 56.5162 71.8596 56.5231 72.6954Z" fill="white"/>
<path d="M63.6605 72.2509L65.8949 72.2334L65.9245 75.9794C65.2933 76.2543 64.6213 76.3944 63.9081 76.3997C63.0584 76.4066 62.4018 76.0889 61.9383 75.4466C61.4748 74.8042 61.2388 73.8754 61.2287 72.66C61.2198 71.488 61.4748 70.5687 61.9944 69.9021C62.5139 69.2354 63.2452 68.8981 64.1885 68.8907C64.7716 68.886 65.3293 69.0314 65.8616 69.3269L65.4404 70.4392C65.025 70.2029 64.6377 70.086 64.278 70.0887C63.7616 70.0929 63.3541 70.3266 63.0563 70.7902C62.7584 71.2538 62.6123 71.8834 62.6187 72.6791C62.625 73.4979 62.7393 74.1249 62.961 74.5595C63.1827 74.994 63.5018 75.2097 63.9187 75.206C64.1388 75.2044 64.3616 75.1743 64.588 75.1156L64.5748 73.4424L63.67 73.4493L63.6605 72.2509Z" fill="white"/>
<path d="M68.3777 73.4225L68.3999 76.2646L67.0401 76.2752L66.9824 68.9734L68.7618 68.9591C69.5147 68.9533 70.0718 69.1267 70.4332 69.4804C70.7941 69.834 70.9777 70.377 70.9835 71.1092C70.9909 72.0317 70.684 72.6782 70.0639 73.0493L71.4941 76.2397L70.0396 76.2514L68.8623 73.4188L68.3777 73.4225ZM68.3681 72.2537L68.7179 72.251C69.038 72.2484 69.2671 72.1559 69.4057 71.9735C69.5443 71.7911 69.6121 71.5199 69.6094 71.1604C69.6062 70.7877 69.53 70.5224 69.3808 70.3653C69.2311 70.2083 69.0015 70.1311 68.6914 70.1338L68.3517 70.1364L68.3681 72.2537Z" fill="white"/>
<path d="M75.6199 76.2062L75.1855 74.3665L73.2807 74.3813L72.8754 76.2273L71.5156 76.2379L73.2675 68.8918L75.1119 68.877L76.9844 76.1946L75.6199 76.2062ZM74.9209 73.1649L74.5177 71.47C74.4934 71.3669 74.4389 71.1084 74.3543 70.6945C74.2691 70.2805 74.2177 70.0035 74.2003 69.864C74.159 70.1505 74.1066 70.4666 74.0426 70.8118C73.9786 71.157 73.8114 71.9453 73.5416 73.176L74.9209 73.1649Z" fill="white"/>
<path d="M80.2375 76.1685L78.7989 69.9611L78.7439 69.9616C78.8111 70.4406 78.846 70.8799 78.8492 71.2795L78.8878 76.1791L77.628 76.1891L77.5703 68.8874L79.6597 68.871L80.9544 74.6L80.9947 74.5995L82.1888 68.8509L84.3084 68.834L84.3661 76.1357L83.0767 76.1458L83.0375 71.196C83.0343 70.7863 83.0544 70.3665 83.0973 69.9368L83.0571 69.9373L81.7216 76.1563L80.2375 76.1685Z" fill="white"/>
<path d="M92.4675 61.3358C92.4738 62.1361 91.8299 62.7895 91.0289 62.7959L86.2056 62.834C85.4045 62.8403 84.7505 62.1969 84.7442 61.3965V61.3791C84.7378 60.5787 85.3818 59.9253 86.1828 59.919L91.0061 59.8809C91.8072 59.8746 92.4611 60.5179 92.4675 61.3183V61.3358Z" fill="#350d05"/>
<path d="M92.4262 51.6712C92.377 51.6115 92.3003 51.5872 92.2188 51.5898L84.8204 51.8034L84.6288 51.2118C84.6024 51.1294 84.5241 51.077 84.4363 51.0802L83.4204 51.1151C83.3114 51.1188 83.2241 51.1955 83.2246 51.3038C83.2257 51.4122 83.314 51.483 83.423 51.4799L84.2913 51.4524L85.9019 56.4556C85.9289 56.5396 86.0087 56.5972 86.0987 56.5978L91.2929 56.6263C91.4146 56.6268 91.513 56.5497 91.5125 56.4344C91.5114 56.3192 91.4119 56.2415 91.2902 56.2409L86.2479 56.2261L85.8331 54.9272L91.3738 54.8918C91.4871 54.8913 91.5865 54.8162 91.6178 54.7131L92.4701 51.8811C92.4918 51.8066 92.476 51.731 92.4262 51.6712Z" fill="#DDDFE4"/>
<path d="M86.861 56.9004C86.4335 56.8972 86.0906 57.2324 86.0938 57.6474C86.0969 58.0624 86.4456 58.4065 86.8731 58.4145C87.3033 58.4224 87.652 58.0872 87.6488 57.668C87.6451 57.2483 87.2911 56.9041 86.861 56.9004ZM86.8694 58.0106C86.6694 58.0074 86.5065 57.8467 86.5049 57.6527C86.5033 57.4587 86.6641 57.3022 86.8641 57.3043C87.0647 57.3064 87.2292 57.4671 87.2308 57.6622C87.2324 57.8573 87.07 58.0138 86.8694 58.0106Z" fill="#DDDFE4"/>
<path d="M90.3248 56.9258C89.8762 56.9226 89.5164 57.2657 89.5196 57.6908C89.5227 58.1158 89.8883 58.4684 90.337 58.4769C90.7883 58.4853 91.155 58.1422 91.1513 57.7119C91.1481 57.2821 90.7762 56.9295 90.3248 56.9258ZM90.3338 58.0635C90.1243 58.0603 89.9529 57.8959 89.9513 57.6966C89.9497 57.4978 90.1185 57.3376 90.328 57.3397C90.5381 57.3419 90.7111 57.5063 90.7127 57.7066C90.7143 57.9065 90.5444 58.0666 90.3338 58.0635Z" fill="#DDDFE4"/>
<path d="M12.2743 143.239C12.2743 143.239 11.5923 144.202 11.2918 146.98C11.2637 147.239 11.4584 147.47 11.7187 147.484L16.66 147.734C16.859 147.744 17.0108 147.556 16.9563 147.365C16.7103 146.494 15.9404 144.362 14.0478 143.07L12.2743 143.239Z" fill="#350d05"/>
<path d="M11.6016 141.729L12.1423 144.028C12.1889 144.226 12.3651 144.369 12.5688 144.37C12.8412 144.371 13.2344 144.348 13.6074 144.243C13.946 144.147 14.1603 143.812 14.1206 143.462L13.8666 141.213L11.6016 141.729Z" fill="url(#paint7_linear_5192_23390)"/>
<path d="M23.5576 143.412C23.5576 143.412 22.5598 144.849 22.51 146.867C22.4984 147.343 22.883 147.735 23.3587 147.752L31.0381 148.019C31.3979 148.032 31.5598 147.575 31.2725 147.358C29.855 146.289 27.0651 144.284 25.0254 143.463L23.5576 143.412Z" fill="#350d05"/>
<path d="M23.3652 140.959L23.5621 143.909C23.5843 144.239 23.8684 144.498 24.1986 144.47C24.3991 144.453 24.6398 144.402 24.9065 144.282C25.1594 144.169 25.316 143.908 25.3055 143.631L25.1716 140.072L23.3652 140.959Z" fill="url(#paint8_linear_5192_23390)"/>
<path d="M8.0778 102.055C8.0778 102.055 6.22065 104.104 6.07885 106.333C5.93758 108.562 11.4339 143.919 11.4339 143.919C11.4339 143.919 13.5349 144.029 14.5254 143.266C14.5254 143.266 13.1847 120.069 13.5418 114.633C13.5418 114.633 21.263 137.949 23.1424 142.107C23.1424 142.107 25.1561 142.124 25.7546 141.675C25.7546 141.675 20.9445 110.866 18.6694 105.548L8.0778 102.055Z" fill="#b49056"/>
<path d="M26.1143 79.2347C17.3513 79.4926 15.2852 81.5433 15.2852 81.5433L20.2 87.654C20.2 87.654 28.7116 86.5248 34.2926 81.1288C33.0095 80.0266 32.0619 78.7557 31.4328 77.7539C29.9302 78.586 28.1582 79.1744 26.1143 79.2347Z" fill="url(#paint9_linear_5192_23390)"/>
<path d="M38.2719 64.9706C38.229 64.6941 37.8433 64.6608 37.7533 64.9262L36.9121 67.413C36.7496 67.8935 36.7385 68.4121 36.8809 68.899L37.4248 70.2302C37.6168 70.8873 37.519 71.5941 37.1533 72.1735C36.2787 73.5596 34.3734 76.1257 31.4316 77.755C32.0607 78.7568 33.0089 80.0277 34.2914 81.1299C36.3391 79.1501 37.993 76.5967 38.6867 73.3127C39.1724 73.1013 39.4555 72.5901 39.3761 72.0667L38.2719 64.9706Z" fill="#FFAA95"/>
<path d="M29.4018 82.7277C25.9743 79.7815 19.9848 78.951 16.5457 78.72C15.0388 78.619 13.6758 79.6039 13.3113 81.0683C12.2541 85.3128 9.32502 96.3765 8.73084 98.2881C8.24354 99.8566 7.72343 101.393 7.39116 102.354C7.19274 102.929 7.49327 103.556 8.06735 103.756C11.0573 104.803 16.334 105.773 18.4705 106.143C18.9404 106.224 19.3552 105.832 19.3018 105.358C19.2563 104.956 19.3213 104.55 19.4891 104.183L25.8515 90.2557C31.3452 95.1156 35.6775 95.1283 38.8288 93.5741C38.0838 91.9305 37.5298 90.2626 37.1632 88.5698C32.2166 88.2854 29.4018 82.7277 29.4018 82.7277Z" fill="url(#paint10_linear_5192_23390)"/>
<path d="M45.4716 86.5179L44.3974 85.4414C41.608 87.725 39.1363 88.4588 37.0273 88.3443C37.4183 90.0507 38.009 91.7321 38.8034 93.3889C43.2306 91.3244 45.4716 86.5179 45.4716 86.5179Z" fill="#FFAA95"/>
<path d="M44.4658 86.8488L49.4219 86.4851L53.679 83.4379C52.9806 83.1028 49.3875 84.353 49.3875 84.353C49.3875 84.353 45.4668 84.205 44.4234 84.3208C43.5568 84.417 43.8213 85.6482 43.9356 86.0627C43.9589 86.1473 43.9764 86.198 43.9764 86.198L44.4658 86.8488Z" fill="#FFAA95"/>
<path d="M20.5006 72.1562L18.6133 78.7972C18.6133 78.7972 21.8382 80.5291 24.2223 80.0607L24.8773 74.2069L20.5006 72.1562Z" fill="#FFAA95"/>
<path d="M25.0135 67.851C25.0828 67.9287 27.6495 74.3063 27.6495 74.3063L23.9738 75.693L20.6426 70.0094C20.642 70.01 23.8558 66.5505 25.0135 67.851Z" fill="#FFAA95"/>
<path d="M21.5685 70.2414L23.0875 73.3705C23.1071 73.4106 23.1309 73.4471 23.1605 73.4804C23.342 73.6845 24.0171 74.3416 24.6478 73.6105C25.2198 72.947 25.7521 72.3496 26.288 72.1921C26.5288 72.1213 26.7833 72.2439 26.8769 72.4765C27.1097 73.0559 27.6108 74.3717 27.8716 75.5808C27.9246 75.8261 27.7785 76.0698 27.5383 76.1438C26.815 76.3674 25.2764 76.7961 23.9579 76.8511C23.779 76.8585 23.6113 76.7697 23.5193 76.6169C23.07 75.8705 21.696 73.6068 21.215 73.0348C20.7642 72.4982 19.8203 72.6208 19.4282 72.7007C19.2997 72.7266 19.1669 72.6996 19.0589 72.6245C18.678 72.3597 17.9304 71.6587 18.7542 70.6257C18.9267 70.4095 18.8859 70.0965 18.6642 69.9311C18.2229 69.6012 17.7219 68.9848 18.2933 68.0861C18.8743 67.1725 19.7806 67.2053 20.3489 67.3428C20.579 67.3983 20.8092 67.2777 20.9065 67.0626C20.9621 66.9399 21.0711 66.8395 21.2801 66.8342C21.5616 66.8268 21.7695 66.5683 21.733 66.2892C21.6626 65.7536 21.7785 65.0542 22.6775 64.6593C24.2727 63.9589 25.4833 65.4386 25.7198 66.6175C25.9563 67.7969 24.1838 68.4577 23.1023 68.4984C22.2801 68.5291 21.7658 69.405 21.5663 69.8232C21.5023 69.9559 21.5044 70.1097 21.5685 70.2414Z" fill="#b49056"/>
<path d="M21.7783 74.1681C21.7783 74.1681 21.2778 72.1312 20.4058 72.127C19.5338 72.1227 18.7756 72.9236 19.7624 73.9873C20.9899 75.3105 21.7783 74.1681 21.7783 74.1681Z" fill="#FF8B6B"/>
</g>
<defs>
<linearGradient id="paint0_linear_5192_23390" x1="100.945" y1="-72.459" x2="156.185" y2="235.258" gradientUnits="userSpaceOnUse">
<stop stop-color="#2DC8D8"/>
<stop offset="1" stop-color="#ECF281"/>
</linearGradient>
<linearGradient id="paint1_linear_5192_23390" x1="73.257" y1="18.431" x2="116.442" y2="18.431" gradientUnits="userSpaceOnUse">
<stop stop-color="#2B3582"/>
<stop offset="1" stop-color="#150E42"/>
</linearGradient>
<linearGradient id="paint2_linear_5192_23390" x1="152.459" y1="-23.4988" x2="115.939" y2="25.9529" gradientUnits="userSpaceOnUse">
<stop stop-color="#09005D"/>
<stop offset="1" stop-color="#1A0F91"/>
</linearGradient>
<linearGradient id="paint3_linear_5192_23390" x1="152.632" y1="-23.3714" x2="116.112" y2="26.08" gradientUnits="userSpaceOnUse">
<stop stop-color="#09005D"/>
<stop offset="1" stop-color="#1A0F91"/>
</linearGradient>
<linearGradient id="paint4_linear_5192_23390" x1="93.7562" y1="5.65464" x2="116.844" y2="-39.7543" gradientUnits="userSpaceOnUse">
<stop stop-color="#2B3582"/>
<stop offset="1" stop-color="#150E42"/>
</linearGradient>
<linearGradient id="paint5_linear_5192_23390" x1="76.6044" y1="121.972" x2="76.6044" y2="201.978" gradientUnits="userSpaceOnUse">
<stop stop-color="#4042E2"/>
<stop offset="1" stop-color="#4F52FF"/>
</linearGradient>
<linearGradient id="paint6_linear_5192_23390" x1="96.7282" y1="85.5761" x2="84.1097" y2="107.879" gradientUnits="userSpaceOnUse">
<stop stop-color="#4042E2"/>
<stop offset="1" stop-color="#4F52FF"/>
</linearGradient>
<linearGradient id="paint7_linear_5192_23390" x1="11.7419" y1="142.973" x2="14.0363" y2="142.714" gradientUnits="userSpaceOnUse">
<stop stop-color="#FEBBBA"/>
<stop offset="1" stop-color="#FF928E"/>
</linearGradient>
<linearGradient id="paint8_linear_5192_23390" x1="23.2117" y1="142.075" x2="25.4864" y2="142.388" gradientUnits="userSpaceOnUse">
<stop stop-color="#FEBBBA"/>
<stop offset="1" stop-color="#FF928E"/>
</linearGradient>
<linearGradient id="paint9_linear_5192_23390" x1="17.0424" y1="78.1784" x2="21.6084" y2="92.1394" gradientUnits="userSpaceOnUse">
<stop stop-color="#FFB800"/>
</linearGradient>
<linearGradient id="paint10_linear_5192_23390" x1="10.2421" y1="79.8895" x2="28.2774" y2="112.86" gradientUnits="userSpaceOnUse">
<stop stop-color="#FFB800"/>
</linearGradient>
<clipPath id="clip0_5192_23390">
<rect width="146.533" height="148.023" fill="white" transform="translate(6.07812)"/>
</clipPath>
</defs>
</svg>
