<svg width="19" height="20" viewBox="0 0 19 20" fill="none" xmlns="http://www.w3.org/2000/svg">
<path fill-rule="evenodd" clip-rule="evenodd" d="M9.34375 0.4375C11.8219 0.4375 14.1985 1.42193 15.9508 3.17422C17.7031 4.92651 18.6875 7.30313 18.6875 9.78125C18.6875 12.2594 17.7031 14.636 15.9508 16.3883C14.1985 18.1406 11.8219 19.125 9.34375 19.125C6.86563 19.125 4.48901 18.1406 2.73672 16.3883C0.984428 14.636 0 12.2594 0 9.78125C0 7.30313 0.984428 4.92651 2.73672 3.17422C4.48901 1.42193 6.86563 0.4375 9.34375 0.4375ZM16.3789 6.1875C15.4569 4.39495 13.8881 3.01985 11.9902 2.34075C12.6284 3.54825 13.0899 4.842 13.3601 6.1875H16.3789ZM17.2155 10.4928C17.2385 10.2563 17.25 10.0189 17.25 9.78125C17.2486 9.05177 17.1455 8.32604 16.9438 7.625H13.5772C13.6232 8.10081 13.6562 8.5795 13.6562 9.0625C13.6533 10.0283 13.5541 10.9914 13.3601 11.9375H16.9438C17.0804 11.4646 17.1709 10.9816 17.2169 10.4928H17.2155ZM12.1339 10.4928L12.1426 10.4195C12.1916 9.96881 12.217 9.51585 12.2188 9.0625C12.2091 8.58167 12.1726 8.10176 12.1095 7.625H6.578C6.51435 8.10171 6.47787 8.58165 6.46875 9.0625C6.47226 10.0304 6.58461 10.9948 6.80369 11.9375H11.8838C11.9945 11.4602 12.0779 10.9787 12.1339 10.4928ZM11.8579 6.1875C11.5193 4.66713 10.9081 3.22066 10.0539 1.91812C9.81813 1.898 9.58237 1.875 9.34375 1.875C9.19401 1.87573 9.04437 1.88293 8.89525 1.89656L8.63362 1.91812L8.625 1.9325C7.77533 3.23123 7.1671 4.67267 6.82956 6.1875H11.8579ZM5.32737 6.1875C5.60311 4.84293 6.07077 3.545 6.716 2.33356C4.80985 3.01034 3.2336 4.38866 2.30862 6.1875H5.32737ZM1.74369 7.625C1.54228 8.32611 1.43924 9.05179 1.4375 9.78125C1.43924 10.5107 1.54228 11.2364 1.74369 11.9375H5.32737C5.13249 10.9915 5.03328 10.0283 5.03125 9.0625C5.03125 8.5795 5.06431 8.10081 5.11031 7.625H1.74369ZM5.70256 13.375H2.31006C2.85346 14.4364 3.62929 15.3616 4.57979 16.0816C5.53029 16.8017 6.63097 17.298 7.79988 17.5337C6.87986 16.2704 6.1715 14.8658 5.70256 13.375ZM9.34375 17.1758C10.2629 16.0389 10.9815 14.7535 11.4684 13.375H7.21912C7.70606 14.7535 8.42458 16.0389 9.34375 17.1758ZM12.9849 13.375C12.516 14.8658 11.8076 16.2704 10.8876 17.5337C12.0565 17.2978 13.1571 16.8014 14.1075 16.0814C15.058 15.3614 15.8339 14.4363 16.3774 13.375H12.9849Z" fill="#999CAD"/>
</svg>
