<svg width="25" height="25" viewBox="0 0 25 25" fill="none" xmlns="http://www.w3.org/2000/svg">
<path fill-rule="evenodd" clip-rule="evenodd" d="M24.0894 12.6255C24.0894 19.2529 18.7168 24.6255 12.0894 24.6255C5.46194 24.6255 0.0893555 19.2529 0.0893555 12.6255C0.0893555 5.99807 5.46194 0.625488 12.0894 0.625488C18.7168 0.625488 24.0894 5.99807 24.0894 12.6255ZM7.41928 16.0073H6.8387L7.35446 18.262H16.8242L17.34 16.0073H16.7594H7.41928ZM17.7259 8.11587C17.7259 7.49301 18.2304 6.98853 18.8533 6.98853C19.4761 6.98853 19.9806 7.49301 19.9806 8.11587C19.9806 8.72743 19.4931 9.22628 18.8843 9.2404L17.4666 15.4436H16.8889H7.28951H6.71174L5.2941 9.2404C4.68533 9.22628 4.19775 8.72743 4.19775 8.11587C4.19775 7.49301 4.70224 6.98853 5.3251 6.98853C5.94796 6.98853 6.45245 7.49301 6.45245 8.11587C6.45245 8.32162 6.3989 8.51605 6.29462 8.688L9.75276 12.1461L11.3029 8.9219C11.0859 8.71616 10.9618 8.42869 10.9618 8.11587C10.9618 7.49301 11.4663 6.98853 12.0892 6.98853C12.7121 6.98853 13.2165 7.49301 13.2165 8.11587C13.2165 8.43156 13.0869 8.71903 12.8755 8.92187L14.4256 12.1461L17.8838 8.688C17.7795 8.51605 17.7259 8.32162 17.7259 8.11587Z" fill="white"/>
</svg>
